%TF.GenerationSoftware,KiCad,Pcbnew,9.0.0*%
%TF.CreationDate,2025-04-20T11:33:30+05:30*%
%TF.ProjectId,micromouse,6d696372-6f6d-46f7-9573-652e6b696361,rev?*%
%TF.SameCoordinates,Original*%
%TF.FileFunction,Profile,NP*%
%FSLAX46Y46*%
G04 Gerber Fmt 4.6, Leading zero omitted, Abs format (unit mm)*
G04 Created by KiCad (PCBNEW 9.0.0) date 2025-04-20 11:33:30*
%MOMM*%
%LPD*%
G01*
G04 APERTURE LIST*
%TA.AperFunction,Profile*%
%ADD10C,0.050000*%
%TD*%
G04 APERTURE END LIST*
D10*
X87630000Y-74930000D02*
X105410000Y-74930000D01*
X117620000Y-81026000D02*
G75*
G02*
X113520000Y-81026000I-2050000J0D01*
G01*
X113520000Y-81026000D02*
G75*
G02*
X117620000Y-81026000I2050000J0D01*
G01*
X86867203Y-25648440D02*
G75*
G02*
X181356000Y-25648326I47244797J-329697560D01*
G01*
X181356000Y-25648326D02*
G75*
G02*
X183139674Y-27432000I0J-1783674D01*
G01*
X85084440Y-27432000D02*
G75*
G02*
X86867209Y-25648440I1783560J0D01*
G01*
X85084440Y-27432000D02*
X85090000Y-72390000D01*
X155212000Y-81026000D02*
G75*
G02*
X151112000Y-81026000I-2050000J0D01*
G01*
X151112000Y-81026000D02*
G75*
G02*
X155212000Y-81026000I2050000J0D01*
G01*
X160528000Y-77470000D02*
X160528000Y-118618000D01*
X87630000Y-74930000D02*
G75*
G02*
X85090000Y-72390000I0J2540000D01*
G01*
X105410000Y-74930000D02*
G75*
G02*
X107696000Y-77216000I0J-2286000D01*
G01*
X183138774Y-72379636D02*
X183139674Y-27432000D01*
X105682000Y-47516000D02*
G75*
G02*
X101582000Y-47516000I-2050000J0D01*
G01*
X101582000Y-47516000D02*
G75*
G02*
X105682000Y-47516000I2050000J0D01*
G01*
X160528000Y-118618000D02*
G75*
G02*
X157988000Y-121158000I-2540000J0D01*
G01*
X107696000Y-77216000D02*
X107696000Y-118364000D01*
X110490000Y-121158000D02*
G75*
G02*
X107696000Y-118364000I0J2794000D01*
G01*
X180598774Y-74919573D02*
X163068000Y-74930000D01*
X110490000Y-121158000D02*
X157988000Y-121158000D01*
X168420000Y-47498000D02*
G75*
G02*
X164320000Y-47498000I-2050000J0D01*
G01*
X164320000Y-47498000D02*
G75*
G02*
X168420000Y-47498000I2050000J0D01*
G01*
X160528000Y-77470000D02*
G75*
G02*
X163068000Y-74930000I2540000J0D01*
G01*
X183138774Y-72379636D02*
G75*
G02*
X180598774Y-74919574I-2539974J36D01*
G01*
%TO.C,REF\u002A\u002A*%
X146815732Y-92325268D02*
X146815732Y-91309268D01*
X146815732Y-109311999D02*
X146815732Y-108295999D01*
X148847732Y-92325264D02*
X148847732Y-91309268D01*
X148847732Y-109311995D02*
X148847732Y-108295999D01*
X146815732Y-91309268D02*
G75*
G02*
X148847732Y-91309268I1016000J-254000D01*
G01*
X146815732Y-108295999D02*
G75*
G02*
X148847732Y-108295999I1016000J-254000D01*
G01*
X148847732Y-92325268D02*
G75*
G02*
X146815732Y-92325268I-1016000J254000D01*
G01*
X148847732Y-109311999D02*
G75*
G02*
X146815732Y-109311999I-1016000J254000D01*
G01*
X119376268Y-91090273D02*
X119376268Y-92106269D01*
X119376268Y-108077004D02*
X119376268Y-109093000D01*
X121408268Y-91090269D02*
X121408268Y-92106269D01*
X121408268Y-108077000D02*
X121408268Y-109093000D01*
X119376268Y-91090269D02*
G75*
G02*
X121408268Y-91090269I1016000J-254000D01*
G01*
X119376268Y-108077000D02*
G75*
G02*
X121408268Y-108077000I1016000J-254000D01*
G01*
X121408268Y-92106269D02*
G75*
G02*
X119376268Y-92106269I-1016000J254000D01*
G01*
X121408268Y-109093000D02*
G75*
G02*
X119376268Y-109093000I-1016000J254000D01*
G01*
X126518987Y-45556500D02*
X125502987Y-45556500D01*
X126518988Y-42508501D02*
X125502987Y-42508500D01*
X142520987Y-45556500D02*
X141504987Y-45556500D01*
X142520988Y-42508501D02*
X141504987Y-42508500D01*
X125502987Y-45556500D02*
G75*
G02*
X125502987Y-42508500I254003J1524000D01*
G01*
X126518987Y-42508500D02*
G75*
G02*
X126518987Y-45556500I-253997J-1524000D01*
G01*
X141504987Y-45556500D02*
G75*
G02*
X141504987Y-42508500I254000J1524000D01*
G01*
X142520987Y-42508500D02*
G75*
G02*
X142520987Y-45556500I-254000J-1524000D01*
G01*
%TD*%
M02*
