%TF.GenerationSoftware,KiCad,Pcbnew,9.0.0*%
%TF.CreationDate,2025-04-20T11:33:30+05:30*%
%TF.ProjectId,micromouse,6d696372-6f6d-46f7-9573-652e6b696361,rev?*%
%TF.SameCoordinates,Original*%
%TF.FileFunction,Copper,L2,Bot*%
%TF.FilePolarity,Positive*%
%FSLAX46Y46*%
G04 Gerber Fmt 4.6, Leading zero omitted, Abs format (unit mm)*
G04 Created by KiCad (PCBNEW 9.0.0) date 2025-04-20 11:33:30*
%MOMM*%
%LPD*%
G01*
G04 APERTURE LIST*
G04 Aperture macros list*
%AMOutline5P*
0 Free polygon, 5 corners , with rotation*
0 The origin of the aperture is its center*
0 number of corners: always 5*
0 $1 to $10 corner X, Y*
0 $11 Rotation angle, in degrees counterclockwise*
0 create outline with 5 corners*
4,1,5,$1,$2,$3,$4,$5,$6,$7,$8,$9,$10,$1,$2,$11*%
%AMOutline6P*
0 Free polygon, 6 corners , with rotation*
0 The origin of the aperture is its center*
0 number of corners: always 6*
0 $1 to $12 corner X, Y*
0 $13 Rotation angle, in degrees counterclockwise*
0 create outline with 6 corners*
4,1,6,$1,$2,$3,$4,$5,$6,$7,$8,$9,$10,$11,$12,$1,$2,$13*%
%AMOutline7P*
0 Free polygon, 7 corners , with rotation*
0 The origin of the aperture is its center*
0 number of corners: always 7*
0 $1 to $14 corner X, Y*
0 $15 Rotation angle, in degrees counterclockwise*
0 create outline with 7 corners*
4,1,7,$1,$2,$3,$4,$5,$6,$7,$8,$9,$10,$11,$12,$13,$14,$1,$2,$15*%
%AMOutline8P*
0 Free polygon, 8 corners , with rotation*
0 The origin of the aperture is its center*
0 number of corners: always 8*
0 $1 to $16 corner X, Y*
0 $17 Rotation angle, in degrees counterclockwise*
0 create outline with 8 corners*
4,1,8,$1,$2,$3,$4,$5,$6,$7,$8,$9,$10,$11,$12,$13,$14,$15,$16,$1,$2,$17*%
G04 Aperture macros list end*
%TA.AperFunction,ComponentPad*%
%ADD10R,1.950000X1.950000*%
%TD*%
%TA.AperFunction,ComponentPad*%
%ADD11C,1.950000*%
%TD*%
%TA.AperFunction,ComponentPad*%
%ADD12C,6.000000*%
%TD*%
%TA.AperFunction,ComponentPad*%
%ADD13R,6.000000X6.000000*%
%TD*%
%TA.AperFunction,ComponentPad*%
%ADD14Outline5P,-0.800000X0.480000X-0.480000X0.800000X0.800000X0.800000X0.800000X-0.800000X-0.800000X-0.800000X0.000000*%
%TD*%
%TA.AperFunction,ComponentPad*%
%ADD15R,1.500000X1.500000*%
%TD*%
%TA.AperFunction,ComponentPad*%
%ADD16C,1.600000*%
%TD*%
%TA.AperFunction,ComponentPad*%
%ADD17R,1.700000X1.700000*%
%TD*%
%TA.AperFunction,ComponentPad*%
%ADD18O,1.700000X1.700000*%
%TD*%
%TA.AperFunction,ComponentPad*%
%ADD19C,1.700000*%
%TD*%
%TA.AperFunction,ComponentPad*%
%ADD20R,3.200000X1.200000*%
%TD*%
%TA.AperFunction,ComponentPad*%
%ADD21R,1.498000X1.498000*%
%TD*%
%TA.AperFunction,ComponentPad*%
%ADD22C,1.498000*%
%TD*%
%TA.AperFunction,ViaPad*%
%ADD23C,0.700000*%
%TD*%
%TA.AperFunction,Conductor*%
%ADD24C,0.500000*%
%TD*%
%TA.AperFunction,Conductor*%
%ADD25C,0.300000*%
%TD*%
G04 APERTURE END LIST*
D10*
%TO.P,SW2,1,1*%
%TO.N,push button 1*%
X158904000Y-35774000D03*
D11*
%TO.P,SW2,2,2*%
%TO.N,GND*%
X158904000Y-30774000D03*
%TO.P,SW2,3*%
%TO.N,N/C*%
X146404000Y-35774000D03*
%TO.P,SW2,4*%
X146404000Y-30774000D03*
%TD*%
D12*
%TO.P,J1,N,NEG*%
%TO.N,GND*%
X166624000Y-28868000D03*
D13*
%TO.P,J1,P,POS*%
%TO.N,7.4v*%
X166624000Y-36068000D03*
%TD*%
D14*
%TO.P,SW3,1,B*%
%TO.N,slide_SW*%
X131572000Y-117094000D03*
D15*
%TO.P,SW3,2,C*%
%TO.N,3.3v*%
X134112000Y-117094000D03*
D16*
%TO.P,SW3,3,A*%
%TO.N,GND*%
X136652000Y-117094000D03*
%TD*%
D17*
%TO.P,U3,1,motor_1*%
%TO.N,AO1*%
X157480000Y-117348000D03*
D18*
%TO.P,U3,2,gnd*%
%TO.N,GND*%
X154940000Y-117348000D03*
%TO.P,U3,3,c1*%
%TO.N,encoder A1*%
X152400000Y-117348000D03*
%TO.P,U3,4,c2*%
%TO.N,encoder B1*%
X149860000Y-117348000D03*
%TO.P,U3,5,vcc*%
%TO.N,3.3v*%
X147320000Y-117348000D03*
%TO.P,U3,6,motor_2*%
%TO.N,AO2*%
X144780000Y-117348000D03*
%TD*%
D17*
%TO.P,U2,1,B12*%
%TO.N,STBY*%
X88900000Y-70866000D03*
D19*
%TO.P,U2,2,B13*%
%TO.N,XSHUT 1*%
X91440000Y-70866000D03*
%TO.P,U2,3,B14*%
%TO.N,XSHUT 2*%
X93980000Y-70866000D03*
%TO.P,U2,4,B15*%
%TO.N,XSHUT 3*%
X96520000Y-70866000D03*
%TO.P,U2,5,A8*%
%TO.N,push button*%
X99060000Y-70866000D03*
%TO.P,U2,6,A9*%
%TO.N,Tx*%
X101600000Y-70866000D03*
%TO.P,U2,7,A10*%
%TO.N,Rx*%
X104140000Y-70866000D03*
%TO.P,U2,8,A11*%
%TO.N,unconnected-(U2-A11-Pad8)*%
X106680000Y-70866000D03*
%TO.P,U2,9,A12*%
%TO.N,slide_SW*%
X109220000Y-70866000D03*
%TO.P,U2,10,A15*%
%TO.N,encoder B1*%
X111760000Y-70866000D03*
%TO.P,U2,11,B3*%
%TO.N,encoder A1*%
X114300000Y-70866000D03*
%TO.P,U2,12,B4*%
%TO.N,unconnected-(U2-B4-Pad12)*%
X116840000Y-70866000D03*
%TO.P,U2,13,B5*%
%TO.N,push button 1*%
X119380000Y-70866000D03*
%TO.P,U2,14,B6*%
%TO.N,SCL*%
X121920000Y-70866000D03*
%TO.P,U2,15,B7*%
%TO.N,SDA*%
X124460000Y-70866000D03*
%TO.P,U2,16,B8*%
%TO.N,encoder B2*%
X127000000Y-70866000D03*
%TO.P,U2,17,B9*%
%TO.N,encoder A2*%
X129540000Y-70866000D03*
%TO.P,U2,18,5V*%
%TO.N,unconnected-(U2-5V-Pad18)*%
X132080000Y-70866000D03*
%TO.P,U2,19,GND*%
%TO.N,GND*%
X134620000Y-70866000D03*
%TO.P,U2,20,3V3*%
%TO.N,3.3v*%
X137160000Y-70866000D03*
%TO.P,U2,21,VB*%
%TO.N,unconnected-(U2-VB-Pad21)*%
X137160000Y-55626000D03*
%TO.P,U2,22,C13*%
%TO.N,unconnected-(U2-C13-Pad22)*%
X134620000Y-55626000D03*
%TO.P,U2,23,C14*%
%TO.N,unconnected-(U2-C14-Pad23)*%
X132080000Y-55626000D03*
%TO.P,U2,24,C15*%
%TO.N,unconnected-(U2-C15-Pad24)*%
X129540000Y-55626000D03*
%TO.P,U2,25,R*%
%TO.N,unconnected-(U2-R-Pad25)*%
X127000000Y-55626000D03*
%TO.P,U2,26,A0*%
%TO.N,unconnected-(U2-A0-Pad26)*%
X124460000Y-55626000D03*
%TO.P,U2,27,A1*%
%TO.N,PWM A*%
X121920000Y-55626000D03*
%TO.P,U2,28,A2*%
%TO.N,AIN2*%
X119380000Y-55626000D03*
%TO.P,U2,29,A3*%
%TO.N,AIN1*%
X116840000Y-55626000D03*
%TO.P,U2,30,A4*%
%TO.N,BIN1*%
X114300000Y-55626000D03*
%TO.P,U2,31,A5*%
%TO.N,BIN2*%
X111760000Y-55626000D03*
%TO.P,U2,32,A6*%
%TO.N,PWM B*%
X109220000Y-55626000D03*
%TO.P,U2,33,A7*%
%TO.N,unconnected-(U2-A7-Pad33)*%
X106680000Y-55626000D03*
%TO.P,U2,34,B0*%
%TO.N,unconnected-(U2-B0-Pad34)*%
X104140000Y-55626000D03*
%TO.P,U2,35,B1*%
%TO.N,unconnected-(U2-B1-Pad35)*%
X101600000Y-55626000D03*
%TO.P,U2,36,B2*%
%TO.N,unconnected-(U2-B2-Pad36)*%
X99060000Y-55626000D03*
%TO.P,U2,37,B10*%
%TO.N,unconnected-(U2-B10-Pad37)*%
X96520000Y-55626000D03*
%TO.P,U2,38,3.3*%
%TO.N,unconnected-(U2-3.3-Pad38)*%
X93980000Y-55626000D03*
%TO.P,U2,39,GND*%
%TO.N,GND*%
X91440000Y-55626000D03*
D17*
%TO.P,U2,40,5V*%
%TO.N,5v*%
X88900000Y-55626000D03*
%TD*%
D10*
%TO.P,SW4,1,1*%
%TO.N,push button*%
X173522000Y-68988000D03*
D11*
%TO.P,SW4,2,2*%
%TO.N,GND*%
X178522000Y-68988000D03*
%TO.P,SW4,3*%
%TO.N,N/C*%
X173522000Y-56488000D03*
%TO.P,SW4,4*%
X178522000Y-56488000D03*
%TD*%
D19*
%TO.P,U5,1,VM*%
%TO.N,7.4vb*%
X166116000Y-54610000D03*
%TO.P,U5,2,VCC*%
%TO.N,3.3v*%
X163576000Y-54610000D03*
%TO.P,U5,3,GND*%
%TO.N,GND*%
X161036000Y-54610000D03*
%TO.P,U5,4,A01*%
%TO.N,AO1*%
X158496000Y-54610000D03*
%TO.P,U5,5,A02*%
%TO.N,AO2*%
X155956000Y-54610000D03*
%TO.P,U5,6,B02*%
%TO.N,BO2*%
X153416000Y-54610000D03*
%TO.P,U5,7,B01*%
%TO.N,BO1*%
X150876000Y-54610000D03*
%TO.P,U5,8,GND*%
%TO.N,GND*%
X148336000Y-54610000D03*
%TO.P,U5,9,GND*%
X148336000Y-69850000D03*
%TO.P,U5,10,PWMB*%
%TO.N,PWM B*%
X150876000Y-69850000D03*
%TO.P,U5,11,BI2*%
%TO.N,BIN2*%
X153416000Y-69850000D03*
%TO.P,U5,12,BI1*%
%TO.N,BIN1*%
X155956000Y-69850000D03*
%TO.P,U5,13,STBY*%
%TO.N,STBY*%
X158496000Y-69850000D03*
%TO.P,U5,14,AI1*%
%TO.N,AIN1*%
X161036000Y-69850000D03*
%TO.P,U5,15,AI2*%
%TO.N,AIN2*%
X163576000Y-69850000D03*
%TO.P,U5,16,PWMA*%
%TO.N,PWM A*%
X166116000Y-69850000D03*
%TD*%
D17*
%TO.P,U4,1,motor_1*%
%TO.N,BO1*%
X112014000Y-117094000D03*
D18*
%TO.P,U4,2,gnd*%
%TO.N,GND*%
X114554000Y-117094000D03*
%TO.P,U4,3,c1*%
%TO.N,encoder A2*%
X117094000Y-117094000D03*
%TO.P,U4,4,c2*%
%TO.N,encoder B2*%
X119634000Y-117094000D03*
%TO.P,U4,5,vcc*%
%TO.N,3.3v*%
X122174000Y-117094000D03*
%TO.P,U4,6,motor_2*%
%TO.N,BO2*%
X124714000Y-117094000D03*
%TD*%
D17*
%TO.P,U10,1*%
%TO.N,3.3v*%
X137160000Y-86868000D03*
D18*
%TO.P,U10,2*%
%TO.N,GND*%
X134620000Y-86868000D03*
%TO.P,U10,3*%
%TO.N,Rx*%
X132080000Y-86868000D03*
%TO.P,U10,4*%
%TO.N,Tx*%
X129540000Y-86868000D03*
%TD*%
D20*
%TO.P,SW1,1,A*%
%TO.N,7.4v*%
X102616000Y-35894000D03*
%TO.P,SW1,2,B*%
%TO.N,7.4vb*%
X102616000Y-40894000D03*
%TD*%
D21*
%TO.P,U1,1,IN+*%
%TO.N,7.4vb*%
X111760000Y-28956000D03*
D22*
%TO.P,U1,2,OUT+*%
%TO.N,5v*%
X111760000Y-43815000D03*
%TO.P,U1,3,IN-*%
%TO.N,GND*%
X120396000Y-28956000D03*
%TO.P,U1,4,OUT-*%
X120396000Y-43815000D03*
%TD*%
D19*
%TO.P,ACC1,1,VCC*%
%TO.N,3.3v*%
X143002000Y-79502000D03*
%TO.P,ACC1,2,GND*%
%TO.N,GND*%
X140462000Y-79502000D03*
%TO.P,ACC1,3,SCL*%
%TO.N,SCL*%
X137922000Y-79502000D03*
%TO.P,ACC1,4,SDA*%
%TO.N,SDA*%
X135382000Y-79502000D03*
%TO.P,ACC1,5,XDA*%
%TO.N,unconnected-(ACC1-XDA-Pad5)*%
X132842000Y-79502000D03*
%TO.P,ACC1,6,XCL*%
%TO.N,unconnected-(ACC1-XCL-Pad6)*%
X130302000Y-79502000D03*
%TO.P,ACC1,7,AD0*%
%TO.N,unconnected-(ACC1-AD0-Pad7)*%
X127762000Y-79502000D03*
%TO.P,ACC1,8,INT*%
%TO.N,unconnected-(ACC1-INT-Pad8)*%
X125222000Y-79502000D03*
%TD*%
%TO.P,U8,1,GPIO1*%
%TO.N,unconnected-(U8-GPIO1-Pad1)*%
X93218000Y-47756000D03*
%TO.P,U8,2,~{XSHUT}*%
%TO.N,XSHUT 2*%
X93218000Y-45216000D03*
%TO.P,U8,3,SCL*%
%TO.N,SCL*%
X93218000Y-42676000D03*
%TO.P,U8,4,SDA*%
%TO.N,SDA*%
X93218000Y-40136000D03*
%TO.P,U8,5,Vin*%
%TO.N,3.3v*%
X93218000Y-37596000D03*
D17*
%TO.P,U8,6,GND*%
%TO.N,GND*%
X93218000Y-35056000D03*
%TD*%
D19*
%TO.P,U6,1,GPIO1*%
%TO.N,unconnected-(U6-GPIO1-Pad1)*%
X175006000Y-35056000D03*
%TO.P,U6,2,~{XSHUT}*%
%TO.N,XSHUT 3*%
X175006000Y-37596000D03*
%TO.P,U6,3,SCL*%
%TO.N,SCL*%
X175006000Y-40136000D03*
%TO.P,U6,4,SDA*%
%TO.N,SDA*%
X175006000Y-42676000D03*
%TO.P,U6,5,Vin*%
%TO.N,3.3v*%
X175006000Y-45216000D03*
D17*
%TO.P,U6,6,GND*%
%TO.N,GND*%
X175006000Y-47756000D03*
%TD*%
D19*
%TO.P,U7,1,GPIO1*%
%TO.N,unconnected-(U7-GPIO1-Pad1)*%
X127766000Y-30988000D03*
%TO.P,U7,2,~{XSHUT}*%
%TO.N,XSHUT 1*%
X130306000Y-30988000D03*
%TO.P,U7,3,SCL*%
%TO.N,SCL*%
X132846000Y-30988000D03*
%TO.P,U7,4,SDA*%
%TO.N,SDA*%
X135386000Y-30988000D03*
%TO.P,U7,5,Vin*%
%TO.N,3.3v*%
X137926000Y-30988000D03*
D17*
%TO.P,U7,6,GND*%
%TO.N,GND*%
X140466000Y-30988000D03*
%TD*%
D23*
%TO.N,GND*%
X89662000Y-50800000D03*
X89662000Y-52578000D03*
X148336000Y-72898000D03*
X157480000Y-58073000D03*
%TO.N,push button*%
X146558000Y-72898000D03*
%TO.N,XSHUT 3*%
X162560000Y-43434000D03*
%TO.N,push button 1*%
X154940000Y-44450000D03*
%TO.N,Tx*%
X113792000Y-100076000D03*
%TO.N,Rx*%
X114046000Y-93472000D03*
%TD*%
D24*
%TO.N,3.3v*%
X137160000Y-86868000D02*
X137160000Y-105410000D01*
X134112000Y-108458000D02*
X134112000Y-117094000D01*
X137160000Y-105410000D02*
X134112000Y-108458000D01*
%TO.N,GND*%
X93218000Y-35052000D02*
X99568000Y-28702000D01*
X140462000Y-113284000D02*
X140462000Y-79502000D01*
X140970000Y-30988000D02*
X143256000Y-33274000D01*
X136652000Y-117094000D02*
X139192000Y-119634000D01*
X152654000Y-119634000D02*
X154940000Y-117348000D01*
X176530000Y-53340000D02*
X176530000Y-66996000D01*
X162560000Y-53086000D02*
X169672000Y-53086000D01*
X149387331Y-30774000D02*
X158904000Y-30774000D01*
X136652000Y-117094000D02*
X140462000Y-113284000D01*
X175006000Y-51816000D02*
X176530000Y-53340000D01*
X161036000Y-54610000D02*
X162560000Y-53086000D01*
X176530000Y-66996000D02*
X178522000Y-68988000D01*
X143256000Y-33274000D02*
X146887331Y-33274000D01*
X112395000Y-51816000D02*
X120396000Y-43815000D01*
X140462000Y-30988000D02*
X140970000Y-30988000D01*
X91440000Y-55626000D02*
X95250000Y-51816000D01*
X169672000Y-53086000D02*
X174998000Y-47760000D01*
X99568000Y-28702000D02*
X105918000Y-28702000D01*
X146887331Y-33274000D02*
X149387331Y-30774000D01*
X139192000Y-119634000D02*
X152654000Y-119634000D01*
X158904000Y-30774000D02*
X160810000Y-28868000D01*
X95250000Y-51816000D02*
X112395000Y-51816000D01*
X148336000Y-69850000D02*
X157480000Y-60706000D01*
X174998000Y-47760000D02*
X175006000Y-47760000D01*
X175006000Y-47760000D02*
X175006000Y-51816000D01*
X105918000Y-28702000D02*
X108712000Y-31496000D01*
X117856000Y-31496000D02*
X120396000Y-28956000D01*
X148336000Y-69850000D02*
X148336000Y-72898000D01*
X108712000Y-31496000D02*
X117856000Y-31496000D01*
X157480000Y-60706000D02*
X157480000Y-58073000D01*
X160810000Y-28868000D02*
X166624000Y-28868000D01*
X89662000Y-52578000D02*
X89662000Y-50800000D01*
D25*
%TO.N,SDA*%
X93218000Y-40132000D02*
X85491966Y-47858034D01*
X87630000Y-74422000D02*
X120904000Y-74422000D01*
X133350000Y-28956000D02*
X135382000Y-30988000D01*
X175006000Y-42680000D02*
X179070000Y-38616000D01*
X141478000Y-24892000D02*
X135382000Y-30988000D01*
X135382000Y-30988000D02*
X135382000Y-30734000D01*
X100330000Y-33020000D02*
X120396000Y-33020000D01*
X85491966Y-47858034D02*
X85494988Y-72286988D01*
X120904000Y-74422000D02*
X124460000Y-70866000D01*
X120396000Y-33020000D02*
X124460000Y-28956000D01*
X124460000Y-28956000D02*
X133350000Y-28956000D01*
X179070000Y-38616000D02*
X179070000Y-34036000D01*
X93218000Y-40132000D02*
X100330000Y-33020000D01*
X169926000Y-24892000D02*
X141478000Y-24892000D01*
X85494988Y-72286988D02*
X87630000Y-74422000D01*
X179070000Y-34036000D02*
X169926000Y-24892000D01*
%TO.N,SCL*%
X86106000Y-49784000D02*
X86106000Y-71882000D01*
X175006000Y-40140000D02*
X141994000Y-40140000D01*
X141994000Y-40140000D02*
X132842000Y-30988000D01*
X93218000Y-42672000D02*
X86106000Y-49784000D01*
X86106000Y-71882000D02*
X87884000Y-73660000D01*
X123952000Y-39878000D02*
X132842000Y-30988000D01*
X119126000Y-73660000D02*
X121920000Y-70866000D01*
X96012000Y-39878000D02*
X123952000Y-39878000D01*
X87884000Y-73660000D02*
X119126000Y-73660000D01*
X93218000Y-42672000D02*
X96012000Y-39878000D01*
%TO.N,push button*%
X147574000Y-73914000D02*
X146558000Y-72898000D01*
X173522000Y-68988000D02*
X168596000Y-73914000D01*
X168596000Y-73914000D02*
X147574000Y-73914000D01*
%TO.N,XSHUT 2*%
X86868000Y-51562000D02*
X86868000Y-71120000D01*
X93218000Y-45212000D02*
X86868000Y-51562000D01*
X91687000Y-73159000D02*
X93980000Y-70866000D01*
X88907000Y-73159000D02*
X91687000Y-73159000D01*
X86868000Y-71120000D02*
X88907000Y-73159000D01*
%TO.N,encoder A2*%
X129540000Y-70866000D02*
X126739000Y-73667000D01*
X114554000Y-119634000D02*
X117094000Y-117094000D01*
X112014000Y-76200000D02*
X109728000Y-78486000D01*
X120850520Y-76200000D02*
X112014000Y-76200000D01*
X109728000Y-78486000D02*
X109728000Y-117602000D01*
X126739000Y-73667000D02*
X123383520Y-73667000D01*
X111760000Y-119634000D02*
X114554000Y-119634000D01*
X123383520Y-73667000D02*
X120850520Y-76200000D01*
X109728000Y-117602000D02*
X111760000Y-119634000D01*
%TO.N,XSHUT 3*%
X103886000Y-63500000D02*
X96520000Y-70866000D01*
X152908000Y-43434000D02*
X132842000Y-63500000D01*
X132842000Y-63500000D02*
X103886000Y-63500000D01*
X162560000Y-43434000D02*
X152908000Y-43434000D01*
%TO.N,push button 1*%
X123444000Y-66802000D02*
X132588000Y-66802000D01*
X132588000Y-66802000D02*
X154940000Y-44450000D01*
X119380000Y-70866000D02*
X123444000Y-66802000D01*
%TO.N,encoder B2*%
X127000000Y-70866000D02*
X125476000Y-72390000D01*
X123952000Y-72390000D02*
X121158000Y-75184000D01*
X111506000Y-120396000D02*
X116332000Y-120396000D01*
X111506000Y-75184000D02*
X108966000Y-77724000D01*
X121158000Y-75184000D02*
X111506000Y-75184000D01*
X108966000Y-77724000D02*
X108966000Y-117856000D01*
X108966000Y-117856000D02*
X111506000Y-120396000D01*
X116332000Y-120396000D02*
X119634000Y-117094000D01*
X125476000Y-72390000D02*
X123952000Y-72390000D01*
%TO.N,Tx*%
X116332000Y-100076000D02*
X113792000Y-100076000D01*
X129540000Y-86868000D02*
X116332000Y-100076000D01*
D24*
%TO.N,5v*%
X88900000Y-55626000D02*
X100711000Y-43815000D01*
X100711000Y-43815000D02*
X111760000Y-43815000D01*
D25*
%TO.N,Rx*%
X130879000Y-85667000D02*
X121851000Y-85667000D01*
X121851000Y-85667000D02*
X114046000Y-93472000D01*
X132080000Y-86868000D02*
X130879000Y-85667000D01*
%TO.N,AO2*%
X143971520Y-72637000D02*
X141732000Y-74876520D01*
X141732000Y-74876520D02*
X141732000Y-114300000D01*
X144265000Y-66301000D02*
X144265000Y-71928480D01*
X155956000Y-54610000D02*
X144265000Y-66301000D01*
X144265000Y-72343520D02*
X144265000Y-72343521D01*
X141732000Y-114300000D02*
X144780000Y-117348000D01*
X144265000Y-71928480D02*
X144265000Y-72343520D01*
X144265000Y-72343520D02*
X143971521Y-72637000D01*
X143971521Y-72637000D02*
X143971520Y-72637000D01*
%TO.N,AO1*%
X144472522Y-72844522D02*
X144272000Y-73045044D01*
X144766000Y-68340000D02*
X144766000Y-71720959D01*
X144766000Y-72135999D02*
X144766000Y-72136001D01*
X144272000Y-73045044D02*
X144272000Y-97536000D01*
X157480000Y-110744000D02*
X157480000Y-117348000D01*
X144766000Y-72551041D02*
X144766000Y-72551042D01*
X144766000Y-72551041D02*
X144766000Y-72551040D01*
X158496000Y-54610000D02*
X144766000Y-68340000D01*
X144472521Y-72844520D02*
X144472522Y-72844522D01*
X144766000Y-71720959D02*
X144766000Y-72135999D01*
X144272000Y-97536000D02*
X157480000Y-110744000D01*
X144766000Y-72136001D02*
X144766000Y-72551041D01*
X144766000Y-72551042D02*
X144531217Y-72785824D01*
X144472520Y-72844520D02*
X144472521Y-72844520D01*
X144472522Y-72844519D02*
X144472520Y-72844520D01*
X144531217Y-72785824D02*
X144472522Y-72844519D01*
%TO.N,BO2*%
X123190000Y-82550000D02*
X123183000Y-82557000D01*
X140716000Y-75184000D02*
X124714000Y-75184000D01*
X143764000Y-72136000D02*
X140716000Y-75184000D01*
X124714000Y-75184000D02*
X123190000Y-76708000D01*
X112522000Y-93418521D02*
X112522000Y-104140000D01*
X123183000Y-82757520D02*
X123183000Y-82757521D01*
X143764000Y-64262000D02*
X143764000Y-72136000D01*
X123183000Y-82757520D02*
X112522000Y-93418521D01*
X112522000Y-104140000D02*
X124714000Y-116332000D01*
X124714000Y-116332000D02*
X124714000Y-117094000D01*
X153416000Y-54610000D02*
X143764000Y-64262000D01*
X123183000Y-82557000D02*
X123183000Y-82757520D01*
X123190000Y-76708000D02*
X123190000Y-82550000D01*
%TO.N,BO1*%
X122682000Y-82550000D02*
X112014000Y-93218000D01*
X122682000Y-75184000D02*
X122682000Y-82550000D01*
X142494000Y-62992000D02*
X142494000Y-71120000D01*
X150876000Y-54610000D02*
X142494000Y-62992000D01*
X123698000Y-74168000D02*
X122682000Y-75184000D01*
X142494000Y-71120000D02*
X139446000Y-74168000D01*
X112014000Y-93218000D02*
X112014000Y-117094000D01*
X139446000Y-74168000D02*
X123698000Y-74168000D01*
%TD*%
%TA.AperFunction,Conductor*%
%TO.N,GND*%
G36*
X170833053Y-24567384D02*
G01*
X170877633Y-24572102D01*
X170878887Y-24572241D01*
X174362846Y-24978094D01*
X174363903Y-24978222D01*
X177632401Y-25393947D01*
X177843445Y-25420790D01*
X177844742Y-25420962D01*
X181281759Y-25894992D01*
X181294513Y-25896779D01*
X181311125Y-25902826D01*
X181337664Y-25902826D01*
X181346228Y-25904026D01*
X181346298Y-25904057D01*
X181346608Y-25904080D01*
X181352037Y-25904857D01*
X181364322Y-25906618D01*
X181364328Y-25906616D01*
X181375164Y-25906268D01*
X181375177Y-25906680D01*
X181392998Y-25905472D01*
X181564784Y-25917758D01*
X181582285Y-25920275D01*
X181778155Y-25962883D01*
X181795120Y-25967864D01*
X181982938Y-26037916D01*
X181999021Y-26045261D01*
X182072974Y-26085643D01*
X182174951Y-26141327D01*
X182189834Y-26150892D01*
X182350296Y-26271012D01*
X182363667Y-26282598D01*
X182505401Y-26424332D01*
X182516987Y-26437703D01*
X182637107Y-26598165D01*
X182646672Y-26613048D01*
X182742735Y-26788973D01*
X182750085Y-26805067D01*
X182820133Y-26992874D01*
X182825117Y-27009849D01*
X182867723Y-27205708D01*
X182870241Y-27223221D01*
X182884856Y-27427580D01*
X182885172Y-27436427D01*
X182884274Y-72361297D01*
X182884274Y-72375879D01*
X182884048Y-72383367D01*
X182868060Y-72647626D01*
X182866254Y-72662492D01*
X182819205Y-72919205D01*
X182815622Y-72933743D01*
X182737976Y-73182907D01*
X182732666Y-73196908D01*
X182625550Y-73434902D01*
X182618591Y-73448160D01*
X182483573Y-73671501D01*
X182475071Y-73683818D01*
X182408596Y-73768666D01*
X182314107Y-73889269D01*
X182304177Y-73900476D01*
X182119636Y-74085012D01*
X182108428Y-74094942D01*
X181902975Y-74255900D01*
X181890652Y-74264405D01*
X181667311Y-74399417D01*
X181654051Y-74406376D01*
X181416057Y-74513484D01*
X181402057Y-74518794D01*
X181152884Y-74596437D01*
X181138345Y-74600020D01*
X180881640Y-74647060D01*
X180866776Y-74648865D01*
X180602493Y-74664849D01*
X180595081Y-74665075D01*
X169041368Y-74671947D01*
X168974317Y-74652302D01*
X168928530Y-74599526D01*
X168918546Y-74530373D01*
X168947533Y-74466800D01*
X168972404Y-74444845D01*
X168996087Y-74429019D01*
X169010669Y-74419277D01*
X172930127Y-70499817D01*
X172991450Y-70466333D01*
X173017808Y-70463499D01*
X174544871Y-70463499D01*
X174544872Y-70463499D01*
X174604483Y-70457091D01*
X174739331Y-70406796D01*
X174854546Y-70320546D01*
X174940796Y-70205331D01*
X174954904Y-70167505D01*
X174979274Y-70102168D01*
X174979274Y-70102167D01*
X174991090Y-70070485D01*
X174991091Y-70070483D01*
X174997500Y-70010873D01*
X174997499Y-68871909D01*
X177047000Y-68871909D01*
X177047000Y-69104090D01*
X177083318Y-69333393D01*
X177155065Y-69554205D01*
X177260465Y-69761064D01*
X177317238Y-69839207D01*
X177920958Y-69235487D01*
X177945978Y-69295890D01*
X178017112Y-69402351D01*
X178107649Y-69492888D01*
X178214110Y-69564022D01*
X178274510Y-69589041D01*
X177670791Y-70192759D01*
X177670791Y-70192760D01*
X177748935Y-70249534D01*
X177955794Y-70354934D01*
X178176606Y-70426681D01*
X178405910Y-70463000D01*
X178638090Y-70463000D01*
X178867393Y-70426681D01*
X179088205Y-70354934D01*
X179295071Y-70249530D01*
X179373207Y-70192762D01*
X179373208Y-70192760D01*
X178769488Y-69589041D01*
X178829890Y-69564022D01*
X178936351Y-69492888D01*
X179026888Y-69402351D01*
X179098022Y-69295890D01*
X179123041Y-69235489D01*
X179726760Y-69839208D01*
X179726762Y-69839207D01*
X179783530Y-69761071D01*
X179888934Y-69554205D01*
X179960681Y-69333393D01*
X179997000Y-69104090D01*
X179997000Y-68871909D01*
X179960681Y-68642606D01*
X179888934Y-68421794D01*
X179783534Y-68214935D01*
X179726760Y-68136791D01*
X179726759Y-68136791D01*
X179123041Y-68740510D01*
X179098022Y-68680110D01*
X179026888Y-68573649D01*
X178936351Y-68483112D01*
X178829890Y-68411978D01*
X178769487Y-68386957D01*
X179373207Y-67783238D01*
X179295064Y-67726465D01*
X179088205Y-67621065D01*
X178867393Y-67549318D01*
X178638090Y-67513000D01*
X178405910Y-67513000D01*
X178176606Y-67549318D01*
X177955794Y-67621065D01*
X177748925Y-67726470D01*
X177670791Y-67783237D01*
X177670791Y-67783238D01*
X178274511Y-68386958D01*
X178214110Y-68411978D01*
X178107649Y-68483112D01*
X178017112Y-68573649D01*
X177945978Y-68680110D01*
X177920958Y-68740511D01*
X177317238Y-68136791D01*
X177317237Y-68136791D01*
X177260470Y-68214925D01*
X177155065Y-68421794D01*
X177083318Y-68642606D01*
X177047000Y-68871909D01*
X174997499Y-68871909D01*
X174997499Y-67965128D01*
X174991091Y-67905517D01*
X174988364Y-67898207D01*
X174979273Y-67873829D01*
X174940797Y-67770671D01*
X174940793Y-67770664D01*
X174854547Y-67655455D01*
X174854544Y-67655452D01*
X174739335Y-67569206D01*
X174739328Y-67569202D01*
X174604482Y-67518908D01*
X174604483Y-67518908D01*
X174544883Y-67512501D01*
X174544881Y-67512500D01*
X174544873Y-67512500D01*
X174544864Y-67512500D01*
X172499129Y-67512500D01*
X172499123Y-67512501D01*
X172439516Y-67518908D01*
X172304671Y-67569202D01*
X172304664Y-67569206D01*
X172189455Y-67655452D01*
X172189452Y-67655455D01*
X172103206Y-67770664D01*
X172103202Y-67770671D01*
X172052908Y-67905517D01*
X172046501Y-67965116D01*
X172046501Y-67965123D01*
X172046500Y-67965135D01*
X172046500Y-69492191D01*
X172026815Y-69559230D01*
X172010181Y-69579872D01*
X168362873Y-73227181D01*
X168301550Y-73260666D01*
X168275192Y-73263500D01*
X147894808Y-73263500D01*
X147827769Y-73243815D01*
X147807127Y-73227181D01*
X147438654Y-72858708D01*
X147405169Y-72797385D01*
X147404718Y-72795218D01*
X147378317Y-72662492D01*
X147375816Y-72649918D01*
X147311703Y-72495137D01*
X147259929Y-72417652D01*
X147218626Y-72355837D01*
X147100162Y-72237373D01*
X146960860Y-72144295D01*
X146806082Y-72080184D01*
X146806074Y-72080182D01*
X146641771Y-72047500D01*
X146641767Y-72047500D01*
X146474233Y-72047500D01*
X146474228Y-72047500D01*
X146309925Y-72080182D01*
X146309917Y-72080184D01*
X146155139Y-72144295D01*
X146015837Y-72237373D01*
X145897373Y-72355837D01*
X145804295Y-72495139D01*
X145740184Y-72649917D01*
X145740182Y-72649925D01*
X145707500Y-72814228D01*
X145707500Y-72981771D01*
X145740182Y-73146074D01*
X145740184Y-73146082D01*
X145804295Y-73300860D01*
X145804296Y-73300862D01*
X145804297Y-73300863D01*
X145804716Y-73301490D01*
X145897373Y-73440162D01*
X146015837Y-73558626D01*
X146027318Y-73566297D01*
X146155137Y-73651703D01*
X146309918Y-73715816D01*
X146394011Y-73732543D01*
X146455218Y-73744718D01*
X146517129Y-73777102D01*
X146518708Y-73778654D01*
X147159325Y-74419272D01*
X147159328Y-74419275D01*
X147245692Y-74476981D01*
X147245691Y-74476981D01*
X147265871Y-74490464D01*
X147265872Y-74490464D01*
X147265873Y-74490465D01*
X147384256Y-74539501D01*
X147384260Y-74539501D01*
X147384261Y-74539502D01*
X147509928Y-74564500D01*
X162180604Y-74564500D01*
X162247643Y-74584185D01*
X162293398Y-74636989D01*
X162303342Y-74706147D01*
X162274317Y-74769703D01*
X162221559Y-74805541D01*
X161996902Y-74884152D01*
X161714120Y-75020333D01*
X161448356Y-75187323D01*
X161202961Y-75383019D01*
X160981019Y-75604961D01*
X160785323Y-75850356D01*
X160618333Y-76116120D01*
X160482152Y-76398902D01*
X160378489Y-76695152D01*
X160378486Y-76695160D01*
X160308643Y-77001166D01*
X160308641Y-77001178D01*
X160273500Y-77313059D01*
X160273500Y-118614249D01*
X160273274Y-118621736D01*
X160257288Y-118886002D01*
X160255483Y-118900866D01*
X160208439Y-119157581D01*
X160204855Y-119172121D01*
X160127213Y-119421282D01*
X160121903Y-119435282D01*
X160014786Y-119673285D01*
X160007828Y-119686543D01*
X159872810Y-119909892D01*
X159864304Y-119922216D01*
X159703344Y-120127665D01*
X159693414Y-120138873D01*
X159508873Y-120323414D01*
X159497665Y-120333344D01*
X159292216Y-120494304D01*
X159279892Y-120502810D01*
X159056543Y-120637828D01*
X159043285Y-120644786D01*
X158805282Y-120751903D01*
X158791282Y-120757213D01*
X158542121Y-120834855D01*
X158527581Y-120838439D01*
X158270866Y-120885483D01*
X158256002Y-120887288D01*
X157991736Y-120903274D01*
X157984249Y-120903500D01*
X117043809Y-120903500D01*
X116976770Y-120883815D01*
X116931015Y-120831011D01*
X116921071Y-120761853D01*
X116950096Y-120698297D01*
X116956128Y-120691819D01*
X118255109Y-119392836D01*
X119203289Y-118444654D01*
X119264610Y-118411171D01*
X119312753Y-118411693D01*
X119312945Y-118410484D01*
X119380799Y-118421231D01*
X119527713Y-118444500D01*
X119527714Y-118444500D01*
X119740286Y-118444500D01*
X119740287Y-118444500D01*
X119950243Y-118411246D01*
X120152412Y-118345557D01*
X120341816Y-118249051D01*
X120407200Y-118201547D01*
X120513786Y-118124109D01*
X120513788Y-118124106D01*
X120513792Y-118124104D01*
X120664104Y-117973792D01*
X120664106Y-117973788D01*
X120664109Y-117973786D01*
X120789048Y-117801820D01*
X120789047Y-117801820D01*
X120789051Y-117801816D01*
X120793514Y-117793054D01*
X120841488Y-117742259D01*
X120909308Y-117725463D01*
X120975444Y-117747999D01*
X121014486Y-117793056D01*
X121018951Y-117801820D01*
X121143890Y-117973786D01*
X121294213Y-118124109D01*
X121466179Y-118249048D01*
X121466181Y-118249049D01*
X121466184Y-118249051D01*
X121655588Y-118345557D01*
X121857757Y-118411246D01*
X122067713Y-118444500D01*
X122067714Y-118444500D01*
X122280286Y-118444500D01*
X122280287Y-118444500D01*
X122490243Y-118411246D01*
X122692412Y-118345557D01*
X122881816Y-118249051D01*
X122947200Y-118201547D01*
X123053786Y-118124109D01*
X123053788Y-118124106D01*
X123053792Y-118124104D01*
X123204104Y-117973792D01*
X123204106Y-117973788D01*
X123204109Y-117973786D01*
X123329048Y-117801820D01*
X123329047Y-117801820D01*
X123329051Y-117801816D01*
X123333514Y-117793054D01*
X123381488Y-117742259D01*
X123449308Y-117725463D01*
X123515444Y-117747999D01*
X123554486Y-117793056D01*
X123558951Y-117801820D01*
X123683890Y-117973786D01*
X123834213Y-118124109D01*
X124006179Y-118249048D01*
X124006181Y-118249049D01*
X124006184Y-118249051D01*
X124195588Y-118345557D01*
X124397757Y-118411246D01*
X124607713Y-118444500D01*
X124607714Y-118444500D01*
X124820286Y-118444500D01*
X124820287Y-118444500D01*
X125030243Y-118411246D01*
X125232412Y-118345557D01*
X125421816Y-118249051D01*
X125487200Y-118201547D01*
X125593786Y-118124109D01*
X125593788Y-118124106D01*
X125593792Y-118124104D01*
X125744104Y-117973792D01*
X125744106Y-117973788D01*
X125744109Y-117973786D01*
X125869048Y-117801820D01*
X125869047Y-117801820D01*
X125869051Y-117801816D01*
X125965557Y-117612412D01*
X126031246Y-117410243D01*
X126064500Y-117200287D01*
X126064500Y-116987713D01*
X126031246Y-116777757D01*
X125965557Y-116575588D01*
X125869051Y-116386184D01*
X125869049Y-116386181D01*
X125869048Y-116386179D01*
X125744109Y-116214213D01*
X125593786Y-116063890D01*
X125421820Y-115938951D01*
X125232416Y-115842444D01*
X125130333Y-115809275D01*
X125080971Y-115779025D01*
X117360756Y-108058810D01*
X119118483Y-108058810D01*
X119118818Y-108062021D01*
X119118818Y-108062025D01*
X119121097Y-108083833D01*
X119121768Y-108096716D01*
X119121768Y-109073283D01*
X119121097Y-109086165D01*
X119118483Y-109111187D01*
X119118769Y-109115240D01*
X119121768Y-109139595D01*
X119121768Y-109143623D01*
X119130442Y-109164564D01*
X119136170Y-109181912D01*
X119155609Y-109259605D01*
X119241936Y-109457846D01*
X119241941Y-109457856D01*
X119289433Y-109530911D01*
X119359794Y-109639145D01*
X119359796Y-109639147D01*
X119359798Y-109639150D01*
X119359801Y-109639154D01*
X119505935Y-109798504D01*
X119505940Y-109798509D01*
X119676374Y-109931579D01*
X119676378Y-109931581D01*
X119676380Y-109931583D01*
X119866422Y-110034709D01*
X119866425Y-110034710D01*
X120070886Y-110105076D01*
X120284153Y-110140747D01*
X120500383Y-110140747D01*
X120713650Y-110105076D01*
X120918111Y-110034710D01*
X121108162Y-109931579D01*
X121278596Y-109798509D01*
X121424742Y-109639145D01*
X121542595Y-109457855D01*
X121628926Y-109259607D01*
X121650588Y-109173026D01*
X121662768Y-109143623D01*
X121662768Y-109124329D01*
X121666053Y-109111190D01*
X121663439Y-109086165D01*
X121662768Y-109073283D01*
X121662768Y-108090256D01*
X121666053Y-108058810D01*
X121662768Y-108045670D01*
X121662768Y-108026377D01*
X121654093Y-108005436D01*
X121648364Y-107988084D01*
X121628928Y-107910401D01*
X121628926Y-107910393D01*
X121602359Y-107849385D01*
X121542599Y-107712153D01*
X121542594Y-107712143D01*
X121517319Y-107673264D01*
X121424742Y-107530855D01*
X121424738Y-107530850D01*
X121424737Y-107530849D01*
X121424734Y-107530845D01*
X121278600Y-107371495D01*
X121278598Y-107371493D01*
X121278597Y-107371492D01*
X121278596Y-107371491D01*
X121108162Y-107238421D01*
X121108158Y-107238418D01*
X121108157Y-107238418D01*
X121108155Y-107238416D01*
X120918113Y-107135290D01*
X120837839Y-107107664D01*
X120713650Y-107064924D01*
X120500383Y-107029253D01*
X120284153Y-107029253D01*
X120070891Y-107064923D01*
X120070890Y-107064923D01*
X120070886Y-107064924D01*
X119986831Y-107093851D01*
X119866422Y-107135290D01*
X119676380Y-107238416D01*
X119676378Y-107238418D01*
X119505937Y-107371493D01*
X119505935Y-107371495D01*
X119359801Y-107530845D01*
X119359798Y-107530849D01*
X119241941Y-107712143D01*
X119241936Y-107712153D01*
X119155612Y-107910387D01*
X119155609Y-107910395D01*
X119136166Y-107988098D01*
X119130439Y-108005444D01*
X119121768Y-108026381D01*
X119121768Y-108030404D01*
X119120710Y-108038992D01*
X119120846Y-108045500D01*
X119119916Y-108053077D01*
X119118483Y-108058810D01*
X117360756Y-108058810D01*
X113208819Y-103906873D01*
X113175334Y-103845550D01*
X113172500Y-103819192D01*
X113172500Y-100916938D01*
X113192185Y-100849899D01*
X113244989Y-100804144D01*
X113314147Y-100794200D01*
X113365389Y-100813835D01*
X113389137Y-100829703D01*
X113543918Y-100893816D01*
X113708228Y-100926499D01*
X113708232Y-100926500D01*
X113708233Y-100926500D01*
X113875768Y-100926500D01*
X113875769Y-100926499D01*
X114040082Y-100893816D01*
X114194863Y-100829703D01*
X114318041Y-100747398D01*
X114384719Y-100726520D01*
X114386932Y-100726500D01*
X116396071Y-100726500D01*
X116480615Y-100709682D01*
X116521744Y-100701501D01*
X116640127Y-100652465D01*
X116746669Y-100581277D01*
X129109289Y-88218655D01*
X129170610Y-88185172D01*
X129218754Y-88185685D01*
X129218945Y-88184484D01*
X129286793Y-88195230D01*
X129433713Y-88218500D01*
X129433714Y-88218500D01*
X129646286Y-88218500D01*
X129646287Y-88218500D01*
X129856243Y-88185246D01*
X130058412Y-88119557D01*
X130247816Y-88023051D01*
X130334138Y-87960335D01*
X130419786Y-87898109D01*
X130419788Y-87898106D01*
X130419792Y-87898104D01*
X130570104Y-87747792D01*
X130570106Y-87747788D01*
X130570109Y-87747786D01*
X130695048Y-87575820D01*
X130695047Y-87575820D01*
X130695051Y-87575816D01*
X130699514Y-87567054D01*
X130747488Y-87516259D01*
X130815308Y-87499463D01*
X130881444Y-87521999D01*
X130920486Y-87567056D01*
X130924951Y-87575820D01*
X131049890Y-87747786D01*
X131200213Y-87898109D01*
X131372179Y-88023048D01*
X131372181Y-88023049D01*
X131372184Y-88023051D01*
X131561588Y-88119557D01*
X131763757Y-88185246D01*
X131973713Y-88218500D01*
X131973714Y-88218500D01*
X132186286Y-88218500D01*
X132186287Y-88218500D01*
X132396243Y-88185246D01*
X132598412Y-88119557D01*
X132787816Y-88023051D01*
X132874138Y-87960335D01*
X132959786Y-87898109D01*
X132959788Y-87898106D01*
X132959792Y-87898104D01*
X133110104Y-87747792D01*
X133110106Y-87747788D01*
X133110109Y-87747786D01*
X133235048Y-87575820D01*
X133235051Y-87575816D01*
X133239793Y-87566508D01*
X133287763Y-87515711D01*
X133355583Y-87498911D01*
X133421719Y-87521445D01*
X133460763Y-87566500D01*
X133465377Y-87575555D01*
X133590272Y-87747459D01*
X133590276Y-87747464D01*
X133740535Y-87897723D01*
X133740540Y-87897727D01*
X133912442Y-88022620D01*
X134101782Y-88119095D01*
X134303871Y-88184757D01*
X134370000Y-88195231D01*
X134370000Y-87301012D01*
X134427007Y-87333925D01*
X134554174Y-87368000D01*
X134685826Y-87368000D01*
X134812993Y-87333925D01*
X134870000Y-87301012D01*
X134870000Y-88195230D01*
X134936126Y-88184757D01*
X134936129Y-88184757D01*
X135138217Y-88119095D01*
X135327557Y-88022620D01*
X135499458Y-87897728D01*
X135613133Y-87784053D01*
X135674456Y-87750568D01*
X135744148Y-87755552D01*
X135800082Y-87797423D01*
X135816997Y-87828401D01*
X135866202Y-87960328D01*
X135866206Y-87960335D01*
X135952452Y-88075544D01*
X135952455Y-88075547D01*
X136067664Y-88161793D01*
X136067671Y-88161797D01*
X136077243Y-88165367D01*
X136202517Y-88212091D01*
X136262127Y-88218500D01*
X136285497Y-88218499D01*
X136352536Y-88238181D01*
X136398292Y-88290983D01*
X136409500Y-88342499D01*
X136409500Y-105047770D01*
X136389815Y-105114809D01*
X136373181Y-105135451D01*
X133529049Y-107979582D01*
X133529049Y-107979583D01*
X133529048Y-107979584D01*
X133517430Y-107996973D01*
X133505200Y-108015276D01*
X133446913Y-108102508D01*
X133390343Y-108239082D01*
X133390340Y-108239092D01*
X133361500Y-108384079D01*
X133361500Y-115727023D01*
X133341815Y-115794062D01*
X133289011Y-115839817D01*
X133261865Y-115847266D01*
X133262068Y-115848124D01*
X133254520Y-115849907D01*
X133119671Y-115900202D01*
X133119664Y-115900206D01*
X133004455Y-115986452D01*
X133004454Y-115986453D01*
X132984980Y-116012467D01*
X132929046Y-116054337D01*
X132859354Y-116059320D01*
X132798032Y-116025833D01*
X132786449Y-116012466D01*
X132732604Y-115940539D01*
X132729546Y-115936454D01*
X132729544Y-115936453D01*
X132729544Y-115936452D01*
X132614335Y-115850206D01*
X132614328Y-115850202D01*
X132479482Y-115799908D01*
X132479483Y-115799908D01*
X132419883Y-115793501D01*
X132419881Y-115793500D01*
X132419873Y-115793500D01*
X132419864Y-115793500D01*
X131051029Y-115793500D01*
X130966950Y-115804060D01*
X130833984Y-115859136D01*
X130767065Y-115911121D01*
X130767058Y-115911127D01*
X130389117Y-116289067D01*
X130389108Y-116289077D01*
X130337136Y-116355982D01*
X130282060Y-116488950D01*
X130271500Y-116573019D01*
X130271500Y-117941870D01*
X130271501Y-117941876D01*
X130277908Y-118001483D01*
X130328202Y-118136328D01*
X130328206Y-118136335D01*
X130414452Y-118251544D01*
X130414455Y-118251547D01*
X130529664Y-118337793D01*
X130529671Y-118337797D01*
X130664517Y-118388091D01*
X130664516Y-118388091D01*
X130671444Y-118388835D01*
X130724127Y-118394500D01*
X132419872Y-118394499D01*
X132479483Y-118388091D01*
X132614331Y-118337796D01*
X132729546Y-118251546D01*
X132786449Y-118175532D01*
X132842382Y-118133663D01*
X132912074Y-118128679D01*
X132973397Y-118162164D01*
X132984977Y-118175528D01*
X133004454Y-118201546D01*
X133039069Y-118227459D01*
X133119664Y-118287793D01*
X133119671Y-118287797D01*
X133254517Y-118338091D01*
X133254516Y-118338091D01*
X133261444Y-118338835D01*
X133314127Y-118344500D01*
X134909872Y-118344499D01*
X134969483Y-118338091D01*
X135104331Y-118287796D01*
X135219546Y-118201546D01*
X135305796Y-118086331D01*
X135356091Y-117951483D01*
X135362500Y-117891873D01*
X135362499Y-117888665D01*
X135366013Y-117876439D01*
X135379209Y-117855638D01*
X135388638Y-117832876D01*
X135397599Y-117826653D01*
X135403444Y-117817442D01*
X135425793Y-117807077D01*
X135446030Y-117793027D01*
X135456933Y-117792637D01*
X135466830Y-117788048D01*
X135491232Y-117791411D01*
X135515855Y-117790532D01*
X135525238Y-117796099D01*
X135536045Y-117797589D01*
X135554756Y-117813612D01*
X135564299Y-117819274D01*
X135572524Y-117819922D01*
X136252000Y-117140446D01*
X136252000Y-117146661D01*
X136279259Y-117248394D01*
X136331920Y-117339606D01*
X136406394Y-117414080D01*
X136497606Y-117466741D01*
X136599339Y-117494000D01*
X136605553Y-117494000D01*
X135926076Y-118173474D01*
X135970650Y-118205859D01*
X136152968Y-118298755D01*
X136347582Y-118361990D01*
X136549683Y-118394000D01*
X136754317Y-118394000D01*
X136956417Y-118361990D01*
X137151031Y-118298755D01*
X137333349Y-118205859D01*
X137377921Y-118173474D01*
X136698447Y-117494000D01*
X136704661Y-117494000D01*
X136806394Y-117466741D01*
X136897606Y-117414080D01*
X136972080Y-117339606D01*
X137024741Y-117248394D01*
X137052000Y-117146661D01*
X137052000Y-117140448D01*
X137731474Y-117819922D01*
X137731474Y-117819921D01*
X137763859Y-117775349D01*
X137856755Y-117593031D01*
X137919990Y-117398417D01*
X137952000Y-117196317D01*
X137952000Y-116991682D01*
X137919990Y-116789582D01*
X137856755Y-116594968D01*
X137763859Y-116412650D01*
X137731474Y-116368077D01*
X137731474Y-116368076D01*
X137052000Y-117047551D01*
X137052000Y-117041339D01*
X137024741Y-116939606D01*
X136972080Y-116848394D01*
X136897606Y-116773920D01*
X136806394Y-116721259D01*
X136704661Y-116694000D01*
X136698446Y-116694000D01*
X137377922Y-116014524D01*
X137377921Y-116014523D01*
X137333359Y-115982147D01*
X137333350Y-115982141D01*
X137151031Y-115889244D01*
X136956417Y-115826009D01*
X136754317Y-115794000D01*
X136549683Y-115794000D01*
X136347582Y-115826009D01*
X136152968Y-115889244D01*
X135970644Y-115982143D01*
X135926077Y-116014523D01*
X135926077Y-116014524D01*
X136605554Y-116694000D01*
X136599339Y-116694000D01*
X136497606Y-116721259D01*
X136406394Y-116773920D01*
X136331920Y-116848394D01*
X136279259Y-116939606D01*
X136252000Y-117041339D01*
X136252000Y-117047553D01*
X135572524Y-116368077D01*
X135561169Y-116368971D01*
X135530178Y-116392869D01*
X135460564Y-116398847D01*
X135398770Y-116366240D01*
X135366013Y-116311559D01*
X135362499Y-116299328D01*
X135362499Y-116296128D01*
X135356091Y-116236517D01*
X135305796Y-116101669D01*
X135305652Y-116101477D01*
X135305652Y-116101475D01*
X135219547Y-115986455D01*
X135219544Y-115986452D01*
X135104335Y-115900206D01*
X135104328Y-115900202D01*
X134969482Y-115849908D01*
X134961938Y-115848126D01*
X134962474Y-115845853D01*
X134908688Y-115823571D01*
X134868843Y-115766177D01*
X134862500Y-115727024D01*
X134862500Y-108820230D01*
X134882185Y-108753191D01*
X134898819Y-108732549D01*
X136277079Y-107354289D01*
X137742952Y-105888416D01*
X137792186Y-105814729D01*
X137825084Y-105765495D01*
X137881658Y-105628913D01*
X137891096Y-105581462D01*
X137910500Y-105483920D01*
X137910500Y-88342499D01*
X137930185Y-88275460D01*
X137982989Y-88229705D01*
X138034500Y-88218499D01*
X138057871Y-88218499D01*
X138057872Y-88218499D01*
X138117483Y-88212091D01*
X138252331Y-88161796D01*
X138367546Y-88075546D01*
X138453796Y-87960331D01*
X138504091Y-87825483D01*
X138510500Y-87765873D01*
X138510499Y-85970128D01*
X138504091Y-85910517D01*
X138503002Y-85907598D01*
X138453797Y-85775671D01*
X138453793Y-85775664D01*
X138367547Y-85660455D01*
X138367544Y-85660452D01*
X138252335Y-85574206D01*
X138252328Y-85574202D01*
X138117482Y-85523908D01*
X138117483Y-85523908D01*
X138057883Y-85517501D01*
X138057881Y-85517500D01*
X138057873Y-85517500D01*
X138057864Y-85517500D01*
X136262129Y-85517500D01*
X136262123Y-85517501D01*
X136202516Y-85523908D01*
X136067671Y-85574202D01*
X136067664Y-85574206D01*
X135952455Y-85660452D01*
X135952452Y-85660455D01*
X135866206Y-85775664D01*
X135866202Y-85775671D01*
X135816997Y-85907598D01*
X135775126Y-85963532D01*
X135709661Y-85987949D01*
X135641388Y-85973097D01*
X135613134Y-85951946D01*
X135499464Y-85838276D01*
X135499459Y-85838272D01*
X135327557Y-85713379D01*
X135138215Y-85616903D01*
X134936124Y-85551241D01*
X134870000Y-85540768D01*
X134870000Y-86434988D01*
X134812993Y-86402075D01*
X134685826Y-86368000D01*
X134554174Y-86368000D01*
X134427007Y-86402075D01*
X134370000Y-86434988D01*
X134370000Y-85540768D01*
X134369999Y-85540768D01*
X134303875Y-85551241D01*
X134101784Y-85616903D01*
X133912442Y-85713379D01*
X133740540Y-85838272D01*
X133740535Y-85838276D01*
X133590276Y-85988535D01*
X133590272Y-85988540D01*
X133465378Y-86160443D01*
X133460762Y-86169502D01*
X133412784Y-86220295D01*
X133344963Y-86237087D01*
X133278829Y-86214546D01*
X133239794Y-86169493D01*
X133235051Y-86160184D01*
X133235049Y-86160181D01*
X133235048Y-86160179D01*
X133110109Y-85988213D01*
X132959786Y-85837890D01*
X132787820Y-85712951D01*
X132598414Y-85616444D01*
X132598413Y-85616443D01*
X132598412Y-85616443D01*
X132396243Y-85550754D01*
X132396241Y-85550753D01*
X132396240Y-85550753D01*
X132234957Y-85525208D01*
X132186287Y-85517500D01*
X131973713Y-85517500D01*
X131863888Y-85534894D01*
X131758945Y-85551516D01*
X131758686Y-85549882D01*
X131696094Y-85546730D01*
X131649288Y-85517342D01*
X131293674Y-85161727D01*
X131293673Y-85161726D01*
X131293669Y-85161723D01*
X131187127Y-85090535D01*
X131068744Y-85041499D01*
X131068738Y-85041497D01*
X130943071Y-85016500D01*
X130943069Y-85016500D01*
X122143328Y-85016500D01*
X122076289Y-84996815D01*
X122030534Y-84944011D01*
X122020590Y-84874853D01*
X122049615Y-84811297D01*
X122055647Y-84804819D01*
X123688274Y-83172192D01*
X123688276Y-83172190D01*
X123718828Y-83126465D01*
X123759465Y-83065648D01*
X123808501Y-82947265D01*
X123833500Y-82821590D01*
X123833500Y-82693451D01*
X123833500Y-82661471D01*
X123835883Y-82637277D01*
X123836071Y-82636335D01*
X123840500Y-82614069D01*
X123840500Y-80279768D01*
X123860185Y-80212729D01*
X123912989Y-80166974D01*
X123982147Y-80157030D01*
X124045703Y-80186055D01*
X124064819Y-80206883D01*
X124066946Y-80209811D01*
X124066949Y-80209816D01*
X124191892Y-80381786D01*
X124191896Y-80381792D01*
X124342213Y-80532109D01*
X124514179Y-80657048D01*
X124514181Y-80657049D01*
X124514184Y-80657051D01*
X124703588Y-80753557D01*
X124905757Y-80819246D01*
X125115713Y-80852500D01*
X125115714Y-80852500D01*
X125328286Y-80852500D01*
X125328287Y-80852500D01*
X125538243Y-80819246D01*
X125740412Y-80753557D01*
X125929816Y-80657051D01*
X126042131Y-80575450D01*
X126101786Y-80532109D01*
X126101788Y-80532106D01*
X126101792Y-80532104D01*
X126252104Y-80381792D01*
X126252106Y-80381788D01*
X126252109Y-80381786D01*
X126377048Y-80209820D01*
X126377047Y-80209820D01*
X126377051Y-80209816D01*
X126381514Y-80201054D01*
X126429488Y-80150259D01*
X126497308Y-80133463D01*
X126563444Y-80155999D01*
X126602486Y-80201056D01*
X126606951Y-80209820D01*
X126731890Y-80381786D01*
X126882213Y-80532109D01*
X127054179Y-80657048D01*
X127054181Y-80657049D01*
X127054184Y-80657051D01*
X127243588Y-80753557D01*
X127445757Y-80819246D01*
X127655713Y-80852500D01*
X127655714Y-80852500D01*
X127868286Y-80852500D01*
X127868287Y-80852500D01*
X128078243Y-80819246D01*
X128280412Y-80753557D01*
X128469816Y-80657051D01*
X128582131Y-80575450D01*
X128641786Y-80532109D01*
X128641788Y-80532106D01*
X128641792Y-80532104D01*
X128792104Y-80381792D01*
X128792106Y-80381788D01*
X128792109Y-80381786D01*
X128917048Y-80209820D01*
X128917047Y-80209820D01*
X128917051Y-80209816D01*
X128921514Y-80201054D01*
X128969488Y-80150259D01*
X129037308Y-80133463D01*
X129103444Y-80155999D01*
X129142486Y-80201056D01*
X129146951Y-80209820D01*
X129271890Y-80381786D01*
X129422213Y-80532109D01*
X129594179Y-80657048D01*
X129594181Y-80657049D01*
X129594184Y-80657051D01*
X129783588Y-80753557D01*
X129985757Y-80819246D01*
X130195713Y-80852500D01*
X130195714Y-80852500D01*
X130408286Y-80852500D01*
X130408287Y-80852500D01*
X130618243Y-80819246D01*
X130820412Y-80753557D01*
X131009816Y-80657051D01*
X131122131Y-80575450D01*
X131181786Y-80532109D01*
X131181788Y-80532106D01*
X131181792Y-80532104D01*
X131332104Y-80381792D01*
X131332106Y-80381788D01*
X131332109Y-80381786D01*
X131457048Y-80209820D01*
X131457047Y-80209820D01*
X131457051Y-80209816D01*
X131461514Y-80201054D01*
X131509488Y-80150259D01*
X131577308Y-80133463D01*
X131643444Y-80155999D01*
X131682486Y-80201056D01*
X131686951Y-80209820D01*
X131811890Y-80381786D01*
X131962213Y-80532109D01*
X132134179Y-80657048D01*
X132134181Y-80657049D01*
X132134184Y-80657051D01*
X132323588Y-80753557D01*
X132525757Y-80819246D01*
X132735713Y-80852500D01*
X132735714Y-80852500D01*
X132948286Y-80852500D01*
X132948287Y-80852500D01*
X133158243Y-80819246D01*
X133360412Y-80753557D01*
X133549816Y-80657051D01*
X133662131Y-80575450D01*
X133721786Y-80532109D01*
X133721788Y-80532106D01*
X133721792Y-80532104D01*
X133872104Y-80381792D01*
X133872106Y-80381788D01*
X133872109Y-80381786D01*
X133997048Y-80209820D01*
X133997047Y-80209820D01*
X133997051Y-80209816D01*
X134001514Y-80201054D01*
X134049488Y-80150259D01*
X134117308Y-80133463D01*
X134183444Y-80155999D01*
X134222486Y-80201056D01*
X134226951Y-80209820D01*
X134351890Y-80381786D01*
X134502213Y-80532109D01*
X134674179Y-80657048D01*
X134674181Y-80657049D01*
X134674184Y-80657051D01*
X134863588Y-80753557D01*
X135065757Y-80819246D01*
X135275713Y-80852500D01*
X135275714Y-80852500D01*
X135488286Y-80852500D01*
X135488287Y-80852500D01*
X135698243Y-80819246D01*
X135900412Y-80753557D01*
X136089816Y-80657051D01*
X136202131Y-80575450D01*
X136261786Y-80532109D01*
X136261788Y-80532106D01*
X136261792Y-80532104D01*
X136412104Y-80381792D01*
X136412106Y-80381788D01*
X136412109Y-80381786D01*
X136537048Y-80209820D01*
X136537047Y-80209820D01*
X136537051Y-80209816D01*
X136541514Y-80201054D01*
X136589488Y-80150259D01*
X136657308Y-80133463D01*
X136723444Y-80155999D01*
X136762486Y-80201056D01*
X136766951Y-80209820D01*
X136891890Y-80381786D01*
X137042213Y-80532109D01*
X137214179Y-80657048D01*
X137214181Y-80657049D01*
X137214184Y-80657051D01*
X137403588Y-80753557D01*
X137605757Y-80819246D01*
X137815713Y-80852500D01*
X137815714Y-80852500D01*
X138028286Y-80852500D01*
X138028287Y-80852500D01*
X138238243Y-80819246D01*
X138440412Y-80753557D01*
X138629816Y-80657051D01*
X138742131Y-80575450D01*
X138801786Y-80532109D01*
X138801788Y-80532106D01*
X138801792Y-80532104D01*
X138952104Y-80381792D01*
X138952106Y-80381788D01*
X138952109Y-80381786D01*
X139026228Y-80279768D01*
X139077051Y-80209816D01*
X139081793Y-80200508D01*
X139129763Y-80149711D01*
X139197583Y-80132911D01*
X139263719Y-80155445D01*
X139302763Y-80200500D01*
X139307373Y-80209547D01*
X139346728Y-80263716D01*
X139979037Y-79631408D01*
X139996075Y-79694993D01*
X140061901Y-79809007D01*
X140154993Y-79902099D01*
X140269007Y-79967925D01*
X140332589Y-79984962D01*
X139700282Y-80617269D01*
X139700282Y-80617270D01*
X139754449Y-80656624D01*
X139943782Y-80753095D01*
X140145870Y-80818757D01*
X140355754Y-80852000D01*
X140568246Y-80852000D01*
X140778126Y-80818758D01*
X140919181Y-80772926D01*
X140989022Y-80770931D01*
X141048855Y-80807011D01*
X141079684Y-80869712D01*
X141081500Y-80890857D01*
X141081500Y-114364069D01*
X141081500Y-114364071D01*
X141081499Y-114364071D01*
X141106497Y-114489738D01*
X141106499Y-114489744D01*
X141155534Y-114608125D01*
X141226726Y-114714673D01*
X141226727Y-114714674D01*
X143429342Y-116917288D01*
X143462827Y-116978611D01*
X143462319Y-117026755D01*
X143463516Y-117026945D01*
X143429500Y-117241713D01*
X143429500Y-117454286D01*
X143454544Y-117612412D01*
X143462754Y-117664243D01*
X143524942Y-117855638D01*
X143528444Y-117866414D01*
X143624951Y-118055820D01*
X143749890Y-118227786D01*
X143900213Y-118378109D01*
X144072179Y-118503048D01*
X144072181Y-118503049D01*
X144072184Y-118503051D01*
X144261588Y-118599557D01*
X144463757Y-118665246D01*
X144673713Y-118698500D01*
X144673714Y-118698500D01*
X144886286Y-118698500D01*
X144886287Y-118698500D01*
X145096243Y-118665246D01*
X145298412Y-118599557D01*
X145487816Y-118503051D01*
X145568189Y-118444657D01*
X145659786Y-118378109D01*
X145659788Y-118378106D01*
X145659792Y-118378104D01*
X145810104Y-118227792D01*
X145810106Y-118227788D01*
X145810109Y-118227786D01*
X145935048Y-118055820D01*
X145935047Y-118055820D01*
X145935051Y-118055816D01*
X145939514Y-118047054D01*
X145987488Y-117996259D01*
X146055308Y-117979463D01*
X146121444Y-118001999D01*
X146160486Y-118047056D01*
X146164951Y-118055820D01*
X146289890Y-118227786D01*
X146440213Y-118378109D01*
X146612179Y-118503048D01*
X146612181Y-118503049D01*
X146612184Y-118503051D01*
X146801588Y-118599557D01*
X147003757Y-118665246D01*
X147213713Y-118698500D01*
X147213714Y-118698500D01*
X147426286Y-118698500D01*
X147426287Y-118698500D01*
X147636243Y-118665246D01*
X147838412Y-118599557D01*
X148027816Y-118503051D01*
X148108189Y-118444657D01*
X148199786Y-118378109D01*
X148199788Y-118378106D01*
X148199792Y-118378104D01*
X148350104Y-118227792D01*
X148350106Y-118227788D01*
X148350109Y-118227786D01*
X148475048Y-118055820D01*
X148475047Y-118055820D01*
X148475051Y-118055816D01*
X148479514Y-118047054D01*
X148527488Y-117996259D01*
X148595308Y-117979463D01*
X148661444Y-118001999D01*
X148700486Y-118047056D01*
X148704951Y-118055820D01*
X148829890Y-118227786D01*
X148980213Y-118378109D01*
X149152179Y-118503048D01*
X149152181Y-118503049D01*
X149152184Y-118503051D01*
X149341588Y-118599557D01*
X149543757Y-118665246D01*
X149753713Y-118698500D01*
X149753714Y-118698500D01*
X149966286Y-118698500D01*
X149966287Y-118698500D01*
X150176243Y-118665246D01*
X150378412Y-118599557D01*
X150567816Y-118503051D01*
X150648189Y-118444657D01*
X150739786Y-118378109D01*
X150739788Y-118378106D01*
X150739792Y-118378104D01*
X150890104Y-118227792D01*
X150890106Y-118227788D01*
X150890109Y-118227786D01*
X151015048Y-118055820D01*
X151015047Y-118055820D01*
X151015051Y-118055816D01*
X151019514Y-118047054D01*
X151067488Y-117996259D01*
X151135308Y-117979463D01*
X151201444Y-118001999D01*
X151240486Y-118047056D01*
X151244951Y-118055820D01*
X151369890Y-118227786D01*
X151520213Y-118378109D01*
X151692179Y-118503048D01*
X151692181Y-118503049D01*
X151692184Y-118503051D01*
X151881588Y-118599557D01*
X152083757Y-118665246D01*
X152293713Y-118698500D01*
X152293714Y-118698500D01*
X152506286Y-118698500D01*
X152506287Y-118698500D01*
X152716243Y-118665246D01*
X152918412Y-118599557D01*
X153107816Y-118503051D01*
X153188189Y-118444657D01*
X153279786Y-118378109D01*
X153279788Y-118378106D01*
X153279792Y-118378104D01*
X153430104Y-118227792D01*
X153430106Y-118227788D01*
X153430109Y-118227786D01*
X153532741Y-118086523D01*
X153555051Y-118055816D01*
X153559793Y-118046508D01*
X153607763Y-117995711D01*
X153675583Y-117978911D01*
X153741719Y-118001445D01*
X153780763Y-118046500D01*
X153785377Y-118055555D01*
X153910272Y-118227459D01*
X153910276Y-118227464D01*
X154060535Y-118377723D01*
X154060540Y-118377727D01*
X154232442Y-118502620D01*
X154421782Y-118599095D01*
X154623871Y-118664757D01*
X154690000Y-118675231D01*
X154690000Y-117781012D01*
X154747007Y-117813925D01*
X154874174Y-117848000D01*
X155005826Y-117848000D01*
X155132993Y-117813925D01*
X155190000Y-117781012D01*
X155190000Y-118675230D01*
X155256126Y-118664757D01*
X155256129Y-118664757D01*
X155458217Y-118599095D01*
X155647557Y-118502620D01*
X155819458Y-118377728D01*
X155933133Y-118264053D01*
X155994456Y-118230568D01*
X156064148Y-118235552D01*
X156120082Y-118277423D01*
X156136997Y-118308401D01*
X156186202Y-118440328D01*
X156186206Y-118440335D01*
X156272452Y-118555544D01*
X156272455Y-118555547D01*
X156387664Y-118641793D01*
X156387671Y-118641797D01*
X156522517Y-118692091D01*
X156522516Y-118692091D01*
X156529444Y-118692835D01*
X156582127Y-118698500D01*
X158377872Y-118698499D01*
X158437483Y-118692091D01*
X158572331Y-118641796D01*
X158687546Y-118555546D01*
X158773796Y-118440331D01*
X158824091Y-118305483D01*
X158830500Y-118245873D01*
X158830499Y-116450128D01*
X158824091Y-116390517D01*
X158823002Y-116387598D01*
X158773797Y-116255671D01*
X158773793Y-116255664D01*
X158687547Y-116140455D01*
X158687544Y-116140452D01*
X158572335Y-116054206D01*
X158572328Y-116054202D01*
X158437482Y-116003908D01*
X158437483Y-116003908D01*
X158377883Y-115997501D01*
X158377881Y-115997500D01*
X158377873Y-115997500D01*
X158377865Y-115997500D01*
X158254500Y-115997500D01*
X158187461Y-115977815D01*
X158141706Y-115925011D01*
X158130500Y-115873500D01*
X158130500Y-110679928D01*
X158105502Y-110554261D01*
X158105501Y-110554260D01*
X158105501Y-110554256D01*
X158056465Y-110435873D01*
X158005599Y-110359746D01*
X158005599Y-110359745D01*
X158005597Y-110359744D01*
X157985277Y-110329331D01*
X144958819Y-97302873D01*
X144925334Y-97241550D01*
X144922500Y-97215192D01*
X144922500Y-91291078D01*
X146557947Y-91291078D01*
X146558282Y-91294289D01*
X146558282Y-91294293D01*
X146560561Y-91316101D01*
X146561232Y-91328984D01*
X146561232Y-92305551D01*
X146560561Y-92318433D01*
X146557947Y-92343455D01*
X146558233Y-92347508D01*
X146561232Y-92371863D01*
X146561232Y-92375891D01*
X146569906Y-92396832D01*
X146575634Y-92414180D01*
X146595073Y-92491873D01*
X146681400Y-92690114D01*
X146681405Y-92690124D01*
X146728897Y-92763179D01*
X146799258Y-92871413D01*
X146799260Y-92871415D01*
X146799262Y-92871418D01*
X146799265Y-92871422D01*
X146945399Y-93030772D01*
X146945404Y-93030777D01*
X147115838Y-93163847D01*
X147115842Y-93163849D01*
X147115844Y-93163851D01*
X147305886Y-93266977D01*
X147305889Y-93266978D01*
X147510350Y-93337344D01*
X147723617Y-93373015D01*
X147939847Y-93373015D01*
X148153114Y-93337344D01*
X148357575Y-93266978D01*
X148547626Y-93163847D01*
X148718060Y-93030777D01*
X148828936Y-92909873D01*
X148864198Y-92871422D01*
X148864201Y-92871418D01*
X148864206Y-92871413D01*
X148982059Y-92690123D01*
X149068390Y-92491875D01*
X149090055Y-92405284D01*
X149102232Y-92375887D01*
X149102232Y-92356597D01*
X149105517Y-92343458D01*
X149102903Y-92318433D01*
X149102232Y-92305551D01*
X149102232Y-91322524D01*
X149105517Y-91291078D01*
X149102232Y-91277938D01*
X149102232Y-91258645D01*
X149093557Y-91237702D01*
X149087828Y-91220352D01*
X149068392Y-91142669D01*
X149068390Y-91142661D01*
X149054161Y-91109985D01*
X148982063Y-90944421D01*
X148982058Y-90944411D01*
X148956783Y-90905532D01*
X148864206Y-90763123D01*
X148864202Y-90763118D01*
X148864201Y-90763117D01*
X148864198Y-90763113D01*
X148718064Y-90603763D01*
X148718062Y-90603761D01*
X148718061Y-90603760D01*
X148718060Y-90603759D01*
X148547626Y-90470689D01*
X148547622Y-90470686D01*
X148547621Y-90470686D01*
X148547619Y-90470684D01*
X148357577Y-90367558D01*
X148277303Y-90339932D01*
X148153114Y-90297192D01*
X147939847Y-90261521D01*
X147723617Y-90261521D01*
X147510355Y-90297191D01*
X147510354Y-90297191D01*
X147510350Y-90297192D01*
X147426295Y-90326119D01*
X147305886Y-90367558D01*
X147115844Y-90470684D01*
X147115842Y-90470686D01*
X146945401Y-90603761D01*
X146945399Y-90603763D01*
X146799265Y-90763113D01*
X146799262Y-90763117D01*
X146681405Y-90944411D01*
X146681400Y-90944421D01*
X146595074Y-91142659D01*
X146575634Y-91220354D01*
X146569905Y-91237702D01*
X146561233Y-91258639D01*
X146561232Y-91258647D01*
X146561232Y-91262672D01*
X146560174Y-91271260D01*
X146560310Y-91277768D01*
X146559380Y-91285345D01*
X146557947Y-91291078D01*
X144922500Y-91291078D01*
X144922500Y-80874954D01*
X150857500Y-80874954D01*
X150857500Y-81177045D01*
X150896929Y-81476546D01*
X150975117Y-81768347D01*
X151090719Y-82047434D01*
X151090723Y-82047444D01*
X151241766Y-82309058D01*
X151425665Y-82548721D01*
X151425671Y-82548728D01*
X151639271Y-82762328D01*
X151639278Y-82762334D01*
X151878941Y-82946233D01*
X152140555Y-83097276D01*
X152140556Y-83097276D01*
X152140559Y-83097278D01*
X152419653Y-83212883D01*
X152711450Y-83291070D01*
X152936078Y-83320642D01*
X153010954Y-83330500D01*
X153010955Y-83330500D01*
X153313046Y-83330500D01*
X153372946Y-83322614D01*
X153612550Y-83291070D01*
X153904347Y-83212883D01*
X154183441Y-83097278D01*
X154445059Y-82946233D01*
X154684723Y-82762333D01*
X154898333Y-82548723D01*
X155082233Y-82309059D01*
X155233278Y-82047441D01*
X155348883Y-81768347D01*
X155427070Y-81476550D01*
X155466500Y-81177045D01*
X155466500Y-80874955D01*
X155427070Y-80575450D01*
X155348883Y-80283653D01*
X155233278Y-80004559D01*
X155212127Y-79967925D01*
X155082233Y-79742941D01*
X154898334Y-79503278D01*
X154898328Y-79503271D01*
X154684728Y-79289671D01*
X154684721Y-79289665D01*
X154445058Y-79105766D01*
X154183444Y-78954723D01*
X154183434Y-78954719D01*
X153904347Y-78839117D01*
X153612550Y-78760930D01*
X153612549Y-78760929D01*
X153612546Y-78760929D01*
X153313046Y-78721500D01*
X153313045Y-78721500D01*
X153010955Y-78721500D01*
X153010954Y-78721500D01*
X152711453Y-78760929D01*
X152419652Y-78839117D01*
X152140565Y-78954719D01*
X152140555Y-78954723D01*
X151878941Y-79105766D01*
X151639278Y-79289665D01*
X151639271Y-79289671D01*
X151425671Y-79503271D01*
X151425665Y-79503278D01*
X151241766Y-79742941D01*
X151090723Y-80004555D01*
X151090719Y-80004565D01*
X150975117Y-80283652D01*
X150896929Y-80575453D01*
X150857500Y-80874954D01*
X144922500Y-80874954D01*
X144922500Y-73365852D01*
X144931143Y-73336415D01*
X144937662Y-73306436D01*
X144941421Y-73301413D01*
X144942185Y-73298813D01*
X144958810Y-73278180D01*
X144961543Y-73275445D01*
X144977799Y-73259191D01*
X144977805Y-73259181D01*
X145036493Y-73200494D01*
X145036493Y-73200493D01*
X145053929Y-73183058D01*
X145053932Y-73183052D01*
X145271276Y-72965712D01*
X145342465Y-72859170D01*
X145391501Y-72740787D01*
X145395433Y-72721017D01*
X145399401Y-72701072D01*
X145399401Y-72701069D01*
X145416500Y-72615111D01*
X145416500Y-72486972D01*
X145416500Y-72486971D01*
X145416500Y-72071932D01*
X145416500Y-72071930D01*
X145416500Y-71656890D01*
X145416500Y-69743753D01*
X146986000Y-69743753D01*
X146986000Y-69956246D01*
X147019242Y-70166127D01*
X147019242Y-70166130D01*
X147084904Y-70368217D01*
X147181375Y-70557550D01*
X147220728Y-70611716D01*
X147853037Y-69979408D01*
X147870075Y-70042993D01*
X147935901Y-70157007D01*
X148028993Y-70250099D01*
X148143007Y-70315925D01*
X148206590Y-70332962D01*
X147574282Y-70965269D01*
X147574282Y-70965270D01*
X147628449Y-71004624D01*
X147817782Y-71101095D01*
X148019870Y-71166757D01*
X148229754Y-71200000D01*
X148442246Y-71200000D01*
X148652127Y-71166757D01*
X148652130Y-71166757D01*
X148854217Y-71101095D01*
X149043554Y-71004622D01*
X149097716Y-70965270D01*
X149097717Y-70965270D01*
X148465408Y-70332962D01*
X148528993Y-70315925D01*
X148643007Y-70250099D01*
X148736099Y-70157007D01*
X148801925Y-70042993D01*
X148818962Y-69979408D01*
X149451270Y-70611717D01*
X149451270Y-70611716D01*
X149490622Y-70557555D01*
X149495232Y-70548507D01*
X149543205Y-70497709D01*
X149611025Y-70480912D01*
X149677161Y-70503447D01*
X149716204Y-70548504D01*
X149720949Y-70557817D01*
X149845890Y-70729786D01*
X149996213Y-70880109D01*
X150168179Y-71005048D01*
X150168181Y-71005049D01*
X150168184Y-71005051D01*
X150357588Y-71101557D01*
X150559757Y-71167246D01*
X150769713Y-71200500D01*
X150769714Y-71200500D01*
X150982286Y-71200500D01*
X150982287Y-71200500D01*
X151192243Y-71167246D01*
X151394412Y-71101557D01*
X151583816Y-71005051D01*
X151628912Y-70972287D01*
X151755786Y-70880109D01*
X151755788Y-70880106D01*
X151755792Y-70880104D01*
X151906104Y-70729792D01*
X151906106Y-70729788D01*
X151906109Y-70729786D01*
X152031048Y-70557820D01*
X152031050Y-70557817D01*
X152031051Y-70557816D01*
X152035514Y-70549054D01*
X152083488Y-70498259D01*
X152151308Y-70481463D01*
X152217444Y-70503999D01*
X152256484Y-70549054D01*
X152260591Y-70557115D01*
X152260951Y-70557820D01*
X152385890Y-70729786D01*
X152536213Y-70880109D01*
X152708179Y-71005048D01*
X152708181Y-71005049D01*
X152708184Y-71005051D01*
X152897588Y-71101557D01*
X153099757Y-71167246D01*
X153309713Y-71200500D01*
X153309714Y-71200500D01*
X153522286Y-71200500D01*
X153522287Y-71200500D01*
X153732243Y-71167246D01*
X153934412Y-71101557D01*
X154123816Y-71005051D01*
X154168912Y-70972287D01*
X154295786Y-70880109D01*
X154295788Y-70880106D01*
X154295792Y-70880104D01*
X154446104Y-70729792D01*
X154446106Y-70729788D01*
X154446109Y-70729786D01*
X154571048Y-70557820D01*
X154571050Y-70557817D01*
X154571051Y-70557816D01*
X154575514Y-70549054D01*
X154623488Y-70498259D01*
X154691308Y-70481463D01*
X154757444Y-70503999D01*
X154796484Y-70549054D01*
X154800591Y-70557115D01*
X154800951Y-70557820D01*
X154925890Y-70729786D01*
X155076213Y-70880109D01*
X155248179Y-71005048D01*
X155248181Y-71005049D01*
X155248184Y-71005051D01*
X155437588Y-71101557D01*
X155639757Y-71167246D01*
X155849713Y-71200500D01*
X155849714Y-71200500D01*
X156062286Y-71200500D01*
X156062287Y-71200500D01*
X156272243Y-71167246D01*
X156474412Y-71101557D01*
X156663816Y-71005051D01*
X156708912Y-70972287D01*
X156835786Y-70880109D01*
X156835788Y-70880106D01*
X156835792Y-70880104D01*
X156986104Y-70729792D01*
X156986106Y-70729788D01*
X156986109Y-70729786D01*
X157111048Y-70557820D01*
X157111050Y-70557817D01*
X157111051Y-70557816D01*
X157115514Y-70549054D01*
X157163488Y-70498259D01*
X157231308Y-70481463D01*
X157297444Y-70503999D01*
X157336484Y-70549054D01*
X157340591Y-70557115D01*
X157340951Y-70557820D01*
X157465890Y-70729786D01*
X157616213Y-70880109D01*
X157788179Y-71005048D01*
X157788181Y-71005049D01*
X157788184Y-71005051D01*
X157977588Y-71101557D01*
X158179757Y-71167246D01*
X158389713Y-71200500D01*
X158389714Y-71200500D01*
X158602286Y-71200500D01*
X158602287Y-71200500D01*
X158812243Y-71167246D01*
X159014412Y-71101557D01*
X159203816Y-71005051D01*
X159248912Y-70972287D01*
X159375786Y-70880109D01*
X159375788Y-70880106D01*
X159375792Y-70880104D01*
X159526104Y-70729792D01*
X159526106Y-70729788D01*
X159526109Y-70729786D01*
X159651048Y-70557820D01*
X159651050Y-70557817D01*
X159651051Y-70557816D01*
X159655514Y-70549054D01*
X159703488Y-70498259D01*
X159771308Y-70481463D01*
X159837444Y-70503999D01*
X159876484Y-70549054D01*
X159880591Y-70557115D01*
X159880951Y-70557820D01*
X160005890Y-70729786D01*
X160156213Y-70880109D01*
X160328179Y-71005048D01*
X160328181Y-71005049D01*
X160328184Y-71005051D01*
X160517588Y-71101557D01*
X160719757Y-71167246D01*
X160929713Y-71200500D01*
X160929714Y-71200500D01*
X161142286Y-71200500D01*
X161142287Y-71200500D01*
X161352243Y-71167246D01*
X161554412Y-71101557D01*
X161743816Y-71005051D01*
X161788912Y-70972287D01*
X161915786Y-70880109D01*
X161915788Y-70880106D01*
X161915792Y-70880104D01*
X162066104Y-70729792D01*
X162066106Y-70729788D01*
X162066109Y-70729786D01*
X162191048Y-70557820D01*
X162191050Y-70557817D01*
X162191051Y-70557816D01*
X162195514Y-70549054D01*
X162243488Y-70498259D01*
X162311308Y-70481463D01*
X162377444Y-70503999D01*
X162416484Y-70549054D01*
X162420591Y-70557115D01*
X162420951Y-70557820D01*
X162545890Y-70729786D01*
X162696213Y-70880109D01*
X162868179Y-71005048D01*
X162868181Y-71005049D01*
X162868184Y-71005051D01*
X163057588Y-71101557D01*
X163259757Y-71167246D01*
X163469713Y-71200500D01*
X163469714Y-71200500D01*
X163682286Y-71200500D01*
X163682287Y-71200500D01*
X163892243Y-71167246D01*
X164094412Y-71101557D01*
X164283816Y-71005051D01*
X164328912Y-70972287D01*
X164455786Y-70880109D01*
X164455788Y-70880106D01*
X164455792Y-70880104D01*
X164606104Y-70729792D01*
X164606106Y-70729788D01*
X164606109Y-70729786D01*
X164731048Y-70557820D01*
X164731050Y-70557817D01*
X164731051Y-70557816D01*
X164735514Y-70549054D01*
X164783488Y-70498259D01*
X164851308Y-70481463D01*
X164917444Y-70503999D01*
X164956484Y-70549054D01*
X164960591Y-70557115D01*
X164960951Y-70557820D01*
X165085890Y-70729786D01*
X165236213Y-70880109D01*
X165408179Y-71005048D01*
X165408181Y-71005049D01*
X165408184Y-71005051D01*
X165597588Y-71101557D01*
X165799757Y-71167246D01*
X166009713Y-71200500D01*
X166009714Y-71200500D01*
X166222286Y-71200500D01*
X166222287Y-71200500D01*
X166432243Y-71167246D01*
X166634412Y-71101557D01*
X166823816Y-71005051D01*
X166868912Y-70972287D01*
X166995786Y-70880109D01*
X166995788Y-70880106D01*
X166995792Y-70880104D01*
X167146104Y-70729792D01*
X167146106Y-70729788D01*
X167146109Y-70729786D01*
X167271048Y-70557820D01*
X167271050Y-70557817D01*
X167271051Y-70557816D01*
X167367557Y-70368412D01*
X167433246Y-70166243D01*
X167466500Y-69956287D01*
X167466500Y-69743713D01*
X167433246Y-69533757D01*
X167367557Y-69331588D01*
X167271051Y-69142184D01*
X167271049Y-69142181D01*
X167271048Y-69142179D01*
X167146109Y-68970213D01*
X166995786Y-68819890D01*
X166823820Y-68694951D01*
X166634414Y-68598444D01*
X166634413Y-68598443D01*
X166634412Y-68598443D01*
X166432243Y-68532754D01*
X166432241Y-68532753D01*
X166432240Y-68532753D01*
X166270957Y-68507208D01*
X166222287Y-68499500D01*
X166009713Y-68499500D01*
X165961042Y-68507208D01*
X165799760Y-68532753D01*
X165597585Y-68598444D01*
X165408179Y-68694951D01*
X165236213Y-68819890D01*
X165085890Y-68970213D01*
X164960949Y-69142182D01*
X164956484Y-69150946D01*
X164908509Y-69201742D01*
X164840688Y-69218536D01*
X164774553Y-69195998D01*
X164735516Y-69150946D01*
X164731050Y-69142182D01*
X164606109Y-68970213D01*
X164455786Y-68819890D01*
X164283820Y-68694951D01*
X164094414Y-68598444D01*
X164094413Y-68598443D01*
X164094412Y-68598443D01*
X163892243Y-68532754D01*
X163892241Y-68532753D01*
X163892240Y-68532753D01*
X163730957Y-68507208D01*
X163682287Y-68499500D01*
X163469713Y-68499500D01*
X163421042Y-68507208D01*
X163259760Y-68532753D01*
X163057585Y-68598444D01*
X162868179Y-68694951D01*
X162696213Y-68819890D01*
X162545890Y-68970213D01*
X162420949Y-69142182D01*
X162416484Y-69150946D01*
X162368509Y-69201742D01*
X162300688Y-69218536D01*
X162234553Y-69195998D01*
X162195516Y-69150946D01*
X162191050Y-69142182D01*
X162066109Y-68970213D01*
X161915786Y-68819890D01*
X161743820Y-68694951D01*
X161554414Y-68598444D01*
X161554413Y-68598443D01*
X161554412Y-68598443D01*
X161352243Y-68532754D01*
X161352241Y-68532753D01*
X161352240Y-68532753D01*
X161190957Y-68507208D01*
X161142287Y-68499500D01*
X160929713Y-68499500D01*
X160881042Y-68507208D01*
X160719760Y-68532753D01*
X160517585Y-68598444D01*
X160328179Y-68694951D01*
X160156213Y-68819890D01*
X160005890Y-68970213D01*
X159880949Y-69142182D01*
X159876484Y-69150946D01*
X159828509Y-69201742D01*
X159760688Y-69218536D01*
X159694553Y-69195998D01*
X159655516Y-69150946D01*
X159651050Y-69142182D01*
X159526109Y-68970213D01*
X159375786Y-68819890D01*
X159203820Y-68694951D01*
X159014414Y-68598444D01*
X159014413Y-68598443D01*
X159014412Y-68598443D01*
X158812243Y-68532754D01*
X158812241Y-68532753D01*
X158812240Y-68532753D01*
X158650957Y-68507208D01*
X158602287Y-68499500D01*
X158389713Y-68499500D01*
X158341042Y-68507208D01*
X158179760Y-68532753D01*
X157977585Y-68598444D01*
X157788179Y-68694951D01*
X157616213Y-68819890D01*
X157465890Y-68970213D01*
X157340949Y-69142182D01*
X157336484Y-69150946D01*
X157288509Y-69201742D01*
X157220688Y-69218536D01*
X157154553Y-69195998D01*
X157115516Y-69150946D01*
X157111050Y-69142182D01*
X156986109Y-68970213D01*
X156835786Y-68819890D01*
X156663820Y-68694951D01*
X156474414Y-68598444D01*
X156474413Y-68598443D01*
X156474412Y-68598443D01*
X156272243Y-68532754D01*
X156272241Y-68532753D01*
X156272240Y-68532753D01*
X156110957Y-68507208D01*
X156062287Y-68499500D01*
X155849713Y-68499500D01*
X155801042Y-68507208D01*
X155639760Y-68532753D01*
X155437585Y-68598444D01*
X155248179Y-68694951D01*
X155076213Y-68819890D01*
X154925890Y-68970213D01*
X154800949Y-69142182D01*
X154796484Y-69150946D01*
X154748509Y-69201742D01*
X154680688Y-69218536D01*
X154614553Y-69195998D01*
X154575516Y-69150946D01*
X154571050Y-69142182D01*
X154446109Y-68970213D01*
X154295786Y-68819890D01*
X154123820Y-68694951D01*
X153934414Y-68598444D01*
X153934413Y-68598443D01*
X153934412Y-68598443D01*
X153732243Y-68532754D01*
X153732241Y-68532753D01*
X153732240Y-68532753D01*
X153570957Y-68507208D01*
X153522287Y-68499500D01*
X153309713Y-68499500D01*
X153261042Y-68507208D01*
X153099760Y-68532753D01*
X152897585Y-68598444D01*
X152708179Y-68694951D01*
X152536213Y-68819890D01*
X152385890Y-68970213D01*
X152260949Y-69142182D01*
X152256484Y-69150946D01*
X152208509Y-69201742D01*
X152140688Y-69218536D01*
X152074553Y-69195998D01*
X152035516Y-69150946D01*
X152031050Y-69142182D01*
X151906109Y-68970213D01*
X151755786Y-68819890D01*
X151583820Y-68694951D01*
X151394414Y-68598444D01*
X151394413Y-68598443D01*
X151394412Y-68598443D01*
X151192243Y-68532754D01*
X151192241Y-68532753D01*
X151192240Y-68532753D01*
X151030957Y-68507208D01*
X150982287Y-68499500D01*
X150769713Y-68499500D01*
X150721042Y-68507208D01*
X150559760Y-68532753D01*
X150357585Y-68598444D01*
X150168179Y-68694951D01*
X149996213Y-68819890D01*
X149845890Y-68970213D01*
X149720949Y-69142182D01*
X149716202Y-69151499D01*
X149668227Y-69202293D01*
X149600405Y-69219087D01*
X149534271Y-69196548D01*
X149495234Y-69151495D01*
X149490626Y-69142452D01*
X149451270Y-69088282D01*
X149451269Y-69088282D01*
X148818962Y-69720590D01*
X148801925Y-69657007D01*
X148736099Y-69542993D01*
X148643007Y-69449901D01*
X148528993Y-69384075D01*
X148465409Y-69367037D01*
X149097716Y-68734728D01*
X149043550Y-68695375D01*
X148854217Y-68598904D01*
X148652129Y-68533242D01*
X148442246Y-68500000D01*
X148229754Y-68500000D01*
X148019872Y-68533242D01*
X148019869Y-68533242D01*
X147817782Y-68598904D01*
X147628439Y-68695380D01*
X147574282Y-68734727D01*
X147574282Y-68734728D01*
X148206591Y-69367037D01*
X148143007Y-69384075D01*
X148028993Y-69449901D01*
X147935901Y-69542993D01*
X147870075Y-69657007D01*
X147853037Y-69720591D01*
X147220728Y-69088282D01*
X147220727Y-69088282D01*
X147181380Y-69142439D01*
X147084904Y-69331782D01*
X147019242Y-69533869D01*
X147019242Y-69533872D01*
X146986000Y-69743753D01*
X145416500Y-69743753D01*
X145416500Y-68660806D01*
X145436185Y-68593767D01*
X145452814Y-68573130D01*
X157654073Y-56371870D01*
X172046500Y-56371870D01*
X172046500Y-56604129D01*
X172082831Y-56833514D01*
X172154601Y-57054400D01*
X172260039Y-57261331D01*
X172396551Y-57449224D01*
X172560776Y-57613449D01*
X172748669Y-57749961D01*
X172846436Y-57799776D01*
X172955599Y-57855398D01*
X172955601Y-57855398D01*
X172955604Y-57855400D01*
X173176486Y-57927169D01*
X173294668Y-57945886D01*
X173405871Y-57963500D01*
X173405876Y-57963500D01*
X173638129Y-57963500D01*
X173739502Y-57947443D01*
X173867514Y-57927169D01*
X174088396Y-57855400D01*
X174295331Y-57749961D01*
X174483224Y-57613449D01*
X174647449Y-57449224D01*
X174783961Y-57261331D01*
X174889400Y-57054396D01*
X174961169Y-56833514D01*
X174989267Y-56656109D01*
X174997500Y-56604129D01*
X174997500Y-56371870D01*
X177046500Y-56371870D01*
X177046500Y-56604129D01*
X177082831Y-56833514D01*
X177154601Y-57054400D01*
X177260039Y-57261331D01*
X177396551Y-57449224D01*
X177560776Y-57613449D01*
X177748669Y-57749961D01*
X177846436Y-57799776D01*
X177955599Y-57855398D01*
X177955601Y-57855398D01*
X177955604Y-57855400D01*
X178176486Y-57927169D01*
X178294668Y-57945886D01*
X178405871Y-57963500D01*
X178405876Y-57963500D01*
X178638129Y-57963500D01*
X178739502Y-57947443D01*
X178867514Y-57927169D01*
X179088396Y-57855400D01*
X179295331Y-57749961D01*
X179483224Y-57613449D01*
X179647449Y-57449224D01*
X179783961Y-57261331D01*
X179889400Y-57054396D01*
X179961169Y-56833514D01*
X179989267Y-56656109D01*
X179997500Y-56604129D01*
X179997500Y-56371870D01*
X179965872Y-56172181D01*
X179961169Y-56142486D01*
X179889400Y-55921604D01*
X179889398Y-55921601D01*
X179889398Y-55921599D01*
X179809413Y-55764622D01*
X179783961Y-55714669D01*
X179647449Y-55526776D01*
X179483224Y-55362551D01*
X179295331Y-55226039D01*
X179295060Y-55225901D01*
X179088400Y-55120601D01*
X178867514Y-55048831D01*
X178638129Y-55012500D01*
X178638124Y-55012500D01*
X178405876Y-55012500D01*
X178405871Y-55012500D01*
X178176485Y-55048831D01*
X177955599Y-55120601D01*
X177748668Y-55226039D01*
X177560773Y-55362553D01*
X177396553Y-55526773D01*
X177260039Y-55714668D01*
X177154601Y-55921599D01*
X177082831Y-56142485D01*
X177046500Y-56371870D01*
X174997500Y-56371870D01*
X174965872Y-56172181D01*
X174961169Y-56142486D01*
X174889400Y-55921604D01*
X174889398Y-55921601D01*
X174889398Y-55921599D01*
X174809413Y-55764622D01*
X174783961Y-55714669D01*
X174647449Y-55526776D01*
X174483224Y-55362551D01*
X174295331Y-55226039D01*
X174295060Y-55225901D01*
X174088400Y-55120601D01*
X173867514Y-55048831D01*
X173638129Y-55012500D01*
X173638124Y-55012500D01*
X173405876Y-55012500D01*
X173405871Y-55012500D01*
X173176485Y-55048831D01*
X172955599Y-55120601D01*
X172748668Y-55226039D01*
X172560773Y-55362553D01*
X172396553Y-55526773D01*
X172260039Y-55714668D01*
X172154601Y-55921599D01*
X172082831Y-56142485D01*
X172046500Y-56371870D01*
X157654073Y-56371870D01*
X158065289Y-55960654D01*
X158126610Y-55927171D01*
X158174753Y-55927693D01*
X158174945Y-55926484D01*
X158216130Y-55933007D01*
X158389713Y-55960500D01*
X158389714Y-55960500D01*
X158602286Y-55960500D01*
X158602287Y-55960500D01*
X158812243Y-55927246D01*
X159014412Y-55861557D01*
X159203816Y-55765051D01*
X159248912Y-55732287D01*
X159375786Y-55640109D01*
X159375788Y-55640106D01*
X159375792Y-55640104D01*
X159526104Y-55489792D01*
X159526106Y-55489788D01*
X159526109Y-55489786D01*
X159611890Y-55371717D01*
X159651051Y-55317816D01*
X159655793Y-55308508D01*
X159703763Y-55257711D01*
X159771583Y-55240911D01*
X159837719Y-55263445D01*
X159876763Y-55308500D01*
X159881373Y-55317547D01*
X159920728Y-55371716D01*
X160553037Y-54739408D01*
X160570075Y-54802993D01*
X160635901Y-54917007D01*
X160728993Y-55010099D01*
X160843007Y-55075925D01*
X160906590Y-55092962D01*
X160274282Y-55725269D01*
X160274282Y-55725270D01*
X160328449Y-55764624D01*
X160517782Y-55861095D01*
X160719870Y-55926757D01*
X160929754Y-55960000D01*
X161142246Y-55960000D01*
X161352127Y-55926757D01*
X161352130Y-55926757D01*
X161554217Y-55861095D01*
X161743554Y-55764622D01*
X161797716Y-55725270D01*
X161797717Y-55725270D01*
X161165408Y-55092962D01*
X161228993Y-55075925D01*
X161343007Y-55010099D01*
X161436099Y-54917007D01*
X161501925Y-54802993D01*
X161518962Y-54739409D01*
X162151270Y-55371717D01*
X162151270Y-55371716D01*
X162190622Y-55317555D01*
X162195232Y-55308507D01*
X162243205Y-55257709D01*
X162311025Y-55240912D01*
X162377161Y-55263447D01*
X162416204Y-55308504D01*
X162420949Y-55317817D01*
X162545890Y-55489786D01*
X162696213Y-55640109D01*
X162868179Y-55765048D01*
X162868181Y-55765049D01*
X162868184Y-55765051D01*
X163057588Y-55861557D01*
X163259757Y-55927246D01*
X163469713Y-55960500D01*
X163469714Y-55960500D01*
X163682286Y-55960500D01*
X163682287Y-55960500D01*
X163892243Y-55927246D01*
X164094412Y-55861557D01*
X164283816Y-55765051D01*
X164328912Y-55732287D01*
X164455786Y-55640109D01*
X164455788Y-55640106D01*
X164455792Y-55640104D01*
X164606104Y-55489792D01*
X164606106Y-55489788D01*
X164606109Y-55489786D01*
X164731048Y-55317820D01*
X164731047Y-55317820D01*
X164731051Y-55317816D01*
X164735514Y-55309054D01*
X164783488Y-55258259D01*
X164851308Y-55241463D01*
X164917444Y-55263999D01*
X164956484Y-55309054D01*
X164960591Y-55317115D01*
X164960951Y-55317820D01*
X165085890Y-55489786D01*
X165236213Y-55640109D01*
X165408179Y-55765048D01*
X165408181Y-55765049D01*
X165408184Y-55765051D01*
X165597588Y-55861557D01*
X165799757Y-55927246D01*
X166009713Y-55960500D01*
X166009714Y-55960500D01*
X166222286Y-55960500D01*
X166222287Y-55960500D01*
X166432243Y-55927246D01*
X166634412Y-55861557D01*
X166823816Y-55765051D01*
X166868912Y-55732287D01*
X166995786Y-55640109D01*
X166995788Y-55640106D01*
X166995792Y-55640104D01*
X167146104Y-55489792D01*
X167146106Y-55489788D01*
X167146109Y-55489786D01*
X167271048Y-55317820D01*
X167271047Y-55317820D01*
X167271051Y-55317816D01*
X167367557Y-55128412D01*
X167433246Y-54926243D01*
X167466500Y-54716287D01*
X167466500Y-54503713D01*
X167433246Y-54293757D01*
X167367557Y-54091588D01*
X167271051Y-53902184D01*
X167271049Y-53902181D01*
X167271048Y-53902179D01*
X167146109Y-53730213D01*
X166995786Y-53579890D01*
X166823820Y-53454951D01*
X166634414Y-53358444D01*
X166634413Y-53358443D01*
X166634412Y-53358443D01*
X166432243Y-53292754D01*
X166432241Y-53292753D01*
X166432240Y-53292753D01*
X166270957Y-53267208D01*
X166222287Y-53259500D01*
X166009713Y-53259500D01*
X165961042Y-53267208D01*
X165799760Y-53292753D01*
X165597585Y-53358444D01*
X165408179Y-53454951D01*
X165236213Y-53579890D01*
X165085890Y-53730213D01*
X164960949Y-53902182D01*
X164956484Y-53910946D01*
X164908509Y-53961742D01*
X164840688Y-53978536D01*
X164774553Y-53955998D01*
X164735516Y-53910946D01*
X164731050Y-53902182D01*
X164606109Y-53730213D01*
X164455786Y-53579890D01*
X164283820Y-53454951D01*
X164094414Y-53358444D01*
X164094413Y-53358443D01*
X164094412Y-53358443D01*
X163892243Y-53292754D01*
X163892241Y-53292753D01*
X163892240Y-53292753D01*
X163730957Y-53267208D01*
X163682287Y-53259500D01*
X163469713Y-53259500D01*
X163421042Y-53267208D01*
X163259760Y-53292753D01*
X163057585Y-53358444D01*
X162868179Y-53454951D01*
X162696213Y-53579890D01*
X162545890Y-53730213D01*
X162420949Y-53902182D01*
X162416202Y-53911499D01*
X162368227Y-53962293D01*
X162300405Y-53979087D01*
X162234271Y-53956548D01*
X162195234Y-53911495D01*
X162190626Y-53902452D01*
X162151270Y-53848282D01*
X162151269Y-53848282D01*
X161518962Y-54480590D01*
X161501925Y-54417007D01*
X161436099Y-54302993D01*
X161343007Y-54209901D01*
X161228993Y-54144075D01*
X161165409Y-54127037D01*
X161797716Y-53494728D01*
X161743550Y-53455375D01*
X161554217Y-53358904D01*
X161352129Y-53293242D01*
X161142246Y-53260000D01*
X160929754Y-53260000D01*
X160719872Y-53293242D01*
X160719869Y-53293242D01*
X160517782Y-53358904D01*
X160328439Y-53455380D01*
X160274282Y-53494727D01*
X160274282Y-53494728D01*
X160906591Y-54127037D01*
X160843007Y-54144075D01*
X160728993Y-54209901D01*
X160635901Y-54302993D01*
X160570075Y-54417007D01*
X160553037Y-54480591D01*
X159920728Y-53848282D01*
X159920727Y-53848282D01*
X159881380Y-53902440D01*
X159881376Y-53902446D01*
X159876760Y-53911505D01*
X159828781Y-53962297D01*
X159760959Y-53979087D01*
X159694826Y-53956543D01*
X159655794Y-53911493D01*
X159651051Y-53902184D01*
X159651049Y-53902181D01*
X159651048Y-53902179D01*
X159526109Y-53730213D01*
X159375786Y-53579890D01*
X159203820Y-53454951D01*
X159014414Y-53358444D01*
X159014413Y-53358443D01*
X159014412Y-53358443D01*
X158812243Y-53292754D01*
X158812241Y-53292753D01*
X158812240Y-53292753D01*
X158650957Y-53267208D01*
X158602287Y-53259500D01*
X158389713Y-53259500D01*
X158341042Y-53267208D01*
X158179760Y-53292753D01*
X157977585Y-53358444D01*
X157788179Y-53454951D01*
X157616213Y-53579890D01*
X157465890Y-53730213D01*
X157340949Y-53902182D01*
X157336484Y-53910946D01*
X157288509Y-53961742D01*
X157220688Y-53978536D01*
X157154553Y-53955998D01*
X157115516Y-53910946D01*
X157111050Y-53902182D01*
X156986109Y-53730213D01*
X156835786Y-53579890D01*
X156663820Y-53454951D01*
X156474414Y-53358444D01*
X156474413Y-53358443D01*
X156474412Y-53358443D01*
X156272243Y-53292754D01*
X156272241Y-53292753D01*
X156272240Y-53292753D01*
X156110957Y-53267208D01*
X156062287Y-53259500D01*
X155849713Y-53259500D01*
X155801042Y-53267208D01*
X155639760Y-53292753D01*
X155437585Y-53358444D01*
X155248179Y-53454951D01*
X155076213Y-53579890D01*
X154925890Y-53730213D01*
X154800949Y-53902182D01*
X154796484Y-53910946D01*
X154748509Y-53961742D01*
X154680688Y-53978536D01*
X154614553Y-53955998D01*
X154575516Y-53910946D01*
X154571050Y-53902182D01*
X154446109Y-53730213D01*
X154295786Y-53579890D01*
X154123820Y-53454951D01*
X153934414Y-53358444D01*
X153934413Y-53358443D01*
X153934412Y-53358443D01*
X153732243Y-53292754D01*
X153732241Y-53292753D01*
X153732240Y-53292753D01*
X153570957Y-53267208D01*
X153522287Y-53259500D01*
X153309713Y-53259500D01*
X153261042Y-53267208D01*
X153099760Y-53292753D01*
X152897585Y-53358444D01*
X152708179Y-53454951D01*
X152536213Y-53579890D01*
X152385890Y-53730213D01*
X152260949Y-53902182D01*
X152256484Y-53910946D01*
X152208509Y-53961742D01*
X152140688Y-53978536D01*
X152074553Y-53955998D01*
X152035516Y-53910946D01*
X152031050Y-53902182D01*
X151906109Y-53730213D01*
X151755786Y-53579890D01*
X151583820Y-53454951D01*
X151394414Y-53358444D01*
X151394413Y-53358443D01*
X151394412Y-53358443D01*
X151192243Y-53292754D01*
X151192241Y-53292753D01*
X151192240Y-53292753D01*
X151030957Y-53267208D01*
X150982287Y-53259500D01*
X150769713Y-53259500D01*
X150721042Y-53267208D01*
X150559760Y-53292753D01*
X150357585Y-53358444D01*
X150168179Y-53454951D01*
X149996213Y-53579890D01*
X149845890Y-53730213D01*
X149720949Y-53902182D01*
X149716202Y-53911499D01*
X149668227Y-53962293D01*
X149600405Y-53979087D01*
X149534271Y-53956548D01*
X149495234Y-53911495D01*
X149490626Y-53902452D01*
X149451270Y-53848282D01*
X149451269Y-53848282D01*
X148818962Y-54480590D01*
X148801925Y-54417007D01*
X148736099Y-54302993D01*
X148643007Y-54209901D01*
X148528993Y-54144075D01*
X148465409Y-54127037D01*
X149097716Y-53494728D01*
X149043550Y-53455375D01*
X148854217Y-53358904D01*
X148652129Y-53293242D01*
X148442246Y-53260000D01*
X148229754Y-53260000D01*
X148019872Y-53293242D01*
X148019869Y-53293242D01*
X147817782Y-53358904D01*
X147628439Y-53455380D01*
X147574282Y-53494727D01*
X147574282Y-53494728D01*
X148206591Y-54127037D01*
X148143007Y-54144075D01*
X148028993Y-54209901D01*
X147935901Y-54302993D01*
X147870075Y-54417007D01*
X147853037Y-54480591D01*
X147220728Y-53848282D01*
X147220727Y-53848282D01*
X147181380Y-53902439D01*
X147084904Y-54091782D01*
X147019242Y-54293869D01*
X147019242Y-54293872D01*
X146986000Y-54503753D01*
X146986000Y-54716246D01*
X147019242Y-54926127D01*
X147019242Y-54926130D01*
X147084904Y-55128217D01*
X147181375Y-55317550D01*
X147220728Y-55371716D01*
X147853037Y-54739408D01*
X147870075Y-54802993D01*
X147935901Y-54917007D01*
X148028993Y-55010099D01*
X148143007Y-55075925D01*
X148206590Y-55092962D01*
X147574282Y-55725269D01*
X147574282Y-55725270D01*
X147628449Y-55764624D01*
X147817782Y-55861095D01*
X148019870Y-55926757D01*
X148229754Y-55960000D01*
X148306690Y-55960000D01*
X148373729Y-55979685D01*
X148419484Y-56032489D01*
X148429428Y-56101647D01*
X148400403Y-56165203D01*
X148394371Y-56171681D01*
X141988726Y-62577326D01*
X141917534Y-62683874D01*
X141868499Y-62802255D01*
X141868497Y-62802261D01*
X141843500Y-62927928D01*
X141843500Y-70799192D01*
X141823815Y-70866231D01*
X141807181Y-70886873D01*
X139212873Y-73481181D01*
X139151550Y-73514666D01*
X139125192Y-73517500D01*
X128107808Y-73517500D01*
X128040769Y-73497815D01*
X127995014Y-73445011D01*
X127985070Y-73375853D01*
X128014095Y-73312297D01*
X128020127Y-73305819D01*
X128530727Y-72795218D01*
X129109289Y-72216654D01*
X129170610Y-72183171D01*
X129218753Y-72183693D01*
X129218945Y-72182484D01*
X129323888Y-72199105D01*
X129433713Y-72216500D01*
X129433714Y-72216500D01*
X129646286Y-72216500D01*
X129646287Y-72216500D01*
X129856243Y-72183246D01*
X130058412Y-72117557D01*
X130247816Y-72021051D01*
X130334138Y-71958335D01*
X130419786Y-71896109D01*
X130419788Y-71896106D01*
X130419792Y-71896104D01*
X130570104Y-71745792D01*
X130570106Y-71745788D01*
X130570109Y-71745786D01*
X130695048Y-71573820D01*
X130695047Y-71573820D01*
X130695051Y-71573816D01*
X130699514Y-71565054D01*
X130747488Y-71514259D01*
X130815308Y-71497463D01*
X130881444Y-71519999D01*
X130920486Y-71565056D01*
X130924951Y-71573820D01*
X131049890Y-71745786D01*
X131200213Y-71896109D01*
X131372179Y-72021048D01*
X131372181Y-72021049D01*
X131372184Y-72021051D01*
X131561588Y-72117557D01*
X131763757Y-72183246D01*
X131973713Y-72216500D01*
X131973714Y-72216500D01*
X132186286Y-72216500D01*
X132186287Y-72216500D01*
X132396243Y-72183246D01*
X132598412Y-72117557D01*
X132787816Y-72021051D01*
X132874138Y-71958335D01*
X132959786Y-71896109D01*
X132959788Y-71896106D01*
X132959792Y-71896104D01*
X133110104Y-71745792D01*
X133110106Y-71745788D01*
X133110109Y-71745786D01*
X133195890Y-71627717D01*
X133235051Y-71573816D01*
X133239793Y-71564508D01*
X133287763Y-71513711D01*
X133355583Y-71496911D01*
X133421719Y-71519445D01*
X133460763Y-71564500D01*
X133465373Y-71573547D01*
X133504728Y-71627716D01*
X134137037Y-70995408D01*
X134154075Y-71058993D01*
X134219901Y-71173007D01*
X134312993Y-71266099D01*
X134427007Y-71331925D01*
X134490590Y-71348962D01*
X133858282Y-71981269D01*
X133858282Y-71981270D01*
X133912449Y-72020624D01*
X134101782Y-72117095D01*
X134303870Y-72182757D01*
X134513754Y-72216000D01*
X134726246Y-72216000D01*
X134936127Y-72182757D01*
X134936130Y-72182757D01*
X135138217Y-72117095D01*
X135327554Y-72020622D01*
X135381716Y-71981270D01*
X135381717Y-71981270D01*
X134749408Y-71348962D01*
X134812993Y-71331925D01*
X134927007Y-71266099D01*
X135020099Y-71173007D01*
X135085925Y-71058993D01*
X135102962Y-70995408D01*
X135735270Y-71627717D01*
X135735270Y-71627716D01*
X135774622Y-71573555D01*
X135779232Y-71564507D01*
X135827205Y-71513709D01*
X135895025Y-71496912D01*
X135961161Y-71519447D01*
X136000204Y-71564504D01*
X136004949Y-71573817D01*
X136129890Y-71745786D01*
X136280213Y-71896109D01*
X136452179Y-72021048D01*
X136452181Y-72021049D01*
X136452184Y-72021051D01*
X136641588Y-72117557D01*
X136843757Y-72183246D01*
X137053713Y-72216500D01*
X137053714Y-72216500D01*
X137266286Y-72216500D01*
X137266287Y-72216500D01*
X137476243Y-72183246D01*
X137678412Y-72117557D01*
X137867816Y-72021051D01*
X137954138Y-71958335D01*
X138039786Y-71896109D01*
X138039788Y-71896106D01*
X138039792Y-71896104D01*
X138190104Y-71745792D01*
X138190106Y-71745788D01*
X138190109Y-71745786D01*
X138315048Y-71573820D01*
X138315047Y-71573820D01*
X138315051Y-71573816D01*
X138411557Y-71384412D01*
X138477246Y-71182243D01*
X138510500Y-70972287D01*
X138510500Y-70759713D01*
X138477246Y-70549757D01*
X138411557Y-70347588D01*
X138315051Y-70158184D01*
X138315049Y-70158181D01*
X138315048Y-70158179D01*
X138190109Y-69986213D01*
X138039786Y-69835890D01*
X137867820Y-69710951D01*
X137678414Y-69614444D01*
X137678413Y-69614443D01*
X137678412Y-69614443D01*
X137476243Y-69548754D01*
X137476241Y-69548753D01*
X137476240Y-69548753D01*
X137314957Y-69523208D01*
X137266287Y-69515500D01*
X137053713Y-69515500D01*
X137005042Y-69523208D01*
X136843760Y-69548753D01*
X136747986Y-69579872D01*
X136645965Y-69613021D01*
X136641585Y-69614444D01*
X136452179Y-69710951D01*
X136280213Y-69835890D01*
X136129890Y-69986213D01*
X136004949Y-70158182D01*
X136000202Y-70167499D01*
X135952227Y-70218293D01*
X135884405Y-70235087D01*
X135818271Y-70212548D01*
X135779234Y-70167495D01*
X135774626Y-70158452D01*
X135735270Y-70104282D01*
X135735269Y-70104282D01*
X135102962Y-70736590D01*
X135085925Y-70673007D01*
X135020099Y-70558993D01*
X134927007Y-70465901D01*
X134812993Y-70400075D01*
X134749409Y-70383037D01*
X135381716Y-69750728D01*
X135327550Y-69711375D01*
X135138217Y-69614904D01*
X134936129Y-69549242D01*
X134726246Y-69516000D01*
X134513754Y-69516000D01*
X134303872Y-69549242D01*
X134303869Y-69549242D01*
X134101782Y-69614904D01*
X133912439Y-69711380D01*
X133858282Y-69750727D01*
X133858282Y-69750728D01*
X134490591Y-70383037D01*
X134427007Y-70400075D01*
X134312993Y-70465901D01*
X134219901Y-70558993D01*
X134154075Y-70673007D01*
X134137037Y-70736591D01*
X133504728Y-70104282D01*
X133504727Y-70104282D01*
X133465380Y-70158440D01*
X133465376Y-70158446D01*
X133460760Y-70167505D01*
X133412781Y-70218297D01*
X133344959Y-70235087D01*
X133278826Y-70212543D01*
X133239794Y-70167493D01*
X133235051Y-70158184D01*
X133235049Y-70158181D01*
X133235048Y-70158179D01*
X133110109Y-69986213D01*
X132959786Y-69835890D01*
X132787820Y-69710951D01*
X132598414Y-69614444D01*
X132598413Y-69614443D01*
X132598412Y-69614443D01*
X132396243Y-69548754D01*
X132396241Y-69548753D01*
X132396240Y-69548753D01*
X132234957Y-69523208D01*
X132186287Y-69515500D01*
X131973713Y-69515500D01*
X131925042Y-69523208D01*
X131763760Y-69548753D01*
X131667986Y-69579872D01*
X131565965Y-69613021D01*
X131561585Y-69614444D01*
X131372179Y-69710951D01*
X131200213Y-69835890D01*
X131049890Y-69986213D01*
X130924949Y-70158182D01*
X130920484Y-70166946D01*
X130872509Y-70217742D01*
X130804688Y-70234536D01*
X130738553Y-70211998D01*
X130699516Y-70166946D01*
X130695050Y-70158182D01*
X130570109Y-69986213D01*
X130419786Y-69835890D01*
X130247820Y-69710951D01*
X130058414Y-69614444D01*
X130058413Y-69614443D01*
X130058412Y-69614443D01*
X129856243Y-69548754D01*
X129856241Y-69548753D01*
X129856240Y-69548753D01*
X129694957Y-69523208D01*
X129646287Y-69515500D01*
X129433713Y-69515500D01*
X129385042Y-69523208D01*
X129223760Y-69548753D01*
X129127986Y-69579872D01*
X129025965Y-69613021D01*
X129021585Y-69614444D01*
X128832179Y-69710951D01*
X128660213Y-69835890D01*
X128509890Y-69986213D01*
X128384949Y-70158182D01*
X128380484Y-70166946D01*
X128332509Y-70217742D01*
X128264688Y-70234536D01*
X128198553Y-70211998D01*
X128159516Y-70166946D01*
X128155050Y-70158182D01*
X128030109Y-69986213D01*
X127879786Y-69835890D01*
X127707820Y-69710951D01*
X127518414Y-69614444D01*
X127518413Y-69614443D01*
X127518412Y-69614443D01*
X127316243Y-69548754D01*
X127316241Y-69548753D01*
X127316240Y-69548753D01*
X127154957Y-69523208D01*
X127106287Y-69515500D01*
X126893713Y-69515500D01*
X126845042Y-69523208D01*
X126683760Y-69548753D01*
X126587986Y-69579872D01*
X126485965Y-69613021D01*
X126481585Y-69614444D01*
X126292179Y-69710951D01*
X126120213Y-69835890D01*
X125969890Y-69986213D01*
X125844949Y-70158182D01*
X125840484Y-70166946D01*
X125792509Y-70217742D01*
X125724688Y-70234536D01*
X125658553Y-70211998D01*
X125619516Y-70166946D01*
X125615050Y-70158182D01*
X125490109Y-69986213D01*
X125339786Y-69835890D01*
X125167820Y-69710951D01*
X124978414Y-69614444D01*
X124978413Y-69614443D01*
X124978412Y-69614443D01*
X124776243Y-69548754D01*
X124776241Y-69548753D01*
X124776240Y-69548753D01*
X124614957Y-69523208D01*
X124566287Y-69515500D01*
X124353713Y-69515500D01*
X124305042Y-69523208D01*
X124143760Y-69548753D01*
X124047986Y-69579872D01*
X123945965Y-69613021D01*
X123941585Y-69614444D01*
X123752179Y-69710951D01*
X123580213Y-69835890D01*
X123429890Y-69986213D01*
X123304949Y-70158182D01*
X123300484Y-70166946D01*
X123252509Y-70217742D01*
X123184688Y-70234536D01*
X123118553Y-70211998D01*
X123079516Y-70166946D01*
X123075050Y-70158182D01*
X122950109Y-69986213D01*
X122799786Y-69835890D01*
X122627820Y-69710951D01*
X122438414Y-69614444D01*
X122438413Y-69614443D01*
X122438412Y-69614443D01*
X122236243Y-69548754D01*
X122236241Y-69548753D01*
X122236240Y-69548753D01*
X122074957Y-69523208D01*
X122026287Y-69515500D01*
X121949807Y-69515500D01*
X121882768Y-69495815D01*
X121837013Y-69443011D01*
X121827069Y-69373853D01*
X121856094Y-69310297D01*
X121862126Y-69303819D01*
X122682834Y-68483112D01*
X123677127Y-67488819D01*
X123738450Y-67455334D01*
X123764808Y-67452500D01*
X132652071Y-67452500D01*
X132736615Y-67435682D01*
X132777744Y-67427501D01*
X132896127Y-67378465D01*
X133002669Y-67307277D01*
X152962991Y-47346954D01*
X164065500Y-47346954D01*
X164065500Y-47649045D01*
X164103600Y-47938454D01*
X164104930Y-47948550D01*
X164138074Y-48072243D01*
X164183117Y-48240347D01*
X164298719Y-48519434D01*
X164298723Y-48519444D01*
X164449766Y-48781058D01*
X164633665Y-49020721D01*
X164633671Y-49020728D01*
X164847271Y-49234328D01*
X164847278Y-49234334D01*
X165086941Y-49418233D01*
X165348555Y-49569276D01*
X165348556Y-49569276D01*
X165348559Y-49569278D01*
X165627653Y-49684883D01*
X165919450Y-49763070D01*
X166144078Y-49792642D01*
X166218954Y-49802500D01*
X166218955Y-49802500D01*
X166521046Y-49802500D01*
X166580946Y-49794614D01*
X166820550Y-49763070D01*
X167112347Y-49684883D01*
X167391441Y-49569278D01*
X167653059Y-49418233D01*
X167892723Y-49234333D01*
X168106333Y-49020723D01*
X168290233Y-48781059D01*
X168441278Y-48519441D01*
X168556883Y-48240347D01*
X168635070Y-47948550D01*
X168674500Y-47649045D01*
X168674500Y-47346955D01*
X168635070Y-47047450D01*
X168556883Y-46755653D01*
X168441278Y-46476559D01*
X168433245Y-46462646D01*
X168290233Y-46214941D01*
X168106334Y-45975278D01*
X168106328Y-45975271D01*
X167892728Y-45761671D01*
X167892721Y-45761665D01*
X167653058Y-45577766D01*
X167391444Y-45426723D01*
X167391434Y-45426719D01*
X167112347Y-45311117D01*
X167072724Y-45300500D01*
X166820550Y-45232930D01*
X166820549Y-45232929D01*
X166820546Y-45232929D01*
X166521046Y-45193500D01*
X166521045Y-45193500D01*
X166218955Y-45193500D01*
X166218954Y-45193500D01*
X165919453Y-45232929D01*
X165627652Y-45311117D01*
X165348565Y-45426719D01*
X165348555Y-45426723D01*
X165086941Y-45577766D01*
X164847278Y-45761665D01*
X164847271Y-45761671D01*
X164633671Y-45975271D01*
X164633665Y-45975278D01*
X164449766Y-46214941D01*
X164298723Y-46476555D01*
X164298719Y-46476565D01*
X164183117Y-46755652D01*
X164104929Y-47047453D01*
X164065500Y-47346954D01*
X152962991Y-47346954D01*
X154979293Y-45330652D01*
X155040614Y-45297169D01*
X155042781Y-45296718D01*
X155065087Y-45292281D01*
X155188082Y-45267816D01*
X155342863Y-45203703D01*
X155482162Y-45110626D01*
X155600626Y-44992162D01*
X155693703Y-44852863D01*
X155757816Y-44698082D01*
X155790500Y-44533767D01*
X155790500Y-44366233D01*
X155776260Y-44294642D01*
X155763938Y-44232691D01*
X155770165Y-44163099D01*
X155813029Y-44107922D01*
X155878919Y-44084678D01*
X155885555Y-44084500D01*
X161965068Y-44084500D01*
X162032107Y-44104185D01*
X162033959Y-44105398D01*
X162054222Y-44118937D01*
X162157137Y-44187703D01*
X162311918Y-44251816D01*
X162434838Y-44276266D01*
X162476228Y-44284499D01*
X162476232Y-44284500D01*
X162476233Y-44284500D01*
X162643768Y-44284500D01*
X162643769Y-44284499D01*
X162808082Y-44251816D01*
X162962863Y-44187703D01*
X163102162Y-44094626D01*
X163220626Y-43976162D01*
X163313703Y-43836863D01*
X163377816Y-43682082D01*
X163410500Y-43517767D01*
X163410500Y-43350233D01*
X163377816Y-43185918D01*
X163313703Y-43031137D01*
X163270201Y-42966032D01*
X163220626Y-42891837D01*
X163102162Y-42773373D01*
X162962860Y-42680295D01*
X162808082Y-42616184D01*
X162808074Y-42616182D01*
X162643771Y-42583500D01*
X162643767Y-42583500D01*
X162476233Y-42583500D01*
X162476228Y-42583500D01*
X162311925Y-42616182D01*
X162311917Y-42616184D01*
X162157139Y-42680295D01*
X162033959Y-42762602D01*
X161967281Y-42783480D01*
X161965068Y-42783500D01*
X152843929Y-42783500D01*
X152718261Y-42808497D01*
X152718255Y-42808499D01*
X152599870Y-42857535D01*
X152493331Y-42928722D01*
X152493324Y-42928728D01*
X132608873Y-62813181D01*
X132547550Y-62846666D01*
X132521192Y-62849500D01*
X103821929Y-62849500D01*
X103696261Y-62874497D01*
X103696255Y-62874499D01*
X103577874Y-62923534D01*
X103471326Y-62994726D01*
X96950710Y-69515342D01*
X96889387Y-69548827D01*
X96841245Y-69548315D01*
X96841055Y-69549516D01*
X96736111Y-69532894D01*
X96626287Y-69515500D01*
X96413713Y-69515500D01*
X96365042Y-69523208D01*
X96203760Y-69548753D01*
X96107986Y-69579872D01*
X96005965Y-69613021D01*
X96001585Y-69614444D01*
X95812179Y-69710951D01*
X95640213Y-69835890D01*
X95489890Y-69986213D01*
X95364949Y-70158182D01*
X95360484Y-70166946D01*
X95312509Y-70217742D01*
X95244688Y-70234536D01*
X95178553Y-70211998D01*
X95139516Y-70166946D01*
X95135050Y-70158182D01*
X95010109Y-69986213D01*
X94859786Y-69835890D01*
X94687820Y-69710951D01*
X94498414Y-69614444D01*
X94498413Y-69614443D01*
X94498412Y-69614443D01*
X94296243Y-69548754D01*
X94296241Y-69548753D01*
X94296240Y-69548753D01*
X94134957Y-69523208D01*
X94086287Y-69515500D01*
X93873713Y-69515500D01*
X93825042Y-69523208D01*
X93663760Y-69548753D01*
X93567986Y-69579872D01*
X93465965Y-69613021D01*
X93461585Y-69614444D01*
X93272179Y-69710951D01*
X93100213Y-69835890D01*
X92949890Y-69986213D01*
X92824949Y-70158182D01*
X92820484Y-70166946D01*
X92772509Y-70217742D01*
X92704688Y-70234536D01*
X92638553Y-70211998D01*
X92599516Y-70166946D01*
X92595050Y-70158182D01*
X92470109Y-69986213D01*
X92319786Y-69835890D01*
X92147820Y-69710951D01*
X91958414Y-69614444D01*
X91958413Y-69614443D01*
X91958412Y-69614443D01*
X91756243Y-69548754D01*
X91756241Y-69548753D01*
X91756240Y-69548753D01*
X91594957Y-69523208D01*
X91546287Y-69515500D01*
X91333713Y-69515500D01*
X91285042Y-69523208D01*
X91123760Y-69548753D01*
X91027986Y-69579872D01*
X90925965Y-69613021D01*
X90921585Y-69614444D01*
X90732179Y-69710951D01*
X90560215Y-69835889D01*
X90446673Y-69949431D01*
X90385350Y-69982915D01*
X90315658Y-69977931D01*
X90259725Y-69936059D01*
X90242810Y-69905082D01*
X90193797Y-69773671D01*
X90193793Y-69773664D01*
X90107547Y-69658455D01*
X90107544Y-69658452D01*
X89992335Y-69572206D01*
X89992328Y-69572202D01*
X89857482Y-69521908D01*
X89857483Y-69521908D01*
X89797883Y-69515501D01*
X89797881Y-69515500D01*
X89797873Y-69515500D01*
X89797864Y-69515500D01*
X88002129Y-69515500D01*
X88002123Y-69515501D01*
X87942516Y-69521908D01*
X87807671Y-69572202D01*
X87807668Y-69572204D01*
X87716811Y-69640220D01*
X87651347Y-69664637D01*
X87583074Y-69649785D01*
X87533668Y-69600380D01*
X87518500Y-69540953D01*
X87518500Y-56951046D01*
X87538185Y-56884007D01*
X87590989Y-56838252D01*
X87660147Y-56828308D01*
X87716811Y-56851780D01*
X87807664Y-56919793D01*
X87807671Y-56919797D01*
X87942517Y-56970091D01*
X87942516Y-56970091D01*
X87949444Y-56970835D01*
X88002127Y-56976500D01*
X89797872Y-56976499D01*
X89857483Y-56970091D01*
X89992331Y-56919796D01*
X90107546Y-56833546D01*
X90193796Y-56718331D01*
X90244091Y-56583483D01*
X90250500Y-56523873D01*
X90250499Y-56499979D01*
X90253330Y-56486963D01*
X90263940Y-56467525D01*
X90270179Y-56446275D01*
X90286803Y-56425643D01*
X90286808Y-56425636D01*
X90286811Y-56425634D01*
X90286818Y-56425626D01*
X90957037Y-55755408D01*
X90974075Y-55818993D01*
X91039901Y-55933007D01*
X91132993Y-56026099D01*
X91247007Y-56091925D01*
X91310590Y-56108962D01*
X90678282Y-56741269D01*
X90678282Y-56741270D01*
X90732449Y-56780624D01*
X90921782Y-56877095D01*
X91123870Y-56942757D01*
X91333754Y-56976000D01*
X91546246Y-56976000D01*
X91756127Y-56942757D01*
X91756130Y-56942757D01*
X91958217Y-56877095D01*
X92147554Y-56780622D01*
X92201716Y-56741270D01*
X92201717Y-56741270D01*
X91569408Y-56108962D01*
X91632993Y-56091925D01*
X91747007Y-56026099D01*
X91840099Y-55933007D01*
X91905925Y-55818993D01*
X91922962Y-55755409D01*
X92555270Y-56387717D01*
X92555270Y-56387716D01*
X92594622Y-56333555D01*
X92599232Y-56324507D01*
X92647205Y-56273709D01*
X92715025Y-56256912D01*
X92781161Y-56279447D01*
X92820204Y-56324504D01*
X92824949Y-56333817D01*
X92949890Y-56505786D01*
X93100213Y-56656109D01*
X93272179Y-56781048D01*
X93272181Y-56781049D01*
X93272184Y-56781051D01*
X93461588Y-56877557D01*
X93663757Y-56943246D01*
X93873713Y-56976500D01*
X93873714Y-56976500D01*
X94086286Y-56976500D01*
X94086287Y-56976500D01*
X94296243Y-56943246D01*
X94498412Y-56877557D01*
X94687816Y-56781051D01*
X94774138Y-56718335D01*
X94859786Y-56656109D01*
X94859788Y-56656106D01*
X94859792Y-56656104D01*
X95010104Y-56505792D01*
X95010106Y-56505788D01*
X95010109Y-56505786D01*
X95135048Y-56333820D01*
X95135050Y-56333817D01*
X95135051Y-56333816D01*
X95139514Y-56325054D01*
X95187488Y-56274259D01*
X95255308Y-56257463D01*
X95321444Y-56279999D01*
X95360486Y-56325056D01*
X95364951Y-56333820D01*
X95489890Y-56505786D01*
X95640213Y-56656109D01*
X95812179Y-56781048D01*
X95812181Y-56781049D01*
X95812184Y-56781051D01*
X96001588Y-56877557D01*
X96203757Y-56943246D01*
X96413713Y-56976500D01*
X96413714Y-56976500D01*
X96626286Y-56976500D01*
X96626287Y-56976500D01*
X96836243Y-56943246D01*
X97038412Y-56877557D01*
X97227816Y-56781051D01*
X97314138Y-56718335D01*
X97399786Y-56656109D01*
X97399788Y-56656106D01*
X97399792Y-56656104D01*
X97550104Y-56505792D01*
X97550106Y-56505788D01*
X97550109Y-56505786D01*
X97675048Y-56333820D01*
X97675050Y-56333817D01*
X97675051Y-56333816D01*
X97679514Y-56325054D01*
X97727488Y-56274259D01*
X97795308Y-56257463D01*
X97861444Y-56279999D01*
X97900486Y-56325056D01*
X97904951Y-56333820D01*
X98029890Y-56505786D01*
X98180213Y-56656109D01*
X98352179Y-56781048D01*
X98352181Y-56781049D01*
X98352184Y-56781051D01*
X98541588Y-56877557D01*
X98743757Y-56943246D01*
X98953713Y-56976500D01*
X98953714Y-56976500D01*
X99166286Y-56976500D01*
X99166287Y-56976500D01*
X99376243Y-56943246D01*
X99578412Y-56877557D01*
X99767816Y-56781051D01*
X99854138Y-56718335D01*
X99939786Y-56656109D01*
X99939788Y-56656106D01*
X99939792Y-56656104D01*
X100090104Y-56505792D01*
X100090106Y-56505788D01*
X100090109Y-56505786D01*
X100215048Y-56333820D01*
X100215050Y-56333817D01*
X100215051Y-56333816D01*
X100219514Y-56325054D01*
X100267488Y-56274259D01*
X100335308Y-56257463D01*
X100401444Y-56279999D01*
X100440486Y-56325056D01*
X100444951Y-56333820D01*
X100569890Y-56505786D01*
X100720213Y-56656109D01*
X100892179Y-56781048D01*
X100892181Y-56781049D01*
X100892184Y-56781051D01*
X101081588Y-56877557D01*
X101283757Y-56943246D01*
X101493713Y-56976500D01*
X101493714Y-56976500D01*
X101706286Y-56976500D01*
X101706287Y-56976500D01*
X101916243Y-56943246D01*
X102118412Y-56877557D01*
X102307816Y-56781051D01*
X102394138Y-56718335D01*
X102479786Y-56656109D01*
X102479788Y-56656106D01*
X102479792Y-56656104D01*
X102630104Y-56505792D01*
X102630106Y-56505788D01*
X102630109Y-56505786D01*
X102755048Y-56333820D01*
X102755050Y-56333817D01*
X102755051Y-56333816D01*
X102759514Y-56325054D01*
X102807488Y-56274259D01*
X102875308Y-56257463D01*
X102941444Y-56279999D01*
X102980486Y-56325056D01*
X102984951Y-56333820D01*
X103109890Y-56505786D01*
X103260213Y-56656109D01*
X103432179Y-56781048D01*
X103432181Y-56781049D01*
X103432184Y-56781051D01*
X103621588Y-56877557D01*
X103823757Y-56943246D01*
X104033713Y-56976500D01*
X104033714Y-56976500D01*
X104246286Y-56976500D01*
X104246287Y-56976500D01*
X104456243Y-56943246D01*
X104658412Y-56877557D01*
X104847816Y-56781051D01*
X104934138Y-56718335D01*
X105019786Y-56656109D01*
X105019788Y-56656106D01*
X105019792Y-56656104D01*
X105170104Y-56505792D01*
X105170106Y-56505788D01*
X105170109Y-56505786D01*
X105295048Y-56333820D01*
X105295050Y-56333817D01*
X105295051Y-56333816D01*
X105299514Y-56325054D01*
X105347488Y-56274259D01*
X105415308Y-56257463D01*
X105481444Y-56279999D01*
X105520486Y-56325056D01*
X105524951Y-56333820D01*
X105649890Y-56505786D01*
X105800213Y-56656109D01*
X105972179Y-56781048D01*
X105972181Y-56781049D01*
X105972184Y-56781051D01*
X106161588Y-56877557D01*
X106363757Y-56943246D01*
X106573713Y-56976500D01*
X106573714Y-56976500D01*
X106786286Y-56976500D01*
X106786287Y-56976500D01*
X106996243Y-56943246D01*
X107198412Y-56877557D01*
X107387816Y-56781051D01*
X107474138Y-56718335D01*
X107559786Y-56656109D01*
X107559788Y-56656106D01*
X107559792Y-56656104D01*
X107710104Y-56505792D01*
X107710106Y-56505788D01*
X107710109Y-56505786D01*
X107835048Y-56333820D01*
X107835050Y-56333817D01*
X107835051Y-56333816D01*
X107839514Y-56325054D01*
X107887488Y-56274259D01*
X107955308Y-56257463D01*
X108021444Y-56279999D01*
X108060486Y-56325056D01*
X108064951Y-56333820D01*
X108189890Y-56505786D01*
X108340213Y-56656109D01*
X108512179Y-56781048D01*
X108512181Y-56781049D01*
X108512184Y-56781051D01*
X108701588Y-56877557D01*
X108903757Y-56943246D01*
X109113713Y-56976500D01*
X109113714Y-56976500D01*
X109326286Y-56976500D01*
X109326287Y-56976500D01*
X109536243Y-56943246D01*
X109738412Y-56877557D01*
X109927816Y-56781051D01*
X110014138Y-56718335D01*
X110099786Y-56656109D01*
X110099788Y-56656106D01*
X110099792Y-56656104D01*
X110250104Y-56505792D01*
X110250106Y-56505788D01*
X110250109Y-56505786D01*
X110375048Y-56333820D01*
X110375050Y-56333817D01*
X110375051Y-56333816D01*
X110379514Y-56325054D01*
X110427488Y-56274259D01*
X110495308Y-56257463D01*
X110561444Y-56279999D01*
X110600486Y-56325056D01*
X110604951Y-56333820D01*
X110729890Y-56505786D01*
X110880213Y-56656109D01*
X111052179Y-56781048D01*
X111052181Y-56781049D01*
X111052184Y-56781051D01*
X111241588Y-56877557D01*
X111443757Y-56943246D01*
X111653713Y-56976500D01*
X111653714Y-56976500D01*
X111866286Y-56976500D01*
X111866287Y-56976500D01*
X112076243Y-56943246D01*
X112278412Y-56877557D01*
X112467816Y-56781051D01*
X112554138Y-56718335D01*
X112639786Y-56656109D01*
X112639788Y-56656106D01*
X112639792Y-56656104D01*
X112790104Y-56505792D01*
X112790106Y-56505788D01*
X112790109Y-56505786D01*
X112915048Y-56333820D01*
X112915050Y-56333817D01*
X112915051Y-56333816D01*
X112919514Y-56325054D01*
X112967488Y-56274259D01*
X113035308Y-56257463D01*
X113101444Y-56279999D01*
X113140486Y-56325056D01*
X113144951Y-56333820D01*
X113269890Y-56505786D01*
X113420213Y-56656109D01*
X113592179Y-56781048D01*
X113592181Y-56781049D01*
X113592184Y-56781051D01*
X113781588Y-56877557D01*
X113983757Y-56943246D01*
X114193713Y-56976500D01*
X114193714Y-56976500D01*
X114406286Y-56976500D01*
X114406287Y-56976500D01*
X114616243Y-56943246D01*
X114818412Y-56877557D01*
X115007816Y-56781051D01*
X115094138Y-56718335D01*
X115179786Y-56656109D01*
X115179788Y-56656106D01*
X115179792Y-56656104D01*
X115330104Y-56505792D01*
X115330106Y-56505788D01*
X115330109Y-56505786D01*
X115455048Y-56333820D01*
X115455050Y-56333817D01*
X115455051Y-56333816D01*
X115459514Y-56325054D01*
X115507488Y-56274259D01*
X115575308Y-56257463D01*
X115641444Y-56279999D01*
X115680486Y-56325056D01*
X115684951Y-56333820D01*
X115809890Y-56505786D01*
X115960213Y-56656109D01*
X116132179Y-56781048D01*
X116132181Y-56781049D01*
X116132184Y-56781051D01*
X116321588Y-56877557D01*
X116523757Y-56943246D01*
X116733713Y-56976500D01*
X116733714Y-56976500D01*
X116946286Y-56976500D01*
X116946287Y-56976500D01*
X117156243Y-56943246D01*
X117358412Y-56877557D01*
X117547816Y-56781051D01*
X117634138Y-56718335D01*
X117719786Y-56656109D01*
X117719788Y-56656106D01*
X117719792Y-56656104D01*
X117870104Y-56505792D01*
X117870106Y-56505788D01*
X117870109Y-56505786D01*
X117995048Y-56333820D01*
X117995050Y-56333817D01*
X117995051Y-56333816D01*
X117999514Y-56325054D01*
X118047488Y-56274259D01*
X118115308Y-56257463D01*
X118181444Y-56279999D01*
X118220486Y-56325056D01*
X118224951Y-56333820D01*
X118349890Y-56505786D01*
X118500213Y-56656109D01*
X118672179Y-56781048D01*
X118672181Y-56781049D01*
X118672184Y-56781051D01*
X118861588Y-56877557D01*
X119063757Y-56943246D01*
X119273713Y-56976500D01*
X119273714Y-56976500D01*
X119486286Y-56976500D01*
X119486287Y-56976500D01*
X119696243Y-56943246D01*
X119898412Y-56877557D01*
X120087816Y-56781051D01*
X120174138Y-56718335D01*
X120259786Y-56656109D01*
X120259788Y-56656106D01*
X120259792Y-56656104D01*
X120410104Y-56505792D01*
X120410106Y-56505788D01*
X120410109Y-56505786D01*
X120535048Y-56333820D01*
X120535050Y-56333817D01*
X120535051Y-56333816D01*
X120539514Y-56325054D01*
X120587488Y-56274259D01*
X120655308Y-56257463D01*
X120721444Y-56279999D01*
X120760486Y-56325056D01*
X120764951Y-56333820D01*
X120889890Y-56505786D01*
X121040213Y-56656109D01*
X121212179Y-56781048D01*
X121212181Y-56781049D01*
X121212184Y-56781051D01*
X121401588Y-56877557D01*
X121603757Y-56943246D01*
X121813713Y-56976500D01*
X121813714Y-56976500D01*
X122026286Y-56976500D01*
X122026287Y-56976500D01*
X122236243Y-56943246D01*
X122438412Y-56877557D01*
X122627816Y-56781051D01*
X122714138Y-56718335D01*
X122799786Y-56656109D01*
X122799788Y-56656106D01*
X122799792Y-56656104D01*
X122950104Y-56505792D01*
X122950106Y-56505788D01*
X122950109Y-56505786D01*
X123075048Y-56333820D01*
X123075050Y-56333817D01*
X123075051Y-56333816D01*
X123079514Y-56325054D01*
X123127488Y-56274259D01*
X123195308Y-56257463D01*
X123261444Y-56279999D01*
X123300486Y-56325056D01*
X123304951Y-56333820D01*
X123429890Y-56505786D01*
X123580213Y-56656109D01*
X123752179Y-56781048D01*
X123752181Y-56781049D01*
X123752184Y-56781051D01*
X123941588Y-56877557D01*
X124143757Y-56943246D01*
X124353713Y-56976500D01*
X124353714Y-56976500D01*
X124566286Y-56976500D01*
X124566287Y-56976500D01*
X124776243Y-56943246D01*
X124978412Y-56877557D01*
X125167816Y-56781051D01*
X125254138Y-56718335D01*
X125339786Y-56656109D01*
X125339788Y-56656106D01*
X125339792Y-56656104D01*
X125490104Y-56505792D01*
X125490106Y-56505788D01*
X125490109Y-56505786D01*
X125615048Y-56333820D01*
X125615050Y-56333817D01*
X125615051Y-56333816D01*
X125619514Y-56325054D01*
X125667488Y-56274259D01*
X125735308Y-56257463D01*
X125801444Y-56279999D01*
X125840486Y-56325056D01*
X125844951Y-56333820D01*
X125969890Y-56505786D01*
X126120213Y-56656109D01*
X126292179Y-56781048D01*
X126292181Y-56781049D01*
X126292184Y-56781051D01*
X126481588Y-56877557D01*
X126683757Y-56943246D01*
X126893713Y-56976500D01*
X126893714Y-56976500D01*
X127106286Y-56976500D01*
X127106287Y-56976500D01*
X127316243Y-56943246D01*
X127518412Y-56877557D01*
X127707816Y-56781051D01*
X127794138Y-56718335D01*
X127879786Y-56656109D01*
X127879788Y-56656106D01*
X127879792Y-56656104D01*
X128030104Y-56505792D01*
X128030106Y-56505788D01*
X128030109Y-56505786D01*
X128155048Y-56333820D01*
X128155050Y-56333817D01*
X128155051Y-56333816D01*
X128159514Y-56325054D01*
X128207488Y-56274259D01*
X128275308Y-56257463D01*
X128341444Y-56279999D01*
X128380486Y-56325056D01*
X128384951Y-56333820D01*
X128509890Y-56505786D01*
X128660213Y-56656109D01*
X128832179Y-56781048D01*
X128832181Y-56781049D01*
X128832184Y-56781051D01*
X129021588Y-56877557D01*
X129223757Y-56943246D01*
X129433713Y-56976500D01*
X129433714Y-56976500D01*
X129646286Y-56976500D01*
X129646287Y-56976500D01*
X129856243Y-56943246D01*
X130058412Y-56877557D01*
X130247816Y-56781051D01*
X130334138Y-56718335D01*
X130419786Y-56656109D01*
X130419788Y-56656106D01*
X130419792Y-56656104D01*
X130570104Y-56505792D01*
X130570106Y-56505788D01*
X130570109Y-56505786D01*
X130695048Y-56333820D01*
X130695050Y-56333817D01*
X130695051Y-56333816D01*
X130699514Y-56325054D01*
X130747488Y-56274259D01*
X130815308Y-56257463D01*
X130881444Y-56279999D01*
X130920486Y-56325056D01*
X130924951Y-56333820D01*
X131049890Y-56505786D01*
X131200213Y-56656109D01*
X131372179Y-56781048D01*
X131372181Y-56781049D01*
X131372184Y-56781051D01*
X131561588Y-56877557D01*
X131763757Y-56943246D01*
X131973713Y-56976500D01*
X131973714Y-56976500D01*
X132186286Y-56976500D01*
X132186287Y-56976500D01*
X132396243Y-56943246D01*
X132598412Y-56877557D01*
X132787816Y-56781051D01*
X132874138Y-56718335D01*
X132959786Y-56656109D01*
X132959788Y-56656106D01*
X132959792Y-56656104D01*
X133110104Y-56505792D01*
X133110106Y-56505788D01*
X133110109Y-56505786D01*
X133235048Y-56333820D01*
X133235050Y-56333817D01*
X133235051Y-56333816D01*
X133239514Y-56325054D01*
X133287488Y-56274259D01*
X133355308Y-56257463D01*
X133421444Y-56279999D01*
X133460486Y-56325056D01*
X133464951Y-56333820D01*
X133589890Y-56505786D01*
X133740213Y-56656109D01*
X133912179Y-56781048D01*
X133912181Y-56781049D01*
X133912184Y-56781051D01*
X134101588Y-56877557D01*
X134303757Y-56943246D01*
X134513713Y-56976500D01*
X134513714Y-56976500D01*
X134726286Y-56976500D01*
X134726287Y-56976500D01*
X134936243Y-56943246D01*
X135138412Y-56877557D01*
X135327816Y-56781051D01*
X135414138Y-56718335D01*
X135499786Y-56656109D01*
X135499788Y-56656106D01*
X135499792Y-56656104D01*
X135650104Y-56505792D01*
X135650106Y-56505788D01*
X135650109Y-56505786D01*
X135775048Y-56333820D01*
X135775050Y-56333817D01*
X135775051Y-56333816D01*
X135779514Y-56325054D01*
X135827488Y-56274259D01*
X135895308Y-56257463D01*
X135961444Y-56279999D01*
X136000486Y-56325056D01*
X136004951Y-56333820D01*
X136129890Y-56505786D01*
X136280213Y-56656109D01*
X136452179Y-56781048D01*
X136452181Y-56781049D01*
X136452184Y-56781051D01*
X136641588Y-56877557D01*
X136843757Y-56943246D01*
X137053713Y-56976500D01*
X137053714Y-56976500D01*
X137266286Y-56976500D01*
X137266287Y-56976500D01*
X137476243Y-56943246D01*
X137678412Y-56877557D01*
X137867816Y-56781051D01*
X137954138Y-56718335D01*
X138039786Y-56656109D01*
X138039788Y-56656106D01*
X138039792Y-56656104D01*
X138190104Y-56505792D01*
X138190106Y-56505788D01*
X138190109Y-56505786D01*
X138315048Y-56333820D01*
X138315050Y-56333817D01*
X138315051Y-56333816D01*
X138411557Y-56144412D01*
X138477246Y-55942243D01*
X138510500Y-55732287D01*
X138510500Y-55519713D01*
X138477246Y-55309757D01*
X138411557Y-55107588D01*
X138315051Y-54918184D01*
X138315049Y-54918181D01*
X138315048Y-54918179D01*
X138190109Y-54746213D01*
X138039786Y-54595890D01*
X137867820Y-54470951D01*
X137678414Y-54374444D01*
X137678413Y-54374443D01*
X137678412Y-54374443D01*
X137476243Y-54308754D01*
X137476241Y-54308753D01*
X137476240Y-54308753D01*
X137307042Y-54281955D01*
X137266287Y-54275500D01*
X137053713Y-54275500D01*
X137012958Y-54281955D01*
X136843760Y-54308753D01*
X136641585Y-54374444D01*
X136452179Y-54470951D01*
X136280213Y-54595890D01*
X136129890Y-54746213D01*
X136004949Y-54918182D01*
X136000484Y-54926946D01*
X135952509Y-54977742D01*
X135884688Y-54994536D01*
X135818553Y-54971998D01*
X135779516Y-54926946D01*
X135775050Y-54918182D01*
X135650109Y-54746213D01*
X135499786Y-54595890D01*
X135327820Y-54470951D01*
X135138414Y-54374444D01*
X135138413Y-54374443D01*
X135138412Y-54374443D01*
X134936243Y-54308754D01*
X134936241Y-54308753D01*
X134936240Y-54308753D01*
X134767042Y-54281955D01*
X134726287Y-54275500D01*
X134513713Y-54275500D01*
X134472958Y-54281955D01*
X134303760Y-54308753D01*
X134101585Y-54374444D01*
X133912179Y-54470951D01*
X133740213Y-54595890D01*
X133589890Y-54746213D01*
X133464949Y-54918182D01*
X133460484Y-54926946D01*
X133412509Y-54977742D01*
X133344688Y-54994536D01*
X133278553Y-54971998D01*
X133239516Y-54926946D01*
X133235050Y-54918182D01*
X133110109Y-54746213D01*
X132959786Y-54595890D01*
X132787820Y-54470951D01*
X132598414Y-54374444D01*
X132598413Y-54374443D01*
X132598412Y-54374443D01*
X132396243Y-54308754D01*
X132396241Y-54308753D01*
X132396240Y-54308753D01*
X132227042Y-54281955D01*
X132186287Y-54275500D01*
X131973713Y-54275500D01*
X131932958Y-54281955D01*
X131763760Y-54308753D01*
X131561585Y-54374444D01*
X131372179Y-54470951D01*
X131200213Y-54595890D01*
X131049890Y-54746213D01*
X130924949Y-54918182D01*
X130920484Y-54926946D01*
X130872509Y-54977742D01*
X130804688Y-54994536D01*
X130738553Y-54971998D01*
X130699516Y-54926946D01*
X130695050Y-54918182D01*
X130570109Y-54746213D01*
X130419786Y-54595890D01*
X130247820Y-54470951D01*
X130058414Y-54374444D01*
X130058413Y-54374443D01*
X130058412Y-54374443D01*
X129856243Y-54308754D01*
X129856241Y-54308753D01*
X129856240Y-54308753D01*
X129687042Y-54281955D01*
X129646287Y-54275500D01*
X129433713Y-54275500D01*
X129392958Y-54281955D01*
X129223760Y-54308753D01*
X129021585Y-54374444D01*
X128832179Y-54470951D01*
X128660213Y-54595890D01*
X128509890Y-54746213D01*
X128384949Y-54918182D01*
X128380484Y-54926946D01*
X128332509Y-54977742D01*
X128264688Y-54994536D01*
X128198553Y-54971998D01*
X128159516Y-54926946D01*
X128155050Y-54918182D01*
X128030109Y-54746213D01*
X127879786Y-54595890D01*
X127707820Y-54470951D01*
X127518414Y-54374444D01*
X127518413Y-54374443D01*
X127518412Y-54374443D01*
X127316243Y-54308754D01*
X127316241Y-54308753D01*
X127316240Y-54308753D01*
X127147042Y-54281955D01*
X127106287Y-54275500D01*
X126893713Y-54275500D01*
X126852958Y-54281955D01*
X126683760Y-54308753D01*
X126481585Y-54374444D01*
X126292179Y-54470951D01*
X126120213Y-54595890D01*
X125969890Y-54746213D01*
X125844949Y-54918182D01*
X125840484Y-54926946D01*
X125792509Y-54977742D01*
X125724688Y-54994536D01*
X125658553Y-54971998D01*
X125619516Y-54926946D01*
X125615050Y-54918182D01*
X125490109Y-54746213D01*
X125339786Y-54595890D01*
X125167820Y-54470951D01*
X124978414Y-54374444D01*
X124978413Y-54374443D01*
X124978412Y-54374443D01*
X124776243Y-54308754D01*
X124776241Y-54308753D01*
X124776240Y-54308753D01*
X124607042Y-54281955D01*
X124566287Y-54275500D01*
X124353713Y-54275500D01*
X124312958Y-54281955D01*
X124143760Y-54308753D01*
X123941585Y-54374444D01*
X123752179Y-54470951D01*
X123580213Y-54595890D01*
X123429890Y-54746213D01*
X123304949Y-54918182D01*
X123300484Y-54926946D01*
X123252509Y-54977742D01*
X123184688Y-54994536D01*
X123118553Y-54971998D01*
X123079516Y-54926946D01*
X123075050Y-54918182D01*
X122950109Y-54746213D01*
X122799786Y-54595890D01*
X122627820Y-54470951D01*
X122438414Y-54374444D01*
X122438413Y-54374443D01*
X122438412Y-54374443D01*
X122236243Y-54308754D01*
X122236241Y-54308753D01*
X122236240Y-54308753D01*
X122067042Y-54281955D01*
X122026287Y-54275500D01*
X121813713Y-54275500D01*
X121772958Y-54281955D01*
X121603760Y-54308753D01*
X121401585Y-54374444D01*
X121212179Y-54470951D01*
X121040213Y-54595890D01*
X120889890Y-54746213D01*
X120764949Y-54918182D01*
X120760484Y-54926946D01*
X120712509Y-54977742D01*
X120644688Y-54994536D01*
X120578553Y-54971998D01*
X120539516Y-54926946D01*
X120535050Y-54918182D01*
X120410109Y-54746213D01*
X120259786Y-54595890D01*
X120087820Y-54470951D01*
X119898414Y-54374444D01*
X119898413Y-54374443D01*
X119898412Y-54374443D01*
X119696243Y-54308754D01*
X119696241Y-54308753D01*
X119696240Y-54308753D01*
X119527042Y-54281955D01*
X119486287Y-54275500D01*
X119273713Y-54275500D01*
X119232958Y-54281955D01*
X119063760Y-54308753D01*
X118861585Y-54374444D01*
X118672179Y-54470951D01*
X118500213Y-54595890D01*
X118349890Y-54746213D01*
X118224949Y-54918182D01*
X118220484Y-54926946D01*
X118172509Y-54977742D01*
X118104688Y-54994536D01*
X118038553Y-54971998D01*
X117999516Y-54926946D01*
X117995050Y-54918182D01*
X117870109Y-54746213D01*
X117719786Y-54595890D01*
X117547820Y-54470951D01*
X117358414Y-54374444D01*
X117358413Y-54374443D01*
X117358412Y-54374443D01*
X117156243Y-54308754D01*
X117156241Y-54308753D01*
X117156240Y-54308753D01*
X116987042Y-54281955D01*
X116946287Y-54275500D01*
X116733713Y-54275500D01*
X116692958Y-54281955D01*
X116523760Y-54308753D01*
X116321585Y-54374444D01*
X116132179Y-54470951D01*
X115960213Y-54595890D01*
X115809890Y-54746213D01*
X115684949Y-54918182D01*
X115680484Y-54926946D01*
X115632509Y-54977742D01*
X115564688Y-54994536D01*
X115498553Y-54971998D01*
X115459516Y-54926946D01*
X115455050Y-54918182D01*
X115330109Y-54746213D01*
X115179786Y-54595890D01*
X115007820Y-54470951D01*
X114818414Y-54374444D01*
X114818413Y-54374443D01*
X114818412Y-54374443D01*
X114616243Y-54308754D01*
X114616241Y-54308753D01*
X114616240Y-54308753D01*
X114447042Y-54281955D01*
X114406287Y-54275500D01*
X114193713Y-54275500D01*
X114152958Y-54281955D01*
X113983760Y-54308753D01*
X113781585Y-54374444D01*
X113592179Y-54470951D01*
X113420213Y-54595890D01*
X113269890Y-54746213D01*
X113144949Y-54918182D01*
X113140484Y-54926946D01*
X113092509Y-54977742D01*
X113024688Y-54994536D01*
X112958553Y-54971998D01*
X112919516Y-54926946D01*
X112915050Y-54918182D01*
X112790109Y-54746213D01*
X112639786Y-54595890D01*
X112467820Y-54470951D01*
X112278414Y-54374444D01*
X112278413Y-54374443D01*
X112278412Y-54374443D01*
X112076243Y-54308754D01*
X112076241Y-54308753D01*
X112076240Y-54308753D01*
X111907042Y-54281955D01*
X111866287Y-54275500D01*
X111653713Y-54275500D01*
X111612958Y-54281955D01*
X111443760Y-54308753D01*
X111241585Y-54374444D01*
X111052179Y-54470951D01*
X110880213Y-54595890D01*
X110729890Y-54746213D01*
X110604949Y-54918182D01*
X110600484Y-54926946D01*
X110552509Y-54977742D01*
X110484688Y-54994536D01*
X110418553Y-54971998D01*
X110379516Y-54926946D01*
X110375050Y-54918182D01*
X110250109Y-54746213D01*
X110099786Y-54595890D01*
X109927820Y-54470951D01*
X109738414Y-54374444D01*
X109738413Y-54374443D01*
X109738412Y-54374443D01*
X109536243Y-54308754D01*
X109536241Y-54308753D01*
X109536240Y-54308753D01*
X109367042Y-54281955D01*
X109326287Y-54275500D01*
X109113713Y-54275500D01*
X109072958Y-54281955D01*
X108903760Y-54308753D01*
X108701585Y-54374444D01*
X108512179Y-54470951D01*
X108340213Y-54595890D01*
X108189890Y-54746213D01*
X108064949Y-54918182D01*
X108060484Y-54926946D01*
X108012509Y-54977742D01*
X107944688Y-54994536D01*
X107878553Y-54971998D01*
X107839516Y-54926946D01*
X107835050Y-54918182D01*
X107710109Y-54746213D01*
X107559786Y-54595890D01*
X107387820Y-54470951D01*
X107198414Y-54374444D01*
X107198413Y-54374443D01*
X107198412Y-54374443D01*
X106996243Y-54308754D01*
X106996241Y-54308753D01*
X106996240Y-54308753D01*
X106827042Y-54281955D01*
X106786287Y-54275500D01*
X106573713Y-54275500D01*
X106532958Y-54281955D01*
X106363760Y-54308753D01*
X106161585Y-54374444D01*
X105972179Y-54470951D01*
X105800213Y-54595890D01*
X105649890Y-54746213D01*
X105524949Y-54918182D01*
X105520484Y-54926946D01*
X105472509Y-54977742D01*
X105404688Y-54994536D01*
X105338553Y-54971998D01*
X105299516Y-54926946D01*
X105295050Y-54918182D01*
X105170109Y-54746213D01*
X105019786Y-54595890D01*
X104847820Y-54470951D01*
X104658414Y-54374444D01*
X104658413Y-54374443D01*
X104658412Y-54374443D01*
X104456243Y-54308754D01*
X104456241Y-54308753D01*
X104456240Y-54308753D01*
X104287042Y-54281955D01*
X104246287Y-54275500D01*
X104033713Y-54275500D01*
X103992958Y-54281955D01*
X103823760Y-54308753D01*
X103621585Y-54374444D01*
X103432179Y-54470951D01*
X103260213Y-54595890D01*
X103109890Y-54746213D01*
X102984949Y-54918182D01*
X102980484Y-54926946D01*
X102932509Y-54977742D01*
X102864688Y-54994536D01*
X102798553Y-54971998D01*
X102759516Y-54926946D01*
X102755050Y-54918182D01*
X102630109Y-54746213D01*
X102479786Y-54595890D01*
X102307820Y-54470951D01*
X102118414Y-54374444D01*
X102118413Y-54374443D01*
X102118412Y-54374443D01*
X101916243Y-54308754D01*
X101916241Y-54308753D01*
X101916240Y-54308753D01*
X101747042Y-54281955D01*
X101706287Y-54275500D01*
X101493713Y-54275500D01*
X101452958Y-54281955D01*
X101283760Y-54308753D01*
X101081585Y-54374444D01*
X100892179Y-54470951D01*
X100720213Y-54595890D01*
X100569890Y-54746213D01*
X100444949Y-54918182D01*
X100440484Y-54926946D01*
X100392509Y-54977742D01*
X100324688Y-54994536D01*
X100258553Y-54971998D01*
X100219516Y-54926946D01*
X100215050Y-54918182D01*
X100090109Y-54746213D01*
X99939786Y-54595890D01*
X99767820Y-54470951D01*
X99578414Y-54374444D01*
X99578413Y-54374443D01*
X99578412Y-54374443D01*
X99376243Y-54308754D01*
X99376241Y-54308753D01*
X99376240Y-54308753D01*
X99207042Y-54281955D01*
X99166287Y-54275500D01*
X98953713Y-54275500D01*
X98912958Y-54281955D01*
X98743760Y-54308753D01*
X98541585Y-54374444D01*
X98352179Y-54470951D01*
X98180213Y-54595890D01*
X98029890Y-54746213D01*
X97904949Y-54918182D01*
X97900484Y-54926946D01*
X97852509Y-54977742D01*
X97784688Y-54994536D01*
X97718553Y-54971998D01*
X97679516Y-54926946D01*
X97675050Y-54918182D01*
X97550109Y-54746213D01*
X97399786Y-54595890D01*
X97227820Y-54470951D01*
X97038414Y-54374444D01*
X97038413Y-54374443D01*
X97038412Y-54374443D01*
X96836243Y-54308754D01*
X96836241Y-54308753D01*
X96836240Y-54308753D01*
X96667042Y-54281955D01*
X96626287Y-54275500D01*
X96413713Y-54275500D01*
X96372958Y-54281955D01*
X96203760Y-54308753D01*
X96001585Y-54374444D01*
X95812179Y-54470951D01*
X95640213Y-54595890D01*
X95489890Y-54746213D01*
X95364949Y-54918182D01*
X95360484Y-54926946D01*
X95312509Y-54977742D01*
X95244688Y-54994536D01*
X95178553Y-54971998D01*
X95139516Y-54926946D01*
X95135050Y-54918182D01*
X95010109Y-54746213D01*
X94859786Y-54595890D01*
X94687820Y-54470951D01*
X94498414Y-54374444D01*
X94498413Y-54374443D01*
X94498412Y-54374443D01*
X94296243Y-54308754D01*
X94296241Y-54308753D01*
X94296240Y-54308753D01*
X94127042Y-54281955D01*
X94086287Y-54275500D01*
X93873713Y-54275500D01*
X93832958Y-54281955D01*
X93663760Y-54308753D01*
X93461585Y-54374444D01*
X93272179Y-54470951D01*
X93100213Y-54595890D01*
X92949890Y-54746213D01*
X92824949Y-54918182D01*
X92820202Y-54927499D01*
X92772227Y-54978293D01*
X92704405Y-54995087D01*
X92638271Y-54972548D01*
X92599234Y-54927495D01*
X92594626Y-54918452D01*
X92555270Y-54864282D01*
X92555269Y-54864282D01*
X91922962Y-55496590D01*
X91905925Y-55433007D01*
X91840099Y-55318993D01*
X91747007Y-55225901D01*
X91632993Y-55160075D01*
X91569408Y-55143037D01*
X92201716Y-54510728D01*
X92147550Y-54471375D01*
X91958217Y-54374904D01*
X91756128Y-54309242D01*
X91583847Y-54281955D01*
X91520712Y-54252026D01*
X91483781Y-54192714D01*
X91484779Y-54122851D01*
X91515560Y-54071806D01*
X98222413Y-47364954D01*
X101327500Y-47364954D01*
X101327500Y-47667045D01*
X101366929Y-47966546D01*
X101445117Y-48258347D01*
X101560719Y-48537434D01*
X101560723Y-48537444D01*
X101711766Y-48799058D01*
X101895665Y-49038721D01*
X101895671Y-49038728D01*
X102109271Y-49252328D01*
X102109278Y-49252334D01*
X102348941Y-49436233D01*
X102610555Y-49587276D01*
X102610556Y-49587276D01*
X102610559Y-49587278D01*
X102889653Y-49702883D01*
X103181450Y-49781070D01*
X103406078Y-49810642D01*
X103480954Y-49820500D01*
X103480955Y-49820500D01*
X103783046Y-49820500D01*
X103842946Y-49812614D01*
X104082550Y-49781070D01*
X104374347Y-49702883D01*
X104653441Y-49587278D01*
X104915059Y-49436233D01*
X105154723Y-49252333D01*
X105368333Y-49038723D01*
X105552233Y-48799059D01*
X105703278Y-48537441D01*
X105818883Y-48258347D01*
X105897070Y-47966550D01*
X105936500Y-47667045D01*
X105936500Y-47364955D01*
X105897070Y-47065450D01*
X105818883Y-46773653D01*
X105703278Y-46494559D01*
X105698336Y-46486000D01*
X105552233Y-46232941D01*
X105368334Y-45993278D01*
X105368328Y-45993271D01*
X105154728Y-45779671D01*
X105154721Y-45779665D01*
X104915058Y-45595766D01*
X104653444Y-45444723D01*
X104653434Y-45444719D01*
X104374347Y-45329117D01*
X104236885Y-45292284D01*
X104082550Y-45250930D01*
X104082549Y-45250929D01*
X104082546Y-45250929D01*
X103783046Y-45211500D01*
X103783045Y-45211500D01*
X103480955Y-45211500D01*
X103480954Y-45211500D01*
X103181453Y-45250929D01*
X102889652Y-45329117D01*
X102610565Y-45444719D01*
X102610555Y-45444723D01*
X102348941Y-45595766D01*
X102109278Y-45779665D01*
X102109271Y-45779671D01*
X101895671Y-45993271D01*
X101895665Y-45993278D01*
X101711766Y-46232941D01*
X101560723Y-46494555D01*
X101560719Y-46494565D01*
X101445117Y-46773652D01*
X101366929Y-47065453D01*
X101327500Y-47364954D01*
X98222413Y-47364954D01*
X100985548Y-44601819D01*
X101046871Y-44568334D01*
X101073229Y-44565500D01*
X110697622Y-44565500D01*
X110764661Y-44585185D01*
X110797938Y-44616612D01*
X110806935Y-44628995D01*
X110946005Y-44768065D01*
X111105119Y-44883668D01*
X111279449Y-44972494D01*
X111280360Y-44972958D01*
X111467404Y-45033732D01*
X111467405Y-45033732D01*
X111467408Y-45033733D01*
X111661662Y-45064500D01*
X111661663Y-45064500D01*
X111858337Y-45064500D01*
X111858338Y-45064500D01*
X112052592Y-45033733D01*
X112052595Y-45033732D01*
X112052596Y-45033732D01*
X112239639Y-44972958D01*
X112239639Y-44972957D01*
X112239642Y-44972957D01*
X112414881Y-44883668D01*
X112573995Y-44768065D01*
X112713065Y-44628995D01*
X112828668Y-44469881D01*
X112917957Y-44294642D01*
X112952703Y-44187704D01*
X112978732Y-44107596D01*
X112978732Y-44107595D01*
X112978733Y-44107592D01*
X113009500Y-43913338D01*
X113009500Y-43716702D01*
X119147000Y-43716702D01*
X119147000Y-43913297D01*
X119177755Y-44107476D01*
X119238504Y-44294447D01*
X119238505Y-44294449D01*
X119327758Y-44469614D01*
X119353036Y-44504408D01*
X119917119Y-43940326D01*
X119934734Y-44006063D01*
X119999902Y-44118937D01*
X120092063Y-44211098D01*
X120204937Y-44276266D01*
X120270672Y-44293880D01*
X119706589Y-44857962D01*
X119706590Y-44857963D01*
X119741377Y-44883237D01*
X119916550Y-44972494D01*
X119916552Y-44972495D01*
X120103523Y-45033244D01*
X120297703Y-45064000D01*
X120494297Y-45064000D01*
X120688476Y-45033244D01*
X120875447Y-44972495D01*
X120875449Y-44972494D01*
X121050619Y-44883239D01*
X121085408Y-44857962D01*
X121085409Y-44857961D01*
X120521327Y-44293879D01*
X120587063Y-44276266D01*
X120699937Y-44211098D01*
X120792098Y-44118937D01*
X120857266Y-44006063D01*
X120874880Y-43940327D01*
X121438961Y-44504409D01*
X121438962Y-44504408D01*
X121464239Y-44469619D01*
X121553494Y-44294449D01*
X121553495Y-44294447D01*
X121614244Y-44107476D01*
X121645000Y-43913297D01*
X121645000Y-43905820D01*
X123957536Y-43905820D01*
X123957536Y-44159179D01*
X123961572Y-44187703D01*
X123984444Y-44349347D01*
X123993032Y-44410035D01*
X123993035Y-44410050D01*
X124063318Y-44653435D01*
X124063322Y-44653444D01*
X124063323Y-44653448D01*
X124167024Y-44884610D01*
X124280371Y-45064500D01*
X124302089Y-45098967D01*
X124311966Y-45110626D01*
X124465850Y-45292281D01*
X124655082Y-45460748D01*
X124866049Y-45601042D01*
X124866054Y-45601044D01*
X124866058Y-45601047D01*
X125094583Y-45710391D01*
X125094586Y-45710392D01*
X125094592Y-45710395D01*
X125257036Y-45761665D01*
X125336201Y-45786651D01*
X125336206Y-45786652D01*
X125349018Y-45788793D01*
X125432401Y-45802731D01*
X125452364Y-45811000D01*
X125481922Y-45811000D01*
X125505410Y-45814915D01*
X125511936Y-45813700D01*
X125515217Y-45813091D01*
X125537893Y-45811000D01*
X126495515Y-45811000D01*
X126516560Y-45814915D01*
X126540051Y-45811000D01*
X126569610Y-45811000D01*
X126576509Y-45808141D01*
X126603505Y-45800402D01*
X126685771Y-45786653D01*
X126927383Y-45710401D01*
X127155929Y-45601049D01*
X127366901Y-45460757D01*
X127556136Y-45292290D01*
X127719902Y-45098972D01*
X127854968Y-44884617D01*
X127958670Y-44653453D01*
X128028963Y-44410040D01*
X128063133Y-44168553D01*
X128064459Y-44159181D01*
X128064459Y-43905820D01*
X139959536Y-43905820D01*
X139959536Y-44159179D01*
X139963572Y-44187703D01*
X139986444Y-44349347D01*
X139995032Y-44410035D01*
X139995035Y-44410050D01*
X140065318Y-44653435D01*
X140065322Y-44653444D01*
X140065323Y-44653448D01*
X140169024Y-44884610D01*
X140282371Y-45064500D01*
X140304089Y-45098967D01*
X140313966Y-45110626D01*
X140467850Y-45292281D01*
X140657082Y-45460748D01*
X140868049Y-45601042D01*
X140868054Y-45601044D01*
X140868058Y-45601047D01*
X141096583Y-45710391D01*
X141096586Y-45710392D01*
X141096592Y-45710395D01*
X141259036Y-45761665D01*
X141338201Y-45786651D01*
X141338206Y-45786652D01*
X141351018Y-45788793D01*
X141434401Y-45802731D01*
X141454364Y-45811000D01*
X141483922Y-45811000D01*
X141507410Y-45814915D01*
X141513936Y-45813700D01*
X141517217Y-45813091D01*
X141539893Y-45811000D01*
X142497515Y-45811000D01*
X142518560Y-45814915D01*
X142542051Y-45811000D01*
X142571610Y-45811000D01*
X142578509Y-45808141D01*
X142605505Y-45800402D01*
X142687771Y-45786653D01*
X142929383Y-45710401D01*
X143157929Y-45601049D01*
X143368901Y-45460757D01*
X143558136Y-45292290D01*
X143721902Y-45098972D01*
X143856968Y-44884617D01*
X143960670Y-44653453D01*
X144030963Y-44410040D01*
X144065133Y-44168553D01*
X144066459Y-44159181D01*
X144066459Y-43905818D01*
X144039699Y-43716702D01*
X144030963Y-43654960D01*
X143960670Y-43411547D01*
X143880145Y-43232048D01*
X143856970Y-43180387D01*
X143856967Y-43180382D01*
X143844199Y-43160119D01*
X143721902Y-42966028D01*
X143721902Y-42966027D01*
X143629994Y-42857535D01*
X143558136Y-42772710D01*
X143454331Y-42680297D01*
X143368903Y-42604244D01*
X143298577Y-42557479D01*
X143157929Y-42463951D01*
X142929383Y-42354599D01*
X142929380Y-42354598D01*
X142929378Y-42354597D01*
X142929380Y-42354597D01*
X142687769Y-42278346D01*
X142687766Y-42278345D01*
X142605513Y-42264597D01*
X142605513Y-42264596D01*
X142596675Y-42263120D01*
X142591568Y-42262267D01*
X142571611Y-42254001D01*
X142542056Y-42254000D01*
X142533319Y-42252544D01*
X142531940Y-42252314D01*
X142531939Y-42252314D01*
X142518562Y-42250085D01*
X142518557Y-42250085D01*
X142511559Y-42251386D01*
X142508751Y-42251909D01*
X142486078Y-42254000D01*
X141528457Y-42254000D01*
X141507410Y-42250085D01*
X141483921Y-42254000D01*
X141454359Y-42254000D01*
X141447455Y-42256860D01*
X141420457Y-42264598D01*
X141338200Y-42278348D01*
X141096593Y-42354604D01*
X141096583Y-42354608D01*
X140868058Y-42463952D01*
X140657080Y-42604253D01*
X140467851Y-42772718D01*
X140304089Y-42966032D01*
X140169024Y-43180389D01*
X140065324Y-43411549D01*
X140065318Y-43411564D01*
X139995035Y-43654949D01*
X139995032Y-43654960D01*
X139995032Y-43654963D01*
X139986302Y-43716662D01*
X139959536Y-43905820D01*
X128064459Y-43905820D01*
X128064459Y-43905818D01*
X128037699Y-43716702D01*
X128028963Y-43654960D01*
X127958670Y-43411547D01*
X127878145Y-43232048D01*
X127854970Y-43180387D01*
X127854967Y-43180382D01*
X127842199Y-43160119D01*
X127719902Y-42966028D01*
X127719902Y-42966027D01*
X127627994Y-42857535D01*
X127556136Y-42772710D01*
X127452331Y-42680297D01*
X127366903Y-42604244D01*
X127296577Y-42557479D01*
X127155929Y-42463951D01*
X126927383Y-42354599D01*
X126927380Y-42354598D01*
X126927378Y-42354597D01*
X126927380Y-42354597D01*
X126685769Y-42278346D01*
X126685766Y-42278345D01*
X126603513Y-42264597D01*
X126603513Y-42264596D01*
X126594675Y-42263120D01*
X126589568Y-42262267D01*
X126569611Y-42254001D01*
X126540056Y-42254000D01*
X126531319Y-42252544D01*
X126529940Y-42252314D01*
X126529939Y-42252314D01*
X126516562Y-42250085D01*
X126516557Y-42250085D01*
X126509559Y-42251386D01*
X126506751Y-42251909D01*
X126484078Y-42254000D01*
X125526457Y-42254000D01*
X125505410Y-42250085D01*
X125481921Y-42254000D01*
X125452359Y-42254000D01*
X125445455Y-42256860D01*
X125418457Y-42264598D01*
X125336200Y-42278348D01*
X125094593Y-42354604D01*
X125094583Y-42354608D01*
X124866058Y-42463952D01*
X124655080Y-42604253D01*
X124465851Y-42772718D01*
X124302089Y-42966032D01*
X124167024Y-43180389D01*
X124063324Y-43411549D01*
X124063318Y-43411564D01*
X123993035Y-43654949D01*
X123993032Y-43654960D01*
X123993032Y-43654963D01*
X123984302Y-43716662D01*
X123957536Y-43905820D01*
X121645000Y-43905820D01*
X121645000Y-43716702D01*
X121614244Y-43522523D01*
X121553495Y-43335552D01*
X121553494Y-43335550D01*
X121464237Y-43160377D01*
X121438963Y-43125590D01*
X121438962Y-43125589D01*
X120874879Y-43689671D01*
X120857266Y-43623937D01*
X120792098Y-43511063D01*
X120699937Y-43418902D01*
X120587063Y-43353734D01*
X120521326Y-43336119D01*
X121085408Y-42772036D01*
X121050614Y-42746758D01*
X120875449Y-42657505D01*
X120875447Y-42657504D01*
X120688476Y-42596755D01*
X120494297Y-42566000D01*
X120297703Y-42566000D01*
X120103523Y-42596755D01*
X119916552Y-42657504D01*
X119916550Y-42657505D01*
X119741382Y-42746759D01*
X119741380Y-42746760D01*
X119706590Y-42772035D01*
X119706590Y-42772036D01*
X120270673Y-43336119D01*
X120204937Y-43353734D01*
X120092063Y-43418902D01*
X119999902Y-43511063D01*
X119934734Y-43623937D01*
X119917119Y-43689673D01*
X119353036Y-43125590D01*
X119353035Y-43125590D01*
X119327760Y-43160380D01*
X119327759Y-43160382D01*
X119238505Y-43335550D01*
X119238504Y-43335552D01*
X119177755Y-43522523D01*
X119147000Y-43716702D01*
X113009500Y-43716702D01*
X113009500Y-43716662D01*
X112978733Y-43522408D01*
X112978732Y-43522404D01*
X112978732Y-43522403D01*
X112917958Y-43335360D01*
X112865318Y-43232049D01*
X112828668Y-43160119D01*
X112713065Y-43001005D01*
X112573995Y-42861935D01*
X112414881Y-42746332D01*
X112301949Y-42688790D01*
X112239639Y-42657041D01*
X112052595Y-42596267D01*
X111884944Y-42569714D01*
X111858338Y-42565500D01*
X111661662Y-42565500D01*
X111596910Y-42575755D01*
X111467406Y-42596267D01*
X111467403Y-42596267D01*
X111280360Y-42657041D01*
X111105118Y-42746332D01*
X110946002Y-42861937D01*
X110806934Y-43001005D01*
X110797939Y-43013387D01*
X110742608Y-43056052D01*
X110697622Y-43064500D01*
X100637080Y-43064500D01*
X100492092Y-43093340D01*
X100492082Y-43093343D01*
X100355511Y-43149912D01*
X100355498Y-43149919D01*
X100232584Y-43232048D01*
X100232580Y-43232051D01*
X89225449Y-54239181D01*
X89164126Y-54272666D01*
X89137768Y-54275500D01*
X88002129Y-54275500D01*
X88002123Y-54275501D01*
X87942516Y-54281908D01*
X87807671Y-54332202D01*
X87807668Y-54332204D01*
X87716811Y-54400220D01*
X87651347Y-54424637D01*
X87583074Y-54409785D01*
X87533668Y-54360380D01*
X87518500Y-54300953D01*
X87518500Y-51882806D01*
X87538185Y-51815767D01*
X87554814Y-51795130D01*
X91655819Y-47694124D01*
X91717142Y-47660640D01*
X91786834Y-47665624D01*
X91842767Y-47707496D01*
X91867184Y-47772960D01*
X91867500Y-47781806D01*
X91867500Y-47862287D01*
X91900754Y-48072243D01*
X91913598Y-48111774D01*
X91966444Y-48274414D01*
X92062951Y-48463820D01*
X92187890Y-48635786D01*
X92338213Y-48786109D01*
X92510179Y-48911048D01*
X92510181Y-48911049D01*
X92510184Y-48911051D01*
X92699588Y-49007557D01*
X92901757Y-49073246D01*
X93111713Y-49106500D01*
X93111714Y-49106500D01*
X93324286Y-49106500D01*
X93324287Y-49106500D01*
X93534243Y-49073246D01*
X93736412Y-49007557D01*
X93925816Y-48911051D01*
X94012471Y-48848093D01*
X94097786Y-48786109D01*
X94097788Y-48786106D01*
X94097792Y-48786104D01*
X94248104Y-48635792D01*
X94248106Y-48635788D01*
X94248109Y-48635786D01*
X94373048Y-48463820D01*
X94373047Y-48463820D01*
X94373051Y-48463816D01*
X94469557Y-48274412D01*
X94535246Y-48072243D01*
X94568500Y-47862287D01*
X94568500Y-47649713D01*
X94535246Y-47439757D01*
X94469557Y-47237588D01*
X94373051Y-47048184D01*
X94373049Y-47048181D01*
X94373048Y-47048179D01*
X94248109Y-46876213D01*
X94097786Y-46725890D01*
X93925820Y-46600951D01*
X93925115Y-46600591D01*
X93917054Y-46596485D01*
X93866259Y-46548512D01*
X93849463Y-46480692D01*
X93871999Y-46414556D01*
X93917054Y-46375515D01*
X93925816Y-46371051D01*
X94015020Y-46306241D01*
X94097786Y-46246109D01*
X94097788Y-46246106D01*
X94097792Y-46246104D01*
X94248104Y-46095792D01*
X94248106Y-46095788D01*
X94248109Y-46095786D01*
X94373048Y-45923820D01*
X94373047Y-45923820D01*
X94373051Y-45923816D01*
X94469557Y-45734412D01*
X94535246Y-45532243D01*
X94568500Y-45322287D01*
X94568500Y-45109713D01*
X94535246Y-44899757D01*
X94469557Y-44697588D01*
X94373051Y-44508184D01*
X94373049Y-44508181D01*
X94373048Y-44508179D01*
X94248109Y-44336213D01*
X94097786Y-44185890D01*
X93925820Y-44060951D01*
X93925115Y-44060591D01*
X93917054Y-44056485D01*
X93866259Y-44008512D01*
X93849463Y-43940692D01*
X93871999Y-43874556D01*
X93917054Y-43835515D01*
X93925816Y-43831051D01*
X93947910Y-43814999D01*
X94097786Y-43706109D01*
X94097788Y-43706106D01*
X94097792Y-43706104D01*
X94248104Y-43555792D01*
X94248106Y-43555788D01*
X94248109Y-43555786D01*
X94373048Y-43383820D01*
X94373047Y-43383820D01*
X94373051Y-43383816D01*
X94469557Y-43194412D01*
X94535246Y-42992243D01*
X94568500Y-42782287D01*
X94568500Y-42569713D01*
X94535246Y-42359757D01*
X94535241Y-42359743D01*
X94534992Y-42358702D01*
X94535013Y-42358283D01*
X94534484Y-42354945D01*
X94535185Y-42354833D01*
X94538476Y-42288919D01*
X94567880Y-42242064D01*
X96245127Y-40564819D01*
X96306450Y-40531334D01*
X96332808Y-40528500D01*
X100391500Y-40528500D01*
X100458539Y-40548185D01*
X100504294Y-40600989D01*
X100515500Y-40652500D01*
X100515500Y-41541870D01*
X100515501Y-41541876D01*
X100521908Y-41601483D01*
X100572202Y-41736328D01*
X100572206Y-41736335D01*
X100658452Y-41851544D01*
X100658455Y-41851547D01*
X100773664Y-41937793D01*
X100773671Y-41937797D01*
X100908517Y-41988091D01*
X100908516Y-41988091D01*
X100915444Y-41988835D01*
X100968127Y-41994500D01*
X104263872Y-41994499D01*
X104323483Y-41988091D01*
X104458331Y-41937796D01*
X104573546Y-41851546D01*
X104659796Y-41736331D01*
X104710091Y-41601483D01*
X104716500Y-41541873D01*
X104716499Y-40652499D01*
X104736183Y-40585461D01*
X104788987Y-40539706D01*
X104840499Y-40528500D01*
X124016071Y-40528500D01*
X124107051Y-40510402D01*
X124141744Y-40503501D01*
X124260127Y-40454465D01*
X124366669Y-40383277D01*
X132412064Y-32337880D01*
X132473385Y-32304397D01*
X132524871Y-32304950D01*
X132524945Y-32304484D01*
X132528112Y-32304985D01*
X132528702Y-32304992D01*
X132529743Y-32305241D01*
X132529757Y-32305246D01*
X132739713Y-32338500D01*
X132739714Y-32338500D01*
X132952286Y-32338500D01*
X132952287Y-32338500D01*
X133162243Y-32305246D01*
X133162248Y-32305244D01*
X133166360Y-32304593D01*
X133235653Y-32313547D01*
X133273439Y-32339385D01*
X141579325Y-40645272D01*
X141579331Y-40645277D01*
X141685874Y-40716466D01*
X141755221Y-40745189D01*
X141804256Y-40765501D01*
X141804259Y-40765501D01*
X141804260Y-40765502D01*
X141929928Y-40790500D01*
X141929931Y-40790500D01*
X141929932Y-40790500D01*
X142058069Y-40790500D01*
X173749031Y-40790500D01*
X173816070Y-40810185D01*
X173849349Y-40841615D01*
X173975890Y-41015785D01*
X173975894Y-41015790D01*
X174126213Y-41166109D01*
X174298182Y-41291050D01*
X174306946Y-41295516D01*
X174357742Y-41343491D01*
X174374536Y-41411312D01*
X174351998Y-41477447D01*
X174306946Y-41516484D01*
X174298182Y-41520949D01*
X174126213Y-41645890D01*
X173975890Y-41796213D01*
X173850951Y-41968179D01*
X173754444Y-42157585D01*
X173688753Y-42359760D01*
X173655500Y-42569713D01*
X173655500Y-42782286D01*
X173684602Y-42966032D01*
X173688754Y-42992243D01*
X173751685Y-43185925D01*
X173754444Y-43194414D01*
X173850951Y-43383820D01*
X173975890Y-43555786D01*
X174126213Y-43706109D01*
X174298182Y-43831050D01*
X174306946Y-43835516D01*
X174357742Y-43883491D01*
X174374536Y-43951312D01*
X174351998Y-44017447D01*
X174306946Y-44056484D01*
X174298182Y-44060949D01*
X174126213Y-44185890D01*
X173975890Y-44336213D01*
X173850951Y-44508179D01*
X173754444Y-44697585D01*
X173754443Y-44697587D01*
X173754443Y-44697588D01*
X173746179Y-44723022D01*
X173688753Y-44899760D01*
X173655500Y-45109713D01*
X173655500Y-45322286D01*
X173677431Y-45460757D01*
X173688754Y-45532243D01*
X173746641Y-45710401D01*
X173754444Y-45734414D01*
X173850951Y-45923820D01*
X173975890Y-46095786D01*
X174089818Y-46209714D01*
X174123303Y-46271037D01*
X174118319Y-46340729D01*
X174076447Y-46396662D01*
X174045471Y-46413577D01*
X173913912Y-46462646D01*
X173913906Y-46462649D01*
X173798812Y-46548809D01*
X173798809Y-46548812D01*
X173712649Y-46663906D01*
X173712645Y-46663913D01*
X173662403Y-46798620D01*
X173662401Y-46798627D01*
X173656000Y-46858155D01*
X173656000Y-47506000D01*
X174572988Y-47506000D01*
X174540075Y-47563007D01*
X174506000Y-47690174D01*
X174506000Y-47821826D01*
X174540075Y-47948993D01*
X174572988Y-48006000D01*
X173656000Y-48006000D01*
X173656000Y-48653844D01*
X173662401Y-48713372D01*
X173662403Y-48713379D01*
X173712645Y-48848086D01*
X173712649Y-48848093D01*
X173798809Y-48963187D01*
X173798812Y-48963190D01*
X173913906Y-49049350D01*
X173913913Y-49049354D01*
X174048620Y-49099596D01*
X174048627Y-49099598D01*
X174108155Y-49105999D01*
X174108172Y-49106000D01*
X174756000Y-49106000D01*
X174756000Y-48189012D01*
X174813007Y-48221925D01*
X174940174Y-48256000D01*
X175071826Y-48256000D01*
X175198993Y-48221925D01*
X175256000Y-48189012D01*
X175256000Y-49106000D01*
X175903828Y-49106000D01*
X175903844Y-49105999D01*
X175963372Y-49099598D01*
X175963379Y-49099596D01*
X176098086Y-49049354D01*
X176098093Y-49049350D01*
X176213187Y-48963190D01*
X176213190Y-48963187D01*
X176299350Y-48848093D01*
X176299354Y-48848086D01*
X176349596Y-48713379D01*
X176349598Y-48713372D01*
X176355999Y-48653844D01*
X176356000Y-48653827D01*
X176356000Y-48006000D01*
X175439012Y-48006000D01*
X175471925Y-47948993D01*
X175506000Y-47821826D01*
X175506000Y-47690174D01*
X175471925Y-47563007D01*
X175439012Y-47506000D01*
X176356000Y-47506000D01*
X176356000Y-46858172D01*
X176355999Y-46858155D01*
X176349598Y-46798627D01*
X176349596Y-46798620D01*
X176299354Y-46663913D01*
X176299350Y-46663906D01*
X176213190Y-46548812D01*
X176213187Y-46548809D01*
X176098093Y-46462649D01*
X176098088Y-46462646D01*
X175966528Y-46413577D01*
X175910595Y-46371705D01*
X175886178Y-46306241D01*
X175901030Y-46237968D01*
X175922175Y-46209720D01*
X176036104Y-46095792D01*
X176161051Y-45923816D01*
X176257557Y-45734412D01*
X176323246Y-45532243D01*
X176356500Y-45322287D01*
X176356500Y-45109713D01*
X176323246Y-44899757D01*
X176257557Y-44697588D01*
X176161051Y-44508184D01*
X176161049Y-44508181D01*
X176161048Y-44508179D01*
X176036109Y-44336213D01*
X175885786Y-44185890D01*
X175713820Y-44060951D01*
X175713115Y-44060591D01*
X175705054Y-44056485D01*
X175654259Y-44008512D01*
X175637463Y-43940692D01*
X175659999Y-43874556D01*
X175705054Y-43835515D01*
X175713816Y-43831051D01*
X175735910Y-43814999D01*
X175885786Y-43706109D01*
X175885788Y-43706106D01*
X175885792Y-43706104D01*
X176036104Y-43555792D01*
X176036106Y-43555788D01*
X176036109Y-43555786D01*
X176161048Y-43383820D01*
X176161047Y-43383820D01*
X176161051Y-43383816D01*
X176257557Y-43194412D01*
X176323246Y-42992243D01*
X176356500Y-42782287D01*
X176356500Y-42569713D01*
X176323246Y-42359757D01*
X176323244Y-42359753D01*
X176322593Y-42355638D01*
X176331547Y-42286345D01*
X176357382Y-42248562D01*
X179575277Y-39030669D01*
X179646465Y-38924127D01*
X179695501Y-38805744D01*
X179708732Y-38739228D01*
X179720500Y-38680069D01*
X179720500Y-33971931D01*
X179720500Y-33971928D01*
X179695502Y-33846261D01*
X179695501Y-33846260D01*
X179695501Y-33846256D01*
X179646465Y-33727873D01*
X179608130Y-33670500D01*
X179608130Y-33670499D01*
X179575275Y-33621328D01*
X179575272Y-33621325D01*
X170732322Y-24778376D01*
X170698837Y-24717053D01*
X170703821Y-24647361D01*
X170745693Y-24591428D01*
X170811157Y-24567011D01*
X170833053Y-24567384D01*
G37*
%TD.AperFunction*%
%TA.AperFunction,Conductor*%
G36*
X114804000Y-118412691D02*
G01*
X114784315Y-118479730D01*
X114767681Y-118500372D01*
X114320873Y-118947181D01*
X114259550Y-118980666D01*
X114233192Y-118983500D01*
X112080808Y-118983500D01*
X112013769Y-118963815D01*
X111993127Y-118947181D01*
X111702126Y-118656180D01*
X111668641Y-118594857D01*
X111673625Y-118525165D01*
X111715497Y-118469232D01*
X111780961Y-118444815D01*
X111789807Y-118444499D01*
X112911871Y-118444499D01*
X112911872Y-118444499D01*
X112971483Y-118438091D01*
X113106331Y-118387796D01*
X113221546Y-118301546D01*
X113307796Y-118186331D01*
X113357002Y-118054401D01*
X113398872Y-117998468D01*
X113464337Y-117974050D01*
X113532610Y-117988901D01*
X113560865Y-118010053D01*
X113674535Y-118123723D01*
X113674540Y-118123727D01*
X113846442Y-118248620D01*
X114035782Y-118345095D01*
X114237871Y-118410757D01*
X114304000Y-118421231D01*
X114304000Y-117527012D01*
X114361007Y-117559925D01*
X114488174Y-117594000D01*
X114619826Y-117594000D01*
X114746993Y-117559925D01*
X114804000Y-117527012D01*
X114804000Y-118412691D01*
G37*
%TD.AperFunction*%
%TA.AperFunction,Conductor*%
G36*
X142544805Y-80773447D02*
G01*
X142685757Y-80819246D01*
X142895713Y-80852500D01*
X142895714Y-80852500D01*
X143108286Y-80852500D01*
X143108287Y-80852500D01*
X143318243Y-80819246D01*
X143459185Y-80773450D01*
X143529022Y-80771456D01*
X143588855Y-80807536D01*
X143619684Y-80870237D01*
X143621500Y-80891382D01*
X143621500Y-97600069D01*
X143621500Y-97600071D01*
X143621499Y-97600071D01*
X143646497Y-97725738D01*
X143646499Y-97725744D01*
X143695534Y-97844125D01*
X143766726Y-97950673D01*
X143766727Y-97950674D01*
X156793181Y-110977127D01*
X156826666Y-111038450D01*
X156829500Y-111064808D01*
X156829500Y-115873500D01*
X156809815Y-115940539D01*
X156757011Y-115986294D01*
X156705501Y-115997500D01*
X156582130Y-115997500D01*
X156582123Y-115997501D01*
X156522516Y-116003908D01*
X156387671Y-116054202D01*
X156387664Y-116054206D01*
X156272455Y-116140452D01*
X156272452Y-116140455D01*
X156186206Y-116255664D01*
X156186202Y-116255671D01*
X156136997Y-116387598D01*
X156095126Y-116443532D01*
X156029661Y-116467949D01*
X155961388Y-116453097D01*
X155933134Y-116431946D01*
X155819464Y-116318276D01*
X155819459Y-116318272D01*
X155647557Y-116193379D01*
X155458215Y-116096903D01*
X155256124Y-116031241D01*
X155190000Y-116020768D01*
X155190000Y-116914988D01*
X155132993Y-116882075D01*
X155005826Y-116848000D01*
X154874174Y-116848000D01*
X154747007Y-116882075D01*
X154690000Y-116914988D01*
X154690000Y-116020768D01*
X154689999Y-116020768D01*
X154623875Y-116031241D01*
X154421784Y-116096903D01*
X154232442Y-116193379D01*
X154060540Y-116318272D01*
X154060535Y-116318276D01*
X153910276Y-116468535D01*
X153910272Y-116468540D01*
X153785378Y-116640443D01*
X153780762Y-116649502D01*
X153732784Y-116700295D01*
X153664963Y-116717087D01*
X153598829Y-116694546D01*
X153559794Y-116649493D01*
X153555051Y-116640184D01*
X153555049Y-116640181D01*
X153555048Y-116640179D01*
X153430109Y-116468213D01*
X153279786Y-116317890D01*
X153107820Y-116192951D01*
X152918414Y-116096444D01*
X152918413Y-116096443D01*
X152918412Y-116096443D01*
X152716243Y-116030754D01*
X152716241Y-116030753D01*
X152716240Y-116030753D01*
X152554957Y-116005208D01*
X152506287Y-115997500D01*
X152293713Y-115997500D01*
X152245042Y-116005208D01*
X152083760Y-116030753D01*
X151881585Y-116096444D01*
X151692179Y-116192951D01*
X151520213Y-116317890D01*
X151369890Y-116468213D01*
X151244949Y-116640182D01*
X151240484Y-116648946D01*
X151192509Y-116699742D01*
X151124688Y-116716536D01*
X151058553Y-116693998D01*
X151019516Y-116648946D01*
X151015050Y-116640182D01*
X150890109Y-116468213D01*
X150739786Y-116317890D01*
X150567820Y-116192951D01*
X150378414Y-116096444D01*
X150378413Y-116096443D01*
X150378412Y-116096443D01*
X150176243Y-116030754D01*
X150176241Y-116030753D01*
X150176240Y-116030753D01*
X150014957Y-116005208D01*
X149966287Y-115997500D01*
X149753713Y-115997500D01*
X149705042Y-116005208D01*
X149543760Y-116030753D01*
X149341585Y-116096444D01*
X149152179Y-116192951D01*
X148980213Y-116317890D01*
X148829890Y-116468213D01*
X148704949Y-116640182D01*
X148700484Y-116648946D01*
X148652509Y-116699742D01*
X148584688Y-116716536D01*
X148518553Y-116693998D01*
X148479516Y-116648946D01*
X148475050Y-116640182D01*
X148350109Y-116468213D01*
X148199786Y-116317890D01*
X148027820Y-116192951D01*
X147838414Y-116096444D01*
X147838413Y-116096443D01*
X147838412Y-116096443D01*
X147636243Y-116030754D01*
X147636241Y-116030753D01*
X147636240Y-116030753D01*
X147474957Y-116005208D01*
X147426287Y-115997500D01*
X147213713Y-115997500D01*
X147165042Y-116005208D01*
X147003760Y-116030753D01*
X146801585Y-116096444D01*
X146612179Y-116192951D01*
X146440213Y-116317890D01*
X146289890Y-116468213D01*
X146164949Y-116640182D01*
X146160484Y-116648946D01*
X146112509Y-116699742D01*
X146044688Y-116716536D01*
X145978553Y-116693998D01*
X145939516Y-116648946D01*
X145935050Y-116640182D01*
X145810109Y-116468213D01*
X145659786Y-116317890D01*
X145487820Y-116192951D01*
X145298414Y-116096444D01*
X145298413Y-116096443D01*
X145298412Y-116096443D01*
X145096243Y-116030754D01*
X145096241Y-116030753D01*
X145096240Y-116030753D01*
X144934957Y-116005208D01*
X144886287Y-115997500D01*
X144673713Y-115997500D01*
X144579222Y-116012466D01*
X144458945Y-116031516D01*
X144458686Y-116029882D01*
X144396094Y-116026730D01*
X144349288Y-115997342D01*
X142418819Y-114066873D01*
X142385334Y-114005550D01*
X142382500Y-113979192D01*
X142382500Y-108277809D01*
X146557947Y-108277809D01*
X146558282Y-108281020D01*
X146558282Y-108281024D01*
X146560561Y-108302832D01*
X146561232Y-108315715D01*
X146561232Y-109292282D01*
X146560561Y-109305164D01*
X146557947Y-109330186D01*
X146558233Y-109334239D01*
X146561232Y-109358594D01*
X146561232Y-109362622D01*
X146569906Y-109383563D01*
X146575634Y-109400911D01*
X146595073Y-109478604D01*
X146681400Y-109676845D01*
X146681405Y-109676855D01*
X146728897Y-109749910D01*
X146799258Y-109858144D01*
X146799260Y-109858146D01*
X146799262Y-109858149D01*
X146799265Y-109858153D01*
X146945399Y-110017503D01*
X146945404Y-110017508D01*
X147115838Y-110150578D01*
X147115842Y-110150580D01*
X147115844Y-110150582D01*
X147305886Y-110253708D01*
X147305889Y-110253709D01*
X147510350Y-110324075D01*
X147723617Y-110359746D01*
X147939847Y-110359746D01*
X148153114Y-110324075D01*
X148357575Y-110253709D01*
X148547626Y-110150578D01*
X148718060Y-110017508D01*
X148864206Y-109858144D01*
X148982059Y-109676854D01*
X149068390Y-109478606D01*
X149090055Y-109392015D01*
X149102232Y-109362618D01*
X149102232Y-109343328D01*
X149105517Y-109330189D01*
X149102903Y-109305164D01*
X149102232Y-109292282D01*
X149102232Y-108309255D01*
X149105517Y-108277809D01*
X149102232Y-108264669D01*
X149102232Y-108245376D01*
X149093557Y-108224433D01*
X149087828Y-108207083D01*
X149068392Y-108129400D01*
X149068390Y-108129392D01*
X149054161Y-108096716D01*
X148982063Y-107931152D01*
X148982058Y-107931142D01*
X148956783Y-107892263D01*
X148864206Y-107749854D01*
X148864202Y-107749849D01*
X148864201Y-107749848D01*
X148864198Y-107749844D01*
X148718064Y-107590494D01*
X148718062Y-107590492D01*
X148718061Y-107590491D01*
X148718060Y-107590490D01*
X148547626Y-107457420D01*
X148547622Y-107457417D01*
X148547621Y-107457417D01*
X148547619Y-107457415D01*
X148357577Y-107354289D01*
X148277303Y-107326663D01*
X148153114Y-107283923D01*
X147939847Y-107248252D01*
X147723617Y-107248252D01*
X147510355Y-107283922D01*
X147510354Y-107283922D01*
X147510350Y-107283923D01*
X147426295Y-107312850D01*
X147305886Y-107354289D01*
X147115844Y-107457415D01*
X147115842Y-107457417D01*
X146945401Y-107590492D01*
X146945399Y-107590494D01*
X146799265Y-107749844D01*
X146799262Y-107749848D01*
X146681405Y-107931142D01*
X146681400Y-107931152D01*
X146595074Y-108129390D01*
X146575634Y-108207085D01*
X146569905Y-108224433D01*
X146561233Y-108245370D01*
X146561232Y-108245378D01*
X146561232Y-108249403D01*
X146560174Y-108257991D01*
X146560310Y-108264499D01*
X146559380Y-108272076D01*
X146557947Y-108277809D01*
X142382500Y-108277809D01*
X142382500Y-80891382D01*
X142402185Y-80824343D01*
X142454989Y-80778588D01*
X142524147Y-80768644D01*
X142544805Y-80773447D01*
G37*
%TD.AperFunction*%
%TA.AperFunction,Conductor*%
G36*
X112869703Y-105408095D02*
G01*
X112876181Y-105414127D01*
X123605796Y-116143742D01*
X123639281Y-116205065D01*
X123634297Y-116274757D01*
X123618434Y-116304307D01*
X123558949Y-116386183D01*
X123558945Y-116386190D01*
X123554484Y-116394946D01*
X123506509Y-116445742D01*
X123438688Y-116462536D01*
X123372553Y-116439998D01*
X123333516Y-116394946D01*
X123329050Y-116386182D01*
X123204109Y-116214213D01*
X123053786Y-116063890D01*
X122881820Y-115938951D01*
X122692414Y-115842444D01*
X122692413Y-115842443D01*
X122692412Y-115842443D01*
X122490243Y-115776754D01*
X122490241Y-115776753D01*
X122490240Y-115776753D01*
X122328957Y-115751208D01*
X122280287Y-115743500D01*
X122067713Y-115743500D01*
X122019042Y-115751208D01*
X121857760Y-115776753D01*
X121655585Y-115842444D01*
X121466179Y-115938951D01*
X121294213Y-116063890D01*
X121143890Y-116214213D01*
X121018949Y-116386182D01*
X121014484Y-116394946D01*
X120966509Y-116445742D01*
X120898688Y-116462536D01*
X120832553Y-116439998D01*
X120793516Y-116394946D01*
X120789050Y-116386182D01*
X120664109Y-116214213D01*
X120513786Y-116063890D01*
X120341820Y-115938951D01*
X120152414Y-115842444D01*
X120152413Y-115842443D01*
X120152412Y-115842443D01*
X119950243Y-115776754D01*
X119950241Y-115776753D01*
X119950240Y-115776753D01*
X119788957Y-115751208D01*
X119740287Y-115743500D01*
X119527713Y-115743500D01*
X119479042Y-115751208D01*
X119317760Y-115776753D01*
X119115585Y-115842444D01*
X118926179Y-115938951D01*
X118754213Y-116063890D01*
X118603890Y-116214213D01*
X118478949Y-116386182D01*
X118474484Y-116394946D01*
X118426509Y-116445742D01*
X118358688Y-116462536D01*
X118292553Y-116439998D01*
X118253516Y-116394946D01*
X118249050Y-116386182D01*
X118124109Y-116214213D01*
X117973786Y-116063890D01*
X117801820Y-115938951D01*
X117612414Y-115842444D01*
X117612413Y-115842443D01*
X117612412Y-115842443D01*
X117410243Y-115776754D01*
X117410241Y-115776753D01*
X117410240Y-115776753D01*
X117248957Y-115751208D01*
X117200287Y-115743500D01*
X116987713Y-115743500D01*
X116939042Y-115751208D01*
X116777760Y-115776753D01*
X116575585Y-115842444D01*
X116386179Y-115938951D01*
X116214213Y-116063890D01*
X116063890Y-116214213D01*
X115938949Y-116386182D01*
X115934202Y-116395499D01*
X115886227Y-116446293D01*
X115818405Y-116463087D01*
X115752271Y-116440548D01*
X115713234Y-116395495D01*
X115708622Y-116386444D01*
X115583727Y-116214540D01*
X115583723Y-116214535D01*
X115433464Y-116064276D01*
X115433459Y-116064272D01*
X115261557Y-115939379D01*
X115072215Y-115842903D01*
X114870124Y-115777241D01*
X114804000Y-115766768D01*
X114804000Y-116660988D01*
X114746993Y-116628075D01*
X114619826Y-116594000D01*
X114488174Y-116594000D01*
X114361007Y-116628075D01*
X114304000Y-116660988D01*
X114304000Y-115766768D01*
X114303999Y-115766768D01*
X114237875Y-115777241D01*
X114035784Y-115842903D01*
X113846442Y-115939379D01*
X113674541Y-116064271D01*
X113560865Y-116177947D01*
X113499542Y-116211431D01*
X113429850Y-116206447D01*
X113373917Y-116164575D01*
X113357002Y-116133598D01*
X113345093Y-116101669D01*
X113316809Y-116025833D01*
X113307797Y-116001671D01*
X113307793Y-116001664D01*
X113221547Y-115886455D01*
X113221544Y-115886452D01*
X113106335Y-115800206D01*
X113106328Y-115800202D01*
X112971482Y-115749908D01*
X112971483Y-115749908D01*
X112911883Y-115743501D01*
X112911881Y-115743500D01*
X112911873Y-115743500D01*
X112911865Y-115743500D01*
X112788500Y-115743500D01*
X112721461Y-115723815D01*
X112675706Y-115671011D01*
X112664500Y-115619500D01*
X112664500Y-105501808D01*
X112684185Y-105434769D01*
X112736989Y-105389014D01*
X112806147Y-105379070D01*
X112869703Y-105408095D01*
G37*
%TD.AperFunction*%
%TA.AperFunction,Conductor*%
G36*
X141041992Y-75831521D02*
G01*
X141077647Y-75891608D01*
X141081500Y-75922279D01*
X141081500Y-78113141D01*
X141061815Y-78180180D01*
X141009011Y-78225935D01*
X140939853Y-78235879D01*
X140919183Y-78231072D01*
X140778134Y-78185243D01*
X140778127Y-78185242D01*
X140568246Y-78152000D01*
X140355754Y-78152000D01*
X140145872Y-78185242D01*
X140145869Y-78185242D01*
X139943782Y-78250904D01*
X139754439Y-78347380D01*
X139700282Y-78386727D01*
X139700282Y-78386728D01*
X140332591Y-79019037D01*
X140269007Y-79036075D01*
X140154993Y-79101901D01*
X140061901Y-79194993D01*
X139996075Y-79309007D01*
X139979037Y-79372591D01*
X139346728Y-78740282D01*
X139346727Y-78740282D01*
X139307380Y-78794440D01*
X139307376Y-78794446D01*
X139302760Y-78803505D01*
X139254781Y-78854297D01*
X139186959Y-78871087D01*
X139120826Y-78848543D01*
X139081794Y-78803493D01*
X139077051Y-78794184D01*
X139077049Y-78794181D01*
X139077048Y-78794179D01*
X138952109Y-78622213D01*
X138801786Y-78471890D01*
X138629820Y-78346951D01*
X138440414Y-78250444D01*
X138440413Y-78250443D01*
X138440412Y-78250443D01*
X138238243Y-78184754D01*
X138238241Y-78184753D01*
X138238240Y-78184753D01*
X138076957Y-78159208D01*
X138028287Y-78151500D01*
X137815713Y-78151500D01*
X137767042Y-78159208D01*
X137605760Y-78184753D01*
X137403585Y-78250444D01*
X137214179Y-78346951D01*
X137042213Y-78471890D01*
X136891890Y-78622213D01*
X136766949Y-78794182D01*
X136762484Y-78802946D01*
X136714509Y-78853742D01*
X136646688Y-78870536D01*
X136580553Y-78847998D01*
X136541516Y-78802946D01*
X136537050Y-78794182D01*
X136412109Y-78622213D01*
X136261786Y-78471890D01*
X136089820Y-78346951D01*
X135900414Y-78250444D01*
X135900413Y-78250443D01*
X135900412Y-78250443D01*
X135698243Y-78184754D01*
X135698241Y-78184753D01*
X135698240Y-78184753D01*
X135536957Y-78159208D01*
X135488287Y-78151500D01*
X135275713Y-78151500D01*
X135227042Y-78159208D01*
X135065760Y-78184753D01*
X134863585Y-78250444D01*
X134674179Y-78346951D01*
X134502213Y-78471890D01*
X134351890Y-78622213D01*
X134226949Y-78794182D01*
X134222484Y-78802946D01*
X134174509Y-78853742D01*
X134106688Y-78870536D01*
X134040553Y-78847998D01*
X134001516Y-78802946D01*
X133997050Y-78794182D01*
X133872109Y-78622213D01*
X133721786Y-78471890D01*
X133549820Y-78346951D01*
X133360414Y-78250444D01*
X133360413Y-78250443D01*
X133360412Y-78250443D01*
X133158243Y-78184754D01*
X133158241Y-78184753D01*
X133158240Y-78184753D01*
X132996957Y-78159208D01*
X132948287Y-78151500D01*
X132735713Y-78151500D01*
X132687042Y-78159208D01*
X132525760Y-78184753D01*
X132323585Y-78250444D01*
X132134179Y-78346951D01*
X131962213Y-78471890D01*
X131811890Y-78622213D01*
X131686949Y-78794182D01*
X131682484Y-78802946D01*
X131634509Y-78853742D01*
X131566688Y-78870536D01*
X131500553Y-78847998D01*
X131461516Y-78802946D01*
X131457050Y-78794182D01*
X131332109Y-78622213D01*
X131181786Y-78471890D01*
X131009820Y-78346951D01*
X130820414Y-78250444D01*
X130820413Y-78250443D01*
X130820412Y-78250443D01*
X130618243Y-78184754D01*
X130618241Y-78184753D01*
X130618240Y-78184753D01*
X130456957Y-78159208D01*
X130408287Y-78151500D01*
X130195713Y-78151500D01*
X130147042Y-78159208D01*
X129985760Y-78184753D01*
X129783585Y-78250444D01*
X129594179Y-78346951D01*
X129422213Y-78471890D01*
X129271890Y-78622213D01*
X129146949Y-78794182D01*
X129142484Y-78802946D01*
X129094509Y-78853742D01*
X129026688Y-78870536D01*
X128960553Y-78847998D01*
X128921516Y-78802946D01*
X128917050Y-78794182D01*
X128792109Y-78622213D01*
X128641786Y-78471890D01*
X128469820Y-78346951D01*
X128280414Y-78250444D01*
X128280413Y-78250443D01*
X128280412Y-78250443D01*
X128078243Y-78184754D01*
X128078241Y-78184753D01*
X128078240Y-78184753D01*
X127916957Y-78159208D01*
X127868287Y-78151500D01*
X127655713Y-78151500D01*
X127607042Y-78159208D01*
X127445760Y-78184753D01*
X127243585Y-78250444D01*
X127054179Y-78346951D01*
X126882213Y-78471890D01*
X126731890Y-78622213D01*
X126606949Y-78794182D01*
X126602484Y-78802946D01*
X126554509Y-78853742D01*
X126486688Y-78870536D01*
X126420553Y-78847998D01*
X126381516Y-78802946D01*
X126377050Y-78794182D01*
X126252109Y-78622213D01*
X126101786Y-78471890D01*
X125929820Y-78346951D01*
X125740414Y-78250444D01*
X125740413Y-78250443D01*
X125740412Y-78250443D01*
X125538243Y-78184754D01*
X125538241Y-78184753D01*
X125538240Y-78184753D01*
X125376957Y-78159208D01*
X125328287Y-78151500D01*
X125115713Y-78151500D01*
X125067042Y-78159208D01*
X124905760Y-78184753D01*
X124703585Y-78250444D01*
X124514179Y-78346951D01*
X124342213Y-78471890D01*
X124191894Y-78622209D01*
X124191890Y-78622214D01*
X124064818Y-78797116D01*
X124009489Y-78839782D01*
X123939875Y-78845761D01*
X123878080Y-78813156D01*
X123843723Y-78752317D01*
X123840500Y-78724231D01*
X123840500Y-77028808D01*
X123860185Y-76961769D01*
X123876819Y-76941127D01*
X124947127Y-75870819D01*
X125008450Y-75837334D01*
X125034808Y-75834500D01*
X140780071Y-75834500D01*
X140864615Y-75817682D01*
X140905744Y-75809501D01*
X140910043Y-75807719D01*
X140979512Y-75800248D01*
X141041992Y-75831521D01*
G37*
%TD.AperFunction*%
%TA.AperFunction,Conductor*%
G36*
X135866626Y-22539743D02*
G01*
X139373951Y-22576717D01*
X139375095Y-22576735D01*
X142881809Y-22650682D01*
X142883001Y-22650713D01*
X146388877Y-22761631D01*
X146389928Y-22761670D01*
X149894451Y-22909542D01*
X149895605Y-22909597D01*
X153398392Y-23094410D01*
X153399411Y-23094469D01*
X156900025Y-23316197D01*
X156901241Y-23316281D01*
X160399117Y-23574887D01*
X160400385Y-23574987D01*
X162902378Y-23786510D01*
X163895380Y-23870460D01*
X163896682Y-23870577D01*
X165194171Y-23994058D01*
X165259044Y-24020005D01*
X165299590Y-24076907D01*
X165302937Y-24146696D01*
X165268021Y-24207216D01*
X165205929Y-24239252D01*
X165182423Y-24241500D01*
X141413929Y-24241500D01*
X141288261Y-24266497D01*
X141288255Y-24266499D01*
X141169874Y-24315534D01*
X141063326Y-24386726D01*
X135813439Y-29636613D01*
X135752116Y-29670098D01*
X135706361Y-29671405D01*
X135492287Y-29637500D01*
X135279713Y-29637500D01*
X135253808Y-29641603D01*
X135069751Y-29670754D01*
X135068662Y-29671016D01*
X135068236Y-29670994D01*
X135064945Y-29671516D01*
X135064835Y-29670823D01*
X134998881Y-29667509D01*
X134952062Y-29638116D01*
X133764674Y-28450727D01*
X133764673Y-28450726D01*
X133764669Y-28450723D01*
X133658127Y-28379535D01*
X133596079Y-28353834D01*
X133539744Y-28330499D01*
X133539738Y-28330497D01*
X133414071Y-28305500D01*
X133414069Y-28305500D01*
X124395931Y-28305500D01*
X124395929Y-28305500D01*
X124270261Y-28330497D01*
X124270255Y-28330499D01*
X124151874Y-28379534D01*
X124045326Y-28450726D01*
X124045325Y-28450727D01*
X120162873Y-32333181D01*
X120101550Y-32366666D01*
X120075192Y-32369500D01*
X100265929Y-32369500D01*
X100140261Y-32394497D01*
X100140255Y-32394499D01*
X100021874Y-32443534D01*
X99915326Y-32514726D01*
X99915325Y-32514727D01*
X94780181Y-37649872D01*
X94718858Y-37683357D01*
X94649166Y-37678373D01*
X94593233Y-37636501D01*
X94568816Y-37571037D01*
X94568500Y-37562191D01*
X94568500Y-37489713D01*
X94535246Y-37279760D01*
X94535246Y-37279757D01*
X94469557Y-37077588D01*
X94373051Y-36888184D01*
X94373049Y-36888181D01*
X94373048Y-36888179D01*
X94248109Y-36716213D01*
X94134181Y-36602285D01*
X94100696Y-36540962D01*
X94105680Y-36471270D01*
X94147552Y-36415337D01*
X94178529Y-36398422D01*
X94310086Y-36349354D01*
X94310093Y-36349350D01*
X94425187Y-36263190D01*
X94425190Y-36263187D01*
X94511350Y-36148093D01*
X94511354Y-36148086D01*
X94561596Y-36013379D01*
X94561598Y-36013372D01*
X94567999Y-35953844D01*
X94568000Y-35953827D01*
X94568000Y-35306000D01*
X93651012Y-35306000D01*
X93683925Y-35248993D01*
X93718000Y-35121826D01*
X93718000Y-34990174D01*
X93683925Y-34863007D01*
X93651012Y-34806000D01*
X94568000Y-34806000D01*
X94568000Y-34158172D01*
X94567999Y-34158155D01*
X94561598Y-34098627D01*
X94561596Y-34098620D01*
X94511354Y-33963913D01*
X94511350Y-33963906D01*
X94425190Y-33848812D01*
X94425187Y-33848809D01*
X94310093Y-33762649D01*
X94310086Y-33762645D01*
X94175379Y-33712403D01*
X94175372Y-33712401D01*
X94115844Y-33706000D01*
X93468000Y-33706000D01*
X93468000Y-34622988D01*
X93410993Y-34590075D01*
X93283826Y-34556000D01*
X93152174Y-34556000D01*
X93025007Y-34590075D01*
X92968000Y-34622988D01*
X92968000Y-33706000D01*
X92320155Y-33706000D01*
X92260627Y-33712401D01*
X92260620Y-33712403D01*
X92125913Y-33762645D01*
X92125906Y-33762649D01*
X92010812Y-33848809D01*
X92010809Y-33848812D01*
X91924649Y-33963906D01*
X91924645Y-33963913D01*
X91874403Y-34098620D01*
X91874401Y-34098627D01*
X91868000Y-34158155D01*
X91868000Y-34806000D01*
X92784988Y-34806000D01*
X92752075Y-34863007D01*
X92718000Y-34990174D01*
X92718000Y-35121826D01*
X92752075Y-35248993D01*
X92784988Y-35306000D01*
X91868000Y-35306000D01*
X91868000Y-35953844D01*
X91874401Y-36013372D01*
X91874403Y-36013379D01*
X91924645Y-36148086D01*
X91924649Y-36148093D01*
X92010809Y-36263187D01*
X92010812Y-36263190D01*
X92125906Y-36349350D01*
X92125913Y-36349354D01*
X92257470Y-36398422D01*
X92313404Y-36440293D01*
X92337821Y-36505758D01*
X92322969Y-36574031D01*
X92301819Y-36602285D01*
X92187889Y-36716215D01*
X92062951Y-36888179D01*
X91966444Y-37077585D01*
X91900753Y-37279760D01*
X91867500Y-37489713D01*
X91867500Y-37702286D01*
X91900753Y-37912239D01*
X91966444Y-38114414D01*
X92062951Y-38303820D01*
X92187890Y-38475786D01*
X92338213Y-38626109D01*
X92510182Y-38751050D01*
X92518946Y-38755516D01*
X92569742Y-38803491D01*
X92586536Y-38871312D01*
X92563998Y-38937447D01*
X92518946Y-38976484D01*
X92510182Y-38980949D01*
X92338213Y-39105890D01*
X92187890Y-39256213D01*
X92062951Y-39428179D01*
X91966444Y-39617585D01*
X91900753Y-39819760D01*
X91867500Y-40029713D01*
X91867500Y-40242287D01*
X91867499Y-40242287D01*
X91901405Y-40456361D01*
X91892450Y-40525654D01*
X91866613Y-40563439D01*
X85553013Y-46877039D01*
X85491690Y-46910524D01*
X85421998Y-46905540D01*
X85366065Y-46863668D01*
X85341648Y-46798204D01*
X85341333Y-46789401D01*
X85339309Y-30417399D01*
X101261500Y-30417399D01*
X101261500Y-30630601D01*
X101274073Y-30709981D01*
X101294853Y-30841180D01*
X101294853Y-30841183D01*
X101360734Y-31043944D01*
X101360736Y-31043947D01*
X101457528Y-31233913D01*
X101582846Y-31406397D01*
X101733603Y-31557154D01*
X101906087Y-31682472D01*
X102096053Y-31779264D01*
X102096055Y-31779265D01*
X102285182Y-31840715D01*
X102298821Y-31845147D01*
X102509399Y-31878500D01*
X102509400Y-31878500D01*
X102722600Y-31878500D01*
X102722601Y-31878500D01*
X102933179Y-31845147D01*
X102933182Y-31845146D01*
X102933183Y-31845146D01*
X103135944Y-31779265D01*
X103135944Y-31779264D01*
X103135947Y-31779264D01*
X103325913Y-31682472D01*
X103498397Y-31557154D01*
X103649154Y-31406397D01*
X103774472Y-31233913D01*
X103871264Y-31043947D01*
X103937147Y-30841179D01*
X103970500Y-30630601D01*
X103970500Y-30417399D01*
X103937147Y-30206821D01*
X103937146Y-30206817D01*
X103937146Y-30206816D01*
X103871265Y-30004055D01*
X103871263Y-30004052D01*
X103869540Y-30000669D01*
X103774472Y-29814087D01*
X103649154Y-29641603D01*
X103498397Y-29490846D01*
X103325913Y-29365528D01*
X103135947Y-29268736D01*
X103135944Y-29268734D01*
X102933181Y-29202853D01*
X102792793Y-29180617D01*
X102722601Y-29169500D01*
X102509399Y-29169500D01*
X102439206Y-29180617D01*
X102298819Y-29202853D01*
X102298816Y-29202853D01*
X102096055Y-29268734D01*
X102096052Y-29268736D01*
X101906086Y-29365528D01*
X101733601Y-29490847D01*
X101582847Y-29641601D01*
X101457528Y-29814086D01*
X101360736Y-30004052D01*
X101360734Y-30004055D01*
X101294853Y-30206816D01*
X101294853Y-30206819D01*
X101283233Y-30280184D01*
X101261500Y-30417399D01*
X85339309Y-30417399D01*
X85339029Y-28159135D01*
X110510500Y-28159135D01*
X110510500Y-29752870D01*
X110510501Y-29752876D01*
X110516908Y-29812483D01*
X110567202Y-29947328D01*
X110567206Y-29947335D01*
X110653452Y-30062544D01*
X110653455Y-30062547D01*
X110768664Y-30148793D01*
X110768671Y-30148797D01*
X110903517Y-30199091D01*
X110903516Y-30199091D01*
X110910444Y-30199835D01*
X110963127Y-30205500D01*
X112556872Y-30205499D01*
X112616483Y-30199091D01*
X112751331Y-30148796D01*
X112866546Y-30062546D01*
X112952796Y-29947331D01*
X112961949Y-29922791D01*
X112967328Y-29908370D01*
X112995457Y-29832951D01*
X113003091Y-29812483D01*
X113009500Y-29752873D01*
X113009499Y-28857702D01*
X119147000Y-28857702D01*
X119147000Y-29054297D01*
X119177755Y-29248476D01*
X119238504Y-29435447D01*
X119238505Y-29435449D01*
X119327758Y-29610614D01*
X119353036Y-29645408D01*
X119917119Y-29081326D01*
X119934734Y-29147063D01*
X119999902Y-29259937D01*
X120092063Y-29352098D01*
X120204937Y-29417266D01*
X120270672Y-29434880D01*
X119706589Y-29998962D01*
X119706590Y-29998963D01*
X119741377Y-30024237D01*
X119916550Y-30113494D01*
X119916552Y-30113495D01*
X120103523Y-30174244D01*
X120297703Y-30205000D01*
X120494297Y-30205000D01*
X120688476Y-30174244D01*
X120875447Y-30113495D01*
X120875449Y-30113494D01*
X121050619Y-30024239D01*
X121085408Y-29998962D01*
X121085409Y-29998961D01*
X120521327Y-29434879D01*
X120587063Y-29417266D01*
X120699937Y-29352098D01*
X120792098Y-29259937D01*
X120857266Y-29147063D01*
X120874880Y-29081327D01*
X121438961Y-29645409D01*
X121438962Y-29645408D01*
X121464239Y-29610619D01*
X121553494Y-29435449D01*
X121553495Y-29435447D01*
X121614244Y-29248476D01*
X121645000Y-29054297D01*
X121645000Y-28857702D01*
X121614244Y-28663523D01*
X121553495Y-28476552D01*
X121553494Y-28476550D01*
X121464237Y-28301377D01*
X121438963Y-28266590D01*
X121438962Y-28266589D01*
X120874879Y-28830671D01*
X120857266Y-28764937D01*
X120792098Y-28652063D01*
X120699937Y-28559902D01*
X120587063Y-28494734D01*
X120521326Y-28477119D01*
X121085408Y-27913036D01*
X121050614Y-27887758D01*
X120875449Y-27798505D01*
X120875447Y-27798504D01*
X120688476Y-27737755D01*
X120494297Y-27707000D01*
X120297703Y-27707000D01*
X120103523Y-27737755D01*
X119916552Y-27798504D01*
X119916550Y-27798505D01*
X119741382Y-27887759D01*
X119741380Y-27887760D01*
X119706590Y-27913035D01*
X119706590Y-27913036D01*
X120270673Y-28477119D01*
X120204937Y-28494734D01*
X120092063Y-28559902D01*
X119999902Y-28652063D01*
X119934734Y-28764937D01*
X119917119Y-28830673D01*
X119353036Y-28266590D01*
X119353035Y-28266590D01*
X119327760Y-28301380D01*
X119327759Y-28301382D01*
X119238505Y-28476550D01*
X119238504Y-28476552D01*
X119177755Y-28663523D01*
X119147000Y-28857702D01*
X113009499Y-28857702D01*
X113009499Y-28159128D01*
X113003091Y-28099517D01*
X112952796Y-27964669D01*
X112952795Y-27964668D01*
X112952793Y-27964664D01*
X112866547Y-27849455D01*
X112866544Y-27849452D01*
X112751335Y-27763206D01*
X112751328Y-27763202D01*
X112616482Y-27712908D01*
X112616483Y-27712908D01*
X112556883Y-27706501D01*
X112556881Y-27706500D01*
X112556873Y-27706500D01*
X112556864Y-27706500D01*
X110963129Y-27706500D01*
X110963123Y-27706501D01*
X110903516Y-27712908D01*
X110768671Y-27763202D01*
X110768664Y-27763206D01*
X110653455Y-27849452D01*
X110653452Y-27849455D01*
X110567206Y-27964664D01*
X110567202Y-27964671D01*
X110516908Y-28099517D01*
X110513077Y-28135156D01*
X110510501Y-28159123D01*
X110510500Y-28159135D01*
X85339029Y-28159135D01*
X85338940Y-27436411D01*
X85339256Y-27427580D01*
X85353862Y-27223292D01*
X85356376Y-27205799D01*
X85398960Y-27009986D01*
X85403941Y-26993023D01*
X85411650Y-26972348D01*
X85473948Y-26805268D01*
X85481281Y-26789206D01*
X85577291Y-26613318D01*
X85586848Y-26598442D01*
X85706901Y-26438009D01*
X85718481Y-26424640D01*
X85725719Y-26417399D01*
X101261500Y-26417399D01*
X101261500Y-26630600D01*
X101294853Y-26841180D01*
X101294853Y-26841183D01*
X101360734Y-27043944D01*
X101360736Y-27043947D01*
X101457528Y-27233913D01*
X101582846Y-27406397D01*
X101733603Y-27557154D01*
X101906087Y-27682472D01*
X102096053Y-27779264D01*
X102096055Y-27779265D01*
X102285182Y-27840715D01*
X102298821Y-27845147D01*
X102509399Y-27878500D01*
X102509400Y-27878500D01*
X102722600Y-27878500D01*
X102722601Y-27878500D01*
X102933179Y-27845147D01*
X102933182Y-27845146D01*
X102933183Y-27845146D01*
X103135944Y-27779265D01*
X103135944Y-27779264D01*
X103135947Y-27779264D01*
X103325913Y-27682472D01*
X103498397Y-27557154D01*
X103649154Y-27406397D01*
X103774472Y-27233913D01*
X103871264Y-27043947D01*
X103937147Y-26841179D01*
X103970500Y-26630601D01*
X103970500Y-26417399D01*
X103937147Y-26206821D01*
X103937146Y-26206817D01*
X103937146Y-26206816D01*
X103871265Y-26004055D01*
X103871263Y-26004052D01*
X103852963Y-25968135D01*
X103774472Y-25814087D01*
X103649154Y-25641603D01*
X103498397Y-25490846D01*
X103325913Y-25365528D01*
X103135947Y-25268736D01*
X103135944Y-25268734D01*
X102933181Y-25202853D01*
X102792793Y-25180617D01*
X102722601Y-25169500D01*
X102509399Y-25169500D01*
X102439206Y-25180617D01*
X102298819Y-25202853D01*
X102298816Y-25202853D01*
X102096055Y-25268734D01*
X102096052Y-25268736D01*
X101906086Y-25365528D01*
X101733601Y-25490847D01*
X101582847Y-25641601D01*
X101457528Y-25814086D01*
X101360736Y-26004052D01*
X101360734Y-26004055D01*
X101294853Y-26206816D01*
X101294853Y-26206819D01*
X101261500Y-26417399D01*
X85725719Y-26417399D01*
X85860138Y-26282919D01*
X85873483Y-26271349D01*
X86033877Y-26151214D01*
X86048737Y-26141658D01*
X86224584Y-26045569D01*
X86240653Y-26038225D01*
X86428378Y-25968134D01*
X86445341Y-25963146D01*
X86641130Y-25920476D01*
X86658616Y-25917955D01*
X86830238Y-25905607D01*
X86848023Y-25906810D01*
X86848037Y-25906382D01*
X86858876Y-25906730D01*
X86858882Y-25906732D01*
X86876685Y-25904180D01*
X86894216Y-25902927D01*
X86912197Y-25902920D01*
X86916452Y-25901369D01*
X86941976Y-25895032D01*
X90378486Y-25421063D01*
X90379734Y-25420897D01*
X93859320Y-24978316D01*
X93860331Y-24978193D01*
X97344434Y-24572315D01*
X97345580Y-24572188D01*
X100833630Y-24203079D01*
X100834771Y-24202964D01*
X104326525Y-23870648D01*
X104327809Y-23870532D01*
X107822827Y-23575050D01*
X107824065Y-23574952D01*
X111322041Y-23316330D01*
X111323087Y-23316258D01*
X114823797Y-23094514D01*
X114824793Y-23094456D01*
X118327600Y-22909634D01*
X118328736Y-22909581D01*
X121833253Y-22761700D01*
X121834340Y-22761660D01*
X125340203Y-22650734D01*
X125341371Y-22650703D01*
X128848099Y-22576747D01*
X128849246Y-22576729D01*
X132356762Y-22539744D01*
X132357689Y-22539739D01*
X135865319Y-22539736D01*
X135866626Y-22539743D01*
G37*
%TD.AperFunction*%
%TA.AperFunction,Conductor*%
G36*
X169672231Y-25562185D02*
G01*
X169692873Y-25578819D01*
X178383181Y-34269127D01*
X178416666Y-34330450D01*
X178419500Y-34356808D01*
X178419500Y-38295191D01*
X178399815Y-38362230D01*
X178383181Y-38382872D01*
X176568181Y-40197872D01*
X176506858Y-40231357D01*
X176437166Y-40226373D01*
X176381233Y-40184501D01*
X176356816Y-40119037D01*
X176356500Y-40110191D01*
X176356500Y-40029713D01*
X176323246Y-39819760D01*
X176323246Y-39819757D01*
X176257557Y-39617588D01*
X176161051Y-39428184D01*
X176161049Y-39428181D01*
X176161048Y-39428179D01*
X176036109Y-39256213D01*
X175885786Y-39105890D01*
X175713820Y-38980951D01*
X175713115Y-38980591D01*
X175705054Y-38976485D01*
X175654259Y-38928512D01*
X175637463Y-38860692D01*
X175659999Y-38794556D01*
X175705054Y-38755515D01*
X175713816Y-38751051D01*
X175811515Y-38680069D01*
X175885786Y-38626109D01*
X175885788Y-38626106D01*
X175885792Y-38626104D01*
X176036104Y-38475792D01*
X176036106Y-38475788D01*
X176036109Y-38475786D01*
X176161048Y-38303820D01*
X176161047Y-38303820D01*
X176161051Y-38303816D01*
X176257557Y-38114412D01*
X176323246Y-37912243D01*
X176356500Y-37702287D01*
X176356500Y-37489713D01*
X176323246Y-37279757D01*
X176257557Y-37077588D01*
X176161051Y-36888184D01*
X176161049Y-36888181D01*
X176161048Y-36888179D01*
X176036109Y-36716213D01*
X175885786Y-36565890D01*
X175713820Y-36440951D01*
X175713115Y-36440591D01*
X175705054Y-36436485D01*
X175654259Y-36388512D01*
X175637463Y-36320692D01*
X175659999Y-36254556D01*
X175705054Y-36215515D01*
X175713816Y-36211051D01*
X175800471Y-36148093D01*
X175885786Y-36086109D01*
X175885788Y-36086106D01*
X175885792Y-36086104D01*
X176036104Y-35935792D01*
X176036106Y-35935788D01*
X176036109Y-35935786D01*
X176161048Y-35763820D01*
X176161047Y-35763820D01*
X176161051Y-35763816D01*
X176257557Y-35574412D01*
X176323246Y-35372243D01*
X176356500Y-35162287D01*
X176356500Y-34949713D01*
X176323246Y-34739757D01*
X176257557Y-34537588D01*
X176161051Y-34348184D01*
X176161049Y-34348181D01*
X176161048Y-34348179D01*
X176036109Y-34176213D01*
X175885786Y-34025890D01*
X175713820Y-33900951D01*
X175524414Y-33804444D01*
X175524413Y-33804443D01*
X175524412Y-33804443D01*
X175322243Y-33738754D01*
X175322241Y-33738753D01*
X175322240Y-33738753D01*
X175160957Y-33713208D01*
X175112287Y-33705500D01*
X174899713Y-33705500D01*
X174851042Y-33713208D01*
X174689760Y-33738753D01*
X174487585Y-33804444D01*
X174298179Y-33900951D01*
X174126213Y-34025890D01*
X173975890Y-34176213D01*
X173850951Y-34348179D01*
X173754444Y-34537585D01*
X173688753Y-34739760D01*
X173675934Y-34820697D01*
X173655500Y-34949713D01*
X173655500Y-35162287D01*
X173688754Y-35372243D01*
X173707028Y-35428485D01*
X173754444Y-35574414D01*
X173850951Y-35763820D01*
X173975890Y-35935786D01*
X174126213Y-36086109D01*
X174298182Y-36211050D01*
X174306946Y-36215516D01*
X174357742Y-36263491D01*
X174374536Y-36331312D01*
X174351998Y-36397447D01*
X174306946Y-36436484D01*
X174298182Y-36440949D01*
X174126213Y-36565890D01*
X173975890Y-36716213D01*
X173850951Y-36888179D01*
X173754444Y-37077585D01*
X173688753Y-37279760D01*
X173655500Y-37489713D01*
X173655500Y-37702286D01*
X173688753Y-37912239D01*
X173754444Y-38114414D01*
X173850951Y-38303820D01*
X173975890Y-38475786D01*
X174126213Y-38626109D01*
X174298182Y-38751050D01*
X174306946Y-38755516D01*
X174357742Y-38803491D01*
X174374536Y-38871312D01*
X174351998Y-38937447D01*
X174306946Y-38976484D01*
X174298182Y-38980949D01*
X174126213Y-39105890D01*
X173975890Y-39256213D01*
X173850948Y-39428183D01*
X173849659Y-39430288D01*
X173848960Y-39430919D01*
X173848085Y-39432125D01*
X173847831Y-39431941D01*
X173797848Y-39477164D01*
X173743931Y-39489500D01*
X170178954Y-39489500D01*
X170111915Y-39469815D01*
X170066160Y-39417011D01*
X170056216Y-39347853D01*
X170065800Y-39319052D01*
X170064697Y-39318641D01*
X170118091Y-39175482D01*
X170124500Y-39115873D01*
X170124499Y-33020128D01*
X170118091Y-32960517D01*
X170067796Y-32825669D01*
X170067795Y-32825668D01*
X170067793Y-32825664D01*
X169981547Y-32710455D01*
X169981544Y-32710452D01*
X169866335Y-32624206D01*
X169866328Y-32624202D01*
X169731482Y-32573908D01*
X169731483Y-32573908D01*
X169671883Y-32567501D01*
X169671881Y-32567500D01*
X169671873Y-32567500D01*
X169671865Y-32567500D01*
X167224756Y-32567500D01*
X167157717Y-32547815D01*
X167111962Y-32495011D01*
X167102018Y-32425853D01*
X167131043Y-32362297D01*
X167189821Y-32324523D01*
X167200565Y-32321883D01*
X167475437Y-32267208D01*
X167475443Y-32267207D01*
X167804540Y-32167376D01*
X168122241Y-32035780D01*
X168122255Y-32035773D01*
X168425518Y-31873677D01*
X168425536Y-31873666D01*
X168711453Y-31682622D01*
X168711466Y-31682612D01*
X168916659Y-31514213D01*
X168916659Y-31514212D01*
X168046499Y-30644052D01*
X168127230Y-30582105D01*
X168338105Y-30371230D01*
X168400052Y-30290499D01*
X169270212Y-31160659D01*
X169270213Y-31160659D01*
X169438612Y-30955466D01*
X169438622Y-30955453D01*
X169629666Y-30669536D01*
X169629677Y-30669518D01*
X169791773Y-30366255D01*
X169791780Y-30366241D01*
X169923376Y-30048540D01*
X170023207Y-29719443D01*
X170023208Y-29719437D01*
X170090291Y-29382182D01*
X170090294Y-29382165D01*
X170124000Y-29039940D01*
X170124000Y-28696059D01*
X170090294Y-28353834D01*
X170090291Y-28353817D01*
X170023208Y-28016562D01*
X170023207Y-28016556D01*
X169923376Y-27687459D01*
X169791780Y-27369758D01*
X169791773Y-27369744D01*
X169629677Y-27066481D01*
X169629666Y-27066463D01*
X169438622Y-26780546D01*
X169438612Y-26780533D01*
X169270213Y-26575339D01*
X169270212Y-26575338D01*
X168400051Y-27445499D01*
X168338105Y-27364770D01*
X168127230Y-27153895D01*
X168046498Y-27091947D01*
X168916660Y-26221786D01*
X168916659Y-26221785D01*
X168711467Y-26053387D01*
X168711453Y-26053377D01*
X168425536Y-25862333D01*
X168425518Y-25862322D01*
X168263754Y-25775858D01*
X168213910Y-25726896D01*
X168198449Y-25658758D01*
X168222281Y-25593079D01*
X168277838Y-25550710D01*
X168322207Y-25542500D01*
X169605192Y-25542500D01*
X169672231Y-25562185D01*
G37*
%TD.AperFunction*%
%TA.AperFunction,Conductor*%
G36*
X164930718Y-25543946D02*
G01*
X164935743Y-25542900D01*
X164963904Y-25553690D01*
X164992832Y-25562185D01*
X164996192Y-25566062D01*
X165000987Y-25567900D01*
X165018848Y-25592209D01*
X165038587Y-25614989D01*
X165039317Y-25620067D01*
X165042357Y-25624205D01*
X165044239Y-25654301D01*
X165048531Y-25684147D01*
X165046398Y-25688816D01*
X165046719Y-25693939D01*
X165032033Y-25720271D01*
X165019506Y-25747703D01*
X165014510Y-25751691D01*
X165012688Y-25754960D01*
X164984246Y-25775858D01*
X164822481Y-25862322D01*
X164822463Y-25862333D01*
X164536546Y-26053377D01*
X164536532Y-26053387D01*
X164331338Y-26221786D01*
X165201500Y-27091948D01*
X165120770Y-27153895D01*
X164909895Y-27364770D01*
X164847948Y-27445500D01*
X163977786Y-26575338D01*
X163809387Y-26780532D01*
X163809377Y-26780546D01*
X163618333Y-27066463D01*
X163618322Y-27066481D01*
X163456226Y-27369744D01*
X163456219Y-27369758D01*
X163324623Y-27687459D01*
X163224792Y-28016556D01*
X163224791Y-28016562D01*
X163157708Y-28353817D01*
X163157705Y-28353834D01*
X163124000Y-28696059D01*
X163124000Y-29039940D01*
X163157705Y-29382165D01*
X163157708Y-29382182D01*
X163224791Y-29719437D01*
X163224792Y-29719443D01*
X163324623Y-30048540D01*
X163456219Y-30366241D01*
X163456226Y-30366255D01*
X163618322Y-30669518D01*
X163618333Y-30669536D01*
X163809377Y-30955453D01*
X163809387Y-30955467D01*
X163977785Y-31160659D01*
X163977786Y-31160660D01*
X164847947Y-30290498D01*
X164909895Y-30371230D01*
X165120770Y-30582105D01*
X165201499Y-30644051D01*
X164331338Y-31514212D01*
X164331339Y-31514213D01*
X164536533Y-31682612D01*
X164536546Y-31682622D01*
X164822463Y-31873666D01*
X164822481Y-31873677D01*
X165125744Y-32035773D01*
X165125758Y-32035780D01*
X165443459Y-32167376D01*
X165772556Y-32267207D01*
X165772562Y-32267208D01*
X166047435Y-32321883D01*
X166109346Y-32354267D01*
X166143920Y-32414983D01*
X166140181Y-32484752D01*
X166099315Y-32541425D01*
X166034297Y-32567006D01*
X166023244Y-32567500D01*
X163576129Y-32567500D01*
X163576123Y-32567501D01*
X163516516Y-32573908D01*
X163381671Y-32624202D01*
X163381664Y-32624206D01*
X163266455Y-32710452D01*
X163266452Y-32710455D01*
X163180206Y-32825664D01*
X163180202Y-32825671D01*
X163129908Y-32960517D01*
X163123501Y-33020116D01*
X163123501Y-33020123D01*
X163123500Y-33020135D01*
X163123500Y-39115870D01*
X163123501Y-39115876D01*
X163129908Y-39175483D01*
X163183303Y-39318641D01*
X163180815Y-39319568D01*
X163192729Y-39374355D01*
X163168308Y-39439818D01*
X163112371Y-39481685D01*
X163069046Y-39489500D01*
X142314808Y-39489500D01*
X142247769Y-39469815D01*
X142227127Y-39453181D01*
X138431816Y-35657870D01*
X144928500Y-35657870D01*
X144928500Y-35890129D01*
X144964831Y-36119514D01*
X145036601Y-36340400D01*
X145120856Y-36505758D01*
X145142039Y-36547331D01*
X145278551Y-36735224D01*
X145442776Y-36899449D01*
X145630669Y-37035961D01*
X145712366Y-37077588D01*
X145837599Y-37141398D01*
X145837601Y-37141398D01*
X145837604Y-37141400D01*
X146058486Y-37213169D01*
X146176668Y-37231886D01*
X146287871Y-37249500D01*
X146287876Y-37249500D01*
X146520129Y-37249500D01*
X146621502Y-37233443D01*
X146749514Y-37213169D01*
X146970396Y-37141400D01*
X147177331Y-37035961D01*
X147365224Y-36899449D01*
X147529449Y-36735224D01*
X147665961Y-36547331D01*
X147771400Y-36340396D01*
X147843169Y-36119514D01*
X147872268Y-35935786D01*
X147879500Y-35890129D01*
X147879500Y-35657870D01*
X147847542Y-35456099D01*
X147843169Y-35428486D01*
X147771400Y-35207604D01*
X147771398Y-35207601D01*
X147771398Y-35207599D01*
X147727694Y-35121826D01*
X147665961Y-35000669D01*
X147529449Y-34812776D01*
X147467808Y-34751135D01*
X157428500Y-34751135D01*
X157428500Y-36796870D01*
X157428501Y-36796876D01*
X157434908Y-36856483D01*
X157485202Y-36991328D01*
X157485206Y-36991335D01*
X157571452Y-37106544D01*
X157571455Y-37106547D01*
X157686664Y-37192793D01*
X157686671Y-37192797D01*
X157821517Y-37243091D01*
X157821516Y-37243091D01*
X157828444Y-37243835D01*
X157881127Y-37249500D01*
X159926872Y-37249499D01*
X159986483Y-37243091D01*
X160121331Y-37192796D01*
X160236546Y-37106546D01*
X160322796Y-36991331D01*
X160373091Y-36856483D01*
X160379500Y-36796873D01*
X160379499Y-34751128D01*
X160373091Y-34691517D01*
X160357066Y-34648553D01*
X160322797Y-34556671D01*
X160322793Y-34556664D01*
X160236547Y-34441455D01*
X160236544Y-34441452D01*
X160121335Y-34355206D01*
X160121328Y-34355202D01*
X159986482Y-34304908D01*
X159986483Y-34304908D01*
X159926883Y-34298501D01*
X159926881Y-34298500D01*
X159926873Y-34298500D01*
X159926864Y-34298500D01*
X157881129Y-34298500D01*
X157881123Y-34298501D01*
X157821516Y-34304908D01*
X157686671Y-34355202D01*
X157686664Y-34355206D01*
X157571455Y-34441452D01*
X157571452Y-34441455D01*
X157485206Y-34556664D01*
X157485202Y-34556671D01*
X157434908Y-34691517D01*
X157429722Y-34739757D01*
X157428501Y-34751123D01*
X157428500Y-34751135D01*
X147467808Y-34751135D01*
X147365224Y-34648551D01*
X147177331Y-34512039D01*
X146970400Y-34406601D01*
X146749514Y-34334831D01*
X146520129Y-34298500D01*
X146520124Y-34298500D01*
X146287876Y-34298500D01*
X146287871Y-34298500D01*
X146058485Y-34334831D01*
X145837599Y-34406601D01*
X145630668Y-34512039D01*
X145442773Y-34648553D01*
X145278553Y-34812773D01*
X145142039Y-35000668D01*
X145036601Y-35207599D01*
X144964831Y-35428485D01*
X144928500Y-35657870D01*
X138431816Y-35657870D01*
X135324127Y-32550181D01*
X135290642Y-32488858D01*
X135295626Y-32419166D01*
X135337498Y-32363233D01*
X135402962Y-32338816D01*
X135411808Y-32338500D01*
X135492286Y-32338500D01*
X135492287Y-32338500D01*
X135702243Y-32305246D01*
X135904412Y-32239557D01*
X136093816Y-32143051D01*
X136180478Y-32080088D01*
X136265786Y-32018109D01*
X136265788Y-32018106D01*
X136265792Y-32018104D01*
X136416104Y-31867792D01*
X136416106Y-31867788D01*
X136416109Y-31867786D01*
X136541048Y-31695820D01*
X136541047Y-31695820D01*
X136541051Y-31695816D01*
X136545514Y-31687054D01*
X136593488Y-31636259D01*
X136661308Y-31619463D01*
X136727444Y-31641999D01*
X136766486Y-31687056D01*
X136770951Y-31695820D01*
X136895890Y-31867786D01*
X137046213Y-32018109D01*
X137218179Y-32143048D01*
X137218181Y-32143049D01*
X137218184Y-32143051D01*
X137407588Y-32239557D01*
X137609757Y-32305246D01*
X137819713Y-32338500D01*
X137819714Y-32338500D01*
X138032286Y-32338500D01*
X138032287Y-32338500D01*
X138242243Y-32305246D01*
X138444412Y-32239557D01*
X138633816Y-32143051D01*
X138720478Y-32080088D01*
X138805784Y-32018110D01*
X138805784Y-32018109D01*
X138805792Y-32018104D01*
X138919717Y-31904178D01*
X138981036Y-31870696D01*
X139050728Y-31875680D01*
X139106662Y-31917551D01*
X139123577Y-31948528D01*
X139172646Y-32080088D01*
X139172649Y-32080093D01*
X139258809Y-32195187D01*
X139258812Y-32195190D01*
X139373906Y-32281350D01*
X139373913Y-32281354D01*
X139508620Y-32331596D01*
X139508627Y-32331598D01*
X139568155Y-32337999D01*
X139568172Y-32338000D01*
X140216000Y-32338000D01*
X140216000Y-31421012D01*
X140273007Y-31453925D01*
X140400174Y-31488000D01*
X140531826Y-31488000D01*
X140658993Y-31453925D01*
X140716000Y-31421012D01*
X140716000Y-32338000D01*
X141363828Y-32338000D01*
X141363844Y-32337999D01*
X141423372Y-32331598D01*
X141423379Y-32331596D01*
X141558086Y-32281354D01*
X141558093Y-32281350D01*
X141673187Y-32195190D01*
X141673190Y-32195187D01*
X141759350Y-32080093D01*
X141759354Y-32080086D01*
X141809596Y-31945379D01*
X141809598Y-31945372D01*
X141815999Y-31885844D01*
X141816000Y-31885827D01*
X141816000Y-31238000D01*
X140899012Y-31238000D01*
X140931925Y-31180993D01*
X140966000Y-31053826D01*
X140966000Y-30922174D01*
X140931925Y-30795007D01*
X140899012Y-30738000D01*
X141816000Y-30738000D01*
X141816000Y-30657870D01*
X144928500Y-30657870D01*
X144928500Y-30890129D01*
X144964831Y-31119514D01*
X145036601Y-31340400D01*
X145125164Y-31514212D01*
X145142039Y-31547331D01*
X145278551Y-31735224D01*
X145442776Y-31899449D01*
X145630669Y-32035961D01*
X145717269Y-32080086D01*
X145837599Y-32141398D01*
X145837601Y-32141398D01*
X145837604Y-32141400D01*
X146058486Y-32213169D01*
X146176668Y-32231886D01*
X146287871Y-32249500D01*
X146287876Y-32249500D01*
X146520129Y-32249500D01*
X146621502Y-32233443D01*
X146749514Y-32213169D01*
X146970396Y-32141400D01*
X147177331Y-32035961D01*
X147365224Y-31899449D01*
X147529449Y-31735224D01*
X147665961Y-31547331D01*
X147771400Y-31340396D01*
X147843169Y-31119514D01*
X147874424Y-30922174D01*
X147879500Y-30890129D01*
X147879500Y-30657909D01*
X157429000Y-30657909D01*
X157429000Y-30890090D01*
X157465318Y-31119393D01*
X157537065Y-31340205D01*
X157642465Y-31547064D01*
X157699238Y-31625207D01*
X158302958Y-31021487D01*
X158327978Y-31081890D01*
X158399112Y-31188351D01*
X158489649Y-31278888D01*
X158596110Y-31350022D01*
X158656510Y-31375041D01*
X158052791Y-31978759D01*
X158052791Y-31978760D01*
X158130935Y-32035534D01*
X158337794Y-32140934D01*
X158558606Y-32212681D01*
X158787910Y-32249000D01*
X159020090Y-32249000D01*
X159249393Y-32212681D01*
X159470205Y-32140934D01*
X159677071Y-32035530D01*
X159755207Y-31978762D01*
X159755208Y-31978760D01*
X159151488Y-31375041D01*
X159211890Y-31350022D01*
X159318351Y-31278888D01*
X159408888Y-31188351D01*
X159480022Y-31081890D01*
X159505041Y-31021488D01*
X160108760Y-31625208D01*
X160108762Y-31625207D01*
X160165530Y-31547071D01*
X160270934Y-31340205D01*
X160342681Y-31119393D01*
X160379000Y-30890090D01*
X160379000Y-30657909D01*
X160342681Y-30428606D01*
X160270934Y-30207794D01*
X160165534Y-30000935D01*
X160108760Y-29922791D01*
X160108759Y-29922791D01*
X159505041Y-30526510D01*
X159480022Y-30466110D01*
X159408888Y-30359649D01*
X159318351Y-30269112D01*
X159211890Y-30197978D01*
X159151487Y-30172957D01*
X159755207Y-29569238D01*
X159677064Y-29512465D01*
X159470205Y-29407065D01*
X159249393Y-29335318D01*
X159020090Y-29299000D01*
X158787910Y-29299000D01*
X158558606Y-29335318D01*
X158337794Y-29407065D01*
X158130925Y-29512470D01*
X158052791Y-29569237D01*
X158052791Y-29569238D01*
X158656511Y-30172958D01*
X158596110Y-30197978D01*
X158489649Y-30269112D01*
X158399112Y-30359649D01*
X158327978Y-30466110D01*
X158302958Y-30526511D01*
X157699238Y-29922791D01*
X157699237Y-29922791D01*
X157642470Y-30000925D01*
X157537065Y-30207794D01*
X157465318Y-30428606D01*
X157429000Y-30657909D01*
X147879500Y-30657909D01*
X147879500Y-30657870D01*
X147852595Y-30488000D01*
X147843169Y-30428486D01*
X147771400Y-30207604D01*
X147771398Y-30207601D01*
X147771398Y-30207599D01*
X147702213Y-30071818D01*
X147665961Y-30000669D01*
X147529449Y-29812776D01*
X147365224Y-29648551D01*
X147177331Y-29512039D01*
X146970400Y-29406601D01*
X146749514Y-29334831D01*
X146520129Y-29298500D01*
X146520124Y-29298500D01*
X146287876Y-29298500D01*
X146287871Y-29298500D01*
X146058485Y-29334831D01*
X145837599Y-29406601D01*
X145630668Y-29512039D01*
X145442773Y-29648553D01*
X145278553Y-29812773D01*
X145142039Y-30000668D01*
X145036601Y-30207599D01*
X144964831Y-30428485D01*
X144928500Y-30657870D01*
X141816000Y-30657870D01*
X141816000Y-30090172D01*
X141815999Y-30090155D01*
X141809598Y-30030627D01*
X141809596Y-30030620D01*
X141759354Y-29895913D01*
X141759350Y-29895906D01*
X141673190Y-29780812D01*
X141673187Y-29780809D01*
X141558093Y-29694649D01*
X141558086Y-29694645D01*
X141423379Y-29644403D01*
X141423372Y-29644401D01*
X141363844Y-29638000D01*
X140716000Y-29638000D01*
X140716000Y-30554988D01*
X140658993Y-30522075D01*
X140531826Y-30488000D01*
X140400174Y-30488000D01*
X140273007Y-30522075D01*
X140216000Y-30554988D01*
X140216000Y-29638000D01*
X139568155Y-29638000D01*
X139508627Y-29644401D01*
X139508620Y-29644403D01*
X139373913Y-29694645D01*
X139373906Y-29694649D01*
X139258812Y-29780809D01*
X139258809Y-29780812D01*
X139172649Y-29895906D01*
X139172646Y-29895912D01*
X139123577Y-30027471D01*
X139081705Y-30083404D01*
X139016241Y-30107821D01*
X138947968Y-30092969D01*
X138919714Y-30071818D01*
X138805786Y-29957890D01*
X138633820Y-29832951D01*
X138444414Y-29736444D01*
X138444413Y-29736443D01*
X138444412Y-29736443D01*
X138242243Y-29670754D01*
X138242241Y-29670753D01*
X138242240Y-29670753D01*
X138080957Y-29645208D01*
X138032287Y-29637500D01*
X137951807Y-29637500D01*
X137884768Y-29617815D01*
X137839013Y-29565011D01*
X137829069Y-29495853D01*
X137858094Y-29432297D01*
X137864126Y-29425819D01*
X138684614Y-28605331D01*
X139688580Y-27601366D01*
X141711127Y-25578819D01*
X141772450Y-25545334D01*
X141798808Y-25542500D01*
X164925793Y-25542500D01*
X164930718Y-25543946D01*
G37*
%TD.AperFunction*%
%TD*%
M02*
