%TF.GenerationSoftware,KiCad,Pcbnew,9.0.0*%
%TF.CreationDate,2025-04-20T11:33:30+05:30*%
%TF.ProjectId,micromouse,6d696372-6f6d-46f7-9573-652e6b696361,rev?*%
%TF.SameCoordinates,Original*%
%TF.FileFunction,Legend,Bot*%
%TF.FilePolarity,Positive*%
%FSLAX46Y46*%
G04 Gerber Fmt 4.6, Leading zero omitted, Abs format (unit mm)*
G04 Created by KiCad (PCBNEW 9.0.0) date 2025-04-20 11:33:30*
%MOMM*%
%LPD*%
G01*
G04 APERTURE LIST*
%ADD10C,0.150000*%
%ADD11C,0.100000*%
%ADD12C,0.406400*%
%ADD13C,0.127000*%
%ADD14C,0.304800*%
%ADD15C,0.000000*%
G04 APERTURE END LIST*
D10*
X138345104Y-66230714D02*
X138345104Y-66706904D01*
X138630819Y-66135476D02*
X137630819Y-66468809D01*
X137630819Y-66468809D02*
X138630819Y-66802142D01*
X138535580Y-67706904D02*
X138583200Y-67659285D01*
X138583200Y-67659285D02*
X138630819Y-67516428D01*
X138630819Y-67516428D02*
X138630819Y-67421190D01*
X138630819Y-67421190D02*
X138583200Y-67278333D01*
X138583200Y-67278333D02*
X138487961Y-67183095D01*
X138487961Y-67183095D02*
X138392723Y-67135476D01*
X138392723Y-67135476D02*
X138202247Y-67087857D01*
X138202247Y-67087857D02*
X138059390Y-67087857D01*
X138059390Y-67087857D02*
X137868914Y-67135476D01*
X137868914Y-67135476D02*
X137773676Y-67183095D01*
X137773676Y-67183095D02*
X137678438Y-67278333D01*
X137678438Y-67278333D02*
X137630819Y-67421190D01*
X137630819Y-67421190D02*
X137630819Y-67516428D01*
X137630819Y-67516428D02*
X137678438Y-67659285D01*
X137678438Y-67659285D02*
X137726057Y-67706904D01*
X138535580Y-68706904D02*
X138583200Y-68659285D01*
X138583200Y-68659285D02*
X138630819Y-68516428D01*
X138630819Y-68516428D02*
X138630819Y-68421190D01*
X138630819Y-68421190D02*
X138583200Y-68278333D01*
X138583200Y-68278333D02*
X138487961Y-68183095D01*
X138487961Y-68183095D02*
X138392723Y-68135476D01*
X138392723Y-68135476D02*
X138202247Y-68087857D01*
X138202247Y-68087857D02*
X138059390Y-68087857D01*
X138059390Y-68087857D02*
X137868914Y-68135476D01*
X137868914Y-68135476D02*
X137773676Y-68183095D01*
X137773676Y-68183095D02*
X137678438Y-68278333D01*
X137678438Y-68278333D02*
X137630819Y-68421190D01*
X137630819Y-68421190D02*
X137630819Y-68516428D01*
X137630819Y-68516428D02*
X137678438Y-68659285D01*
X137678438Y-68659285D02*
X137726057Y-68706904D01*
X138630819Y-69659285D02*
X138630819Y-69087857D01*
X138630819Y-69373571D02*
X137630819Y-69373571D01*
X137630819Y-69373571D02*
X137773676Y-69278333D01*
X137773676Y-69278333D02*
X137868914Y-69183095D01*
X137868914Y-69183095D02*
X137916533Y-69087857D01*
D11*
X141033961Y-77404306D02*
X141081580Y-77499544D01*
X141081580Y-77499544D02*
X141081580Y-77642401D01*
X141081580Y-77642401D02*
X141033961Y-77785258D01*
X141033961Y-77785258D02*
X140938723Y-77880496D01*
X140938723Y-77880496D02*
X140843485Y-77928115D01*
X140843485Y-77928115D02*
X140653009Y-77975734D01*
X140653009Y-77975734D02*
X140510152Y-77975734D01*
X140510152Y-77975734D02*
X140319676Y-77928115D01*
X140319676Y-77928115D02*
X140224438Y-77880496D01*
X140224438Y-77880496D02*
X140129200Y-77785258D01*
X140129200Y-77785258D02*
X140081580Y-77642401D01*
X140081580Y-77642401D02*
X140081580Y-77547163D01*
X140081580Y-77547163D02*
X140129200Y-77404306D01*
X140129200Y-77404306D02*
X140176819Y-77356687D01*
X140176819Y-77356687D02*
X140510152Y-77356687D01*
X140510152Y-77356687D02*
X140510152Y-77547163D01*
X140081580Y-76928115D02*
X141081580Y-76928115D01*
X141081580Y-76928115D02*
X140081580Y-76356687D01*
X140081580Y-76356687D02*
X141081580Y-76356687D01*
X140081580Y-75880496D02*
X141081580Y-75880496D01*
X141081580Y-75880496D02*
X141081580Y-75642401D01*
X141081580Y-75642401D02*
X141033961Y-75499544D01*
X141033961Y-75499544D02*
X140938723Y-75404306D01*
X140938723Y-75404306D02*
X140843485Y-75356687D01*
X140843485Y-75356687D02*
X140653009Y-75309068D01*
X140653009Y-75309068D02*
X140510152Y-75309068D01*
X140510152Y-75309068D02*
X140319676Y-75356687D01*
X140319676Y-75356687D02*
X140224438Y-75404306D01*
X140224438Y-75404306D02*
X140129200Y-75499544D01*
X140129200Y-75499544D02*
X140081580Y-75642401D01*
X140081580Y-75642401D02*
X140081580Y-75880496D01*
X135049200Y-77975734D02*
X135001580Y-77832877D01*
X135001580Y-77832877D02*
X135001580Y-77594782D01*
X135001580Y-77594782D02*
X135049200Y-77499544D01*
X135049200Y-77499544D02*
X135096819Y-77451925D01*
X135096819Y-77451925D02*
X135192057Y-77404306D01*
X135192057Y-77404306D02*
X135287295Y-77404306D01*
X135287295Y-77404306D02*
X135382533Y-77451925D01*
X135382533Y-77451925D02*
X135430152Y-77499544D01*
X135430152Y-77499544D02*
X135477771Y-77594782D01*
X135477771Y-77594782D02*
X135525390Y-77785258D01*
X135525390Y-77785258D02*
X135573009Y-77880496D01*
X135573009Y-77880496D02*
X135620628Y-77928115D01*
X135620628Y-77928115D02*
X135715866Y-77975734D01*
X135715866Y-77975734D02*
X135811104Y-77975734D01*
X135811104Y-77975734D02*
X135906342Y-77928115D01*
X135906342Y-77928115D02*
X135953961Y-77880496D01*
X135953961Y-77880496D02*
X136001580Y-77785258D01*
X136001580Y-77785258D02*
X136001580Y-77547163D01*
X136001580Y-77547163D02*
X135953961Y-77404306D01*
X135001580Y-76975734D02*
X136001580Y-76975734D01*
X136001580Y-76975734D02*
X136001580Y-76737639D01*
X136001580Y-76737639D02*
X135953961Y-76594782D01*
X135953961Y-76594782D02*
X135858723Y-76499544D01*
X135858723Y-76499544D02*
X135763485Y-76451925D01*
X135763485Y-76451925D02*
X135573009Y-76404306D01*
X135573009Y-76404306D02*
X135430152Y-76404306D01*
X135430152Y-76404306D02*
X135239676Y-76451925D01*
X135239676Y-76451925D02*
X135144438Y-76499544D01*
X135144438Y-76499544D02*
X135049200Y-76594782D01*
X135049200Y-76594782D02*
X135001580Y-76737639D01*
X135001580Y-76737639D02*
X135001580Y-76975734D01*
X135287295Y-76023353D02*
X135287295Y-75547163D01*
X135001580Y-76118591D02*
X136001580Y-75785258D01*
X136001580Y-75785258D02*
X135001580Y-75451925D01*
X137589200Y-77975734D02*
X137541580Y-77832877D01*
X137541580Y-77832877D02*
X137541580Y-77594782D01*
X137541580Y-77594782D02*
X137589200Y-77499544D01*
X137589200Y-77499544D02*
X137636819Y-77451925D01*
X137636819Y-77451925D02*
X137732057Y-77404306D01*
X137732057Y-77404306D02*
X137827295Y-77404306D01*
X137827295Y-77404306D02*
X137922533Y-77451925D01*
X137922533Y-77451925D02*
X137970152Y-77499544D01*
X137970152Y-77499544D02*
X138017771Y-77594782D01*
X138017771Y-77594782D02*
X138065390Y-77785258D01*
X138065390Y-77785258D02*
X138113009Y-77880496D01*
X138113009Y-77880496D02*
X138160628Y-77928115D01*
X138160628Y-77928115D02*
X138255866Y-77975734D01*
X138255866Y-77975734D02*
X138351104Y-77975734D01*
X138351104Y-77975734D02*
X138446342Y-77928115D01*
X138446342Y-77928115D02*
X138493961Y-77880496D01*
X138493961Y-77880496D02*
X138541580Y-77785258D01*
X138541580Y-77785258D02*
X138541580Y-77547163D01*
X138541580Y-77547163D02*
X138493961Y-77404306D01*
X137636819Y-76404306D02*
X137589200Y-76451925D01*
X137589200Y-76451925D02*
X137541580Y-76594782D01*
X137541580Y-76594782D02*
X137541580Y-76690020D01*
X137541580Y-76690020D02*
X137589200Y-76832877D01*
X137589200Y-76832877D02*
X137684438Y-76928115D01*
X137684438Y-76928115D02*
X137779676Y-76975734D01*
X137779676Y-76975734D02*
X137970152Y-77023353D01*
X137970152Y-77023353D02*
X138113009Y-77023353D01*
X138113009Y-77023353D02*
X138303485Y-76975734D01*
X138303485Y-76975734D02*
X138398723Y-76928115D01*
X138398723Y-76928115D02*
X138493961Y-76832877D01*
X138493961Y-76832877D02*
X138541580Y-76690020D01*
X138541580Y-76690020D02*
X138541580Y-76594782D01*
X138541580Y-76594782D02*
X138493961Y-76451925D01*
X138493961Y-76451925D02*
X138446342Y-76404306D01*
X137541580Y-75499544D02*
X137541580Y-75975734D01*
X137541580Y-75975734D02*
X138541580Y-75975734D01*
X143621580Y-78070972D02*
X142621580Y-77737639D01*
X142621580Y-77737639D02*
X143621580Y-77404306D01*
X142716819Y-76499544D02*
X142669200Y-76547163D01*
X142669200Y-76547163D02*
X142621580Y-76690020D01*
X142621580Y-76690020D02*
X142621580Y-76785258D01*
X142621580Y-76785258D02*
X142669200Y-76928115D01*
X142669200Y-76928115D02*
X142764438Y-77023353D01*
X142764438Y-77023353D02*
X142859676Y-77070972D01*
X142859676Y-77070972D02*
X143050152Y-77118591D01*
X143050152Y-77118591D02*
X143193009Y-77118591D01*
X143193009Y-77118591D02*
X143383485Y-77070972D01*
X143383485Y-77070972D02*
X143478723Y-77023353D01*
X143478723Y-77023353D02*
X143573961Y-76928115D01*
X143573961Y-76928115D02*
X143621580Y-76785258D01*
X143621580Y-76785258D02*
X143621580Y-76690020D01*
X143621580Y-76690020D02*
X143573961Y-76547163D01*
X143573961Y-76547163D02*
X143526342Y-76499544D01*
X142716819Y-75499544D02*
X142669200Y-75547163D01*
X142669200Y-75547163D02*
X142621580Y-75690020D01*
X142621580Y-75690020D02*
X142621580Y-75785258D01*
X142621580Y-75785258D02*
X142669200Y-75928115D01*
X142669200Y-75928115D02*
X142764438Y-76023353D01*
X142764438Y-76023353D02*
X142859676Y-76070972D01*
X142859676Y-76070972D02*
X143050152Y-76118591D01*
X143050152Y-76118591D02*
X143193009Y-76118591D01*
X143193009Y-76118591D02*
X143383485Y-76070972D01*
X143383485Y-76070972D02*
X143478723Y-76023353D01*
X143478723Y-76023353D02*
X143573961Y-75928115D01*
X143573961Y-75928115D02*
X143621580Y-75785258D01*
X143621580Y-75785258D02*
X143621580Y-75690020D01*
X143621580Y-75690020D02*
X143573961Y-75547163D01*
X143573961Y-75547163D02*
X143526342Y-75499544D01*
X97675419Y-41410095D02*
X98484942Y-41410095D01*
X98484942Y-41410095D02*
X98580180Y-41457714D01*
X98580180Y-41457714D02*
X98627800Y-41505333D01*
X98627800Y-41505333D02*
X98675419Y-41600571D01*
X98675419Y-41600571D02*
X98675419Y-41791047D01*
X98675419Y-41791047D02*
X98627800Y-41886285D01*
X98627800Y-41886285D02*
X98580180Y-41933904D01*
X98580180Y-41933904D02*
X98484942Y-41981523D01*
X98484942Y-41981523D02*
X97675419Y-41981523D01*
X98103990Y-42600571D02*
X98056371Y-42505333D01*
X98056371Y-42505333D02*
X98008752Y-42457714D01*
X98008752Y-42457714D02*
X97913514Y-42410095D01*
X97913514Y-42410095D02*
X97865895Y-42410095D01*
X97865895Y-42410095D02*
X97770657Y-42457714D01*
X97770657Y-42457714D02*
X97723038Y-42505333D01*
X97723038Y-42505333D02*
X97675419Y-42600571D01*
X97675419Y-42600571D02*
X97675419Y-42791047D01*
X97675419Y-42791047D02*
X97723038Y-42886285D01*
X97723038Y-42886285D02*
X97770657Y-42933904D01*
X97770657Y-42933904D02*
X97865895Y-42981523D01*
X97865895Y-42981523D02*
X97913514Y-42981523D01*
X97913514Y-42981523D02*
X98008752Y-42933904D01*
X98008752Y-42933904D02*
X98056371Y-42886285D01*
X98056371Y-42886285D02*
X98103990Y-42791047D01*
X98103990Y-42791047D02*
X98103990Y-42600571D01*
X98103990Y-42600571D02*
X98151609Y-42505333D01*
X98151609Y-42505333D02*
X98199228Y-42457714D01*
X98199228Y-42457714D02*
X98294466Y-42410095D01*
X98294466Y-42410095D02*
X98484942Y-42410095D01*
X98484942Y-42410095D02*
X98580180Y-42457714D01*
X98580180Y-42457714D02*
X98627800Y-42505333D01*
X98627800Y-42505333D02*
X98675419Y-42600571D01*
X98675419Y-42600571D02*
X98675419Y-42791047D01*
X98675419Y-42791047D02*
X98627800Y-42886285D01*
X98627800Y-42886285D02*
X98580180Y-42933904D01*
X98580180Y-42933904D02*
X98484942Y-42981523D01*
X98484942Y-42981523D02*
X98294466Y-42981523D01*
X98294466Y-42981523D02*
X98199228Y-42933904D01*
X98199228Y-42933904D02*
X98151609Y-42886285D01*
X98151609Y-42886285D02*
X98103990Y-42791047D01*
D10*
X99382819Y-38286952D02*
X100382819Y-38620285D01*
X100382819Y-38620285D02*
X99382819Y-38953618D01*
X100382819Y-39763142D02*
X100382819Y-39286952D01*
X100382819Y-39286952D02*
X99382819Y-39286952D01*
X99382819Y-40525047D02*
X99382819Y-40334571D01*
X99382819Y-40334571D02*
X99430438Y-40239333D01*
X99430438Y-40239333D02*
X99478057Y-40191714D01*
X99478057Y-40191714D02*
X99620914Y-40096476D01*
X99620914Y-40096476D02*
X99811390Y-40048857D01*
X99811390Y-40048857D02*
X100192342Y-40048857D01*
X100192342Y-40048857D02*
X100287580Y-40096476D01*
X100287580Y-40096476D02*
X100335200Y-40144095D01*
X100335200Y-40144095D02*
X100382819Y-40239333D01*
X100382819Y-40239333D02*
X100382819Y-40429809D01*
X100382819Y-40429809D02*
X100335200Y-40525047D01*
X100335200Y-40525047D02*
X100287580Y-40572666D01*
X100287580Y-40572666D02*
X100192342Y-40620285D01*
X100192342Y-40620285D02*
X99954247Y-40620285D01*
X99954247Y-40620285D02*
X99859009Y-40572666D01*
X99859009Y-40572666D02*
X99811390Y-40525047D01*
X99811390Y-40525047D02*
X99763771Y-40429809D01*
X99763771Y-40429809D02*
X99763771Y-40239333D01*
X99763771Y-40239333D02*
X99811390Y-40144095D01*
X99811390Y-40144095D02*
X99859009Y-40096476D01*
X99859009Y-40096476D02*
X99954247Y-40048857D01*
X100382819Y-41572666D02*
X100382819Y-41001238D01*
X100382819Y-41286952D02*
X99382819Y-41286952D01*
X99382819Y-41286952D02*
X99525676Y-41191714D01*
X99525676Y-41191714D02*
X99620914Y-41096476D01*
X99620914Y-41096476D02*
X99668533Y-41001238D01*
X99811390Y-42144095D02*
X99763771Y-42048857D01*
X99763771Y-42048857D02*
X99716152Y-42001238D01*
X99716152Y-42001238D02*
X99620914Y-41953619D01*
X99620914Y-41953619D02*
X99573295Y-41953619D01*
X99573295Y-41953619D02*
X99478057Y-42001238D01*
X99478057Y-42001238D02*
X99430438Y-42048857D01*
X99430438Y-42048857D02*
X99382819Y-42144095D01*
X99382819Y-42144095D02*
X99382819Y-42334571D01*
X99382819Y-42334571D02*
X99430438Y-42429809D01*
X99430438Y-42429809D02*
X99478057Y-42477428D01*
X99478057Y-42477428D02*
X99573295Y-42525047D01*
X99573295Y-42525047D02*
X99620914Y-42525047D01*
X99620914Y-42525047D02*
X99716152Y-42477428D01*
X99716152Y-42477428D02*
X99763771Y-42429809D01*
X99763771Y-42429809D02*
X99811390Y-42334571D01*
X99811390Y-42334571D02*
X99811390Y-42144095D01*
X99811390Y-42144095D02*
X99859009Y-42048857D01*
X99859009Y-42048857D02*
X99906628Y-42001238D01*
X99906628Y-42001238D02*
X100001866Y-41953619D01*
X100001866Y-41953619D02*
X100192342Y-41953619D01*
X100192342Y-41953619D02*
X100287580Y-42001238D01*
X100287580Y-42001238D02*
X100335200Y-42048857D01*
X100335200Y-42048857D02*
X100382819Y-42144095D01*
X100382819Y-42144095D02*
X100382819Y-42334571D01*
X100382819Y-42334571D02*
X100335200Y-42429809D01*
X100335200Y-42429809D02*
X100287580Y-42477428D01*
X100287580Y-42477428D02*
X100192342Y-42525047D01*
X100192342Y-42525047D02*
X100001866Y-42525047D01*
X100001866Y-42525047D02*
X99906628Y-42477428D01*
X99906628Y-42477428D02*
X99859009Y-42429809D01*
X99859009Y-42429809D02*
X99811390Y-42334571D01*
X99382819Y-43144095D02*
X99382819Y-43239333D01*
X99382819Y-43239333D02*
X99430438Y-43334571D01*
X99430438Y-43334571D02*
X99478057Y-43382190D01*
X99478057Y-43382190D02*
X99573295Y-43429809D01*
X99573295Y-43429809D02*
X99763771Y-43477428D01*
X99763771Y-43477428D02*
X100001866Y-43477428D01*
X100001866Y-43477428D02*
X100192342Y-43429809D01*
X100192342Y-43429809D02*
X100287580Y-43382190D01*
X100287580Y-43382190D02*
X100335200Y-43334571D01*
X100335200Y-43334571D02*
X100382819Y-43239333D01*
X100382819Y-43239333D02*
X100382819Y-43144095D01*
X100382819Y-43144095D02*
X100335200Y-43048857D01*
X100335200Y-43048857D02*
X100287580Y-43001238D01*
X100287580Y-43001238D02*
X100192342Y-42953619D01*
X100192342Y-42953619D02*
X100001866Y-42906000D01*
X100001866Y-42906000D02*
X99763771Y-42906000D01*
X99763771Y-42906000D02*
X99573295Y-42953619D01*
X99573295Y-42953619D02*
X99478057Y-43001238D01*
X99478057Y-43001238D02*
X99430438Y-43048857D01*
X99430438Y-43048857D02*
X99382819Y-43144095D01*
X99382819Y-43810762D02*
X100382819Y-44477428D01*
X99382819Y-44477428D02*
X100382819Y-43810762D01*
D11*
X91813734Y-43016800D02*
X91670877Y-43064419D01*
X91670877Y-43064419D02*
X91432782Y-43064419D01*
X91432782Y-43064419D02*
X91337544Y-43016800D01*
X91337544Y-43016800D02*
X91289925Y-42969180D01*
X91289925Y-42969180D02*
X91242306Y-42873942D01*
X91242306Y-42873942D02*
X91242306Y-42778704D01*
X91242306Y-42778704D02*
X91289925Y-42683466D01*
X91289925Y-42683466D02*
X91337544Y-42635847D01*
X91337544Y-42635847D02*
X91432782Y-42588228D01*
X91432782Y-42588228D02*
X91623258Y-42540609D01*
X91623258Y-42540609D02*
X91718496Y-42492990D01*
X91718496Y-42492990D02*
X91766115Y-42445371D01*
X91766115Y-42445371D02*
X91813734Y-42350133D01*
X91813734Y-42350133D02*
X91813734Y-42254895D01*
X91813734Y-42254895D02*
X91766115Y-42159657D01*
X91766115Y-42159657D02*
X91718496Y-42112038D01*
X91718496Y-42112038D02*
X91623258Y-42064419D01*
X91623258Y-42064419D02*
X91385163Y-42064419D01*
X91385163Y-42064419D02*
X91242306Y-42112038D01*
X90242306Y-42969180D02*
X90289925Y-43016800D01*
X90289925Y-43016800D02*
X90432782Y-43064419D01*
X90432782Y-43064419D02*
X90528020Y-43064419D01*
X90528020Y-43064419D02*
X90670877Y-43016800D01*
X90670877Y-43016800D02*
X90766115Y-42921561D01*
X90766115Y-42921561D02*
X90813734Y-42826323D01*
X90813734Y-42826323D02*
X90861353Y-42635847D01*
X90861353Y-42635847D02*
X90861353Y-42492990D01*
X90861353Y-42492990D02*
X90813734Y-42302514D01*
X90813734Y-42302514D02*
X90766115Y-42207276D01*
X90766115Y-42207276D02*
X90670877Y-42112038D01*
X90670877Y-42112038D02*
X90528020Y-42064419D01*
X90528020Y-42064419D02*
X90432782Y-42064419D01*
X90432782Y-42064419D02*
X90289925Y-42112038D01*
X90289925Y-42112038D02*
X90242306Y-42159657D01*
X89337544Y-43064419D02*
X89813734Y-43064419D01*
X89813734Y-43064419D02*
X89813734Y-42064419D01*
X91813734Y-40476800D02*
X91670877Y-40524419D01*
X91670877Y-40524419D02*
X91432782Y-40524419D01*
X91432782Y-40524419D02*
X91337544Y-40476800D01*
X91337544Y-40476800D02*
X91289925Y-40429180D01*
X91289925Y-40429180D02*
X91242306Y-40333942D01*
X91242306Y-40333942D02*
X91242306Y-40238704D01*
X91242306Y-40238704D02*
X91289925Y-40143466D01*
X91289925Y-40143466D02*
X91337544Y-40095847D01*
X91337544Y-40095847D02*
X91432782Y-40048228D01*
X91432782Y-40048228D02*
X91623258Y-40000609D01*
X91623258Y-40000609D02*
X91718496Y-39952990D01*
X91718496Y-39952990D02*
X91766115Y-39905371D01*
X91766115Y-39905371D02*
X91813734Y-39810133D01*
X91813734Y-39810133D02*
X91813734Y-39714895D01*
X91813734Y-39714895D02*
X91766115Y-39619657D01*
X91766115Y-39619657D02*
X91718496Y-39572038D01*
X91718496Y-39572038D02*
X91623258Y-39524419D01*
X91623258Y-39524419D02*
X91385163Y-39524419D01*
X91385163Y-39524419D02*
X91242306Y-39572038D01*
X90813734Y-40524419D02*
X90813734Y-39524419D01*
X90813734Y-39524419D02*
X90575639Y-39524419D01*
X90575639Y-39524419D02*
X90432782Y-39572038D01*
X90432782Y-39572038D02*
X90337544Y-39667276D01*
X90337544Y-39667276D02*
X90289925Y-39762514D01*
X90289925Y-39762514D02*
X90242306Y-39952990D01*
X90242306Y-39952990D02*
X90242306Y-40095847D01*
X90242306Y-40095847D02*
X90289925Y-40286323D01*
X90289925Y-40286323D02*
X90337544Y-40381561D01*
X90337544Y-40381561D02*
X90432782Y-40476800D01*
X90432782Y-40476800D02*
X90575639Y-40524419D01*
X90575639Y-40524419D02*
X90813734Y-40524419D01*
X89861353Y-40238704D02*
X89385163Y-40238704D01*
X89956591Y-40524419D02*
X89623258Y-39524419D01*
X89623258Y-39524419D02*
X89289925Y-40524419D01*
X91242306Y-34492038D02*
X91337544Y-34444419D01*
X91337544Y-34444419D02*
X91480401Y-34444419D01*
X91480401Y-34444419D02*
X91623258Y-34492038D01*
X91623258Y-34492038D02*
X91718496Y-34587276D01*
X91718496Y-34587276D02*
X91766115Y-34682514D01*
X91766115Y-34682514D02*
X91813734Y-34872990D01*
X91813734Y-34872990D02*
X91813734Y-35015847D01*
X91813734Y-35015847D02*
X91766115Y-35206323D01*
X91766115Y-35206323D02*
X91718496Y-35301561D01*
X91718496Y-35301561D02*
X91623258Y-35396800D01*
X91623258Y-35396800D02*
X91480401Y-35444419D01*
X91480401Y-35444419D02*
X91385163Y-35444419D01*
X91385163Y-35444419D02*
X91242306Y-35396800D01*
X91242306Y-35396800D02*
X91194687Y-35349180D01*
X91194687Y-35349180D02*
X91194687Y-35015847D01*
X91194687Y-35015847D02*
X91385163Y-35015847D01*
X90766115Y-35444419D02*
X90766115Y-34444419D01*
X90766115Y-34444419D02*
X90194687Y-35444419D01*
X90194687Y-35444419D02*
X90194687Y-34444419D01*
X89718496Y-35444419D02*
X89718496Y-34444419D01*
X89718496Y-34444419D02*
X89480401Y-34444419D01*
X89480401Y-34444419D02*
X89337544Y-34492038D01*
X89337544Y-34492038D02*
X89242306Y-34587276D01*
X89242306Y-34587276D02*
X89194687Y-34682514D01*
X89194687Y-34682514D02*
X89147068Y-34872990D01*
X89147068Y-34872990D02*
X89147068Y-35015847D01*
X89147068Y-35015847D02*
X89194687Y-35206323D01*
X89194687Y-35206323D02*
X89242306Y-35301561D01*
X89242306Y-35301561D02*
X89337544Y-35396800D01*
X89337544Y-35396800D02*
X89480401Y-35444419D01*
X89480401Y-35444419D02*
X89718496Y-35444419D01*
X91861353Y-44604419D02*
X91194687Y-45604419D01*
X91194687Y-44604419D02*
X91861353Y-45604419D01*
X90861353Y-45556800D02*
X90718496Y-45604419D01*
X90718496Y-45604419D02*
X90480401Y-45604419D01*
X90480401Y-45604419D02*
X90385163Y-45556800D01*
X90385163Y-45556800D02*
X90337544Y-45509180D01*
X90337544Y-45509180D02*
X90289925Y-45413942D01*
X90289925Y-45413942D02*
X90289925Y-45318704D01*
X90289925Y-45318704D02*
X90337544Y-45223466D01*
X90337544Y-45223466D02*
X90385163Y-45175847D01*
X90385163Y-45175847D02*
X90480401Y-45128228D01*
X90480401Y-45128228D02*
X90670877Y-45080609D01*
X90670877Y-45080609D02*
X90766115Y-45032990D01*
X90766115Y-45032990D02*
X90813734Y-44985371D01*
X90813734Y-44985371D02*
X90861353Y-44890133D01*
X90861353Y-44890133D02*
X90861353Y-44794895D01*
X90861353Y-44794895D02*
X90813734Y-44699657D01*
X90813734Y-44699657D02*
X90766115Y-44652038D01*
X90766115Y-44652038D02*
X90670877Y-44604419D01*
X90670877Y-44604419D02*
X90432782Y-44604419D01*
X90432782Y-44604419D02*
X90289925Y-44652038D01*
X89861353Y-45604419D02*
X89861353Y-44604419D01*
X89861353Y-45080609D02*
X89289925Y-45080609D01*
X89289925Y-45604419D02*
X89289925Y-44604419D01*
X88813734Y-44604419D02*
X88813734Y-45413942D01*
X88813734Y-45413942D02*
X88766115Y-45509180D01*
X88766115Y-45509180D02*
X88718496Y-45556800D01*
X88718496Y-45556800D02*
X88623258Y-45604419D01*
X88623258Y-45604419D02*
X88432782Y-45604419D01*
X88432782Y-45604419D02*
X88337544Y-45556800D01*
X88337544Y-45556800D02*
X88289925Y-45509180D01*
X88289925Y-45509180D02*
X88242306Y-45413942D01*
X88242306Y-45413942D02*
X88242306Y-44604419D01*
X87908972Y-44604419D02*
X87337544Y-44604419D01*
X87623258Y-45604419D02*
X87623258Y-44604419D01*
X91908972Y-36984419D02*
X91575639Y-37984419D01*
X91575639Y-37984419D02*
X91242306Y-36984419D01*
X90337544Y-37889180D02*
X90385163Y-37936800D01*
X90385163Y-37936800D02*
X90528020Y-37984419D01*
X90528020Y-37984419D02*
X90623258Y-37984419D01*
X90623258Y-37984419D02*
X90766115Y-37936800D01*
X90766115Y-37936800D02*
X90861353Y-37841561D01*
X90861353Y-37841561D02*
X90908972Y-37746323D01*
X90908972Y-37746323D02*
X90956591Y-37555847D01*
X90956591Y-37555847D02*
X90956591Y-37412990D01*
X90956591Y-37412990D02*
X90908972Y-37222514D01*
X90908972Y-37222514D02*
X90861353Y-37127276D01*
X90861353Y-37127276D02*
X90766115Y-37032038D01*
X90766115Y-37032038D02*
X90623258Y-36984419D01*
X90623258Y-36984419D02*
X90528020Y-36984419D01*
X90528020Y-36984419D02*
X90385163Y-37032038D01*
X90385163Y-37032038D02*
X90337544Y-37079657D01*
X89337544Y-37889180D02*
X89385163Y-37936800D01*
X89385163Y-37936800D02*
X89528020Y-37984419D01*
X89528020Y-37984419D02*
X89623258Y-37984419D01*
X89623258Y-37984419D02*
X89766115Y-37936800D01*
X89766115Y-37936800D02*
X89861353Y-37841561D01*
X89861353Y-37841561D02*
X89908972Y-37746323D01*
X89908972Y-37746323D02*
X89956591Y-37555847D01*
X89956591Y-37555847D02*
X89956591Y-37412990D01*
X89956591Y-37412990D02*
X89908972Y-37222514D01*
X89908972Y-37222514D02*
X89861353Y-37127276D01*
X89861353Y-37127276D02*
X89766115Y-37032038D01*
X89766115Y-37032038D02*
X89623258Y-36984419D01*
X89623258Y-36984419D02*
X89528020Y-36984419D01*
X89528020Y-36984419D02*
X89385163Y-37032038D01*
X89385163Y-37032038D02*
X89337544Y-37079657D01*
X135521533Y-52117919D02*
X135854866Y-51641728D01*
X136092961Y-52117919D02*
X136092961Y-51117919D01*
X136092961Y-51117919D02*
X135712009Y-51117919D01*
X135712009Y-51117919D02*
X135616771Y-51165538D01*
X135616771Y-51165538D02*
X135569152Y-51213157D01*
X135569152Y-51213157D02*
X135521533Y-51308395D01*
X135521533Y-51308395D02*
X135521533Y-51451252D01*
X135521533Y-51451252D02*
X135569152Y-51546490D01*
X135569152Y-51546490D02*
X135616771Y-51594109D01*
X135616771Y-51594109D02*
X135712009Y-51641728D01*
X135712009Y-51641728D02*
X136092961Y-51641728D01*
X135092961Y-51594109D02*
X134759628Y-51594109D01*
X134616771Y-52117919D02*
X135092961Y-52117919D01*
X135092961Y-52117919D02*
X135092961Y-51117919D01*
X135092961Y-51117919D02*
X134616771Y-51117919D01*
X133854866Y-51594109D02*
X134188199Y-51594109D01*
X134188199Y-52117919D02*
X134188199Y-51117919D01*
X134188199Y-51117919D02*
X133712009Y-51117919D01*
X133188199Y-51117919D02*
X133188199Y-51356014D01*
X133426294Y-51260776D02*
X133188199Y-51356014D01*
X133188199Y-51356014D02*
X132950104Y-51260776D01*
X133331056Y-51546490D02*
X133188199Y-51356014D01*
X133188199Y-51356014D02*
X133045342Y-51546490D01*
X132426294Y-51117919D02*
X132426294Y-51356014D01*
X132664389Y-51260776D02*
X132426294Y-51356014D01*
X132426294Y-51356014D02*
X132188199Y-51260776D01*
X132569151Y-51546490D02*
X132426294Y-51356014D01*
X132426294Y-51356014D02*
X132283437Y-51546490D01*
X167755919Y-41668095D02*
X168565442Y-41668095D01*
X168565442Y-41668095D02*
X168660680Y-41715714D01*
X168660680Y-41715714D02*
X168708300Y-41763333D01*
X168708300Y-41763333D02*
X168755919Y-41858571D01*
X168755919Y-41858571D02*
X168755919Y-42049047D01*
X168755919Y-42049047D02*
X168708300Y-42144285D01*
X168708300Y-42144285D02*
X168660680Y-42191904D01*
X168660680Y-42191904D02*
X168565442Y-42239523D01*
X168565442Y-42239523D02*
X167755919Y-42239523D01*
X167755919Y-43144285D02*
X167755919Y-42953809D01*
X167755919Y-42953809D02*
X167803538Y-42858571D01*
X167803538Y-42858571D02*
X167851157Y-42810952D01*
X167851157Y-42810952D02*
X167994014Y-42715714D01*
X167994014Y-42715714D02*
X168184490Y-42668095D01*
X168184490Y-42668095D02*
X168565442Y-42668095D01*
X168565442Y-42668095D02*
X168660680Y-42715714D01*
X168660680Y-42715714D02*
X168708300Y-42763333D01*
X168708300Y-42763333D02*
X168755919Y-42858571D01*
X168755919Y-42858571D02*
X168755919Y-43049047D01*
X168755919Y-43049047D02*
X168708300Y-43144285D01*
X168708300Y-43144285D02*
X168660680Y-43191904D01*
X168660680Y-43191904D02*
X168565442Y-43239523D01*
X168565442Y-43239523D02*
X168327347Y-43239523D01*
X168327347Y-43239523D02*
X168232109Y-43191904D01*
X168232109Y-43191904D02*
X168184490Y-43144285D01*
X168184490Y-43144285D02*
X168136871Y-43049047D01*
X168136871Y-43049047D02*
X168136871Y-42858571D01*
X168136871Y-42858571D02*
X168184490Y-42763333D01*
X168184490Y-42763333D02*
X168232109Y-42715714D01*
X168232109Y-42715714D02*
X168327347Y-42668095D01*
D10*
X169253319Y-39310952D02*
X170253319Y-39644285D01*
X170253319Y-39644285D02*
X169253319Y-39977618D01*
X170253319Y-40787142D02*
X170253319Y-40310952D01*
X170253319Y-40310952D02*
X169253319Y-40310952D01*
X169253319Y-41549047D02*
X169253319Y-41358571D01*
X169253319Y-41358571D02*
X169300938Y-41263333D01*
X169300938Y-41263333D02*
X169348557Y-41215714D01*
X169348557Y-41215714D02*
X169491414Y-41120476D01*
X169491414Y-41120476D02*
X169681890Y-41072857D01*
X169681890Y-41072857D02*
X170062842Y-41072857D01*
X170062842Y-41072857D02*
X170158080Y-41120476D01*
X170158080Y-41120476D02*
X170205700Y-41168095D01*
X170205700Y-41168095D02*
X170253319Y-41263333D01*
X170253319Y-41263333D02*
X170253319Y-41453809D01*
X170253319Y-41453809D02*
X170205700Y-41549047D01*
X170205700Y-41549047D02*
X170158080Y-41596666D01*
X170158080Y-41596666D02*
X170062842Y-41644285D01*
X170062842Y-41644285D02*
X169824747Y-41644285D01*
X169824747Y-41644285D02*
X169729509Y-41596666D01*
X169729509Y-41596666D02*
X169681890Y-41549047D01*
X169681890Y-41549047D02*
X169634271Y-41453809D01*
X169634271Y-41453809D02*
X169634271Y-41263333D01*
X169634271Y-41263333D02*
X169681890Y-41168095D01*
X169681890Y-41168095D02*
X169729509Y-41120476D01*
X169729509Y-41120476D02*
X169824747Y-41072857D01*
X170253319Y-42596666D02*
X170253319Y-42025238D01*
X170253319Y-42310952D02*
X169253319Y-42310952D01*
X169253319Y-42310952D02*
X169396176Y-42215714D01*
X169396176Y-42215714D02*
X169491414Y-42120476D01*
X169491414Y-42120476D02*
X169539033Y-42025238D01*
X169681890Y-43168095D02*
X169634271Y-43072857D01*
X169634271Y-43072857D02*
X169586652Y-43025238D01*
X169586652Y-43025238D02*
X169491414Y-42977619D01*
X169491414Y-42977619D02*
X169443795Y-42977619D01*
X169443795Y-42977619D02*
X169348557Y-43025238D01*
X169348557Y-43025238D02*
X169300938Y-43072857D01*
X169300938Y-43072857D02*
X169253319Y-43168095D01*
X169253319Y-43168095D02*
X169253319Y-43358571D01*
X169253319Y-43358571D02*
X169300938Y-43453809D01*
X169300938Y-43453809D02*
X169348557Y-43501428D01*
X169348557Y-43501428D02*
X169443795Y-43549047D01*
X169443795Y-43549047D02*
X169491414Y-43549047D01*
X169491414Y-43549047D02*
X169586652Y-43501428D01*
X169586652Y-43501428D02*
X169634271Y-43453809D01*
X169634271Y-43453809D02*
X169681890Y-43358571D01*
X169681890Y-43358571D02*
X169681890Y-43168095D01*
X169681890Y-43168095D02*
X169729509Y-43072857D01*
X169729509Y-43072857D02*
X169777128Y-43025238D01*
X169777128Y-43025238D02*
X169872366Y-42977619D01*
X169872366Y-42977619D02*
X170062842Y-42977619D01*
X170062842Y-42977619D02*
X170158080Y-43025238D01*
X170158080Y-43025238D02*
X170205700Y-43072857D01*
X170205700Y-43072857D02*
X170253319Y-43168095D01*
X170253319Y-43168095D02*
X170253319Y-43358571D01*
X170253319Y-43358571D02*
X170205700Y-43453809D01*
X170205700Y-43453809D02*
X170158080Y-43501428D01*
X170158080Y-43501428D02*
X170062842Y-43549047D01*
X170062842Y-43549047D02*
X169872366Y-43549047D01*
X169872366Y-43549047D02*
X169777128Y-43501428D01*
X169777128Y-43501428D02*
X169729509Y-43453809D01*
X169729509Y-43453809D02*
X169681890Y-43358571D01*
X169253319Y-44168095D02*
X169253319Y-44263333D01*
X169253319Y-44263333D02*
X169300938Y-44358571D01*
X169300938Y-44358571D02*
X169348557Y-44406190D01*
X169348557Y-44406190D02*
X169443795Y-44453809D01*
X169443795Y-44453809D02*
X169634271Y-44501428D01*
X169634271Y-44501428D02*
X169872366Y-44501428D01*
X169872366Y-44501428D02*
X170062842Y-44453809D01*
X170062842Y-44453809D02*
X170158080Y-44406190D01*
X170158080Y-44406190D02*
X170205700Y-44358571D01*
X170205700Y-44358571D02*
X170253319Y-44263333D01*
X170253319Y-44263333D02*
X170253319Y-44168095D01*
X170253319Y-44168095D02*
X170205700Y-44072857D01*
X170205700Y-44072857D02*
X170158080Y-44025238D01*
X170158080Y-44025238D02*
X170062842Y-43977619D01*
X170062842Y-43977619D02*
X169872366Y-43930000D01*
X169872366Y-43930000D02*
X169634271Y-43930000D01*
X169634271Y-43930000D02*
X169443795Y-43977619D01*
X169443795Y-43977619D02*
X169348557Y-44025238D01*
X169348557Y-44025238D02*
X169300938Y-44072857D01*
X169300938Y-44072857D02*
X169253319Y-44168095D01*
X169253319Y-44834762D02*
X170253319Y-45501428D01*
X169253319Y-45501428D02*
X170253319Y-44834762D01*
D11*
X176981693Y-48319961D02*
X176886455Y-48367580D01*
X176886455Y-48367580D02*
X176743598Y-48367580D01*
X176743598Y-48367580D02*
X176600741Y-48319961D01*
X176600741Y-48319961D02*
X176505503Y-48224723D01*
X176505503Y-48224723D02*
X176457884Y-48129485D01*
X176457884Y-48129485D02*
X176410265Y-47939009D01*
X176410265Y-47939009D02*
X176410265Y-47796152D01*
X176410265Y-47796152D02*
X176457884Y-47605676D01*
X176457884Y-47605676D02*
X176505503Y-47510438D01*
X176505503Y-47510438D02*
X176600741Y-47415200D01*
X176600741Y-47415200D02*
X176743598Y-47367580D01*
X176743598Y-47367580D02*
X176838836Y-47367580D01*
X176838836Y-47367580D02*
X176981693Y-47415200D01*
X176981693Y-47415200D02*
X177029312Y-47462819D01*
X177029312Y-47462819D02*
X177029312Y-47796152D01*
X177029312Y-47796152D02*
X176838836Y-47796152D01*
X177457884Y-47367580D02*
X177457884Y-48367580D01*
X177457884Y-48367580D02*
X178029312Y-47367580D01*
X178029312Y-47367580D02*
X178029312Y-48367580D01*
X178505503Y-47367580D02*
X178505503Y-48367580D01*
X178505503Y-48367580D02*
X178743598Y-48367580D01*
X178743598Y-48367580D02*
X178886455Y-48319961D01*
X178886455Y-48319961D02*
X178981693Y-48224723D01*
X178981693Y-48224723D02*
X179029312Y-48129485D01*
X179029312Y-48129485D02*
X179076931Y-47939009D01*
X179076931Y-47939009D02*
X179076931Y-47796152D01*
X179076931Y-47796152D02*
X179029312Y-47605676D01*
X179029312Y-47605676D02*
X178981693Y-47510438D01*
X178981693Y-47510438D02*
X178886455Y-47415200D01*
X178886455Y-47415200D02*
X178743598Y-47367580D01*
X178743598Y-47367580D02*
X178505503Y-47367580D01*
X176410265Y-42335200D02*
X176553122Y-42287580D01*
X176553122Y-42287580D02*
X176791217Y-42287580D01*
X176791217Y-42287580D02*
X176886455Y-42335200D01*
X176886455Y-42335200D02*
X176934074Y-42382819D01*
X176934074Y-42382819D02*
X176981693Y-42478057D01*
X176981693Y-42478057D02*
X176981693Y-42573295D01*
X176981693Y-42573295D02*
X176934074Y-42668533D01*
X176934074Y-42668533D02*
X176886455Y-42716152D01*
X176886455Y-42716152D02*
X176791217Y-42763771D01*
X176791217Y-42763771D02*
X176600741Y-42811390D01*
X176600741Y-42811390D02*
X176505503Y-42859009D01*
X176505503Y-42859009D02*
X176457884Y-42906628D01*
X176457884Y-42906628D02*
X176410265Y-43001866D01*
X176410265Y-43001866D02*
X176410265Y-43097104D01*
X176410265Y-43097104D02*
X176457884Y-43192342D01*
X176457884Y-43192342D02*
X176505503Y-43239961D01*
X176505503Y-43239961D02*
X176600741Y-43287580D01*
X176600741Y-43287580D02*
X176838836Y-43287580D01*
X176838836Y-43287580D02*
X176981693Y-43239961D01*
X177410265Y-42287580D02*
X177410265Y-43287580D01*
X177410265Y-43287580D02*
X177648360Y-43287580D01*
X177648360Y-43287580D02*
X177791217Y-43239961D01*
X177791217Y-43239961D02*
X177886455Y-43144723D01*
X177886455Y-43144723D02*
X177934074Y-43049485D01*
X177934074Y-43049485D02*
X177981693Y-42859009D01*
X177981693Y-42859009D02*
X177981693Y-42716152D01*
X177981693Y-42716152D02*
X177934074Y-42525676D01*
X177934074Y-42525676D02*
X177886455Y-42430438D01*
X177886455Y-42430438D02*
X177791217Y-42335200D01*
X177791217Y-42335200D02*
X177648360Y-42287580D01*
X177648360Y-42287580D02*
X177410265Y-42287580D01*
X178362646Y-42573295D02*
X178838836Y-42573295D01*
X178267408Y-42287580D02*
X178600741Y-43287580D01*
X178600741Y-43287580D02*
X178934074Y-42287580D01*
X176410265Y-39795200D02*
X176553122Y-39747580D01*
X176553122Y-39747580D02*
X176791217Y-39747580D01*
X176791217Y-39747580D02*
X176886455Y-39795200D01*
X176886455Y-39795200D02*
X176934074Y-39842819D01*
X176934074Y-39842819D02*
X176981693Y-39938057D01*
X176981693Y-39938057D02*
X176981693Y-40033295D01*
X176981693Y-40033295D02*
X176934074Y-40128533D01*
X176934074Y-40128533D02*
X176886455Y-40176152D01*
X176886455Y-40176152D02*
X176791217Y-40223771D01*
X176791217Y-40223771D02*
X176600741Y-40271390D01*
X176600741Y-40271390D02*
X176505503Y-40319009D01*
X176505503Y-40319009D02*
X176457884Y-40366628D01*
X176457884Y-40366628D02*
X176410265Y-40461866D01*
X176410265Y-40461866D02*
X176410265Y-40557104D01*
X176410265Y-40557104D02*
X176457884Y-40652342D01*
X176457884Y-40652342D02*
X176505503Y-40699961D01*
X176505503Y-40699961D02*
X176600741Y-40747580D01*
X176600741Y-40747580D02*
X176838836Y-40747580D01*
X176838836Y-40747580D02*
X176981693Y-40699961D01*
X177981693Y-39842819D02*
X177934074Y-39795200D01*
X177934074Y-39795200D02*
X177791217Y-39747580D01*
X177791217Y-39747580D02*
X177695979Y-39747580D01*
X177695979Y-39747580D02*
X177553122Y-39795200D01*
X177553122Y-39795200D02*
X177457884Y-39890438D01*
X177457884Y-39890438D02*
X177410265Y-39985676D01*
X177410265Y-39985676D02*
X177362646Y-40176152D01*
X177362646Y-40176152D02*
X177362646Y-40319009D01*
X177362646Y-40319009D02*
X177410265Y-40509485D01*
X177410265Y-40509485D02*
X177457884Y-40604723D01*
X177457884Y-40604723D02*
X177553122Y-40699961D01*
X177553122Y-40699961D02*
X177695979Y-40747580D01*
X177695979Y-40747580D02*
X177791217Y-40747580D01*
X177791217Y-40747580D02*
X177934074Y-40699961D01*
X177934074Y-40699961D02*
X177981693Y-40652342D01*
X178886455Y-39747580D02*
X178410265Y-39747580D01*
X178410265Y-39747580D02*
X178410265Y-40747580D01*
X176362646Y-38207580D02*
X177029312Y-37207580D01*
X177029312Y-38207580D02*
X176362646Y-37207580D01*
X177362646Y-37255200D02*
X177505503Y-37207580D01*
X177505503Y-37207580D02*
X177743598Y-37207580D01*
X177743598Y-37207580D02*
X177838836Y-37255200D01*
X177838836Y-37255200D02*
X177886455Y-37302819D01*
X177886455Y-37302819D02*
X177934074Y-37398057D01*
X177934074Y-37398057D02*
X177934074Y-37493295D01*
X177934074Y-37493295D02*
X177886455Y-37588533D01*
X177886455Y-37588533D02*
X177838836Y-37636152D01*
X177838836Y-37636152D02*
X177743598Y-37683771D01*
X177743598Y-37683771D02*
X177553122Y-37731390D01*
X177553122Y-37731390D02*
X177457884Y-37779009D01*
X177457884Y-37779009D02*
X177410265Y-37826628D01*
X177410265Y-37826628D02*
X177362646Y-37921866D01*
X177362646Y-37921866D02*
X177362646Y-38017104D01*
X177362646Y-38017104D02*
X177410265Y-38112342D01*
X177410265Y-38112342D02*
X177457884Y-38159961D01*
X177457884Y-38159961D02*
X177553122Y-38207580D01*
X177553122Y-38207580D02*
X177791217Y-38207580D01*
X177791217Y-38207580D02*
X177934074Y-38159961D01*
X178362646Y-37207580D02*
X178362646Y-38207580D01*
X178362646Y-37731390D02*
X178934074Y-37731390D01*
X178934074Y-37207580D02*
X178934074Y-38207580D01*
X179410265Y-38207580D02*
X179410265Y-37398057D01*
X179410265Y-37398057D02*
X179457884Y-37302819D01*
X179457884Y-37302819D02*
X179505503Y-37255200D01*
X179505503Y-37255200D02*
X179600741Y-37207580D01*
X179600741Y-37207580D02*
X179791217Y-37207580D01*
X179791217Y-37207580D02*
X179886455Y-37255200D01*
X179886455Y-37255200D02*
X179934074Y-37302819D01*
X179934074Y-37302819D02*
X179981693Y-37398057D01*
X179981693Y-37398057D02*
X179981693Y-38207580D01*
X180315027Y-38207580D02*
X180886455Y-38207580D01*
X180600741Y-37207580D02*
X180600741Y-38207580D01*
X176315027Y-45827580D02*
X176648360Y-44827580D01*
X176648360Y-44827580D02*
X176981693Y-45827580D01*
X177886455Y-44922819D02*
X177838836Y-44875200D01*
X177838836Y-44875200D02*
X177695979Y-44827580D01*
X177695979Y-44827580D02*
X177600741Y-44827580D01*
X177600741Y-44827580D02*
X177457884Y-44875200D01*
X177457884Y-44875200D02*
X177362646Y-44970438D01*
X177362646Y-44970438D02*
X177315027Y-45065676D01*
X177315027Y-45065676D02*
X177267408Y-45256152D01*
X177267408Y-45256152D02*
X177267408Y-45399009D01*
X177267408Y-45399009D02*
X177315027Y-45589485D01*
X177315027Y-45589485D02*
X177362646Y-45684723D01*
X177362646Y-45684723D02*
X177457884Y-45779961D01*
X177457884Y-45779961D02*
X177600741Y-45827580D01*
X177600741Y-45827580D02*
X177695979Y-45827580D01*
X177695979Y-45827580D02*
X177838836Y-45779961D01*
X177838836Y-45779961D02*
X177886455Y-45732342D01*
X178886455Y-44922819D02*
X178838836Y-44875200D01*
X178838836Y-44875200D02*
X178695979Y-44827580D01*
X178695979Y-44827580D02*
X178600741Y-44827580D01*
X178600741Y-44827580D02*
X178457884Y-44875200D01*
X178457884Y-44875200D02*
X178362646Y-44970438D01*
X178362646Y-44970438D02*
X178315027Y-45065676D01*
X178315027Y-45065676D02*
X178267408Y-45256152D01*
X178267408Y-45256152D02*
X178267408Y-45399009D01*
X178267408Y-45399009D02*
X178315027Y-45589485D01*
X178315027Y-45589485D02*
X178362646Y-45684723D01*
X178362646Y-45684723D02*
X178457884Y-45779961D01*
X178457884Y-45779961D02*
X178600741Y-45827580D01*
X178600741Y-45827580D02*
X178695979Y-45827580D01*
X178695979Y-45827580D02*
X178838836Y-45779961D01*
X178838836Y-45779961D02*
X178886455Y-45732342D01*
X135131904Y-40561419D02*
X135131904Y-41370942D01*
X135131904Y-41370942D02*
X135084285Y-41466180D01*
X135084285Y-41466180D02*
X135036666Y-41513800D01*
X135036666Y-41513800D02*
X134941428Y-41561419D01*
X134941428Y-41561419D02*
X134750952Y-41561419D01*
X134750952Y-41561419D02*
X134655714Y-41513800D01*
X134655714Y-41513800D02*
X134608095Y-41466180D01*
X134608095Y-41466180D02*
X134560476Y-41370942D01*
X134560476Y-41370942D02*
X134560476Y-40561419D01*
X134179523Y-40561419D02*
X133512857Y-40561419D01*
X133512857Y-40561419D02*
X133941428Y-41561419D01*
D10*
X137489047Y-39058819D02*
X137155714Y-40058819D01*
X137155714Y-40058819D02*
X136822381Y-39058819D01*
X136012857Y-40058819D02*
X136489047Y-40058819D01*
X136489047Y-40058819D02*
X136489047Y-39058819D01*
X135250952Y-39058819D02*
X135441428Y-39058819D01*
X135441428Y-39058819D02*
X135536666Y-39106438D01*
X135536666Y-39106438D02*
X135584285Y-39154057D01*
X135584285Y-39154057D02*
X135679523Y-39296914D01*
X135679523Y-39296914D02*
X135727142Y-39487390D01*
X135727142Y-39487390D02*
X135727142Y-39868342D01*
X135727142Y-39868342D02*
X135679523Y-39963580D01*
X135679523Y-39963580D02*
X135631904Y-40011200D01*
X135631904Y-40011200D02*
X135536666Y-40058819D01*
X135536666Y-40058819D02*
X135346190Y-40058819D01*
X135346190Y-40058819D02*
X135250952Y-40011200D01*
X135250952Y-40011200D02*
X135203333Y-39963580D01*
X135203333Y-39963580D02*
X135155714Y-39868342D01*
X135155714Y-39868342D02*
X135155714Y-39630247D01*
X135155714Y-39630247D02*
X135203333Y-39535009D01*
X135203333Y-39535009D02*
X135250952Y-39487390D01*
X135250952Y-39487390D02*
X135346190Y-39439771D01*
X135346190Y-39439771D02*
X135536666Y-39439771D01*
X135536666Y-39439771D02*
X135631904Y-39487390D01*
X135631904Y-39487390D02*
X135679523Y-39535009D01*
X135679523Y-39535009D02*
X135727142Y-39630247D01*
X134203333Y-40058819D02*
X134774761Y-40058819D01*
X134489047Y-40058819D02*
X134489047Y-39058819D01*
X134489047Y-39058819D02*
X134584285Y-39201676D01*
X134584285Y-39201676D02*
X134679523Y-39296914D01*
X134679523Y-39296914D02*
X134774761Y-39344533D01*
X133631904Y-39487390D02*
X133727142Y-39439771D01*
X133727142Y-39439771D02*
X133774761Y-39392152D01*
X133774761Y-39392152D02*
X133822380Y-39296914D01*
X133822380Y-39296914D02*
X133822380Y-39249295D01*
X133822380Y-39249295D02*
X133774761Y-39154057D01*
X133774761Y-39154057D02*
X133727142Y-39106438D01*
X133727142Y-39106438D02*
X133631904Y-39058819D01*
X133631904Y-39058819D02*
X133441428Y-39058819D01*
X133441428Y-39058819D02*
X133346190Y-39106438D01*
X133346190Y-39106438D02*
X133298571Y-39154057D01*
X133298571Y-39154057D02*
X133250952Y-39249295D01*
X133250952Y-39249295D02*
X133250952Y-39296914D01*
X133250952Y-39296914D02*
X133298571Y-39392152D01*
X133298571Y-39392152D02*
X133346190Y-39439771D01*
X133346190Y-39439771D02*
X133441428Y-39487390D01*
X133441428Y-39487390D02*
X133631904Y-39487390D01*
X133631904Y-39487390D02*
X133727142Y-39535009D01*
X133727142Y-39535009D02*
X133774761Y-39582628D01*
X133774761Y-39582628D02*
X133822380Y-39677866D01*
X133822380Y-39677866D02*
X133822380Y-39868342D01*
X133822380Y-39868342D02*
X133774761Y-39963580D01*
X133774761Y-39963580D02*
X133727142Y-40011200D01*
X133727142Y-40011200D02*
X133631904Y-40058819D01*
X133631904Y-40058819D02*
X133441428Y-40058819D01*
X133441428Y-40058819D02*
X133346190Y-40011200D01*
X133346190Y-40011200D02*
X133298571Y-39963580D01*
X133298571Y-39963580D02*
X133250952Y-39868342D01*
X133250952Y-39868342D02*
X133250952Y-39677866D01*
X133250952Y-39677866D02*
X133298571Y-39582628D01*
X133298571Y-39582628D02*
X133346190Y-39535009D01*
X133346190Y-39535009D02*
X133441428Y-39487390D01*
X132631904Y-39058819D02*
X132536666Y-39058819D01*
X132536666Y-39058819D02*
X132441428Y-39106438D01*
X132441428Y-39106438D02*
X132393809Y-39154057D01*
X132393809Y-39154057D02*
X132346190Y-39249295D01*
X132346190Y-39249295D02*
X132298571Y-39439771D01*
X132298571Y-39439771D02*
X132298571Y-39677866D01*
X132298571Y-39677866D02*
X132346190Y-39868342D01*
X132346190Y-39868342D02*
X132393809Y-39963580D01*
X132393809Y-39963580D02*
X132441428Y-40011200D01*
X132441428Y-40011200D02*
X132536666Y-40058819D01*
X132536666Y-40058819D02*
X132631904Y-40058819D01*
X132631904Y-40058819D02*
X132727142Y-40011200D01*
X132727142Y-40011200D02*
X132774761Y-39963580D01*
X132774761Y-39963580D02*
X132822380Y-39868342D01*
X132822380Y-39868342D02*
X132869999Y-39677866D01*
X132869999Y-39677866D02*
X132869999Y-39439771D01*
X132869999Y-39439771D02*
X132822380Y-39249295D01*
X132822380Y-39249295D02*
X132774761Y-39154057D01*
X132774761Y-39154057D02*
X132727142Y-39106438D01*
X132727142Y-39106438D02*
X132631904Y-39058819D01*
X131965237Y-39058819D02*
X131298571Y-40058819D01*
X131298571Y-39058819D02*
X131965237Y-40058819D01*
D11*
X132505200Y-29583734D02*
X132457580Y-29440877D01*
X132457580Y-29440877D02*
X132457580Y-29202782D01*
X132457580Y-29202782D02*
X132505200Y-29107544D01*
X132505200Y-29107544D02*
X132552819Y-29059925D01*
X132552819Y-29059925D02*
X132648057Y-29012306D01*
X132648057Y-29012306D02*
X132743295Y-29012306D01*
X132743295Y-29012306D02*
X132838533Y-29059925D01*
X132838533Y-29059925D02*
X132886152Y-29107544D01*
X132886152Y-29107544D02*
X132933771Y-29202782D01*
X132933771Y-29202782D02*
X132981390Y-29393258D01*
X132981390Y-29393258D02*
X133029009Y-29488496D01*
X133029009Y-29488496D02*
X133076628Y-29536115D01*
X133076628Y-29536115D02*
X133171866Y-29583734D01*
X133171866Y-29583734D02*
X133267104Y-29583734D01*
X133267104Y-29583734D02*
X133362342Y-29536115D01*
X133362342Y-29536115D02*
X133409961Y-29488496D01*
X133409961Y-29488496D02*
X133457580Y-29393258D01*
X133457580Y-29393258D02*
X133457580Y-29155163D01*
X133457580Y-29155163D02*
X133409961Y-29012306D01*
X132552819Y-28012306D02*
X132505200Y-28059925D01*
X132505200Y-28059925D02*
X132457580Y-28202782D01*
X132457580Y-28202782D02*
X132457580Y-28298020D01*
X132457580Y-28298020D02*
X132505200Y-28440877D01*
X132505200Y-28440877D02*
X132600438Y-28536115D01*
X132600438Y-28536115D02*
X132695676Y-28583734D01*
X132695676Y-28583734D02*
X132886152Y-28631353D01*
X132886152Y-28631353D02*
X133029009Y-28631353D01*
X133029009Y-28631353D02*
X133219485Y-28583734D01*
X133219485Y-28583734D02*
X133314723Y-28536115D01*
X133314723Y-28536115D02*
X133409961Y-28440877D01*
X133409961Y-28440877D02*
X133457580Y-28298020D01*
X133457580Y-28298020D02*
X133457580Y-28202782D01*
X133457580Y-28202782D02*
X133409961Y-28059925D01*
X133409961Y-28059925D02*
X133362342Y-28012306D01*
X132457580Y-27107544D02*
X132457580Y-27583734D01*
X132457580Y-27583734D02*
X133457580Y-27583734D01*
X130917580Y-29631353D02*
X129917580Y-28964687D01*
X130917580Y-28964687D02*
X129917580Y-29631353D01*
X129965200Y-28631353D02*
X129917580Y-28488496D01*
X129917580Y-28488496D02*
X129917580Y-28250401D01*
X129917580Y-28250401D02*
X129965200Y-28155163D01*
X129965200Y-28155163D02*
X130012819Y-28107544D01*
X130012819Y-28107544D02*
X130108057Y-28059925D01*
X130108057Y-28059925D02*
X130203295Y-28059925D01*
X130203295Y-28059925D02*
X130298533Y-28107544D01*
X130298533Y-28107544D02*
X130346152Y-28155163D01*
X130346152Y-28155163D02*
X130393771Y-28250401D01*
X130393771Y-28250401D02*
X130441390Y-28440877D01*
X130441390Y-28440877D02*
X130489009Y-28536115D01*
X130489009Y-28536115D02*
X130536628Y-28583734D01*
X130536628Y-28583734D02*
X130631866Y-28631353D01*
X130631866Y-28631353D02*
X130727104Y-28631353D01*
X130727104Y-28631353D02*
X130822342Y-28583734D01*
X130822342Y-28583734D02*
X130869961Y-28536115D01*
X130869961Y-28536115D02*
X130917580Y-28440877D01*
X130917580Y-28440877D02*
X130917580Y-28202782D01*
X130917580Y-28202782D02*
X130869961Y-28059925D01*
X129917580Y-27631353D02*
X130917580Y-27631353D01*
X130441390Y-27631353D02*
X130441390Y-27059925D01*
X129917580Y-27059925D02*
X130917580Y-27059925D01*
X130917580Y-26583734D02*
X130108057Y-26583734D01*
X130108057Y-26583734D02*
X130012819Y-26536115D01*
X130012819Y-26536115D02*
X129965200Y-26488496D01*
X129965200Y-26488496D02*
X129917580Y-26393258D01*
X129917580Y-26393258D02*
X129917580Y-26202782D01*
X129917580Y-26202782D02*
X129965200Y-26107544D01*
X129965200Y-26107544D02*
X130012819Y-26059925D01*
X130012819Y-26059925D02*
X130108057Y-26012306D01*
X130108057Y-26012306D02*
X130917580Y-26012306D01*
X130917580Y-25678972D02*
X130917580Y-25107544D01*
X129917580Y-25393258D02*
X130917580Y-25393258D01*
X138537580Y-29678972D02*
X137537580Y-29345639D01*
X137537580Y-29345639D02*
X138537580Y-29012306D01*
X137632819Y-28107544D02*
X137585200Y-28155163D01*
X137585200Y-28155163D02*
X137537580Y-28298020D01*
X137537580Y-28298020D02*
X137537580Y-28393258D01*
X137537580Y-28393258D02*
X137585200Y-28536115D01*
X137585200Y-28536115D02*
X137680438Y-28631353D01*
X137680438Y-28631353D02*
X137775676Y-28678972D01*
X137775676Y-28678972D02*
X137966152Y-28726591D01*
X137966152Y-28726591D02*
X138109009Y-28726591D01*
X138109009Y-28726591D02*
X138299485Y-28678972D01*
X138299485Y-28678972D02*
X138394723Y-28631353D01*
X138394723Y-28631353D02*
X138489961Y-28536115D01*
X138489961Y-28536115D02*
X138537580Y-28393258D01*
X138537580Y-28393258D02*
X138537580Y-28298020D01*
X138537580Y-28298020D02*
X138489961Y-28155163D01*
X138489961Y-28155163D02*
X138442342Y-28107544D01*
X137632819Y-27107544D02*
X137585200Y-27155163D01*
X137585200Y-27155163D02*
X137537580Y-27298020D01*
X137537580Y-27298020D02*
X137537580Y-27393258D01*
X137537580Y-27393258D02*
X137585200Y-27536115D01*
X137585200Y-27536115D02*
X137680438Y-27631353D01*
X137680438Y-27631353D02*
X137775676Y-27678972D01*
X137775676Y-27678972D02*
X137966152Y-27726591D01*
X137966152Y-27726591D02*
X138109009Y-27726591D01*
X138109009Y-27726591D02*
X138299485Y-27678972D01*
X138299485Y-27678972D02*
X138394723Y-27631353D01*
X138394723Y-27631353D02*
X138489961Y-27536115D01*
X138489961Y-27536115D02*
X138537580Y-27393258D01*
X138537580Y-27393258D02*
X138537580Y-27298020D01*
X138537580Y-27298020D02*
X138489961Y-27155163D01*
X138489961Y-27155163D02*
X138442342Y-27107544D01*
X141029961Y-29012306D02*
X141077580Y-29107544D01*
X141077580Y-29107544D02*
X141077580Y-29250401D01*
X141077580Y-29250401D02*
X141029961Y-29393258D01*
X141029961Y-29393258D02*
X140934723Y-29488496D01*
X140934723Y-29488496D02*
X140839485Y-29536115D01*
X140839485Y-29536115D02*
X140649009Y-29583734D01*
X140649009Y-29583734D02*
X140506152Y-29583734D01*
X140506152Y-29583734D02*
X140315676Y-29536115D01*
X140315676Y-29536115D02*
X140220438Y-29488496D01*
X140220438Y-29488496D02*
X140125200Y-29393258D01*
X140125200Y-29393258D02*
X140077580Y-29250401D01*
X140077580Y-29250401D02*
X140077580Y-29155163D01*
X140077580Y-29155163D02*
X140125200Y-29012306D01*
X140125200Y-29012306D02*
X140172819Y-28964687D01*
X140172819Y-28964687D02*
X140506152Y-28964687D01*
X140506152Y-28964687D02*
X140506152Y-29155163D01*
X140077580Y-28536115D02*
X141077580Y-28536115D01*
X141077580Y-28536115D02*
X140077580Y-27964687D01*
X140077580Y-27964687D02*
X141077580Y-27964687D01*
X140077580Y-27488496D02*
X141077580Y-27488496D01*
X141077580Y-27488496D02*
X141077580Y-27250401D01*
X141077580Y-27250401D02*
X141029961Y-27107544D01*
X141029961Y-27107544D02*
X140934723Y-27012306D01*
X140934723Y-27012306D02*
X140839485Y-26964687D01*
X140839485Y-26964687D02*
X140649009Y-26917068D01*
X140649009Y-26917068D02*
X140506152Y-26917068D01*
X140506152Y-26917068D02*
X140315676Y-26964687D01*
X140315676Y-26964687D02*
X140220438Y-27012306D01*
X140220438Y-27012306D02*
X140125200Y-27107544D01*
X140125200Y-27107544D02*
X140077580Y-27250401D01*
X140077580Y-27250401D02*
X140077580Y-27488496D01*
X135045200Y-29583734D02*
X134997580Y-29440877D01*
X134997580Y-29440877D02*
X134997580Y-29202782D01*
X134997580Y-29202782D02*
X135045200Y-29107544D01*
X135045200Y-29107544D02*
X135092819Y-29059925D01*
X135092819Y-29059925D02*
X135188057Y-29012306D01*
X135188057Y-29012306D02*
X135283295Y-29012306D01*
X135283295Y-29012306D02*
X135378533Y-29059925D01*
X135378533Y-29059925D02*
X135426152Y-29107544D01*
X135426152Y-29107544D02*
X135473771Y-29202782D01*
X135473771Y-29202782D02*
X135521390Y-29393258D01*
X135521390Y-29393258D02*
X135569009Y-29488496D01*
X135569009Y-29488496D02*
X135616628Y-29536115D01*
X135616628Y-29536115D02*
X135711866Y-29583734D01*
X135711866Y-29583734D02*
X135807104Y-29583734D01*
X135807104Y-29583734D02*
X135902342Y-29536115D01*
X135902342Y-29536115D02*
X135949961Y-29488496D01*
X135949961Y-29488496D02*
X135997580Y-29393258D01*
X135997580Y-29393258D02*
X135997580Y-29155163D01*
X135997580Y-29155163D02*
X135949961Y-29012306D01*
X134997580Y-28583734D02*
X135997580Y-28583734D01*
X135997580Y-28583734D02*
X135997580Y-28345639D01*
X135997580Y-28345639D02*
X135949961Y-28202782D01*
X135949961Y-28202782D02*
X135854723Y-28107544D01*
X135854723Y-28107544D02*
X135759485Y-28059925D01*
X135759485Y-28059925D02*
X135569009Y-28012306D01*
X135569009Y-28012306D02*
X135426152Y-28012306D01*
X135426152Y-28012306D02*
X135235676Y-28059925D01*
X135235676Y-28059925D02*
X135140438Y-28107544D01*
X135140438Y-28107544D02*
X135045200Y-28202782D01*
X135045200Y-28202782D02*
X134997580Y-28345639D01*
X134997580Y-28345639D02*
X134997580Y-28583734D01*
X135283295Y-27631353D02*
X135283295Y-27155163D01*
X134997580Y-27726591D02*
X135997580Y-27393258D01*
X135997580Y-27393258D02*
X134997580Y-27059925D01*
D12*
%TO.C,ACC1*%
X123190000Y-65130000D02*
X145190000Y-65130000D01*
X123190000Y-81280000D02*
X123190000Y-65130000D01*
D13*
X131572000Y-68588000D02*
X135636000Y-68588000D01*
X131572000Y-72652000D02*
X131572000Y-68588000D01*
D14*
X132080000Y-72017000D02*
X132207000Y-71382000D01*
X132080000Y-72017000D02*
X132715000Y-71890000D01*
X133350000Y-68969000D02*
X132969000Y-69477000D01*
X133350000Y-70747000D02*
X132080000Y-72017000D01*
X133350000Y-70747000D02*
X133350000Y-68969000D01*
X133350000Y-70747000D02*
X135255000Y-70747000D01*
X133731000Y-69477000D02*
X133350000Y-68969000D01*
X134747000Y-70366000D02*
X135255000Y-70747000D01*
X135255000Y-70747000D02*
X134747000Y-71128000D01*
D13*
X135636000Y-68588000D02*
X135636000Y-72652000D01*
X135636000Y-72652000D02*
X131572000Y-72652000D01*
D12*
X145190000Y-65130000D02*
X145190000Y-81280000D01*
X145190000Y-81280000D02*
X123190000Y-81280000D01*
D13*
X126828430Y-67572000D02*
G75*
G02*
X123615570Y-67572000I-1606430J0D01*
G01*
X123615570Y-67572000D02*
G75*
G02*
X126828430Y-67572000I1606430J0D01*
G01*
D14*
X133529603Y-70747000D02*
G75*
G02*
X133170397Y-70747000I-179603J0D01*
G01*
X133170397Y-70747000D02*
G75*
G02*
X133529603Y-70747000I179603J0D01*
G01*
D13*
X143592430Y-67572000D02*
G75*
G02*
X140379570Y-67572000I-1606430J0D01*
G01*
X140379570Y-67572000D02*
G75*
G02*
X143592430Y-67572000I1606430J0D01*
G01*
D11*
%TO.C,U8*%
X81656000Y-26428000D02*
X83434000Y-26428000D01*
X81656000Y-56400000D02*
X83434000Y-56400000D01*
X83434000Y-32524000D02*
X85974000Y-32520000D01*
X85974000Y-50300000D02*
X83434000Y-50304000D01*
X81656000Y-19062000D02*
X83434000Y-19062000D01*
X83434000Y-63512000D01*
X81656000Y-63512000D01*
X81656000Y-19062000D01*
D10*
X95626000Y-32520000D02*
X85974000Y-32520000D01*
X85974000Y-50300000D01*
X95626000Y-50300000D01*
X95626000Y-32520000D01*
D11*
%TO.C,REF\u002A\u002A*%
X145265774Y-44032500D02*
X122758200Y-44032500D01*
X129263774Y-44032500D02*
G75*
G02*
X122758200Y-44032500I-3252787J0D01*
G01*
X122758200Y-44032500D02*
G75*
G02*
X129263774Y-44032500I3252787J0D01*
G01*
X142012987Y-44032500D02*
G75*
G02*
X126010987Y-44032500I-8001000J0D01*
G01*
X126010987Y-44032500D02*
G75*
G02*
X142012987Y-44032500I8001000J0D01*
G01*
X145265774Y-44032500D02*
G75*
G02*
X138760200Y-44032500I-3252787J0D01*
G01*
X138760200Y-44032500D02*
G75*
G02*
X145265774Y-44032500I3252787J0D01*
G01*
%TO.C,U6*%
X182250000Y-32512000D02*
X184790000Y-32508000D01*
X184790000Y-50288000D02*
X182250000Y-50292000D01*
X186568000Y-26412000D02*
X184790000Y-26412000D01*
X186568000Y-56384000D02*
X184790000Y-56384000D01*
D10*
X172598000Y-50292000D02*
X182250000Y-50292000D01*
X182250000Y-32512000D01*
X172598000Y-32512000D01*
X172598000Y-50292000D01*
D11*
X186568000Y-63750000D02*
X184790000Y-63750000D01*
X184790000Y-19300000D01*
X186568000Y-19300000D01*
X186568000Y-63750000D01*
%TO.C,U7*%
X119122000Y-19426000D02*
X119122000Y-21204000D01*
X125222000Y-23744000D02*
X125218000Y-21204000D01*
X142998000Y-21204000D02*
X143002000Y-23744000D01*
X149094000Y-19426000D02*
X149094000Y-21204000D01*
D10*
X143002000Y-33396000D02*
X125222000Y-33396000D01*
X125222000Y-23744000D01*
X143002000Y-23744000D01*
X143002000Y-33396000D01*
D11*
X156460000Y-19426000D02*
X112010000Y-19426000D01*
X112010000Y-21204000D01*
X156460000Y-21204000D01*
X156460000Y-19426000D01*
D15*
%TO.C,G\u002A\u002A\u002A*%
G36*
X136554685Y-104318667D02*
G01*
X136623181Y-104323623D01*
X136627566Y-104625812D01*
X136631951Y-104928001D01*
X136559070Y-104928001D01*
X136486189Y-104928001D01*
X136486189Y-104620856D01*
X136486189Y-104313711D01*
X136554685Y-104318667D01*
G37*
G36*
X129801766Y-104318667D02*
G01*
X129870262Y-104323623D01*
X129874687Y-104605100D01*
X129875584Y-104681687D01*
X129875791Y-104766547D01*
X129875080Y-104836220D01*
X129873515Y-104885028D01*
X129871164Y-104907289D01*
X129869371Y-104910383D01*
X129843758Y-104923119D01*
X129798243Y-104928001D01*
X129733270Y-104928001D01*
X129733270Y-104620856D01*
X129733270Y-104313711D01*
X129801766Y-104318667D01*
G37*
G36*
X131864710Y-104318667D02*
G01*
X131933206Y-104323623D01*
X131937631Y-104605100D01*
X131938528Y-104681687D01*
X131938736Y-104766547D01*
X131938024Y-104836220D01*
X131936459Y-104885028D01*
X131934108Y-104907289D01*
X131932315Y-104910383D01*
X131906702Y-104923119D01*
X131861187Y-104928001D01*
X131796214Y-104928001D01*
X131796214Y-104620856D01*
X131796214Y-104313711D01*
X131864710Y-104318667D01*
G37*
G36*
X129390789Y-104319185D02*
G01*
X129644628Y-104323623D01*
X129644628Y-104380032D01*
X129644628Y-104436440D01*
X129551956Y-104441274D01*
X129459285Y-104446107D01*
X129459285Y-104687981D01*
X129459285Y-104929855D01*
X129390789Y-104924899D01*
X129322293Y-104919943D01*
X129317833Y-104682221D01*
X129313373Y-104444499D01*
X129225161Y-104444499D01*
X129136950Y-104444499D01*
X129136950Y-104379623D01*
X129136950Y-104314746D01*
X129390789Y-104319185D01*
G37*
G36*
X136949545Y-104319185D02*
G01*
X137203384Y-104323623D01*
X137203384Y-104380032D01*
X137203384Y-104436440D01*
X137110713Y-104441274D01*
X137018041Y-104446107D01*
X137018041Y-104687981D01*
X137018041Y-104929855D01*
X136949545Y-104924899D01*
X136881049Y-104919943D01*
X136876589Y-104682221D01*
X136872129Y-104444499D01*
X136783918Y-104444499D01*
X136695706Y-104444499D01*
X136695706Y-104379623D01*
X136695706Y-104314746D01*
X136949545Y-104319185D01*
G37*
G36*
X133762458Y-104476732D02*
G01*
X133762985Y-104523675D01*
X133765451Y-104582332D01*
X133769475Y-104622274D01*
X133774545Y-104636744D01*
X133775250Y-104636513D01*
X133791235Y-104621375D01*
X133822184Y-104586096D01*
X133863949Y-104535551D01*
X133912386Y-104474618D01*
X133951122Y-104425359D01*
X133992966Y-104374262D01*
X134023174Y-104342061D01*
X134046314Y-104324737D01*
X134066957Y-104318268D01*
X134089670Y-104318636D01*
X134141201Y-104323623D01*
X134145586Y-104625812D01*
X134149971Y-104928001D01*
X134077618Y-104928001D01*
X134005265Y-104928001D01*
X134000708Y-104751362D01*
X133996151Y-104574722D01*
X133860069Y-104751362D01*
X133839201Y-104778337D01*
X133788159Y-104842557D01*
X133750573Y-104885755D01*
X133722464Y-104911810D01*
X133699852Y-104924600D01*
X133678755Y-104928001D01*
X133633524Y-104928001D01*
X133633524Y-104621783D01*
X133633524Y-104315565D01*
X133697991Y-104315565D01*
X133762458Y-104315565D01*
X133762458Y-104476732D01*
G37*
G36*
X130042312Y-104318608D02*
G01*
X130112014Y-104323623D01*
X130120072Y-104538648D01*
X130123632Y-104625536D01*
X130127456Y-104686719D01*
X130132664Y-104727449D01*
X130140403Y-104753628D01*
X130151816Y-104771159D01*
X130168050Y-104785944D01*
X130210802Y-104808883D01*
X130263634Y-104809182D01*
X130278617Y-104806552D01*
X130314132Y-104796565D01*
X130339281Y-104779212D01*
X130356150Y-104749518D01*
X130366826Y-104702510D01*
X130373394Y-104633216D01*
X130377940Y-104536661D01*
X130385998Y-104323623D01*
X130454494Y-104318667D01*
X130522991Y-104313711D01*
X130522991Y-104520741D01*
X130521067Y-104620930D01*
X130512812Y-104713273D01*
X130496274Y-104783162D01*
X130469550Y-104835687D01*
X130430739Y-104875938D01*
X130377940Y-104909005D01*
X130332498Y-104929351D01*
X130281220Y-104940058D01*
X130217721Y-104938056D01*
X130143666Y-104923667D01*
X130075409Y-104887568D01*
X130016309Y-104825158D01*
X130006861Y-104811137D01*
X129996195Y-104787491D01*
X129988775Y-104755156D01*
X129983786Y-104708245D01*
X129980415Y-104640874D01*
X129977845Y-104547155D01*
X129972611Y-104313594D01*
X130042312Y-104318608D01*
G37*
G36*
X130879772Y-104313170D02*
G01*
X130969535Y-104344470D01*
X131018590Y-104377684D01*
X131077256Y-104446521D01*
X131114143Y-104531504D01*
X131126790Y-104626112D01*
X131112735Y-104723825D01*
X131083949Y-104793527D01*
X131025034Y-104866663D01*
X130942026Y-104918423D01*
X130923707Y-104925535D01*
X130832833Y-104942709D01*
X130737506Y-104936399D01*
X130651535Y-104907140D01*
X130628167Y-104894063D01*
X130592674Y-104870686D01*
X130576434Y-104854639D01*
X130576098Y-104852183D01*
X130586043Y-104828459D01*
X130610941Y-104796322D01*
X130650623Y-104753528D01*
X130711090Y-104784356D01*
X130779392Y-104810037D01*
X130842436Y-104810125D01*
X130906165Y-104782883D01*
X130948003Y-104746060D01*
X130979316Y-104687761D01*
X130989803Y-104622032D01*
X130979665Y-104557046D01*
X130949102Y-104500974D01*
X130898312Y-104461989D01*
X130880221Y-104455164D01*
X130817271Y-104445324D01*
X130752840Y-104450745D01*
X130702211Y-104470743D01*
X130690331Y-104478772D01*
X130668802Y-104487138D01*
X130647769Y-104477927D01*
X130615941Y-104448187D01*
X130567140Y-104399386D01*
X130636560Y-104353446D01*
X130693690Y-104325154D01*
X130784548Y-104306819D01*
X130879772Y-104313170D01*
G37*
G36*
X132364106Y-104328853D02*
G01*
X132439752Y-104375138D01*
X132499524Y-104442274D01*
X132538897Y-104527683D01*
X132553347Y-104628782D01*
X132552986Y-104646256D01*
X132534797Y-104741366D01*
X132491941Y-104823772D01*
X132428248Y-104887903D01*
X132347546Y-104928188D01*
X132293115Y-104938971D01*
X132210610Y-104939699D01*
X132129316Y-104925586D01*
X132059157Y-104898613D01*
X132010056Y-104860763D01*
X132001653Y-104845939D01*
X132007167Y-104824575D01*
X132035368Y-104793497D01*
X132080532Y-104750227D01*
X132144323Y-104785169D01*
X132158124Y-104792161D01*
X132232063Y-104811151D01*
X132302593Y-104799545D01*
X132364787Y-104757952D01*
X132386200Y-104731044D01*
X132411042Y-104666724D01*
X132412843Y-104596309D01*
X132392151Y-104529867D01*
X132349513Y-104477465D01*
X132305037Y-104455496D01*
X132240105Y-104444681D01*
X132173934Y-104449500D01*
X132120979Y-104470397D01*
X132094728Y-104485828D01*
X132073606Y-104483327D01*
X132044868Y-104459530D01*
X132021826Y-104435462D01*
X132008651Y-104406381D01*
X132023300Y-104380616D01*
X132067161Y-104351442D01*
X132087169Y-104340924D01*
X132183291Y-104309166D01*
X132277111Y-104306003D01*
X132364106Y-104328853D01*
G37*
G36*
X133536823Y-104621783D02*
G01*
X133536823Y-104928001D01*
X133379071Y-104928001D01*
X133346728Y-104927614D01*
X133238650Y-104918317D01*
X133154873Y-104895321D01*
X133090780Y-104856892D01*
X133041756Y-104801295D01*
X133041239Y-104800515D01*
X133003486Y-104715777D01*
X132991064Y-104621121D01*
X132991750Y-104616086D01*
X133134498Y-104616086D01*
X133138381Y-104675708D01*
X133151318Y-104720908D01*
X133152971Y-104723717D01*
X133181684Y-104752128D01*
X133223326Y-104776257D01*
X133269823Y-104790341D01*
X133323283Y-104798068D01*
X133369663Y-104797668D01*
X133397145Y-104788323D01*
X133400387Y-104777284D01*
X133404260Y-104739194D01*
X133406908Y-104681345D01*
X133407889Y-104611039D01*
X133407889Y-104444499D01*
X133334563Y-104444499D01*
X133322143Y-104444750D01*
X133248403Y-104456944D01*
X133188244Y-104484698D01*
X133150499Y-104524190D01*
X133139736Y-104558236D01*
X133134498Y-104616086D01*
X132991750Y-104616086D01*
X133003964Y-104526447D01*
X133042174Y-104441650D01*
X133052961Y-104426468D01*
X133105293Y-104375394D01*
X133174056Y-104341021D01*
X133263799Y-104321645D01*
X133379071Y-104315565D01*
X133536823Y-104315565D01*
X133536823Y-104611039D01*
X133536823Y-104621783D01*
G37*
G36*
X136214515Y-104327600D02*
G01*
X136294581Y-104375955D01*
X136334093Y-104416147D01*
X136379809Y-104493491D01*
X136402161Y-104579385D01*
X136402177Y-104667860D01*
X136380885Y-104752947D01*
X136339315Y-104828677D01*
X136278494Y-104889080D01*
X136199450Y-104928188D01*
X136145018Y-104938971D01*
X136062514Y-104939699D01*
X135981220Y-104925586D01*
X135911060Y-104898613D01*
X135861959Y-104860763D01*
X135853556Y-104845939D01*
X135859071Y-104824575D01*
X135887272Y-104793497D01*
X135932436Y-104750227D01*
X135996226Y-104785169D01*
X136044927Y-104804494D01*
X136114049Y-104808639D01*
X136176239Y-104788245D01*
X136226451Y-104747860D01*
X136259640Y-104692029D01*
X136270762Y-104625298D01*
X136254769Y-104552213D01*
X136253318Y-104548853D01*
X136226261Y-104503927D01*
X136194204Y-104470780D01*
X136148797Y-104452262D01*
X136085520Y-104445186D01*
X136021747Y-104451337D01*
X135972422Y-104470720D01*
X135966398Y-104474890D01*
X135942257Y-104487139D01*
X135921784Y-104480970D01*
X135892281Y-104453687D01*
X135849577Y-104410432D01*
X135893925Y-104371807D01*
X135947181Y-104335846D01*
X136032987Y-104307465D01*
X136124708Y-104304743D01*
X136214515Y-104327600D01*
G37*
G36*
X139116736Y-104707438D02*
G01*
X139082397Y-104790708D01*
X139024709Y-104861435D01*
X138944660Y-104913824D01*
X138938559Y-104916508D01*
X138849085Y-104939561D01*
X138755024Y-104938117D01*
X138666173Y-104913478D01*
X138592329Y-104866949D01*
X138586616Y-104861585D01*
X138537528Y-104793236D01*
X138508070Y-104708279D01*
X138499870Y-104622668D01*
X138630550Y-104622668D01*
X138640312Y-104688484D01*
X138671869Y-104746998D01*
X138725890Y-104790736D01*
X138748278Y-104800804D01*
X138819207Y-104813578D01*
X138883535Y-104798622D01*
X138935999Y-104759377D01*
X138971336Y-104699284D01*
X138984285Y-104621783D01*
X138977262Y-104563464D01*
X138947029Y-104498510D01*
X138897170Y-104454373D01*
X138832302Y-104434684D01*
X138757045Y-104443076D01*
X138725333Y-104456131D01*
X138673730Y-104499018D01*
X138641912Y-104557022D01*
X138630550Y-104622668D01*
X138499870Y-104622668D01*
X138499191Y-104615583D01*
X138511838Y-104524021D01*
X138546959Y-104442464D01*
X138552329Y-104434300D01*
X138616092Y-104366929D01*
X138695336Y-104323006D01*
X138783367Y-104303187D01*
X138873490Y-104308126D01*
X138959011Y-104338479D01*
X139033237Y-104394899D01*
X139069770Y-104440294D01*
X139111412Y-104526438D01*
X139126737Y-104617417D01*
X139126252Y-104621783D01*
X139116736Y-104707438D01*
G37*
G36*
X134789693Y-104708164D02*
G01*
X134823759Y-104786519D01*
X134850604Y-104849851D01*
X134868198Y-104893381D01*
X134874514Y-104912332D01*
X134871865Y-104916608D01*
X134847180Y-104924764D01*
X134804973Y-104928001D01*
X134792380Y-104927917D01*
X134752443Y-104923597D01*
X134728719Y-104907163D01*
X134708234Y-104870966D01*
X134681036Y-104813930D01*
X134540053Y-104818586D01*
X134399069Y-104823242D01*
X134376015Y-104875622D01*
X134372446Y-104883553D01*
X134354302Y-104912891D01*
X134328710Y-104925385D01*
X134283344Y-104928001D01*
X134273157Y-104927873D01*
X134229089Y-104922013D01*
X134214266Y-104907855D01*
X134214296Y-104907448D01*
X134221495Y-104885551D01*
X134239890Y-104839513D01*
X134267411Y-104774245D01*
X134301990Y-104694658D01*
X134305728Y-104686250D01*
X134455884Y-104686250D01*
X134543117Y-104686250D01*
X134630349Y-104686250D01*
X134588611Y-104589516D01*
X134567204Y-104542055D01*
X134550271Y-104508619D01*
X134542007Y-104497648D01*
X134535023Y-104510580D01*
X134518445Y-104545699D01*
X134496513Y-104594382D01*
X134455884Y-104686250D01*
X134305728Y-104686250D01*
X134341557Y-104605666D01*
X134468309Y-104323623D01*
X134543117Y-104323623D01*
X134617925Y-104323623D01*
X134746219Y-104610143D01*
X134750434Y-104619565D01*
X134779983Y-104686250D01*
X134789693Y-104708164D01*
G37*
G36*
X137838854Y-104630771D02*
G01*
X137823608Y-104736544D01*
X137808575Y-104772795D01*
X137764999Y-104833732D01*
X137706641Y-104887363D01*
X137643490Y-104923331D01*
X137579357Y-104937464D01*
X137494262Y-104937169D01*
X137410128Y-104920893D01*
X137341255Y-104890204D01*
X137288672Y-104842020D01*
X137242780Y-104766363D01*
X137215800Y-104677988D01*
X137210762Y-104594354D01*
X137346587Y-104594354D01*
X137349184Y-104670133D01*
X137376413Y-104735784D01*
X137425867Y-104783661D01*
X137470637Y-104805087D01*
X137536925Y-104812368D01*
X137608189Y-104789667D01*
X137610276Y-104788615D01*
X137659538Y-104746776D01*
X137689057Y-104687400D01*
X137697709Y-104618989D01*
X137684370Y-104550046D01*
X137647917Y-104489074D01*
X137618238Y-104459724D01*
X137581481Y-104440980D01*
X137530362Y-104436440D01*
X137517657Y-104436698D01*
X137442358Y-104452420D01*
X137388054Y-104492573D01*
X137354609Y-104557251D01*
X137346587Y-104594354D01*
X137210762Y-104594354D01*
X137210235Y-104585606D01*
X137228585Y-104497927D01*
X137240175Y-104472799D01*
X137289525Y-104407641D01*
X137357308Y-104352573D01*
X137433882Y-104314392D01*
X137509602Y-104299892D01*
X137555629Y-104302452D01*
X137650561Y-104327971D01*
X137729241Y-104377584D01*
X137788779Y-104447270D01*
X137826280Y-104533006D01*
X137837339Y-104618989D01*
X137838854Y-104630771D01*
G37*
G36*
X134960787Y-96687907D02*
G01*
X134962692Y-96729322D01*
X134964472Y-96798238D01*
X134966101Y-96892114D01*
X134967552Y-97008406D01*
X134968800Y-97144573D01*
X134969816Y-97298073D01*
X134970575Y-97466363D01*
X134971050Y-97646900D01*
X134971214Y-97837142D01*
X134971214Y-98998060D01*
X134781842Y-98993519D01*
X134592470Y-98988978D01*
X134584412Y-98299287D01*
X134576354Y-97609595D01*
X133762458Y-98431422D01*
X133650618Y-98544205D01*
X133521858Y-98673677D01*
X133401059Y-98794741D01*
X133290056Y-98905580D01*
X133190682Y-99004376D01*
X133104771Y-99089310D01*
X133034158Y-99158565D01*
X132980677Y-99210324D01*
X132946161Y-99242768D01*
X132932445Y-99254079D01*
X132930547Y-99249656D01*
X132927469Y-99216734D01*
X132925049Y-99151812D01*
X132923287Y-99055036D01*
X132922184Y-98926555D01*
X132921741Y-98766516D01*
X132921960Y-98575068D01*
X132922842Y-98352357D01*
X132924387Y-98098531D01*
X132932445Y-96942151D01*
X133109729Y-96942151D01*
X133287014Y-96942151D01*
X133295072Y-97631212D01*
X133303130Y-98320273D01*
X134125025Y-97498249D01*
X134241301Y-97382076D01*
X134370644Y-97253147D01*
X134491853Y-97132640D01*
X134603101Y-97022357D01*
X134702560Y-96924099D01*
X134788403Y-96839667D01*
X134858803Y-96770863D01*
X134911932Y-96719487D01*
X134945962Y-96687340D01*
X134959067Y-96676225D01*
X134960787Y-96687907D01*
G37*
G36*
X139064869Y-97457887D02*
G01*
X139064869Y-99625590D01*
X138750592Y-99625590D01*
X138436316Y-99625590D01*
X138436316Y-97772068D01*
X138436316Y-95918547D01*
X137134888Y-95922671D01*
X135833460Y-95926796D01*
X135829180Y-96381993D01*
X135824900Y-96837191D01*
X137047501Y-96841321D01*
X138270101Y-96845451D01*
X135955842Y-99169998D01*
X133641582Y-101494545D01*
X133190345Y-101494839D01*
X132739108Y-101495133D01*
X134270167Y-99963711D01*
X134465154Y-99768685D01*
X134660397Y-99573413D01*
X134853909Y-99379886D01*
X135043774Y-99190016D01*
X135228079Y-99005717D01*
X135404910Y-98828904D01*
X135572352Y-98661490D01*
X135728491Y-98505389D01*
X135871412Y-98362515D01*
X135999202Y-98234783D01*
X136109947Y-98124105D01*
X136201731Y-98032396D01*
X136272642Y-97961570D01*
X136319897Y-97914319D01*
X136418114Y-97815672D01*
X136507766Y-97725040D01*
X136586468Y-97644870D01*
X136651834Y-97577612D01*
X136701478Y-97525713D01*
X136733014Y-97491622D01*
X136744057Y-97477788D01*
X136736010Y-97470298D01*
X136707794Y-97467842D01*
X136691128Y-97468332D01*
X136644145Y-97468801D01*
X136571107Y-97469124D01*
X136475418Y-97469298D01*
X136360479Y-97469321D01*
X136229693Y-97469189D01*
X136086462Y-97468900D01*
X135934190Y-97468452D01*
X135196849Y-97465945D01*
X135196849Y-96378065D01*
X135196849Y-95290184D01*
X137130859Y-95290184D01*
X139064869Y-95290184D01*
X139064869Y-97457887D01*
G37*
G36*
X135569654Y-104300609D02*
G01*
X135658280Y-104317630D01*
X135723326Y-104354137D01*
X135763386Y-104409072D01*
X135777052Y-104481378D01*
X135773229Y-104530255D01*
X135754036Y-104581291D01*
X135714986Y-104618983D01*
X135651993Y-104646871D01*
X135560969Y-104668493D01*
X135510980Y-104679182D01*
X135458663Y-104697510D01*
X135430740Y-104720872D01*
X135422483Y-104752123D01*
X135422580Y-104754962D01*
X135438539Y-104785070D01*
X135475876Y-104804594D01*
X135526022Y-104813026D01*
X135580405Y-104809856D01*
X135630455Y-104794576D01*
X135667602Y-104766677D01*
X135692049Y-104746222D01*
X135737116Y-104741116D01*
X135793168Y-104766130D01*
X135800301Y-104772604D01*
X135804323Y-104800264D01*
X135785465Y-104835864D01*
X135747715Y-104873647D01*
X135695057Y-104907855D01*
X135643439Y-104928795D01*
X135559585Y-104943326D01*
X135476005Y-104938231D01*
X135399978Y-104915106D01*
X135338782Y-104875548D01*
X135299696Y-104821153D01*
X135283112Y-104750306D01*
X135294393Y-104678656D01*
X135335009Y-104616952D01*
X135350381Y-104603360D01*
X135381961Y-104584282D01*
X135426695Y-104567533D01*
X135490855Y-104550955D01*
X135580710Y-104532390D01*
X135597325Y-104528377D01*
X135635563Y-104508096D01*
X135647200Y-104482062D01*
X135634342Y-104456169D01*
X135599093Y-104436311D01*
X135543559Y-104428382D01*
X135490192Y-104434596D01*
X135435413Y-104459663D01*
X135423930Y-104468583D01*
X135400517Y-104482004D01*
X135378179Y-104478766D01*
X135342668Y-104458727D01*
X135289690Y-104426509D01*
X135327882Y-104385622D01*
X135374996Y-104343853D01*
X135446732Y-104309929D01*
X135535018Y-104299448D01*
X135569654Y-104300609D01*
G37*
G36*
X131699514Y-104622710D02*
G01*
X131699514Y-104929855D01*
X131631017Y-104924899D01*
X131562521Y-104919943D01*
X131557688Y-104827272D01*
X131554644Y-104782339D01*
X131548489Y-104750705D01*
X131536291Y-104737349D01*
X131514473Y-104734600D01*
X131486989Y-104742883D01*
X131445960Y-104774268D01*
X131391985Y-104831301D01*
X131361065Y-104866411D01*
X131327108Y-104900979D01*
X131299581Y-104919379D01*
X131269958Y-104926693D01*
X131229711Y-104928001D01*
X131202926Y-104927342D01*
X131166021Y-104923428D01*
X131151544Y-104917164D01*
X131151900Y-104915736D01*
X131165129Y-104895542D01*
X131193620Y-104859277D01*
X131232128Y-104813678D01*
X131264655Y-104775890D01*
X131295882Y-104737195D01*
X131309196Y-104714945D01*
X131306912Y-104704786D01*
X131291346Y-104702367D01*
X131262137Y-104692365D01*
X131228495Y-104657619D01*
X131202237Y-104605959D01*
X131189921Y-104550613D01*
X131330770Y-104550613D01*
X131348168Y-104586326D01*
X131364666Y-104594349D01*
X131406775Y-104602506D01*
X131460986Y-104605666D01*
X131554463Y-104605666D01*
X131554463Y-104525083D01*
X131554463Y-104444499D01*
X131472819Y-104444499D01*
X131445348Y-104445362D01*
X131394130Y-104451357D01*
X131360002Y-104461183D01*
X131348006Y-104470830D01*
X131331191Y-104507089D01*
X131330770Y-104550613D01*
X131189921Y-104550613D01*
X131188840Y-104545754D01*
X131188119Y-104535735D01*
X131193523Y-104460562D01*
X131222588Y-104402103D01*
X131279067Y-104352311D01*
X131281486Y-104350692D01*
X131308620Y-104334982D01*
X131338267Y-104324763D01*
X131377854Y-104318887D01*
X131434807Y-104316204D01*
X131516554Y-104315565D01*
X131699514Y-104315565D01*
X131699514Y-104525083D01*
X131699514Y-104622710D01*
G37*
G36*
X138420199Y-104621783D02*
G01*
X138420199Y-104734600D01*
X138420199Y-104928001D01*
X138234339Y-104928001D01*
X138168113Y-104927282D01*
X138077931Y-104922062D01*
X138011968Y-104910406D01*
X137965322Y-104890689D01*
X137933088Y-104861285D01*
X137910365Y-104820568D01*
X137900546Y-104794506D01*
X137893603Y-104749356D01*
X137897581Y-104729401D01*
X138035326Y-104729401D01*
X138036072Y-104756843D01*
X138064571Y-104782384D01*
X138082849Y-104788641D01*
X138129393Y-104796141D01*
X138185446Y-104799067D01*
X138275148Y-104799067D01*
X138275148Y-104734600D01*
X138275148Y-104670133D01*
X138190092Y-104670133D01*
X138159502Y-104671523D01*
X138101051Y-104683154D01*
X138058322Y-104703642D01*
X138035326Y-104729401D01*
X137897581Y-104729401D01*
X137903789Y-104698260D01*
X137907780Y-104686243D01*
X137926720Y-104647288D01*
X137946353Y-104626998D01*
X137953217Y-104624124D01*
X137961989Y-104612964D01*
X137946706Y-104591587D01*
X137924160Y-104557504D01*
X137912634Y-104500744D01*
X138050699Y-104500744D01*
X138059668Y-104525566D01*
X138065260Y-104529521D01*
X138098076Y-104540559D01*
X138145837Y-104549240D01*
X138196969Y-104554275D01*
X138239901Y-104554373D01*
X138263060Y-104548244D01*
X138271299Y-104527250D01*
X138275148Y-104489394D01*
X138275148Y-104442961D01*
X138176094Y-104447759D01*
X138123958Y-104452130D01*
X138081503Y-104462626D01*
X138059610Y-104480318D01*
X138050699Y-104500744D01*
X137912634Y-104500744D01*
X137911114Y-104493260D01*
X137926885Y-104422033D01*
X137935361Y-104403985D01*
X137962310Y-104367740D01*
X138001583Y-104342431D01*
X138058086Y-104326402D01*
X138136722Y-104317998D01*
X138242397Y-104315565D01*
X138420199Y-104315565D01*
X138420199Y-104489394D01*
X138420199Y-104621783D01*
G37*
G36*
X139689788Y-104605100D02*
G01*
X139690685Y-104681687D01*
X139690893Y-104766547D01*
X139690181Y-104836220D01*
X139688617Y-104885028D01*
X139686265Y-104907289D01*
X139684473Y-104910383D01*
X139658860Y-104923119D01*
X139613344Y-104928001D01*
X139548371Y-104928001D01*
X139548371Y-104831301D01*
X139548367Y-104823440D01*
X139547316Y-104773194D01*
X139542073Y-104746696D01*
X139529285Y-104736360D01*
X139505594Y-104734600D01*
X139498160Y-104735057D01*
X139466434Y-104746893D01*
X139427235Y-104777673D01*
X139375308Y-104831301D01*
X139349280Y-104859749D01*
X139311935Y-104897130D01*
X139282862Y-104917623D01*
X139253835Y-104926242D01*
X139216626Y-104928001D01*
X139198262Y-104927472D01*
X139160078Y-104921396D01*
X139145453Y-104910223D01*
X139155059Y-104890724D01*
X139181162Y-104855205D01*
X139217978Y-104811780D01*
X139242498Y-104784149D01*
X139274771Y-104744263D01*
X139287168Y-104719518D01*
X139281533Y-104704742D01*
X139259712Y-104694766D01*
X139245062Y-104688308D01*
X139207956Y-104651699D01*
X139182958Y-104596425D01*
X139171980Y-104531587D01*
X139172474Y-104525083D01*
X139306620Y-104525083D01*
X139311161Y-104546673D01*
X139331946Y-104580340D01*
X139339734Y-104586601D01*
X139382389Y-104601010D01*
X139452822Y-104605666D01*
X139548371Y-104605666D01*
X139548371Y-104525083D01*
X139548371Y-104444499D01*
X139452822Y-104444499D01*
X139419447Y-104445523D01*
X139355509Y-104457463D01*
X139318528Y-104483637D01*
X139306620Y-104525083D01*
X139172474Y-104525083D01*
X139176936Y-104466287D01*
X139199742Y-104409625D01*
X139229313Y-104373664D01*
X139271827Y-104345005D01*
X139329371Y-104327419D01*
X139407477Y-104319301D01*
X139511674Y-104319044D01*
X139685364Y-104323623D01*
X139688530Y-104525083D01*
X139689788Y-104605100D01*
G37*
G36*
X128882979Y-104304447D02*
G01*
X128955628Y-104322622D01*
X129014937Y-104355771D01*
X129053190Y-104403673D01*
X129072005Y-104468500D01*
X129065784Y-104536241D01*
X129031527Y-104593197D01*
X128971294Y-104636168D01*
X128887140Y-104661953D01*
X128870489Y-104664836D01*
X128796823Y-104680429D01*
X128749912Y-104697233D01*
X128725146Y-104717465D01*
X128717915Y-104743342D01*
X128724122Y-104769949D01*
X128749089Y-104798500D01*
X128755900Y-104801850D01*
X128812113Y-104814645D01*
X128873531Y-104809794D01*
X128928282Y-104789613D01*
X128964496Y-104756423D01*
X128983379Y-104739643D01*
X129022139Y-104737717D01*
X129069160Y-104759873D01*
X129072790Y-104762425D01*
X129093787Y-104780598D01*
X129094792Y-104799495D01*
X129077300Y-104832448D01*
X129070237Y-104842768D01*
X129031946Y-104880733D01*
X128984366Y-104911921D01*
X128914986Y-104936200D01*
X128826908Y-104945073D01*
X128740565Y-104933670D01*
X128664637Y-104903295D01*
X128607803Y-104855255D01*
X128589879Y-104825531D01*
X128573261Y-104759528D01*
X128578593Y-104690786D01*
X128605983Y-104632376D01*
X128611795Y-104625883D01*
X128654256Y-104595914D01*
X128714144Y-104568664D01*
X128779441Y-104548852D01*
X128838129Y-104541199D01*
X128867897Y-104535412D01*
X128907786Y-104516071D01*
X128916249Y-104509834D01*
X128934019Y-104486995D01*
X128926922Y-104459662D01*
X128917718Y-104448421D01*
X128880123Y-104431446D01*
X128829122Y-104427534D01*
X128775983Y-104436720D01*
X128731973Y-104459042D01*
X128705891Y-104477359D01*
X128681187Y-104480157D01*
X128645574Y-104465050D01*
X128613855Y-104448675D01*
X128593456Y-104433558D01*
X128593588Y-104417424D01*
X128609766Y-104391002D01*
X128613282Y-104385896D01*
X128662140Y-104341971D01*
X128728519Y-104313901D01*
X128804704Y-104301467D01*
X128882979Y-104304447D01*
G37*
G36*
X136444718Y-103544755D02*
G01*
X136419085Y-103621525D01*
X136365333Y-103693976D01*
X136348010Y-103710044D01*
X136306684Y-103740725D01*
X136273313Y-103756133D01*
X136227836Y-103762853D01*
X136130536Y-103760092D01*
X136049277Y-103730168D01*
X135982429Y-103672612D01*
X135946867Y-103615935D01*
X135925612Y-103532812D01*
X135930773Y-103480007D01*
X136035398Y-103480007D01*
X136041329Y-103542920D01*
X136076644Y-103605191D01*
X136115394Y-103638623D01*
X136174311Y-103657324D01*
X136236043Y-103647031D01*
X136294027Y-103607667D01*
X136308137Y-103592135D01*
X136337632Y-103535023D01*
X136335070Y-103475697D01*
X136300410Y-103415448D01*
X136298621Y-103413348D01*
X136243037Y-103368775D01*
X136181321Y-103354661D01*
X136117157Y-103371879D01*
X136107330Y-103377333D01*
X136057761Y-103422721D01*
X136035398Y-103480007D01*
X135930773Y-103480007D01*
X135934012Y-103446861D01*
X135950419Y-103388852D01*
X134960046Y-102405730D01*
X133969672Y-101422608D01*
X134651757Y-100754049D01*
X134661326Y-100744670D01*
X134812752Y-100596213D01*
X134981239Y-100430979D01*
X135161238Y-100254412D01*
X135347199Y-100071959D01*
X135533573Y-99889064D01*
X135714810Y-99711173D01*
X135885362Y-99543731D01*
X136039677Y-99392184D01*
X136049838Y-99382205D01*
X136175244Y-99259453D01*
X136294224Y-99143705D01*
X136404716Y-99036920D01*
X136504660Y-98941056D01*
X136591996Y-98858073D01*
X136664663Y-98789929D01*
X136720600Y-98738582D01*
X136757748Y-98705992D01*
X136774045Y-98694116D01*
X136804352Y-98695231D01*
X136846584Y-98706087D01*
X136846745Y-98706148D01*
X136853666Y-98708280D01*
X136859850Y-98710244D01*
X136864186Y-98713178D01*
X136865561Y-98718220D01*
X136862863Y-98726510D01*
X136854981Y-98739186D01*
X136840801Y-98757387D01*
X136819212Y-98782251D01*
X136789102Y-98814917D01*
X136749358Y-98856525D01*
X136698869Y-98908211D01*
X136636523Y-98971116D01*
X136561207Y-99046378D01*
X136471810Y-99135136D01*
X136367218Y-99238528D01*
X136246321Y-99357693D01*
X136108007Y-99493770D01*
X135951162Y-99647897D01*
X135774675Y-99821213D01*
X135577434Y-100014857D01*
X135358327Y-100229968D01*
X135281654Y-100305279D01*
X135152572Y-100432176D01*
X135016622Y-100565939D01*
X134879781Y-100700682D01*
X134748027Y-100830517D01*
X134627336Y-100949560D01*
X134523686Y-101051923D01*
X134148666Y-101422608D01*
X135082579Y-102356172D01*
X136016491Y-103289736D01*
X136096226Y-103263984D01*
X136168355Y-103249611D01*
X136251309Y-103256228D01*
X136323324Y-103285974D01*
X136381535Y-103334274D01*
X136423080Y-103396555D01*
X136445095Y-103468240D01*
X136444766Y-103535023D01*
X136444718Y-103544755D01*
G37*
G36*
X131567962Y-95407147D02*
G01*
X131693650Y-95407924D01*
X131794745Y-95409474D01*
X131872743Y-95411806D01*
X131929142Y-95414929D01*
X131965440Y-95418852D01*
X132076892Y-95444446D01*
X132217195Y-95502878D01*
X132338502Y-95587053D01*
X132440056Y-95696270D01*
X132521100Y-95829831D01*
X132580876Y-95987037D01*
X132598671Y-96060288D01*
X132619265Y-96187413D01*
X132633530Y-96336151D01*
X132634059Y-96344974D01*
X132636005Y-96398797D01*
X132637710Y-96480625D01*
X132639180Y-96587720D01*
X132640420Y-96717344D01*
X132641434Y-96866759D01*
X132642229Y-97033226D01*
X132642809Y-97214008D01*
X132643179Y-97406366D01*
X132643344Y-97607562D01*
X132643309Y-97814858D01*
X132643081Y-98025517D01*
X132642662Y-98236799D01*
X132642060Y-98445968D01*
X132641279Y-98650284D01*
X132640323Y-98847010D01*
X132639199Y-99033407D01*
X132637910Y-99206738D01*
X132636463Y-99364264D01*
X132634863Y-99503247D01*
X132633114Y-99620950D01*
X132631222Y-99714633D01*
X132629191Y-99781560D01*
X132627028Y-99818991D01*
X132619898Y-99875443D01*
X132606353Y-99959295D01*
X132591090Y-100036567D01*
X132579374Y-100084123D01*
X132522408Y-100240940D01*
X132442240Y-100375388D01*
X132338832Y-100487509D01*
X132212145Y-100577349D01*
X132062140Y-100644952D01*
X132060176Y-100645547D01*
X132027965Y-100650306D01*
X131968753Y-100655217D01*
X131887168Y-100660039D01*
X131787840Y-100664529D01*
X131675395Y-100668444D01*
X131554463Y-100671543D01*
X131432616Y-100673645D01*
X131304532Y-100674919D01*
X131183537Y-100675224D01*
X131075913Y-100674573D01*
X130987942Y-100672976D01*
X130925909Y-100670444D01*
X130905347Y-100669233D01*
X130818756Y-100665421D01*
X130714592Y-100662281D01*
X130604173Y-100660110D01*
X130498816Y-100659207D01*
X130451029Y-100659120D01*
X130331248Y-100658873D01*
X130198360Y-100658569D01*
X130065403Y-100658239D01*
X129945414Y-100657913D01*
X129649880Y-100657062D01*
X129655559Y-100338756D01*
X129661239Y-100020451D01*
X130773047Y-100025805D01*
X131884856Y-100031160D01*
X131957013Y-99993572D01*
X132020160Y-99948802D01*
X132072970Y-99876541D01*
X132104303Y-99781032D01*
X132105842Y-99761426D01*
X132107579Y-99710495D01*
X132109239Y-99631450D01*
X132110805Y-99526508D01*
X132112260Y-99397886D01*
X132113587Y-99247800D01*
X132114769Y-99078469D01*
X132115789Y-98892108D01*
X132116629Y-98690936D01*
X132117272Y-98477169D01*
X132117702Y-98253024D01*
X132117901Y-98020718D01*
X132117993Y-97764037D01*
X132118044Y-97511303D01*
X132117952Y-97287311D01*
X132117623Y-97090237D01*
X132116965Y-96918251D01*
X132115884Y-96769529D01*
X132114287Y-96642242D01*
X132112080Y-96534564D01*
X132109169Y-96444669D01*
X132105462Y-96370728D01*
X132100865Y-96310917D01*
X132095285Y-96263407D01*
X132088628Y-96226372D01*
X132080802Y-96197984D01*
X132071712Y-96176419D01*
X132061265Y-96159847D01*
X132049368Y-96146443D01*
X132035928Y-96134380D01*
X132020851Y-96121830D01*
X132010465Y-96113212D01*
X131992361Y-96099544D01*
X131972648Y-96087837D01*
X131948969Y-96077968D01*
X131918968Y-96069813D01*
X131880291Y-96063249D01*
X131830581Y-96058152D01*
X131767484Y-96054399D01*
X131688643Y-96051866D01*
X131591704Y-96050430D01*
X131474311Y-96049968D01*
X131334108Y-96050355D01*
X131168740Y-96051470D01*
X130975852Y-96053187D01*
X130753087Y-96055384D01*
X129668803Y-96066276D01*
X129668443Y-95956244D01*
X129668027Y-95902175D01*
X129667023Y-95821858D01*
X129665600Y-95730581D01*
X129663919Y-95639490D01*
X129663685Y-95627136D01*
X129662965Y-95550741D01*
X129663581Y-95487935D01*
X129665405Y-95444928D01*
X129668308Y-95427931D01*
X129673697Y-95427438D01*
X129707087Y-95426311D01*
X129768629Y-95424942D01*
X129855668Y-95423369D01*
X129965551Y-95421633D01*
X130095624Y-95419771D01*
X130243234Y-95417823D01*
X130405726Y-95415828D01*
X130580446Y-95413824D01*
X130764742Y-95411851D01*
X130789319Y-95411599D01*
X131028359Y-95409369D01*
X131236814Y-95407879D01*
X131416183Y-95407135D01*
X131567962Y-95407147D01*
G37*
G36*
X138325078Y-103002050D02*
G01*
X138315581Y-103043134D01*
X138282166Y-103119142D01*
X138228935Y-103173714D01*
X138151310Y-103212392D01*
X138126587Y-103220808D01*
X138073328Y-103232953D01*
X138027191Y-103229663D01*
X137972661Y-103210798D01*
X137943186Y-103197022D01*
X137869711Y-103143527D01*
X137823800Y-103074384D01*
X137823038Y-103072551D01*
X137812584Y-103051717D01*
X137797731Y-103038295D01*
X137771532Y-103030004D01*
X137727040Y-103024560D01*
X137657307Y-103019680D01*
X137609269Y-103017404D01*
X137532332Y-103014816D01*
X137432439Y-103012104D01*
X137314312Y-103009377D01*
X137182673Y-103006743D01*
X137042244Y-103004311D01*
X136897747Y-103002190D01*
X136285892Y-102994045D01*
X136257187Y-102965535D01*
X137909772Y-102965535D01*
X137924307Y-103020826D01*
X137954823Y-103071734D01*
X137994640Y-103104575D01*
X138037983Y-103119065D01*
X138100138Y-103116622D01*
X138159182Y-103082810D01*
X138199773Y-103034808D01*
X138216830Y-102972093D01*
X138202522Y-102902621D01*
X138174423Y-102856677D01*
X138126863Y-102826160D01*
X138057899Y-102816707D01*
X138051755Y-102816856D01*
X137990840Y-102834461D01*
X137941154Y-102876230D01*
X137911772Y-102934829D01*
X137909772Y-102965535D01*
X136257187Y-102965535D01*
X136212785Y-102921434D01*
X136207003Y-102915697D01*
X136175598Y-102884591D01*
X136124145Y-102833664D01*
X136054780Y-102765033D01*
X135969642Y-102680812D01*
X135870870Y-102583115D01*
X135760600Y-102474058D01*
X135640972Y-102355755D01*
X135514123Y-102230322D01*
X135382191Y-102099872D01*
X134624704Y-101350921D01*
X134753519Y-101225597D01*
X134787020Y-101192909D01*
X134841801Y-101139328D01*
X134914749Y-101067903D01*
X135003411Y-100981037D01*
X135105335Y-100881132D01*
X135218070Y-100770592D01*
X135339164Y-100651820D01*
X135466165Y-100527220D01*
X135596621Y-100399194D01*
X135613657Y-100382480D01*
X135739548Y-100259373D01*
X135858896Y-100143359D01*
X135969654Y-100036384D01*
X136069776Y-99940396D01*
X136157213Y-99857339D01*
X136229918Y-99789160D01*
X136285843Y-99737806D01*
X136322943Y-99705222D01*
X136339168Y-99693355D01*
X136369152Y-99694436D01*
X136411221Y-99705245D01*
X136415671Y-99707006D01*
X136424113Y-99711858D01*
X136427709Y-99719132D01*
X136424645Y-99730848D01*
X136413107Y-99749023D01*
X136391283Y-99775675D01*
X136357359Y-99812822D01*
X136309522Y-99862483D01*
X136245959Y-99926676D01*
X136164856Y-100007418D01*
X136064400Y-100106729D01*
X135942779Y-100226625D01*
X135916670Y-100252349D01*
X135793661Y-100373491D01*
X135666068Y-100499072D01*
X135538478Y-100624579D01*
X135415481Y-100745500D01*
X135301666Y-100857324D01*
X135201623Y-100955537D01*
X135119941Y-101035629D01*
X135117720Y-101037805D01*
X135036076Y-101118422D01*
X134962905Y-101191836D01*
X134901145Y-101255005D01*
X134853736Y-101304887D01*
X134823615Y-101338440D01*
X134813722Y-101352622D01*
X134816376Y-101355940D01*
X134837907Y-101378953D01*
X134879465Y-101421998D01*
X134939166Y-101483159D01*
X135015121Y-101560518D01*
X135105445Y-101652162D01*
X135208250Y-101756174D01*
X135321649Y-101870637D01*
X135443756Y-101993637D01*
X135572684Y-102123257D01*
X135581298Y-102131909D01*
X135729502Y-102280736D01*
X135856818Y-102408426D01*
X135965003Y-102516598D01*
X136055813Y-102606875D01*
X136131004Y-102680878D01*
X136192333Y-102740229D01*
X136241554Y-102786548D01*
X136280425Y-102821457D01*
X136310702Y-102846577D01*
X136334141Y-102863529D01*
X136352498Y-102873936D01*
X136367529Y-102879417D01*
X136380990Y-102881595D01*
X136394639Y-102882091D01*
X136400616Y-102882182D01*
X136447292Y-102883143D01*
X136516220Y-102884797D01*
X136599104Y-102886939D01*
X136687648Y-102889363D01*
X136745898Y-102890932D01*
X136845034Y-102893433D01*
X136963389Y-102896284D01*
X137093592Y-102899309D01*
X137228272Y-102902337D01*
X137360057Y-102905192D01*
X137806832Y-102914667D01*
X137817006Y-102874129D01*
X137823943Y-102856897D01*
X137855007Y-102813579D01*
X137900187Y-102768655D01*
X137949674Y-102731220D01*
X137993658Y-102710369D01*
X138004752Y-102708249D01*
X138053215Y-102705300D01*
X138108106Y-102708118D01*
X138110207Y-102708367D01*
X138185001Y-102732674D01*
X138249206Y-102781403D01*
X138297500Y-102847347D01*
X138324565Y-102923299D01*
X138324883Y-102972093D01*
X138325078Y-103002050D01*
G37*
G36*
X136729480Y-93986158D02*
G01*
X136737232Y-94002318D01*
X136755945Y-94018084D01*
X136790372Y-94036522D01*
X136845263Y-94060701D01*
X136925370Y-94093685D01*
X137003447Y-94125500D01*
X137236662Y-94220651D01*
X137486725Y-94322831D01*
X137744290Y-94428214D01*
X138000012Y-94532975D01*
X138244547Y-94633290D01*
X138468549Y-94725333D01*
X138490922Y-94734533D01*
X138622928Y-94788737D01*
X138757299Y-94843787D01*
X138887602Y-94897059D01*
X139007404Y-94945923D01*
X139110272Y-94987753D01*
X139189774Y-95019920D01*
X139435554Y-95118948D01*
X139435554Y-97014590D01*
X139435554Y-98910232D01*
X139792846Y-99529808D01*
X139840236Y-99612001D01*
X139914835Y-99741434D01*
X139984946Y-99863144D01*
X140048633Y-99973764D01*
X140103958Y-100069928D01*
X140148985Y-100148270D01*
X140181777Y-100205425D01*
X140200396Y-100238027D01*
X140250656Y-100326669D01*
X140346754Y-100334727D01*
X140362158Y-100336261D01*
X140453774Y-100358767D01*
X140522435Y-100402948D01*
X140569798Y-100469809D01*
X140594021Y-100553328D01*
X140592661Y-100588958D01*
X140590736Y-100639382D01*
X140561439Y-100719190D01*
X140508625Y-100786043D01*
X140434784Y-100833233D01*
X140383060Y-100844563D01*
X140314436Y-100843596D01*
X140247086Y-100830500D01*
X140195870Y-100806911D01*
X140190545Y-100802780D01*
X140151179Y-100764787D01*
X140115061Y-100720047D01*
X140088674Y-100657739D01*
X140082115Y-100586702D01*
X140193041Y-100586702D01*
X140193727Y-100609737D01*
X140204552Y-100659247D01*
X140232601Y-100698087D01*
X140274344Y-100727265D01*
X140333330Y-100737156D01*
X140395386Y-100729917D01*
X140441225Y-100704375D01*
X140476107Y-100655085D01*
X140477206Y-100652923D01*
X140493208Y-100588958D01*
X140477958Y-100527426D01*
X140432371Y-100472155D01*
X140424492Y-100465817D01*
X140364192Y-100436071D01*
X140303299Y-100438517D01*
X140242628Y-100473152D01*
X140213954Y-100501193D01*
X140197128Y-100535948D01*
X140193041Y-100586702D01*
X140082115Y-100586702D01*
X140081546Y-100580536D01*
X140094436Y-100501982D01*
X140126860Y-100433835D01*
X140128757Y-100431145D01*
X140151267Y-100388914D01*
X140148159Y-100362363D01*
X140145025Y-100357827D01*
X140127024Y-100328674D01*
X140096601Y-100277620D01*
X140056316Y-100209015D01*
X140008733Y-100127214D01*
X139956411Y-100036567D01*
X139920429Y-99974014D01*
X139853832Y-99858297D01*
X139778900Y-99728154D01*
X139700377Y-99591821D01*
X139623005Y-99457532D01*
X139551526Y-99333524D01*
X139322737Y-98936699D01*
X139322737Y-97067076D01*
X139322737Y-95197453D01*
X139246182Y-95164776D01*
X139224933Y-95155847D01*
X139171901Y-95133843D01*
X139094194Y-95101771D01*
X138994816Y-95060860D01*
X138876765Y-95012342D01*
X138743045Y-94957447D01*
X138596655Y-94897404D01*
X138440598Y-94833445D01*
X138277875Y-94766800D01*
X138111487Y-94698699D01*
X137944435Y-94630372D01*
X137779721Y-94563051D01*
X137620346Y-94497964D01*
X137469310Y-94436344D01*
X137462117Y-94433410D01*
X137339746Y-94383436D01*
X137218428Y-94333766D01*
X137103923Y-94286769D01*
X137001993Y-94244812D01*
X136918399Y-94210263D01*
X136858903Y-94185489D01*
X136691705Y-94115358D01*
X136629708Y-94165180D01*
X136627272Y-94167116D01*
X136550345Y-94209932D01*
X136469813Y-94224840D01*
X136391224Y-94214402D01*
X136320128Y-94181176D01*
X136262075Y-94127721D01*
X136222612Y-94056597D01*
X136207290Y-93970363D01*
X136207896Y-93965791D01*
X136313847Y-93965791D01*
X136324923Y-94025000D01*
X136354168Y-94070576D01*
X136397411Y-94099202D01*
X136446392Y-94116933D01*
X136486189Y-94118227D01*
X136489056Y-94117391D01*
X136559219Y-94084483D01*
X136604007Y-94037007D01*
X136621193Y-93978693D01*
X136608550Y-93913272D01*
X136603913Y-93903462D01*
X136566134Y-93856090D01*
X136514432Y-93821098D01*
X136461271Y-93807443D01*
X136447607Y-93808831D01*
X136399491Y-93828559D01*
X136353916Y-93864193D01*
X136324190Y-93906150D01*
X136323610Y-93907578D01*
X136313847Y-93965791D01*
X136207896Y-93965791D01*
X136218167Y-93888363D01*
X136258042Y-93809393D01*
X136325893Y-93745648D01*
X136341341Y-93735671D01*
X136377904Y-93718863D01*
X136420447Y-93712545D01*
X136481880Y-93714106D01*
X136506797Y-93715907D01*
X136559868Y-93723910D01*
X136597742Y-93739753D01*
X136632945Y-93767897D01*
X136671526Y-93811362D01*
X136713060Y-93887764D01*
X136727940Y-93966246D01*
X136727940Y-93966538D01*
X136728894Y-93978693D01*
X136729480Y-93986158D01*
G37*
G36*
X137831937Y-93989644D02*
G01*
X138242915Y-94157736D01*
X138306893Y-94183912D01*
X138437595Y-94237421D01*
X138586715Y-94298504D01*
X138747014Y-94364194D01*
X138911252Y-94431524D01*
X139072193Y-94497529D01*
X139222595Y-94559240D01*
X139237093Y-94565190D01*
X139365688Y-94617876D01*
X139486086Y-94667060D01*
X139594685Y-94711280D01*
X139687884Y-94749075D01*
X139762081Y-94778984D01*
X139813674Y-94799547D01*
X139839061Y-94809302D01*
X139886823Y-94825952D01*
X139886823Y-95959386D01*
X139886823Y-97092820D01*
X140136439Y-97251179D01*
X140386055Y-97409537D01*
X140386249Y-97823457D01*
X140386294Y-97887116D01*
X140386582Y-97999257D01*
X140387372Y-98084712D01*
X140388950Y-98147241D01*
X140391605Y-98190605D01*
X140395626Y-98218565D01*
X140401300Y-98234883D01*
X140408916Y-98243319D01*
X140418763Y-98247636D01*
X140438640Y-98256127D01*
X140489190Y-98290615D01*
X140537825Y-98337462D01*
X140572364Y-98385720D01*
X140592519Y-98447904D01*
X140592752Y-98498166D01*
X140592892Y-98528539D01*
X140570264Y-98607741D01*
X140527453Y-98676399D01*
X140467278Y-98725404D01*
X140456872Y-98730542D01*
X140378819Y-98751658D01*
X140293370Y-98751218D01*
X140215073Y-98729013D01*
X140212351Y-98727691D01*
X140153476Y-98681889D01*
X140110271Y-98615798D01*
X140085650Y-98538411D01*
X140083450Y-98482241D01*
X140193171Y-98482241D01*
X140200955Y-98547415D01*
X140229304Y-98601295D01*
X140276669Y-98637990D01*
X140334653Y-98652520D01*
X140392144Y-98642991D01*
X140442023Y-98612216D01*
X140477171Y-98563003D01*
X140490469Y-98498166D01*
X140481740Y-98439591D01*
X140449840Y-98392764D01*
X140390472Y-98357712D01*
X140363506Y-98347853D01*
X140326778Y-98344839D01*
X140282981Y-98358844D01*
X140277844Y-98361097D01*
X140236748Y-98386372D01*
X140210455Y-98414410D01*
X140207431Y-98420455D01*
X140193171Y-98482241D01*
X140083450Y-98482241D01*
X140082529Y-98458720D01*
X140103820Y-98385720D01*
X140116635Y-98364822D01*
X140158936Y-98315839D01*
X140209924Y-98273128D01*
X140257421Y-98247636D01*
X140258039Y-98247438D01*
X140268167Y-98242766D01*
X140275873Y-98233530D01*
X140281488Y-98215778D01*
X140285340Y-98185557D01*
X140287761Y-98138914D01*
X140289082Y-98071896D01*
X140289632Y-97980550D01*
X140289742Y-97860924D01*
X140289742Y-97484471D01*
X140124545Y-97376236D01*
X140059166Y-97333400D01*
X139998140Y-97293417D01*
X139950520Y-97262218D01*
X139923086Y-97244244D01*
X139886823Y-97220487D01*
X139886823Y-97931171D01*
X139886823Y-98641854D01*
X139926731Y-98651870D01*
X139940518Y-98656796D01*
X139986346Y-98688132D01*
X140032046Y-98736496D01*
X140069218Y-98791941D01*
X140089457Y-98844521D01*
X140090117Y-98894128D01*
X140090570Y-98928210D01*
X140064734Y-99010451D01*
X140015793Y-99080983D01*
X139947929Y-99131326D01*
X139892674Y-99150933D01*
X139806021Y-99153788D01*
X139715235Y-99124827D01*
X139667895Y-99094906D01*
X139609162Y-99028546D01*
X139574158Y-98944054D01*
X139569860Y-98908594D01*
X139575570Y-98870749D01*
X139678317Y-98870749D01*
X139684133Y-98933760D01*
X139719030Y-98995800D01*
X139760943Y-99030293D01*
X139821752Y-99048140D01*
X139884774Y-99039104D01*
X139941034Y-99002898D01*
X139975281Y-98951629D01*
X139984933Y-98894128D01*
X139971819Y-98838582D01*
X139940005Y-98790977D01*
X139893561Y-98757301D01*
X139836554Y-98743540D01*
X139773051Y-98755681D01*
X139747961Y-98768350D01*
X139700091Y-98813401D01*
X139678317Y-98870749D01*
X139575570Y-98870749D01*
X139581104Y-98834074D01*
X139614168Y-98761164D01*
X139663945Y-98699500D01*
X139725329Y-98658720D01*
X139774006Y-98638558D01*
X139774006Y-96773557D01*
X139774006Y-94908556D01*
X139729685Y-94888361D01*
X139723199Y-94885471D01*
X139693232Y-94872642D01*
X139643899Y-94851979D01*
X139574033Y-94823003D01*
X139482469Y-94785234D01*
X139368041Y-94738195D01*
X139229583Y-94681406D01*
X139065930Y-94614389D01*
X138875916Y-94536664D01*
X138658374Y-94447752D01*
X138412140Y-94347176D01*
X138384707Y-94335970D01*
X138256652Y-94283566D01*
X138138045Y-94234874D01*
X138032287Y-94191303D01*
X137942778Y-94154259D01*
X137872920Y-94125148D01*
X137826114Y-94105378D01*
X137805762Y-94096356D01*
X137780978Y-94092915D01*
X137749391Y-94115830D01*
X137728201Y-94136121D01*
X137657557Y-94176776D01*
X137575986Y-94194803D01*
X137493300Y-94188948D01*
X137419314Y-94157959D01*
X137373134Y-94116986D01*
X137328547Y-94050262D01*
X137302420Y-93975922D01*
X137300863Y-93931292D01*
X137404843Y-93931292D01*
X137417910Y-93993113D01*
X137453207Y-94046574D01*
X137503459Y-94079680D01*
X137531567Y-94089305D01*
X137559883Y-94095317D01*
X137585709Y-94090481D01*
X137625180Y-94074050D01*
X137663776Y-94051458D01*
X137699645Y-94003994D01*
X137711062Y-93936869D01*
X137705630Y-93896950D01*
X137677211Y-93841328D01*
X137630923Y-93801252D01*
X137574090Y-93782198D01*
X137514040Y-93789639D01*
X137496765Y-93797934D01*
X137451862Y-93834984D01*
X137418139Y-93883435D01*
X137404843Y-93931292D01*
X137300863Y-93931292D01*
X137299945Y-93904969D01*
X137308853Y-93866440D01*
X137347935Y-93785062D01*
X137408417Y-93725385D01*
X137486595Y-93690358D01*
X137578767Y-93682928D01*
X137590357Y-93684013D01*
X137677748Y-93708463D01*
X137747415Y-93758653D01*
X137796771Y-93832010D01*
X137823226Y-93925959D01*
X137824718Y-93936869D01*
X137831937Y-93989644D01*
G37*
G36*
X129659844Y-97788123D02*
G01*
X129710501Y-97832021D01*
X129773067Y-97885179D01*
X129824330Y-97927497D01*
X129860016Y-97955462D01*
X129875850Y-97965565D01*
X129893640Y-97959294D01*
X129931815Y-97941223D01*
X129981175Y-97915486D01*
X130027373Y-97891580D01*
X130063192Y-97875261D01*
X130078803Y-97871165D01*
X130088677Y-97887776D01*
X130109816Y-97927672D01*
X130139487Y-97985495D01*
X130175123Y-98056058D01*
X130214155Y-98134176D01*
X130254016Y-98214662D01*
X130292137Y-98292330D01*
X130325951Y-98361994D01*
X130352890Y-98418468D01*
X130370385Y-98456566D01*
X130375869Y-98471102D01*
X130365646Y-98477360D01*
X130333899Y-98495836D01*
X130289298Y-98521344D01*
X130170033Y-98595538D01*
X129986246Y-98738778D01*
X129823956Y-98903042D01*
X129684300Y-99085506D01*
X129568420Y-99283348D01*
X129477455Y-99493742D01*
X129412544Y-99713867D01*
X129374826Y-99940897D01*
X129365441Y-100172010D01*
X129385529Y-100404382D01*
X129436229Y-100635189D01*
X129475514Y-100755114D01*
X129569893Y-100968810D01*
X129688657Y-101164916D01*
X129829382Y-101342266D01*
X129989645Y-101499693D01*
X130167021Y-101636027D01*
X130359086Y-101750103D01*
X130563416Y-101840751D01*
X130777587Y-101906805D01*
X130999173Y-101947097D01*
X131225753Y-101960459D01*
X131454900Y-101945723D01*
X131684191Y-101901722D01*
X131911201Y-101827289D01*
X131913352Y-101826430D01*
X131967437Y-101805647D01*
X132009706Y-101790871D01*
X132031171Y-101785253D01*
X132038110Y-101792973D01*
X132057594Y-101824903D01*
X132086302Y-101876725D01*
X132121572Y-101943166D01*
X132160741Y-102018952D01*
X132201149Y-102098808D01*
X132240133Y-102177461D01*
X132275031Y-102249637D01*
X132303182Y-102310061D01*
X132321924Y-102353460D01*
X132328595Y-102374560D01*
X132319119Y-102386006D01*
X132286750Y-102406237D01*
X132239425Y-102428480D01*
X132210528Y-102441425D01*
X132166152Y-102468492D01*
X132150678Y-102491884D01*
X132150954Y-102500425D01*
X132153180Y-102538682D01*
X132157279Y-102599653D01*
X132162819Y-102677014D01*
X132169364Y-102764444D01*
X132172765Y-102810928D01*
X132177838Y-102890864D01*
X132180952Y-102955873D01*
X132181859Y-103000223D01*
X132180312Y-103018184D01*
X132179893Y-103018521D01*
X132159348Y-103026155D01*
X132115215Y-103039089D01*
X132054707Y-103055491D01*
X131985039Y-103073524D01*
X131913426Y-103091356D01*
X131847080Y-103107151D01*
X131793218Y-103119076D01*
X131759052Y-103125296D01*
X131743096Y-103126360D01*
X131728517Y-103122351D01*
X131714069Y-103109031D01*
X131697211Y-103082328D01*
X131675401Y-103038166D01*
X131646099Y-102972473D01*
X131606763Y-102881174D01*
X131579191Y-102816908D01*
X131547395Y-102742980D01*
X131522020Y-102684192D01*
X131505150Y-102645376D01*
X131498875Y-102631364D01*
X131495094Y-102631487D01*
X131466102Y-102632452D01*
X131413214Y-102634221D01*
X131342044Y-102636608D01*
X131258205Y-102639423D01*
X131018356Y-102647481D01*
X130926299Y-102882671D01*
X130908052Y-102929071D01*
X130877250Y-103006379D01*
X130851151Y-103070603D01*
X130832067Y-103116084D01*
X130822311Y-103137165D01*
X130812589Y-103145874D01*
X130783532Y-103148933D01*
X130774507Y-103146707D01*
X130734576Y-103138889D01*
X130684158Y-103130670D01*
X130676560Y-103129485D01*
X130621274Y-103119147D01*
X130550657Y-103104067D01*
X130478066Y-103087070D01*
X130344499Y-103054198D01*
X130353892Y-102826664D01*
X130354893Y-102803093D01*
X130358954Y-102718184D01*
X130363204Y-102643358D01*
X130367195Y-102585991D01*
X130370479Y-102553461D01*
X130371855Y-102543480D01*
X130369751Y-102517742D01*
X130351326Y-102499863D01*
X130309311Y-102481263D01*
X130292045Y-102474265D01*
X130237291Y-102450422D01*
X130169280Y-102419338D01*
X130098825Y-102385911D01*
X130060672Y-102367730D01*
X130003438Y-102341665D01*
X129960705Y-102323749D01*
X129939652Y-102317088D01*
X129927956Y-102323179D01*
X129896456Y-102347754D01*
X129851860Y-102386813D01*
X129799732Y-102435640D01*
X129765165Y-102468944D01*
X129689512Y-102541141D01*
X129632150Y-102594159D01*
X129589736Y-102630523D01*
X129558929Y-102652756D01*
X129536386Y-102663381D01*
X129518764Y-102664923D01*
X129502722Y-102659905D01*
X129479117Y-102646406D01*
X129433036Y-102615454D01*
X129375508Y-102574104D01*
X129313992Y-102527972D01*
X129255946Y-102482672D01*
X129208829Y-102443820D01*
X129180101Y-102417031D01*
X129175764Y-102412118D01*
X129166683Y-102398394D01*
X129164477Y-102381831D01*
X129170881Y-102357349D01*
X129187627Y-102319868D01*
X129216449Y-102264309D01*
X129259081Y-102185591D01*
X129270049Y-102165494D01*
X129310780Y-102091470D01*
X129346948Y-102026639D01*
X129374966Y-101977391D01*
X129391248Y-101950112D01*
X129400722Y-101932886D01*
X129402189Y-101914821D01*
X129391248Y-101891670D01*
X129364814Y-101857170D01*
X129319803Y-101805062D01*
X129307032Y-101790413D01*
X129259680Y-101734691D01*
X129210890Y-101675540D01*
X129166276Y-101619928D01*
X129131451Y-101574822D01*
X129112029Y-101547190D01*
X129102456Y-101548867D01*
X129066682Y-101558609D01*
X129009196Y-101575502D01*
X128935057Y-101598052D01*
X128849325Y-101624766D01*
X128782823Y-101645271D01*
X128703590Y-101668429D01*
X128638942Y-101685852D01*
X128594232Y-101696116D01*
X128574811Y-101697796D01*
X128560246Y-101679175D01*
X128536760Y-101638562D01*
X128507377Y-101582304D01*
X128475067Y-101516721D01*
X128442802Y-101448130D01*
X128413554Y-101382849D01*
X128390294Y-101327196D01*
X128375994Y-101287489D01*
X128373625Y-101270045D01*
X128384031Y-101261947D01*
X128418153Y-101236827D01*
X128471709Y-101198017D01*
X128540745Y-101148359D01*
X128621309Y-101090694D01*
X128709448Y-101027863D01*
X128801208Y-100962709D01*
X128803281Y-100946468D01*
X128796829Y-100907762D01*
X128782825Y-100855881D01*
X128764063Y-100789887D01*
X128743594Y-100708831D01*
X128726154Y-100631285D01*
X128722609Y-100614311D01*
X128710143Y-100557606D01*
X128700175Y-100516675D01*
X128694598Y-100499439D01*
X128685852Y-100497068D01*
X128649882Y-100490438D01*
X128591188Y-100480798D01*
X128515191Y-100469031D01*
X128427313Y-100456016D01*
X128380765Y-100449024D01*
X128291559Y-100434043D01*
X128220881Y-100419914D01*
X128173229Y-100407588D01*
X128153099Y-100398015D01*
X128151853Y-100394914D01*
X128147265Y-100364800D01*
X128143271Y-100310710D01*
X128140262Y-100239191D01*
X128138632Y-100156793D01*
X128138343Y-100125289D01*
X128137980Y-100046298D01*
X128139046Y-99992643D01*
X128142330Y-99959106D01*
X128148622Y-99940463D01*
X128158712Y-99931493D01*
X128173389Y-99926976D01*
X128175631Y-99926471D01*
X128208718Y-99920069D01*
X128265319Y-99909957D01*
X128338106Y-99897422D01*
X128419755Y-99883748D01*
X128514212Y-99867822D01*
X128589674Y-99853605D01*
X128641652Y-99840756D01*
X128674500Y-99827470D01*
X128692573Y-99811944D01*
X128700227Y-99792374D01*
X128701819Y-99766957D01*
X128703519Y-99744871D01*
X128711731Y-99691603D01*
X128725201Y-99622732D01*
X128742200Y-99547641D01*
X128754724Y-99493709D01*
X128767380Y-99432660D01*
X128774633Y-99388787D01*
X128775184Y-99369115D01*
X128767984Y-99362779D01*
X128737618Y-99340557D01*
X128688024Y-99306080D01*
X128623902Y-99262601D01*
X128549956Y-99213372D01*
X128486851Y-99171372D01*
X128421962Y-99126646D01*
X128378464Y-99093811D01*
X128352886Y-99069935D01*
X128341758Y-99052085D01*
X128341608Y-99037329D01*
X128345678Y-99025321D01*
X128362681Y-98983584D01*
X128387977Y-98926845D01*
X128418484Y-98861442D01*
X128451121Y-98793714D01*
X128482807Y-98730002D01*
X128510461Y-98676645D01*
X128531002Y-98639981D01*
X128541348Y-98626352D01*
X128560520Y-98630356D01*
X128601845Y-98641484D01*
X128655779Y-98657238D01*
X128657492Y-98657754D01*
X128726635Y-98677940D01*
X128809004Y-98701104D01*
X128887140Y-98722335D01*
X128904486Y-98726945D01*
X128965893Y-98743394D01*
X129014750Y-98756673D01*
X129041747Y-98764256D01*
X129050653Y-98763714D01*
X129077761Y-98744850D01*
X129118157Y-98700983D01*
X129173269Y-98630663D01*
X129206396Y-98586652D01*
X129253000Y-98525403D01*
X129292550Y-98474174D01*
X129318959Y-98440890D01*
X129358800Y-98392421D01*
X129224354Y-98166905D01*
X129193522Y-98114905D01*
X129152259Y-98044308D01*
X129119269Y-97986634D01*
X129097337Y-97946777D01*
X129089254Y-97929634D01*
X129091542Y-97923649D01*
X129113094Y-97897921D01*
X129153736Y-97858348D01*
X129209029Y-97808960D01*
X129274532Y-97753784D01*
X129345806Y-97696848D01*
X129456702Y-97610682D01*
X129659844Y-97788123D01*
G37*
%TD*%
M02*
